<svg width="1440" height="4108" viewBox="0 0 1440 4108" fill="none" xmlns="http://www.w3.org/2000/svg">
<rect width="1440" height="4108" fill="white"/>
<path d="M1307.72 557.305C1240.34 692.373 875.539 654.1 758.617 575.973C641.694 497.845 513.135 265.949 580.514 130.881C647.892 -4.18651 885.694 8.72114 1002.62 86.8488C1119.54 164.976 1375.1 422.237 1307.72 557.305Z" fill="#1A99D3"/>
<path d="M1417.44 716.974C1350 852.168 1141.72 1093.9 1024.88 1015.82C908.039 937.752 761.662 601.05 829.104 465.855C896.546 330.661 1099.72 241.269 1216.56 319.342C1333.4 397.415 1484.88 581.779 1417.44 716.974Z" fill="#6A76C6"/>
<ellipse opacity="0.8" cx="122" cy="2500.43" rx="242" ry="280.081" fill="#1A99D3"/>
<g filter="url(#filter0_b_555_439)">
<rect width="1440" height="4108" fill="url(#paint0_linear_555_439)"/>
<rect x="0.5" y="0.5" width="1439" height="4107" stroke="#00294B" stroke-opacity="0.1"/>
</g>
<defs>
<filter id="filter0_b_555_439" x="-144" y="-144" width="1728" height="4396" filterUnits="userSpaceOnUse" color-interpolation-filters="sRGB">
<feFlood flood-opacity="0" result="BackgroundImageFix"/>
<feGaussianBlur in="BackgroundImageFix" stdDeviation="72"/>
<feComposite in2="SourceAlpha" operator="in" result="effect1_backgroundBlur_555_439"/>
<feBlend mode="normal" in="SourceGraphic" in2="effect1_backgroundBlur_555_439" result="shape"/>
</filter>
<linearGradient id="paint0_linear_555_439" x1="14" y1="61.2767" x2="1851.12" y2="277.628" gradientUnits="userSpaceOnUse">
<stop stop-color="white"/>
<stop offset="1" stop-color="white" stop-opacity="0.46"/>
</linearGradient>
</defs>
</svg>
