<svg width="1440" height="1096" viewBox="0 0 1440 1096" fill="none" xmlns="http://www.w3.org/2000/svg">
<g clip-path="url(#clip0_560_440)">
<path d="M1440 0H0V4108H1440V0Z" fill="white"/>
<path d="M1307.72 557.305C1240.34 692.373 875.539 654.1 758.617 575.973C641.694 497.845 513.135 265.949 580.514 130.881C647.892 -4.18655 885.694 8.7211 1002.62 86.8488C1119.54 164.976 1375.1 422.237 1307.72 557.305Z" fill="#1A99D3"/>
<path d="M1417.44 716.974C1350 852.168 1141.72 1093.9 1024.88 1015.82C908.039 937.752 761.662 601.05 829.104 465.855C896.546 330.661 1099.72 241.269 1216.56 319.342C1333.4 397.415 1484.88 581.779 1417.44 716.974Z" fill="#6A76C6"/>
<path d="M1440 0H0V4108H1440V0Z" fill="url(#paint0_linear_560_440)"/>
<path d="M1439.5 0.5H0.5V4107.5H1439.5V0.5Z" stroke="#00294B" stroke-opacity="0.1"/>
</g>
<defs>
<linearGradient id="paint0_linear_560_440" x1="14" y1="61.2767" x2="1851.12" y2="277.628" gradientUnits="userSpaceOnUse">
<stop stop-color="white"/>
<stop offset="1" stop-color="white" stop-opacity="0.46"/>
</linearGradient>
<clipPath id="clip0_560_440">
<rect width="1440" height="1096" fill="white"/>
</clipPath>
</defs>
</svg>
