<svg width="297" height="55" viewBox="0 0 297 55" fill="none" xmlns="http://www.w3.org/2000/svg">
<path d="M138.779 9.24243C138.779 12.4765 138.796 12.576 139.161 13.0072L139.542 13.455H155.364H171.186L171.617 13.9194C172.43 14.7652 173.956 14.6989 174.553 13.7867C174.769 13.455 174.951 13.3887 175.498 13.4218C177.24 13.5048 177.87 13.4052 178.268 13.0072L178.633 12.6258L178.981 13.0072C179.346 13.4052 179.827 13.4716 181.701 13.4218C182.365 13.4052 182.663 13.3223 182.945 13.0238L183.31 12.6589L183.642 13.057C183.973 13.4218 184.073 13.4384 185.963 13.4052C187.058 13.3887 188.037 13.3887 188.12 13.4052C189.96 13.6209 190.01 13.6043 190.408 13.2062L190.806 12.8082L191.188 13.1896C191.669 13.7038 192.78 13.7204 193.41 13.2228C193.825 12.8911 193.841 12.8248 193.841 11.0668V9.25901H193.427H192.995L193.112 10.7019C193.211 12.0121 193.178 12.2111 192.879 12.576C192.581 12.9409 192.498 12.9575 191.917 12.8248C191.088 12.6092 190.856 12.1448 190.856 10.7019C190.856 9.62388 190.839 9.59071 190.441 9.59071C190.027 9.59071 190.027 9.60729 190.027 11.0668C190.027 12.7584 189.878 13.0072 188.949 12.8414C188.186 12.6921 188.037 12.3604 188.037 10.8512C188.037 9.62388 188.02 9.59071 187.622 9.59071C187.207 9.59071 187.207 9.59071 187.207 11.1663V12.7419H185.665C183.642 12.7419 183.492 12.6092 183.409 10.6521C183.36 9.30877 183.343 9.25901 182.962 9.25901C182.564 9.25901 182.564 9.29218 182.564 10.7351C182.564 12.6589 182.481 12.7419 180.739 12.7419C179.529 12.7419 179.412 12.7087 179.097 12.3106C178.815 11.9458 178.749 11.6307 178.749 10.5692C178.749 9.2756 178.749 9.25901 178.334 9.25901C177.92 9.25901 177.92 9.2756 177.92 10.7185C177.92 12.5926 177.787 12.7419 176.129 12.7419H174.934V12.2443C174.934 11.6141 174.553 10.8512 174.072 10.5195C173.856 10.3702 173.359 10.2541 172.895 10.2541C171.833 10.2541 171.219 10.818 171.054 11.9624L170.938 12.7419H155.464C143.672 12.7419 139.957 12.6921 139.808 12.5428C139.658 12.3936 139.609 11.4151 139.609 9.14292V5.94202H139.194H138.779V9.24243ZM173.84 11.2824C174.255 11.8794 174.188 13.0072 173.691 13.4882C173.475 13.7204 173.176 13.9028 173.027 13.9028C172.878 13.9028 172.579 13.7204 172.364 13.4882C171.85 12.9906 171.783 11.7136 172.231 11.216C172.613 10.7848 173.525 10.818 173.84 11.2824Z" fill="#00294B"/>
<path d="M195.666 8.38039C195.666 11.5315 195.766 12.112 196.23 12.0457C196.512 12.0125 196.578 11.8798 196.562 11.4486C196.562 11.1667 196.545 9.79011 196.528 8.43015L196.495 5.94241H196.081H195.666V8.38039Z" fill="#00294B"/>
<path d="M197.888 8.51335C198.021 11.6147 197.904 12.0459 196.843 12.4606C196.462 12.6264 195.931 12.7425 195.666 12.7425C195.284 12.7425 195.168 12.8088 195.168 13.0742C195.168 13.3562 195.284 13.4059 195.997 13.4059C196.826 13.4059 197.606 13.124 198.22 12.5932C198.419 12.4274 198.551 12.3942 198.601 12.5103C198.866 13.2898 200.027 13.6381 201.57 13.4059C202.863 13.2069 202.88 13.1903 202.93 9.3426L202.979 5.94268H202.565H202.134V9.17675C202.134 12.8918 202.2 12.7425 200.508 12.7425C199.712 12.7425 199.48 12.6762 199.182 12.3611C198.85 12.0128 198.817 11.7474 198.717 8.96114L198.601 5.94268H198.186H197.772L197.888 8.51335Z" fill="#00294B"/>
<path d="M254.857 6.05864C254.841 6.14156 254.841 7.5347 254.874 9.19319C254.924 12.759 254.924 12.7424 253.315 12.7424H252.27L252.171 12.0624C251.872 9.84 250.064 8.6293 248.074 9.30929C247.676 9.44197 247.494 9.60782 247.494 9.84C247.494 10.0722 247.593 10.1551 247.825 10.1219C249.534 9.85659 249.816 9.87317 250.38 10.3541C250.977 10.8517 251.391 11.6478 251.391 12.3277V12.7424H243.281H235.171L235.055 12.0956C234.889 11.0839 234.093 9.9561 233.264 9.59123C232.07 9.04393 229.234 9.27612 229.366 9.90634C229.416 10.0722 229.565 10.1551 229.798 10.1385C230.163 10.0888 230.196 10.2878 229.897 11.2166C229.864 11.3327 229.93 11.7307 230.063 12.079L230.295 12.7424H224.026H217.757L217.691 11.399C217.641 10.1717 217.591 10.0224 217.176 9.65757C216.198 8.82832 214.622 9.27612 214.141 10.5366C213.81 11.399 213.926 12.2117 214.506 12.9082C214.888 13.356 215.037 13.4058 215.833 13.4058C216.331 13.4058 216.729 13.4555 216.729 13.5219C216.729 14.1023 215.435 15.2301 214.788 15.2301C214.357 15.2301 214.34 15.2799 214.573 15.7277C214.705 15.9764 214.838 16.0096 215.236 15.8935C216.065 15.6613 216.662 15.2135 217.127 14.517C217.359 14.1355 217.558 13.7541 217.558 13.638C217.558 13.4887 222.052 13.4389 236.05 13.4389C246.217 13.4389 254.692 13.3726 254.891 13.3228C255.67 13.0741 255.819 11.8136 255.587 7.80006C255.504 6.14156 255.455 5.94254 255.173 5.94254C255.007 5.94254 254.857 5.9923 254.857 6.05864ZM216.596 10.039C216.828 10.2546 216.895 10.5532 216.895 11.5317V12.7424H216.264C215.485 12.7424 215.12 12.477 214.938 11.8302C214.556 10.4868 215.717 9.24295 216.596 10.039ZM232.319 10.3707C232.6 10.7356 232.667 10.9844 232.6 11.5317C232.518 12.3775 232.252 12.7424 231.738 12.7424C231.058 12.7424 230.544 11.8136 230.743 10.918C230.975 9.87317 231.721 9.6244 232.319 10.3707ZM233.878 11.2829C234.475 12.4936 234.458 12.7424 233.712 12.7424C233.231 12.7424 233.148 12.6926 233.214 12.4438C233.463 11.6312 233.479 11.2829 233.33 10.8683C233.032 10.0888 233.43 10.3873 233.878 11.2829Z" fill="#00294B"/>
<path d="M257.195 9.65708V13.4053H257.61H258.025L257.991 9.70683C257.942 6.02497 257.942 6.02497 257.577 5.97522L257.195 5.92546V9.65708Z" fill="#00294B"/>
<path d="M293.848 9.07722C293.848 12.7757 293.864 12.7425 292.338 12.7425C291.476 12.7425 291.36 12.7093 291.36 12.4108C291.36 11.8303 290.846 10.7855 290.448 10.5201C290.215 10.3708 289.701 10.2547 289.303 10.2547C288.242 10.2547 287.545 10.885 287.429 11.963L287.33 12.7425H281.409C274.277 12.7425 274.758 12.8918 274.642 10.7025C274.576 9.34258 274.543 9.25965 274.194 9.25965C273.813 9.25965 273.813 9.27624 273.846 11.283C273.863 13.0742 273.813 13.3893 273.514 13.9034C273.116 14.5834 272.237 15.2302 271.69 15.2302C271.342 15.2302 271.309 15.2634 271.491 15.6449C271.69 16.0761 272.071 16.0761 272.95 15.6449C273.747 15.2302 274.609 13.9864 274.609 13.2235C274.609 12.8752 274.626 12.8752 274.941 13.1571C275.239 13.4225 275.753 13.4391 281.392 13.4556H287.529L287.976 13.92C288.225 14.1854 288.673 14.4507 288.972 14.5005C289.685 14.6332 290.613 14.3181 290.929 13.8205C291.161 13.4722 291.31 13.4391 292.438 13.4391C293.93 13.4225 294.445 13.1737 294.594 12.3776C294.644 12.0791 294.677 10.5201 294.644 8.92795C294.594 6.05876 294.594 6.02559 294.229 5.97583L293.848 5.92608V9.07722ZM290.066 11.2001C290.696 11.9132 290.63 13.2235 289.933 13.6712C289.386 14.0361 288.623 13.7376 288.391 13.041C288.159 12.3776 288.159 12.1786 288.441 11.4986C288.656 11.0011 288.773 10.9181 289.253 10.9181C289.585 10.9181 289.917 11.0342 290.066 11.2001Z" fill="#00294B"/>
<path d="M296.171 9.67366V13.4053H296.586H297V9.67366V5.94205H296.586H296.171V9.67366Z" fill="#00294B"/>
<path d="M177.92 6.60597C177.92 7.02059 177.986 7.10352 178.335 7.10352C178.683 7.10352 178.749 7.02059 178.749 6.60597C178.749 6.19134 178.683 6.10842 178.335 6.10842C177.986 6.10842 177.92 6.19134 177.92 6.60597Z" fill="#00294B"/>
<path d="M267.562 8.34705C266.583 9.40849 266.318 9.82311 266.401 10.0719C266.5 10.387 266.533 10.387 267.18 10.1548C268.125 9.82311 268.673 9.85628 269.303 10.2875C270.049 10.8016 270.447 11.3821 270.58 12.1284L270.68 12.7421H267.595C263.73 12.7421 263.78 12.7752 263.681 10.6855C263.631 9.30898 263.614 9.25923 263.233 9.25923H262.835V11.3655C262.835 13.1899 262.785 13.5713 262.503 14.0357C262.122 14.6493 261.259 15.2298 260.729 15.2298C260.397 15.2298 260.38 15.2796 260.53 15.6278C260.695 15.9761 260.778 15.9927 261.276 15.8932C261.591 15.8103 262.105 15.5615 262.404 15.3293C262.984 14.8981 263.664 13.7206 263.664 13.1567C263.664 12.8913 263.697 12.8747 263.963 13.1069C264.294 13.422 264.825 13.4552 268.623 13.422L271.509 13.4055L271.409 12.4104C271.243 10.4699 270.083 9.25923 268.358 9.25923L267.562 9.24264L268.524 8.33047C269.137 7.76658 269.469 7.33537 269.403 7.18611C269.22 6.70514 268.822 6.95392 267.562 8.34705Z" fill="#00294B"/>
<path d="M177.091 7.84954C177.091 8.19782 177.174 8.26416 177.588 8.26416C178.003 8.26416 178.086 8.19782 178.086 7.84954C178.086 7.50125 178.003 7.43491 177.588 7.43491C177.174 7.43491 177.091 7.50125 177.091 7.84954Z" fill="#00294B"/>
<path d="M178.583 7.84954C178.583 8.18124 178.666 8.26416 178.998 8.26416C179.329 8.26416 179.412 8.18124 179.412 7.84954C179.412 7.51784 179.329 7.43491 178.998 7.43491C178.666 7.43491 178.583 7.51784 178.583 7.84954Z" fill="#00294B"/>
<path d="M181.9 7.84954C181.9 8.18124 181.983 8.26416 182.315 8.26416C182.647 8.26416 182.73 8.18124 182.73 7.84954C182.73 7.51784 182.647 7.43491 182.315 7.43491C181.983 7.43491 181.9 7.51784 181.9 7.84954Z" fill="#00294B"/>
<path d="M183.227 7.84954C183.227 8.19782 183.309 8.26416 183.724 8.26416C184.139 8.26416 184.222 8.19782 184.222 7.84954C184.222 7.50125 184.139 7.43491 183.724 7.43491C183.309 7.43491 183.227 7.50125 183.227 7.84954Z" fill="#00294B"/>
<path d="M262.834 7.84954C262.834 8.19782 262.917 8.26416 263.332 8.26416C263.746 8.26416 263.829 8.19782 263.829 7.84954C263.829 7.50125 263.746 7.43491 263.332 7.43491C262.917 7.43491 262.834 7.50125 262.834 7.84954Z" fill="#00294B"/>
<path d="M209.297 9.35892C208.75 9.74037 208.435 10.4701 208.435 11.3325V12.0789H209.845H211.254V12.8086C211.254 14.6163 209.297 15.7773 207.838 14.8154C207.158 14.3676 206.859 13.7373 206.777 12.5101C206.694 11.4486 206.66 11.3325 206.329 11.2828C205.964 11.233 205.947 11.2828 205.947 12.3608C205.947 13.6876 206.312 14.6163 207.092 15.2797C208.518 16.4739 210.475 16.1587 211.52 14.5666C211.885 14.0027 211.984 13.6378 212.051 12.5598L212.133 11.2496H210.691H209.248L209.297 10.8018C209.331 10.5696 209.546 10.2213 209.795 10.0389L210.259 9.69062L210.773 10.0721C211.254 10.4204 211.752 10.4535 211.752 10.1052C211.752 10.0223 211.52 9.75696 211.238 9.52477C210.657 9.02722 209.861 8.96088 209.297 9.35892Z" fill="#00294B"/>
<path d="M136.457 11.2C136.457 12.8253 136.408 13.2565 136.109 13.837C135.761 14.5833 134.932 15.2301 134.318 15.2301C133.92 15.2301 133.903 15.2965 134.135 15.7277C134.268 15.9764 134.401 16.0096 134.799 15.8935C135.96 15.5618 136.789 14.7326 137.121 13.555C137.22 13.2399 137.287 12.1453 137.287 11.1336V9.25953H136.872H136.457V11.2Z" fill="#00294B"/>
<path d="M195.964 14.2516C195.765 14.3512 195.666 14.6165 195.666 14.9814C195.666 15.3794 195.583 15.5619 195.417 15.5619C195.284 15.5619 195.168 15.6282 195.168 15.7277C195.168 15.8106 195.583 15.8936 196.08 15.8936C196.578 15.8936 196.992 15.8106 196.992 15.7277C196.992 15.6282 196.86 15.5619 196.677 15.5619C196.279 15.5619 195.931 15.1472 196.064 14.8155C196.113 14.6829 196.312 14.5668 196.495 14.5668C196.893 14.5668 196.943 14.318 196.561 14.1687C196.246 14.0526 196.312 14.036 195.964 14.2516Z" fill="#00294B"/>
<path d="M248.737 14.7322C248.737 15.1468 248.804 15.2297 249.152 15.2297C249.5 15.2297 249.567 15.1468 249.567 14.7322C249.567 14.3176 249.5 14.2346 249.152 14.2346C248.804 14.2346 248.737 14.3176 248.737 14.7322Z" fill="#00294B"/>
<path d="M208.436 17.3034C208.436 17.6351 208.518 17.718 208.85 17.718C209.182 17.718 209.265 17.6351 209.265 17.3034C209.265 16.9717 209.182 16.8888 208.85 16.8888C208.518 16.8888 208.436 16.9717 208.436 17.3034Z" fill="#00294B"/>
<path d="M209.763 17.3034C209.763 17.6351 209.846 17.718 210.177 17.718C210.509 17.718 210.592 17.6351 210.592 17.3034C210.592 16.9717 210.509 16.8888 210.177 16.8888C209.846 16.8888 209.763 16.9717 209.763 17.3034Z" fill="#00294B"/>
<path d="M178.185 21.134C177.687 22.0295 177.687 22.0295 178.003 22.0295C178.202 22.0295 179.246 20.7193 179.246 20.4706C179.246 20.4208 179.097 20.371 178.931 20.371C178.716 20.371 178.467 20.6364 178.185 21.134Z" fill="#00294B"/>
<path d="M210.094 23.7712V27.1711H210.508H210.923V23.7712V20.3713H210.508H210.094V23.7712Z" fill="#00294B"/>
<path d="M219.548 21.7976V23.2073L219.117 22.8756C218.603 22.461 217.74 22.4278 217.077 22.7761C215.733 23.4561 215.733 26.2921 217.077 27.0219C217.707 27.3536 218.686 27.2706 219.133 26.8394L219.548 26.458V26.8063C219.548 27.0882 219.648 27.1711 219.979 27.1711C220.311 27.1711 220.394 27.1048 220.311 26.9058C220.261 26.7565 220.211 25.2307 220.211 23.5058C220.211 20.4874 220.195 20.3713 219.88 20.3713C219.581 20.3713 219.548 20.4874 219.548 21.7976ZM219.283 23.9371C219.614 24.617 219.614 25.0317 219.316 25.7614C219.034 26.4248 218.437 26.7565 217.823 26.6072C216.546 26.2921 216.513 23.6717 217.773 23.2073C218.337 22.9917 219.001 23.3234 219.283 23.9371Z" fill="#00294B"/>
<path d="M222.815 21.5324C222.467 22.7431 222.467 22.6933 222.831 22.6933C223.047 22.6933 223.213 22.4114 223.478 21.6153L223.827 20.5373H223.462C223.147 20.5373 223.047 20.6865 222.815 21.5324Z" fill="#00294B"/>
<path d="M135.662 21.2174C134.351 21.8642 133.721 23.4564 134.119 24.9656C134.517 26.4583 135.745 27.2378 137.536 27.1382C138.398 27.0885 138.531 27.0387 138.581 26.7402C138.63 26.4251 138.564 26.4085 137.668 26.4583C136.026 26.5744 134.982 25.7451 134.849 24.2359C134.766 23.2408 135.147 22.4447 135.96 21.8974C136.458 21.5491 136.69 21.516 137.585 21.5823C138.581 21.6652 138.63 21.6486 138.581 21.3003C138.531 20.9852 138.415 20.9521 137.453 20.9023C136.607 20.8691 136.209 20.9355 135.662 21.2174Z" fill="#00294B"/>
<path d="M170.125 24.02C170.125 27.055 170.142 27.1711 170.457 27.1711C170.755 27.1711 170.788 27.055 170.788 25.7614V24.3517H171.419C172.215 24.3517 172.447 24.6005 173.044 26.0434C173.459 27.055 173.541 27.1711 173.956 27.1711H174.421L173.823 25.8775C173.508 25.1809 173.11 24.4512 172.961 24.2854C172.762 24.0532 172.745 23.9537 172.895 23.9039C173.392 23.7215 173.79 23.2239 173.873 22.6932C174.056 21.5323 173.044 20.8689 171.087 20.8689H170.125V24.02ZM172.43 21.7147C172.994 21.9137 173.276 22.5605 172.994 23.0083C172.745 23.4064 172.099 23.6883 171.419 23.6883H170.788V22.6103V21.5323H171.352C171.651 21.5323 172.132 21.6152 172.43 21.7147Z" fill="#00294B"/>
<path d="M188.369 21.2834C188.369 21.6151 188.452 21.698 188.784 21.698C189.115 21.698 189.198 21.6151 189.198 21.2834C189.198 20.9517 189.115 20.8688 188.784 20.8688C188.452 20.8688 188.369 20.9517 188.369 21.2834Z" fill="#00294B"/>
<path d="M226.182 24.0034V27.1711H226.596H227.011L226.978 24.0532C226.928 20.985 226.928 20.9518 226.563 20.902L226.182 20.8523V24.0034Z" fill="#00294B"/>
<path d="M255.538 21.2834C255.538 21.6151 255.621 21.698 255.953 21.698C256.284 21.698 256.367 21.6151 256.367 21.2834C256.367 20.9517 256.284 20.8688 255.953 20.8688C255.621 20.8688 255.538 20.9517 255.538 21.2834Z" fill="#00294B"/>
<path d="M153.258 21.4823C153.142 21.5155 153.043 21.7643 153.043 22.0296C153.043 22.4277 152.96 22.5106 152.595 22.5604C151.932 22.6267 151.865 23.1906 152.512 23.1906H153.01L153.076 24.8325C153.159 26.8393 153.374 27.2207 154.436 27.1378C155.232 27.0715 155.398 26.6403 154.651 26.6071C153.988 26.5739 153.872 26.292 153.872 24.6335V23.1906H154.452C154.917 23.1906 155.033 23.1242 155.033 22.8589C155.033 22.5935 154.917 22.5272 154.452 22.5272C153.905 22.5272 153.872 22.494 153.872 21.9467C153.872 21.3828 153.739 21.2833 153.258 21.4823Z" fill="#00294B"/>
<path d="M251.938 21.4825C251.822 21.5157 251.723 21.781 251.723 22.0464C251.723 22.4776 251.656 22.5274 251.225 22.5274C250.844 22.5274 250.728 22.5937 250.728 22.8591C250.728 23.1244 250.844 23.1908 251.225 23.1908H251.723V24.8492C251.723 26.8063 251.922 27.1711 253.049 27.1711C253.597 27.1711 253.713 27.1214 253.713 26.8394C253.713 26.5741 253.63 26.5243 253.315 26.6073C252.651 26.7731 252.386 26.176 252.386 24.5673V23.1908H253.066C253.613 23.1908 253.729 23.141 253.68 22.8922C253.646 22.6932 253.447 22.5937 253 22.5605C252.419 22.5108 252.386 22.4776 252.386 21.9303C252.386 21.3664 252.336 21.3167 251.938 21.4825Z" fill="#00294B"/>
<path d="M295.225 21.4825C295.109 21.5157 295.01 21.781 295.01 22.0464C295.01 22.4776 294.943 22.5274 294.512 22.5274C294.131 22.5274 294.015 22.5937 294.015 22.8591C294.015 23.1244 294.131 23.1908 294.512 23.1908H295.01V24.8492C295.01 26.8063 295.209 27.1711 296.337 27.1711C296.884 27.1711 297 27.1214 297 26.8394C297 26.5741 296.917 26.5243 296.602 26.6073C295.939 26.7731 295.673 26.176 295.673 24.5673V23.1908H296.353C296.9 23.1908 297.017 23.141 296.967 22.8922C296.934 22.6932 296.735 22.5937 296.287 22.5605C295.706 22.5108 295.673 22.4776 295.673 21.9303C295.673 21.3664 295.623 21.3167 295.225 21.4825Z" fill="#00294B"/>
<path d="M141.416 22.7761C140.703 23.1576 140.371 23.8376 140.371 24.8658C140.355 26.3585 141.134 27.2043 142.561 27.2209C143.622 27.2375 144.086 27.055 144.086 26.657C144.086 26.3751 144.02 26.3419 143.722 26.458C143.506 26.5243 143.008 26.5907 142.61 26.5907C142.03 26.5741 141.814 26.4912 141.499 26.1263C141.284 25.8609 141.101 25.5126 141.101 25.3302C141.101 25.0317 141.234 25.0151 142.776 25.0151H144.451L144.335 24.3019C144.186 23.4395 144.02 23.1078 143.556 22.7927C143.091 22.461 141.997 22.461 141.416 22.7761ZM143.158 23.3732C143.406 23.5722 143.589 23.8707 143.589 24.1195C143.589 24.501 143.556 24.5175 142.345 24.5175C140.919 24.5175 140.769 24.3351 141.582 23.5059C142.163 22.942 142.561 22.9088 143.158 23.3732Z" fill="#00294B"/>
<path d="M146.407 24.8492V27.1711H146.805C147.203 27.1711 147.203 27.138 147.27 25.5292C147.336 23.5888 147.552 23.1908 148.58 23.1908C149.426 23.1908 149.592 23.539 149.691 25.5458C149.757 27.0219 149.791 27.1711 150.089 27.1711C150.404 27.1711 150.421 27.0716 150.354 25.2473C150.305 23.3732 150.288 23.3234 149.84 22.9254C149.26 22.4278 148.281 22.3947 147.684 22.8591C147.27 23.1908 147.27 23.1908 147.187 22.8591C147.137 22.66 146.955 22.5274 146.756 22.5274C146.424 22.5274 146.407 22.6103 146.407 24.8492Z" fill="#00294B"/>
<path d="M157.023 24.8492V27.1711H157.438C157.853 27.1711 157.853 27.1711 157.853 25.6122C157.853 24.3019 157.902 24.0034 158.201 23.622C158.433 23.34 158.699 23.1908 159.03 23.1908C159.395 23.1908 159.511 23.1078 159.511 22.8591C159.511 22.5937 159.395 22.5274 159.014 22.5274C158.732 22.5274 158.367 22.6766 158.184 22.8591C158.002 23.0415 157.82 23.1908 157.77 23.1908C157.72 23.1908 157.687 23.0415 157.687 22.8591C157.687 22.6435 157.571 22.5274 157.355 22.5274C157.04 22.5274 157.023 22.6435 157.023 24.8492Z" fill="#00294B"/>
<path d="M161.75 22.8925C160.838 23.6057 160.572 25.1481 161.169 26.1266C161.65 26.9227 162.214 27.2212 163.226 27.2212C164.237 27.2212 164.486 27.1051 164.486 26.6739C164.486 26.4085 164.42 26.3919 163.889 26.5412C163.557 26.6241 163.093 26.6573 162.844 26.591C162.247 26.4417 161.667 25.8612 161.667 25.3968C161.667 25.032 161.7 25.0154 163.242 25.0154H164.818V24.4349C164.818 23.2242 164.105 22.5277 162.861 22.5277C162.446 22.5277 162.048 22.6603 161.75 22.8925ZM163.74 23.4398C163.972 23.6554 164.154 23.9871 164.154 24.1861C164.154 24.4847 164.055 24.5178 162.911 24.5178C161.899 24.5178 161.667 24.4681 161.667 24.2525C161.667 23.191 162.994 22.6769 163.74 23.4398Z" fill="#00294B"/>
<path d="M177.107 22.7429C176.361 23.1244 176.013 23.7878 176.013 24.8327C176.013 26.3751 176.776 27.2043 178.218 27.2209C179.263 27.2375 179.777 27.055 179.695 26.7068C179.661 26.5409 179.529 26.458 179.396 26.4911C179.263 26.5409 178.799 26.5741 178.368 26.5741C177.688 26.5907 177.505 26.5243 177.157 26.1263C176.941 25.8775 176.759 25.5126 176.759 25.3302C176.759 25.0317 176.892 25.0151 178.434 25.0151H180.109L179.993 24.3019C179.844 23.4395 179.678 23.1078 179.214 22.7927C178.766 22.4776 177.655 22.4444 177.107 22.7429ZM178.816 23.3732C179.064 23.5722 179.247 23.8707 179.247 24.1195C179.247 24.501 179.214 24.5175 178.003 24.5175C177.323 24.5175 176.759 24.4512 176.759 24.3517C176.759 24.0034 177.157 23.3732 177.489 23.2239C178.019 22.9586 178.335 22.9917 178.816 23.3732Z" fill="#00294B"/>
<path d="M182.481 23.0744C181.552 24.0032 181.552 25.7944 182.464 26.6568C183.061 27.2207 184.123 27.3036 184.736 26.8558L185.217 26.4909V27.1543C185.217 28.0665 184.604 28.5475 183.559 28.4645C183.144 28.4148 182.68 28.3319 182.531 28.2655C182.282 28.1494 182.232 28.2158 182.232 28.5475C182.232 28.9289 182.315 28.9953 182.995 29.0948C184.571 29.327 185.549 28.846 185.897 27.685C185.98 27.3534 186.047 26.0763 186.013 24.849C185.964 22.8754 185.931 22.6101 185.682 22.5603C185.466 22.5271 185.383 22.6101 185.383 22.8588V23.2071L184.952 22.8754C184.654 22.6432 184.272 22.5271 183.775 22.5271C183.161 22.5271 182.929 22.6266 182.481 23.0744ZM184.886 23.6549C185.383 24.2686 185.35 25.5622 184.803 26.0929C184.156 26.7563 183.211 26.6236 182.813 25.8275C181.9 24.0695 183.725 22.1623 184.886 23.6549Z" fill="#00294B"/>
<path d="M188.534 24.8492C188.534 27.055 188.551 27.1711 188.866 27.1711C189.181 27.1711 189.198 27.055 189.198 24.8492C189.198 22.6435 189.181 22.5274 188.866 22.5274C188.551 22.5274 188.534 22.6435 188.534 24.8492Z" fill="#00294B"/>
<path d="M192.382 22.859C191.006 23.7048 191.039 26.0267 192.432 26.9389C193.012 27.3203 194.14 27.3037 194.804 26.9223C196.23 26.0764 196.147 23.4892 194.671 22.7429C194.057 22.4278 192.996 22.4775 192.382 22.859ZM194.721 23.7214C195.351 24.5506 195.069 26.1096 194.223 26.4911C193.576 26.7896 193.178 26.7067 192.664 26.1925C192.266 25.7779 192.183 25.5623 192.183 24.8823C192.183 24.3184 192.283 23.937 192.515 23.6385C193.079 22.9253 194.157 22.9585 194.721 23.7214Z" fill="#00294B"/>
<path d="M197.987 24.8492V27.1711H198.402C198.817 27.1711 198.817 27.1711 198.817 25.6122C198.817 24.3019 198.866 24.0034 199.165 23.622C199.414 23.3068 199.662 23.1908 200.06 23.1908C200.939 23.1908 201.138 23.622 201.138 25.5458C201.138 27.1711 201.138 27.1711 201.553 27.1711C201.968 27.1711 201.968 27.1546 201.968 25.7117C201.968 24.0034 201.752 23.1244 201.255 22.7761C200.757 22.4278 199.778 22.461 199.264 22.8591C199.032 23.0415 198.8 23.1908 198.75 23.1908C198.7 23.1908 198.651 23.0415 198.651 22.8591C198.651 22.6435 198.535 22.5274 198.319 22.5274C198.004 22.5274 197.987 22.6435 197.987 24.8492Z" fill="#00294B"/>
<path d="M204.837 22.6931C204.605 22.7926 204.455 22.9916 204.455 23.1906C204.455 23.4892 204.505 23.5057 204.804 23.3565C205.351 23.058 206.479 23.1077 206.727 23.456C207.126 24.0033 206.993 24.3516 206.412 24.3516C204.422 24.3516 203.294 25.695 204.372 26.7564C204.903 27.3037 206.031 27.3369 206.678 26.8227L207.109 26.491V26.8227C207.109 27.0549 207.208 27.171 207.441 27.171C207.756 27.171 207.772 27.0549 207.772 25.5954C207.772 23.8706 207.524 23.0082 206.976 22.7097C206.562 22.4941 205.351 22.4941 204.837 22.6931ZM206.678 24.9486C207.341 25.1974 206.578 26.6735 205.782 26.6735C205.218 26.6735 204.787 26.3584 204.787 25.9603C204.787 25.3798 205.036 25.1477 205.716 25.015C206.081 24.9486 206.379 24.8823 206.396 24.8657C206.412 24.8657 206.528 24.8989 206.678 24.9486Z" fill="#00294B"/>
<path d="M229.499 24.8492C229.499 27.055 229.516 27.1711 229.831 27.1711C230.129 27.1711 230.162 27.055 230.162 26.0434C230.179 23.9039 230.527 23.1908 231.589 23.1908C232.451 23.1908 232.65 23.6385 232.65 25.5458C232.65 27.1711 232.65 27.1711 233.065 27.1711C233.479 27.1711 233.479 27.1546 233.479 25.7946C233.463 23.34 233.065 22.5274 231.838 22.5274C231.506 22.5274 230.992 22.6766 230.71 22.8591C230.162 23.1908 230.162 23.1908 230.162 22.8591C230.162 22.6435 230.046 22.5274 229.831 22.5274C229.516 22.5274 229.499 22.6435 229.499 24.8492Z" fill="#00294B"/>
<path d="M235.22 22.8592C235.286 23.0582 235.651 24.0865 236.049 25.1479C236.713 26.9723 236.779 27.0884 237.21 27.0884C237.625 27.0884 237.691 26.9723 238.371 25.1314C239.416 22.3119 239.383 22.4943 238.935 22.5607C238.603 22.6104 238.454 22.8924 237.89 24.5509L237.227 26.4913L236.564 24.5177C235.966 22.7265 235.867 22.5275 235.502 22.5275C235.187 22.5275 235.137 22.5939 235.22 22.8592Z" fill="#00294B"/>
<path d="M241.739 22.7928C241.109 23.1245 240.777 23.8376 240.777 24.8493C240.777 25.861 241.109 26.5907 241.739 26.9059C242.867 27.4697 244.31 27.3702 244.393 26.6903C244.443 26.3586 244.393 26.3088 244.144 26.4083C243.049 26.8395 242.088 26.6073 241.69 25.8278C241.557 25.5791 241.441 25.2805 241.441 25.181C241.441 25.0815 242.054 25.0152 243.099 25.0152H244.758V24.6006C244.758 23.9703 244.343 23.1079 243.912 22.7928C243.431 22.4611 242.336 22.4611 241.739 22.7928ZM243.315 23.1742C243.713 23.3235 244.177 24.2191 243.978 24.4181C243.912 24.4679 243.365 24.5176 242.734 24.5176C241.656 24.5176 241.607 24.501 241.607 24.1196C241.607 23.8708 241.789 23.5723 242.038 23.3733C242.535 22.9918 242.734 22.9586 243.315 23.1742Z" fill="#00294B"/>
<path d="M247.162 22.7264C246.697 22.9918 246.581 23.1908 246.581 23.8045C246.581 24.3518 246.648 24.4347 247.908 25.2308C249.052 25.9771 248.571 26.8063 247.128 26.5907C246.482 26.4912 246.399 26.5244 246.449 26.7732C246.565 27.4366 248.704 27.3536 249.069 26.6737C249.268 26.2922 249.285 25.5127 249.086 25.1976C249.003 25.0815 248.571 24.783 248.14 24.5342C247.178 24.0201 246.963 23.4562 247.643 23.1908C247.875 23.1079 248.306 23.0747 248.588 23.1411C249.036 23.224 249.102 23.1908 249.036 22.9255C249.003 22.6767 248.82 22.5938 248.24 22.5772C247.825 22.544 247.344 22.6103 247.162 22.7264Z" fill="#00294B"/>
<path d="M255.654 22.6435C255.588 22.6932 255.538 23.7381 255.538 24.9653V27.1711H255.953H256.367V24.8492C256.367 22.7098 256.351 22.5274 256.069 22.5274C255.903 22.5274 255.704 22.5771 255.654 22.6435Z" fill="#00294B"/>
<path d="M258.97 22.8589C258.638 23.1242 258.522 23.3564 258.522 23.7711C258.522 24.3515 258.588 24.4179 259.849 25.2305C260.595 25.7115 260.645 26.3417 259.965 26.5739C259.65 26.69 259.351 26.69 259.019 26.5573C258.621 26.4081 258.538 26.4246 258.472 26.69C258.356 27.1046 258.555 27.2041 259.517 27.2207C261.507 27.2539 261.972 25.5125 260.197 24.6169C259.268 24.1359 259.119 23.9701 259.268 23.5389C259.384 23.1408 260.031 22.975 260.595 23.1906C260.993 23.3398 261.026 23.3233 260.976 22.9916C260.91 22.4443 259.6 22.3613 258.97 22.8589Z" fill="#00294B"/>
<path d="M263.449 22.859C263.117 23.1243 263.001 23.3731 263.001 23.7546C263.001 24.3682 263.25 24.6502 264.295 25.1643C264.908 25.4794 265.008 25.5955 264.958 25.977C264.892 26.5574 264.195 26.8228 263.499 26.5574C263.034 26.3916 263.001 26.3916 263.001 26.7564C263.001 27.5691 265.157 27.3535 265.638 26.4745C266.036 25.7779 265.737 25.1809 264.693 24.617C263.631 24.0531 263.465 23.7546 263.996 23.3234C264.278 23.0912 264.51 23.0414 264.941 23.1243C265.456 23.2239 265.522 23.1907 265.456 22.9253C265.373 22.4444 264.029 22.3946 263.449 22.859Z" fill="#00294B"/>
<path d="M268.224 23.0747C266.898 24.4015 267.478 26.7897 269.22 27.1712C270.165 27.3868 271.027 27.1712 271.094 26.7068C271.143 26.3751 271.11 26.3585 270.629 26.5244C269.601 26.8892 268.307 26.2258 268.307 25.3302C268.307 25.0483 268.457 25.0151 269.883 25.0151H271.459V24.4347C271.459 23.1576 270.779 22.5274 269.435 22.5274C268.904 22.5274 268.656 22.6435 268.224 23.0747ZM270.38 23.4396C270.613 23.6552 270.795 23.9869 270.795 24.1859C270.795 24.4844 270.696 24.5176 269.551 24.5176C268.871 24.5176 268.307 24.4512 268.307 24.3517C268.307 24.0034 268.705 23.3732 269.037 23.224C269.601 22.942 269.949 22.9918 270.38 23.4396Z" fill="#00294B"/>
<path d="M273.614 24.8492V27.1711H274.029C274.444 27.1711 274.444 27.1711 274.444 25.6122C274.444 24.3019 274.493 24.0034 274.792 23.622C275.157 23.1576 275.886 23.0415 276.235 23.3898C276.367 23.5225 276.434 24.2024 276.434 25.38C276.434 27.1546 276.434 27.1711 276.832 27.1711C277.23 27.1711 277.23 27.138 277.296 25.5292C277.362 23.622 277.611 23.141 278.49 23.2239C279.22 23.2903 279.419 23.821 279.419 25.6287C279.419 27.0882 279.436 27.1711 279.767 27.1711C280.099 27.1711 280.116 27.1048 280.049 25.1644C279.999 23.2903 279.966 23.141 279.601 22.8425C279.054 22.3947 278.076 22.4278 277.545 22.9254L277.114 23.3234L276.749 22.9254C276.284 22.4278 275.422 22.3947 274.759 22.8756L274.278 23.2073V22.8756C274.278 22.6435 274.178 22.5274 273.946 22.5274C273.631 22.5274 273.614 22.6435 273.614 24.8492Z" fill="#00294B"/>
<path d="M283.218 22.7762C281.924 23.4728 281.908 26.2425 283.201 26.9059C284.329 27.4697 285.772 27.3702 285.855 26.6903C285.905 26.3586 285.855 26.3088 285.606 26.4083C284.445 26.8561 283.5 26.6073 283.135 25.7449C283.002 25.4298 282.903 25.1479 282.903 25.0981C282.903 25.0483 283.666 25.0152 284.578 25.0152H286.269L286.17 24.2357C286.054 23.1742 285.357 22.5274 284.346 22.5274C283.964 22.544 283.45 22.6435 283.218 22.7762ZM284.777 23.1742C285.175 23.3235 285.639 24.2191 285.44 24.4181C285.374 24.4679 284.827 24.5176 284.196 24.5176C283.168 24.5176 283.069 24.4845 283.069 24.1859C283.069 23.7879 283.765 23.025 284.13 23.025C284.263 23.025 284.561 23.0913 284.777 23.1742Z" fill="#00294B"/>
<path d="M288.375 24.8492C288.375 27.055 288.392 27.1711 288.707 27.1711C289.005 27.1711 289.038 27.055 289.038 25.9604C289.038 23.821 289.436 23.1078 290.581 23.2239C291.327 23.2903 291.526 23.8044 291.526 25.6287C291.526 27.1546 291.526 27.1711 291.941 27.1711C292.339 27.1711 292.355 27.138 292.355 26.1263C292.355 24.4844 292.09 23.1576 291.675 22.8093C291.194 22.4113 290.116 22.4444 289.519 22.8756L289.038 23.2073V22.8756C289.038 22.6435 288.939 22.5274 288.707 22.5274C288.392 22.5274 288.375 22.6435 288.375 24.8492Z" fill="#00294B"/>
<path d="M140.67 32.1964C140.636 32.3125 140.62 34.0042 140.636 35.9612L140.686 39.5269L143.472 39.5767L146.242 39.6099V39.1123V38.6148H144.003H141.764V35.7953V32.9759H144.003H146.242V32.4783V31.9808H143.506C141.432 31.9808 140.736 32.0305 140.67 32.1964Z" fill="#00294B"/>
<path d="M149.957 32.1964C149.923 32.3125 149.907 34.0042 149.923 35.9612L149.973 39.5269L152.76 39.5767L155.529 39.6099V39.1123V38.6148H153.29H151.051V35.7953V32.9759H153.29H155.529V32.4783V31.9808H152.793C150.72 31.9808 150.023 32.0305 149.957 32.1964Z" fill="#00294B"/>
<path d="M168.881 32.1298C167.106 32.561 165.979 34.0039 165.979 35.8282C165.995 36.9726 166.426 37.9014 167.305 38.6643C169.047 40.1569 171.717 39.676 172.894 37.6692C173.276 37.0058 173.359 36.6907 173.342 35.7951C173.342 35.1317 173.226 34.518 173.06 34.1863C172.596 33.3073 171.634 32.4947 170.738 32.2293C169.826 31.964 169.644 31.9474 168.881 32.1298ZM170.954 33.3903C172.264 34.0702 172.712 36.077 171.866 37.3209C170.904 38.7306 169.08 38.913 167.836 37.7355C166.111 36.077 167.272 33.1415 169.677 33.1415C170.108 33.1415 170.689 33.2576 170.954 33.3903Z" fill="#00294B"/>
<path d="M169.163 34.9166C168.798 35.0658 168.615 35.779 168.814 36.177C169.196 36.8736 169.76 36.9897 170.29 36.459C171.07 35.6795 170.207 34.5019 169.163 34.9166Z" fill="#00294B"/>
<path d="M191.686 35.7953V39.6099H192.183H192.681V35.7953V31.9808H192.183H191.686V35.7953Z" fill="#00294B"/>
<path d="M196.229 32.1964C196.196 32.3125 196.179 34.0042 196.196 35.9612L196.246 39.5269L199.032 39.5767L201.802 39.6099V39.1289V38.6314L199.53 38.5816L197.241 38.5318V35.7953V33.0588L199.53 33.0091L201.802 32.9593V32.4783V31.9808H199.065C196.992 31.9808 196.295 32.0305 196.229 32.1964Z" fill="#00294B"/>
<path d="M205.517 32.1962C205.484 32.3123 205.467 34.0039 205.484 35.9609L205.534 39.5267L205.998 39.5765L206.446 39.6262V35.8117V31.9806H206.031C205.799 31.9806 205.567 32.0801 205.517 32.1962Z" fill="#00294B"/>
<path d="M216.728 35.7953V39.6099H219.63H222.532V39.1123V38.6148H220.127H217.723V37.4538V36.2929H219.381H221.04V35.7953V35.2978H219.381H217.723V34.1368V32.9759H220.127H222.532V32.4783V31.9808H219.63H216.728V35.7953Z" fill="#00294B"/>
<path d="M234.376 32.1962C234.342 32.3123 234.326 34.0039 234.342 35.9609L234.392 39.5267L234.857 39.5765L235.304 39.6262V35.8117V31.9806H234.89C234.658 31.9806 234.425 32.0801 234.376 32.1962Z" fill="#00294B"/>
<path d="M247.958 32.2133C247.328 32.4952 247.046 32.9762 247.046 33.7722C247.046 34.2366 247.162 34.4854 247.577 34.8503C248.058 35.2815 248.207 35.3312 248.887 35.2483C249.849 35.1488 250.396 34.5683 250.396 33.6561C250.396 33.1918 250.28 32.9098 249.965 32.5781C249.716 32.3459 249.434 32.1469 249.335 32.1469C249.235 32.1469 249.003 32.1137 248.82 32.064C248.638 32.0142 248.257 32.0972 247.958 32.2133ZM249.318 33.0591C249.55 33.2747 249.733 33.5732 249.733 33.7225C249.733 34.0708 249.136 34.6347 248.738 34.6347C248.323 34.6347 247.742 34.0708 247.742 33.6727C247.742 33.1752 248.223 32.7108 248.787 32.6611C248.854 32.6445 249.102 32.8269 249.318 33.0591Z" fill="#00294B"/>
<path d="M256.78 32.1303C254.989 32.5781 253.878 34.0044 253.878 35.8288C253.895 39.5106 258.721 40.9204 260.694 37.819C261.308 36.8405 261.441 35.8951 261.109 34.7673C260.578 32.9098 258.555 31.6825 256.78 32.1303ZM259.019 33.5069C260.213 34.3361 260.562 36.1439 259.766 37.338C259.135 38.2502 258.389 38.5487 256.996 38.4824C256.382 38.4492 255.271 37.4209 255.022 36.6746C254.641 35.5137 255.172 34.1205 256.266 33.4571C256.996 33.0093 258.306 33.0259 259.019 33.5069Z" fill="#00294B"/>
<path d="M256.848 35.1484C256.284 35.7123 256.748 36.7903 257.561 36.7903C257.959 36.7903 258.523 36.2098 258.523 35.7952C258.523 35.364 257.959 34.8001 257.528 34.8001C257.345 34.8001 257.047 34.9494 256.848 35.1484Z" fill="#00294B"/>
<path d="M267.462 32.2296C266.583 32.5116 265.554 33.4403 265.189 34.2862C264.874 35.0491 264.874 36.5417 265.189 37.3046C265.869 38.8802 267.661 39.809 269.369 39.4441C270.414 39.2285 271.459 38.4158 271.956 37.4373C272.354 36.6578 272.387 35.2149 272.022 34.3359C271.309 32.6111 269.269 31.6658 267.462 32.2296ZM270.48 33.9213C271.16 34.6676 271.392 35.4305 271.21 36.409C271.061 37.2217 269.866 38.4324 269.203 38.4822C268.225 38.5319 267.71 38.4158 267.13 38.0344C265.571 37.0227 265.637 34.5515 267.246 33.4569C267.627 33.1916 267.943 33.1418 268.788 33.1916C269.783 33.2413 269.883 33.2911 270.48 33.9213Z" fill="#00294B"/>
<path d="M267.925 35.0986C267.544 35.5132 267.577 36.0605 267.975 36.4586C268.373 36.8566 268.605 36.8732 269.103 36.5249C269.8 36.0439 269.402 34.8001 268.523 34.8001C268.34 34.8001 268.075 34.9327 267.925 35.0986Z" fill="#00294B"/>
<path d="M285.474 32.1301C282.754 32.8267 281.659 36.0442 283.434 38.2002C285.391 40.5553 289.205 39.6099 289.852 36.6081C290.134 35.3476 289.835 34.3193 288.94 33.3242C288.011 32.296 286.668 31.8316 285.474 32.1301ZM287.314 33.2911C289.636 34.3359 289.255 37.9017 286.767 38.449C284.959 38.8636 283.185 36.9232 283.716 35.132C283.981 34.2364 284.644 33.5233 285.474 33.2247C286.336 32.9262 286.502 32.9262 287.314 33.2911Z" fill="#00294B"/>
<path d="M294.595 32.2131C293.932 32.495 293.683 32.8267 293.567 33.5399C293.484 34.054 293.55 34.2033 294.065 34.7174C294.695 35.3476 295.292 35.4637 296.088 35.0989C296.585 34.8667 297 34.1867 297 33.5731C297 33.0092 296.221 32.1965 295.59 32.0804C295.325 32.0306 294.861 32.0804 294.595 32.2131ZM295.806 32.9097C296.486 33.374 296.105 34.6345 295.292 34.6345C294.413 34.6345 294.015 33.3906 294.711 32.9097C294.91 32.7604 295.159 32.6443 295.259 32.6443C295.358 32.6443 295.607 32.7604 295.806 32.9097Z" fill="#00294B"/>
<path d="M134.849 36.3261C134.467 36.5085 133.97 37.3875 133.97 37.8684C133.97 38.8138 135.098 39.7094 136.059 39.5435C136.739 39.4108 137.453 38.5982 137.453 37.9348C137.453 37.3211 137.055 36.5251 136.64 36.2929C136.225 36.0773 135.33 36.0939 134.849 36.3261ZM136.258 37.0558C137.038 37.5865 136.474 38.9465 135.562 38.7143C134.733 38.5153 134.583 37.2714 135.346 36.9563C135.844 36.7573 135.844 36.7573 136.258 37.0558Z" fill="#00294B"/>
<path d="M159.876 36.5415C159.245 37.0722 159.08 37.7356 159.411 38.4985C159.909 39.7092 161.401 39.9248 162.247 38.9132C162.629 38.4654 162.678 38.2663 162.612 37.6361C162.446 36.2098 160.97 35.6127 159.876 36.5415ZM161.468 37.0556C162.247 37.5864 161.683 38.9463 160.771 38.7141C159.942 38.5151 159.793 37.2712 160.556 36.9561C161.053 36.7571 161.053 36.7571 161.468 37.0556Z" fill="#00294B"/>
<path d="M185.532 36.6079C184.719 37.4372 184.935 38.8635 185.963 39.361C186.676 39.6927 187.008 39.6761 187.655 39.2781C188.269 38.9132 188.55 38.1337 188.351 37.3708C188.003 36.1104 186.444 35.6957 185.532 36.6079ZM187.29 37.205C187.522 37.4206 187.705 37.7191 187.705 37.8684C187.705 38.2001 187.108 38.7805 186.759 38.7805C185.947 38.7805 185.565 37.5201 186.245 37.0557C186.743 36.7074 186.826 36.724 187.29 37.205Z" fill="#00294B"/>
<path d="M210.575 36.6076C210.193 37.0056 210.094 37.2378 210.094 37.8349C210.094 39.0953 211.122 39.8416 212.316 39.4436C213.046 39.2114 213.411 38.6475 213.411 37.7851C213.411 36.2759 211.636 35.5461 210.575 36.6076ZM212.217 37.0554C212.88 37.5198 212.565 38.7802 211.769 38.7802C211.371 38.7802 210.973 38.4485 210.84 38.0007C210.774 37.7188 210.857 37.5198 211.155 37.2046C211.636 36.7237 211.719 36.7071 212.217 37.0554Z" fill="#00294B"/>
<path d="M276.417 36.608C275.521 37.5036 275.853 39.0626 277.03 39.444C278.224 39.8421 279.253 39.0792 279.253 37.7855C279.253 36.2763 277.478 35.5466 276.417 36.608ZM278.191 37.2051C278.49 37.5202 278.573 37.7192 278.506 38.0011C278.374 38.4489 277.976 38.7806 277.578 38.7806C276.782 38.7806 276.466 37.5202 277.13 37.0558C277.627 36.7075 277.71 36.7241 278.191 37.2051Z" fill="#00294B"/>
<path d="M247.61 36.7074C246.333 37.7854 247.096 39.5434 248.804 39.5103C250.065 39.4771 250.861 37.9513 250.098 37.0225C249.434 36.1933 248.373 36.0606 247.61 36.7074ZM249.302 37.2216C249.633 37.5533 249.65 38.3493 249.318 38.6147C248.953 38.9132 248.224 38.8635 247.958 38.5152C247.278 37.5864 248.489 36.4089 249.302 37.2216Z" fill="#00294B"/>
<path d="M294.362 36.5246C293.483 37.0055 293.268 38.1333 293.931 38.9128C294.428 39.5098 295.175 39.6757 295.888 39.3772C296.568 39.0952 296.833 38.7801 296.949 38.0504C297.032 37.5362 296.966 37.387 296.452 36.8728C295.822 36.2426 295.108 36.1099 294.362 36.5246ZM295.871 37.2377C296.236 37.5694 296.269 38.3323 295.921 38.6143C295.606 38.8796 294.909 38.8796 294.594 38.6143C294.047 38.1499 294.495 36.9558 295.225 36.9558C295.407 36.9558 295.706 37.0719 295.871 37.2377Z" fill="#00294B"/>
<path d="M251.391 45.9949V48.2339H253.762C255.388 48.2339 256.2 48.1675 256.333 48.0349C256.482 47.8856 256.582 47.8856 256.731 48.0349C256.996 48.3002 258.721 48.3002 258.987 48.0349C259.136 47.8856 259.235 47.8856 259.385 48.0349C259.633 48.2836 260.546 48.3002 260.794 48.0515C260.927 47.9188 261.01 47.9188 261.076 48.0515C261.143 48.151 261.524 48.2339 261.939 48.2339H262.668V47.0729C262.668 46.1442 262.619 45.912 262.42 45.912C262.221 45.912 262.171 46.1276 262.171 46.8242C262.171 47.67 262.138 47.7363 261.789 47.7363C261.259 47.7363 261.01 47.4378 261.01 46.791C261.01 45.9286 260.546 46.0778 260.479 46.9568C260.429 47.6037 260.396 47.6534 259.932 47.6534C259.534 47.6534 259.418 47.5705 259.285 47.1061C259.086 46.3764 258.688 46.4095 258.688 47.1559V47.7529L257.743 47.7032L256.797 47.6534L256.648 46.9568C256.399 45.6632 255.205 45.1823 254.227 46.0115L253.729 46.4261L253.679 45.1491C253.646 44.3033 253.563 43.8389 253.431 43.7891C253.265 43.7394 253.215 44.2037 253.215 45.7296V47.7363H252.552H251.888V45.7461C251.888 44.0877 251.855 43.756 251.639 43.756C251.424 43.756 251.391 44.1208 251.391 45.9949ZM255.769 46.2934C255.935 46.4095 256.068 46.7578 256.084 47.0729L256.117 47.6534L254.923 47.7032C253.779 47.7529 253.713 47.7363 253.713 47.4046C253.713 46.9237 254.592 46.0778 255.072 46.0778C255.288 46.0778 255.603 46.1774 255.769 46.2934Z" fill="#00294B"/>
<path d="M272.122 45.9947V48.2337H274.577C276.268 48.2337 277.098 48.1673 277.23 48.0346C277.379 47.8854 277.479 47.8854 277.628 48.0346C277.877 48.2834 279.121 48.3 279.37 48.0512C279.502 47.9186 279.585 47.9186 279.652 48.0512C279.801 48.2834 281.36 48.3 281.493 48.0678C281.559 47.9517 281.692 47.9517 281.907 48.0678C282.073 48.1507 282.587 48.2337 283.052 48.2337H283.897V45.9947C283.897 44.1206 283.864 43.7557 283.649 43.7557C283.45 43.7557 283.4 44.0874 283.4 45.7459V47.7361H282.77C281.957 47.7361 281.741 47.5039 281.741 46.6249C281.741 46.1108 281.675 45.9118 281.509 45.9118C281.327 45.9118 281.244 46.1605 281.211 46.7742C281.161 47.6366 281.144 47.6532 280.614 47.7029C279.851 47.7859 279.585 47.5039 279.585 46.6415C279.585 46.1108 279.519 45.9118 279.353 45.9118C279.171 45.9118 279.088 46.1605 279.055 46.7742L279.005 47.6532H278.341C277.761 47.6532 277.678 47.6034 277.545 47.1556C277.28 46.2435 277.015 45.8288 276.583 45.6796C275.986 45.4806 275.323 45.6796 274.842 46.1937C274.461 46.6083 274.444 46.6083 274.444 46.2601C274.444 46.061 274.344 45.9118 274.195 45.9118C273.996 45.9118 273.946 46.1274 273.946 46.8239V47.7361H273.283H272.62V45.7459C272.62 44.0874 272.586 43.7557 272.371 43.7557C272.155 43.7557 272.122 44.1206 272.122 45.9947ZM276.633 46.3596C276.799 46.5088 276.932 46.8571 276.932 47.1888V47.7361H275.671C274.461 47.7361 274.427 47.7195 274.527 47.3547C274.676 46.8405 275.539 46.0776 275.97 46.0776C276.169 46.0776 276.467 46.1937 276.633 46.3596Z" fill="#00294B"/>
<path d="M284.843 43.872C284.776 43.9218 284.727 44.9335 284.727 46.111C284.727 47.8856 284.76 48.2339 284.975 48.2339C285.191 48.2339 285.224 47.869 285.224 45.9949C285.224 43.955 285.158 43.5569 284.843 43.872Z" fill="#00294B"/>
<path d="M290.034 45.9783C290.034 47.8856 290.067 48.2339 290.283 48.2339C290.499 48.2339 290.532 47.9188 290.499 46.0447C290.465 44.4857 290.382 43.8389 290.25 43.7891C290.084 43.7394 290.034 44.2535 290.034 45.9783Z" fill="#00294B"/>
<path d="M295.01 45.7464V47.7366H294.479C293.733 47.7366 293.584 47.5873 293.467 46.8244C293.401 46.443 293.202 46.0449 293.003 45.8625C292.555 45.4976 291.527 45.4811 291.527 45.8293C291.527 45.9952 291.693 46.0781 292.025 46.0781C292.588 46.0781 293.069 46.6752 292.986 47.2722C292.937 47.6039 292.837 47.6537 292.074 47.7034C291.444 47.7366 291.195 47.8195 291.195 48.002C291.195 48.2839 292.688 48.3337 293.186 48.0683C293.401 47.9522 293.534 47.9522 293.6 48.0683C293.65 48.1512 294.114 48.2342 294.612 48.2342H295.507V45.9952C295.507 44.1211 295.474 43.7562 295.259 43.7562C295.06 43.7562 295.01 44.0879 295.01 45.7464Z" fill="#00294B"/>
<path d="M296.502 45.9949C296.502 47.869 296.535 48.2339 296.751 48.2339C296.966 48.2339 297 47.869 297 45.9949C297 44.1208 296.966 43.756 296.751 43.756C296.535 43.756 296.502 44.1208 296.502 45.9949Z" fill="#00294B"/>
<path d="M146.607 46.1112C146.64 47.6702 146.723 48.317 146.872 48.3667C146.972 48.3999 147.071 48.3004 147.071 48.1511C147.071 47.9023 147.104 47.9023 147.436 48.1345C148.365 48.7813 149.41 48.1511 149.426 46.9238C149.443 45.6634 148.497 44.9171 147.569 45.4478L147.137 45.6965L147.204 44.8175C147.27 43.9883 147.253 43.922 146.922 43.922C146.573 43.922 146.557 43.9717 146.607 46.1112ZM148.696 45.9453C148.812 46.0614 148.895 46.4595 148.895 46.8575C148.895 47.4214 148.812 47.6204 148.481 47.836C148.099 48.0848 148.033 48.0848 147.668 47.8526C147.187 47.5209 147.054 46.9238 147.336 46.2604C147.502 45.8624 147.652 45.7463 148.033 45.7463C148.282 45.7463 148.58 45.8292 148.696 45.9453Z" fill="#00294B"/>
<path d="M150.256 46.1111C150.289 47.6701 150.372 48.3169 150.522 48.3666C150.671 48.4164 150.721 47.9023 150.721 46.1774C150.721 44.2702 150.687 43.9219 150.472 43.9219C150.256 43.9219 150.223 44.237 150.256 46.1111Z" fill="#00294B"/>
<path d="M135.346 44.27C134.534 44.5022 133.97 45.2983 133.97 46.1773C133.97 47.6202 134.782 48.3997 136.292 48.3997C136.773 48.3997 136.955 48.3333 136.955 48.1509C136.955 47.9684 136.756 47.9021 136.192 47.9021C135.578 47.9021 135.346 47.8192 134.948 47.4211C133.82 46.2768 134.865 44.3198 136.457 44.6515C137.055 44.7676 137.171 44.3529 136.59 44.1871C136.126 44.071 136.01 44.071 135.346 44.27Z" fill="#00294B"/>
<path d="M169.825 44.287C169.444 44.4861 169.228 45.0002 169.328 45.5309C169.361 45.6968 169.726 46.045 170.157 46.327C171.053 46.8909 171.185 47.1231 170.937 47.604C170.787 47.8694 170.622 47.9191 170.024 47.8694C169.427 47.8362 169.295 47.8694 169.328 48.0684C169.394 48.4333 170.539 48.483 171.053 48.1679C171.534 47.8362 171.716 47.2226 171.467 46.7582C171.368 46.5758 170.937 46.2275 170.539 45.9787C169.444 45.3485 169.626 44.4861 170.804 44.6187C171.434 44.6851 171.65 44.3368 171.086 44.1875C170.572 44.0549 170.273 44.0714 169.825 44.287Z" fill="#00294B"/>
<path d="M247.494 44.5853C247.444 44.6849 247.51 44.8009 247.66 44.8507C247.975 44.9834 248.157 44.8507 247.991 44.6019C247.859 44.3697 247.627 44.3697 247.494 44.5853Z" fill="#00294B"/>
<path d="M248.322 44.5853C248.272 44.6849 248.339 44.8009 248.488 44.8507C248.803 44.9834 248.985 44.8507 248.82 44.6019C248.687 44.3697 248.455 44.3697 248.322 44.5853Z" fill="#00294B"/>
<path d="M275.854 44.6019C275.688 44.8507 275.87 44.9834 276.185 44.8507C276.335 44.8009 276.401 44.6849 276.351 44.5853C276.218 44.3697 275.986 44.3697 275.854 44.6019Z" fill="#00294B"/>
<path d="M175.929 44.9339C175.929 45.1329 175.796 45.3153 175.597 45.3651C175.415 45.4148 175.266 45.5143 175.266 45.5973C175.266 45.6802 175.415 45.7465 175.597 45.7465C175.896 45.7465 175.929 45.8626 175.929 46.9075C175.929 47.8694 175.979 48.085 176.244 48.2343C176.725 48.483 177.256 48.4333 177.256 48.1348C177.256 48.0021 177.189 47.9192 177.107 47.9689C177.024 48.0353 176.841 48.0187 176.692 47.9689C176.493 47.886 176.427 47.6206 176.427 46.808C176.427 45.7797 176.443 45.7465 176.841 45.7465C177.073 45.7465 177.256 45.6636 177.256 45.5807C177.256 45.4812 177.073 45.4148 176.841 45.4148C176.509 45.4148 176.427 45.3319 176.427 45.0002C176.427 44.7348 176.327 44.5856 176.178 44.5856C176.029 44.5856 175.929 44.7348 175.929 44.9339Z" fill="#00294B"/>
<path d="M178.085 44.9997C178.085 45.2983 178.002 45.4144 177.754 45.4144C177.571 45.4144 177.422 45.4807 177.422 45.5802C177.422 45.6631 177.571 45.7461 177.754 45.7461C178.052 45.7461 178.085 45.8622 178.085 46.8075C178.085 47.985 178.317 48.3997 179.014 48.3997C179.279 48.3997 179.412 48.3001 179.412 48.1177C179.412 47.9684 179.362 47.9021 179.313 47.9519C179.246 48.0016 179.064 47.985 178.898 47.8855C178.649 47.7528 178.583 47.5372 178.583 46.7412C178.583 45.7958 178.599 45.7461 178.997 45.7461C179.23 45.7461 179.412 45.6631 179.412 45.5802C179.412 45.4807 179.23 45.4144 178.997 45.4144C178.666 45.4144 178.583 45.3314 178.583 44.9997C178.583 44.7344 178.483 44.5851 178.334 44.5851C178.185 44.5851 178.085 44.7344 178.085 44.9997Z" fill="#00294B"/>
<path d="M183.558 44.9998C183.558 45.2984 183.475 45.4145 183.226 45.4145C183.044 45.4145 182.895 45.4808 182.895 45.5803C182.895 45.6632 183.044 45.7462 183.226 45.7462C183.525 45.7462 183.558 45.8623 183.558 46.7081C183.558 47.3051 183.657 47.8027 183.823 48.0349C184.122 48.4661 184.885 48.5324 184.885 48.1178C184.885 47.9685 184.835 47.9022 184.785 47.952C184.719 48.0017 184.536 47.9851 184.371 47.8856C184.122 47.7529 184.055 47.5373 184.055 46.7413C184.055 45.7959 184.072 45.7462 184.47 45.7462C184.984 45.7462 185.017 45.4642 184.52 45.3813C184.271 45.3481 184.122 45.1989 184.089 44.9501C184.006 44.436 183.558 44.4691 183.558 44.9998Z" fill="#00294B"/>
<path d="M190.973 44.7012C190.906 44.751 190.856 45.6134 190.856 46.6085V48.3997H192.349C193.56 48.3997 193.842 48.3499 193.842 48.1509C193.842 47.9519 193.61 47.9021 192.681 47.9021H191.52V47.3216V46.7412H192.349C192.979 46.7412 193.178 46.6748 193.178 46.4924C193.178 46.31 192.979 46.2436 192.349 46.2436C191.536 46.2436 191.52 46.227 191.52 45.7461V45.2485H192.681C193.726 45.2485 193.842 45.2153 193.842 44.9168C193.842 44.6183 193.726 44.5851 192.465 44.5851C191.702 44.5851 191.022 44.6349 190.973 44.7012Z" fill="#00294B"/>
<path d="M194.621 44.6846C194.555 44.751 194.505 45.6134 194.505 46.6085V48.3997H195.998C197.208 48.3997 197.49 48.3499 197.49 48.1509C197.49 47.9519 197.241 47.9021 196.246 47.9021H195.002V47.3216V46.7412H195.832C196.462 46.7412 196.661 46.6748 196.661 46.4924C196.661 46.31 196.462 46.2436 195.832 46.2436C195.019 46.2436 195.002 46.227 195.002 45.7461V45.2651L196.213 45.2153C197.142 45.1822 197.407 45.1158 197.407 44.9168C197.407 44.7178 197.125 44.6515 196.08 44.6183C195.334 44.6017 194.687 44.6183 194.621 44.6846Z" fill="#00294B"/>
<path d="M201.52 44.7678C200.757 44.9834 200.31 45.6302 200.31 46.5258C200.31 47.8857 201.719 48.8145 202.847 48.2174C203.112 48.0682 203.212 48.0682 203.262 48.2174C203.295 48.3169 203.477 48.3999 203.676 48.3999C204.008 48.3999 204.008 48.3833 203.759 48.1345C203.51 47.8857 203.51 47.8028 203.743 47.3218C204.091 46.6087 203.925 45.7629 203.328 45.2155C202.781 44.7014 202.233 44.5687 201.52 44.7678ZM203.013 45.5307C203.378 45.9619 203.527 46.6584 203.311 47.0565C203.129 47.3882 203.112 47.3882 202.631 46.8575C202.2 46.3765 202.15 46.3599 202.134 46.675C202.134 46.8575 202.283 47.156 202.466 47.3218C202.88 47.6867 202.748 47.9023 202.117 47.9023C201.023 47.9023 200.442 46.5921 201.155 45.6799C201.57 45.1492 202.582 45.0663 203.013 45.5307Z" fill="#00294B"/>
<path d="M204.456 46.4924C204.456 48.0016 204.506 48.3997 204.688 48.3997C204.821 48.3997 204.954 48.1509 205.02 47.786C205.07 47.4377 205.269 46.9236 205.451 46.6582L205.783 46.1607V47.2719C205.783 48.1675 205.833 48.3997 206.032 48.3997C206.231 48.3997 206.28 48.0845 206.28 46.4924C206.28 45.0495 206.231 44.5851 206.065 44.5851C205.949 44.5851 205.766 44.9002 205.667 45.2817C205.551 45.6797 205.352 46.1441 205.219 46.3265C204.987 46.6417 204.97 46.5919 204.954 45.6134C204.954 44.8173 204.904 44.5851 204.705 44.5851C204.506 44.5851 204.456 44.9002 204.456 46.4924Z" fill="#00294B"/>
<path d="M208.319 44.768C207.556 44.9836 207.108 45.647 207.108 46.526C207.108 47.1562 207.191 47.3552 207.689 47.8528C208.236 48.4001 208.336 48.4332 209.049 48.3503C210.127 48.2342 210.757 47.5377 210.757 46.5094C210.757 45.9123 210.658 45.6801 210.243 45.2655C209.961 44.9836 209.629 44.7514 209.513 44.7514C209.397 44.7514 209.198 44.7182 209.065 44.685C208.949 44.6519 208.618 44.685 208.319 44.768ZM209.878 45.6138C210.575 46.2606 210.392 46.4099 208.933 46.4099C208.203 46.4099 207.606 46.3435 207.606 46.2606C207.606 46.1943 207.755 45.9289 207.954 45.6801C208.402 45.1162 209.314 45.0831 209.878 45.6138ZM210.26 46.9074C210.26 47.2889 209.43 47.9025 208.933 47.9025C208.435 47.9025 207.606 47.2889 207.606 46.9074C207.606 46.8079 208.12 46.7416 208.933 46.7416C209.745 46.7416 210.26 46.8079 210.26 46.9074Z" fill="#00294B"/>
<path d="M212.367 45.0332L211.239 45.4644L211.787 45.9122L212.334 46.3766L211.803 46.9405L211.272 47.4878L212.218 47.8527C212.732 48.0517 213.296 48.2673 213.462 48.3336C213.644 48.4 213.744 48.3502 213.744 48.1844C213.744 48.0351 213.428 47.8029 212.997 47.6371C212.583 47.4878 212.251 47.3054 212.251 47.2224C212.251 47.1561 212.45 46.9405 212.715 46.7581L213.163 46.4264L212.682 46.0283L212.185 45.6303L212.964 45.3318C213.395 45.1659 213.744 44.9337 213.744 44.8176C213.744 44.5191 213.694 44.5191 212.367 45.0332Z" fill="#00294B"/>
<path d="M214.241 46.4924V48.3997H215.734C216.945 48.3997 217.227 48.3499 217.227 48.1509C217.227 47.9519 216.978 47.9021 215.983 47.9021H214.739V47.3216V46.7412H215.568C216.198 46.7412 216.397 46.6748 216.397 46.4924C216.397 46.31 216.198 46.2436 215.568 46.2436C214.755 46.2436 214.739 46.227 214.739 45.7461V45.2651L215.949 45.2153C216.878 45.1822 217.144 45.1158 217.144 44.9168C217.144 44.7178 216.845 44.6515 215.701 44.6183L214.241 44.5685V46.4924Z" fill="#00294B"/>
<path d="M226.232 44.7677C225.469 44.9833 225.021 45.6301 225.021 46.5257C225.021 47.1559 225.104 47.3549 225.585 47.8359C227.244 49.4944 229.765 47.0398 228.139 45.3481C227.526 44.7179 227.012 44.552 226.232 44.7677ZM227.725 45.5471C227.874 45.713 228.057 46.0779 228.106 46.3764C228.189 46.8076 228.123 46.9735 227.708 47.4047C227.095 48.0183 226.481 48.0515 225.934 47.4876C225.071 46.6418 225.635 45.2486 226.846 45.2486C227.227 45.2486 227.559 45.3647 227.725 45.5471Z" fill="#00294B"/>
<path d="M226.464 46.1942C226.265 46.3932 226.348 46.8742 226.596 46.9737C226.911 47.0898 227.359 46.642 227.243 46.3268C227.144 46.0781 226.663 45.9952 226.464 46.1942Z" fill="#00294B"/>
<path d="M229.284 44.7012C229.218 44.751 229.168 45.6134 229.168 46.6085V48.3997H230.578C231.722 48.3997 231.987 48.3499 231.987 48.1509C231.987 47.9519 231.755 47.9021 230.909 47.9021H229.831V47.3216C229.831 46.9236 229.914 46.7412 230.08 46.7412C230.213 46.7412 230.329 46.8904 230.329 47.0729C230.329 47.2553 230.445 47.4046 230.578 47.4046C230.71 47.4046 230.826 47.2885 230.826 47.1392C230.826 46.9899 230.976 46.8407 231.158 46.7909C231.341 46.7412 231.49 46.5919 231.49 46.4758C231.49 46.3431 231.341 46.2436 231.158 46.2436C230.976 46.2436 230.826 46.1275 230.826 45.9948C230.826 45.8622 230.71 45.7461 230.578 45.7461C230.445 45.7461 230.329 45.8622 230.329 45.9948C230.329 46.1275 230.213 46.2436 230.08 46.2436C229.914 46.2436 229.831 46.0612 229.831 45.6631V45.0827H230.909C231.755 45.0827 231.987 45.0329 231.987 44.8339C231.987 44.6349 231.739 44.5851 230.694 44.5851C229.981 44.5851 229.334 44.6349 229.284 44.7012Z" fill="#00294B"/>
<path d="M232.933 44.7012C232.866 44.751 232.816 45.6134 232.816 46.6085V48.3997H234.226C235.37 48.3997 235.636 48.3499 235.636 48.1509C235.636 47.9519 235.387 47.9021 234.458 47.9021H233.297L233.347 47.3714C233.413 46.7412 233.977 46.4592 233.977 47.0563C233.977 47.2553 234.077 47.4046 234.226 47.4046C234.359 47.4046 234.475 47.2553 234.475 47.0729C234.475 46.8573 234.591 46.7412 234.807 46.7412C234.989 46.7412 235.138 46.6251 235.138 46.4924C235.138 46.3597 234.989 46.2436 234.807 46.2436C234.624 46.2436 234.475 46.1275 234.475 45.9948C234.475 45.8622 234.359 45.7461 234.226 45.7461C234.093 45.7461 233.977 45.8622 233.977 45.9948C233.977 46.1275 233.828 46.2436 233.629 46.2436C233.347 46.2436 233.297 46.1607 233.347 45.6963L233.397 45.1656L234.525 45.1158C235.37 45.0827 235.636 45.0163 235.636 44.8339C235.636 44.6349 235.37 44.5851 234.342 44.5851C233.629 44.5851 232.982 44.6349 232.933 44.7012Z" fill="#00294B"/>
<path d="M239.565 44.6846C239.499 44.751 239.449 45.1324 239.449 45.5305C239.449 46.1773 239.416 46.2436 239.035 46.2436C238.769 46.2436 238.62 46.3431 238.62 46.4924C238.62 46.6417 238.769 46.7412 239.035 46.7412C239.416 46.7412 239.449 46.7909 239.449 47.5704C239.449 48.2836 239.499 48.3997 239.781 48.3997C240.063 48.3997 240.113 48.2836 240.113 47.5704C240.113 46.7909 240.146 46.7412 240.527 46.7412C240.793 46.7412 240.942 46.6417 240.942 46.4924C240.942 46.3431 240.793 46.2436 240.544 46.2436C240.179 46.2436 240.129 46.1607 240.08 45.4641C240.03 44.7344 239.831 44.4359 239.565 44.6846Z" fill="#00294B"/>
<path d="M138.082 45.431C137.585 45.7129 137.751 45.8456 138.58 45.8456C139.26 45.829 139.359 45.8787 139.409 46.1939C139.459 46.5421 139.393 46.5753 138.796 46.5753C138.082 46.5753 137.452 47.0065 137.452 47.4875C137.452 48.2338 138.713 48.665 139.31 48.1177C139.592 47.8689 139.608 47.8689 139.608 48.1177C139.608 48.2836 139.691 48.3997 139.774 48.3997C139.874 48.3997 139.94 47.8524 139.94 47.0894C139.94 45.9119 139.907 45.7295 139.575 45.5139C139.144 45.2153 138.497 45.1822 138.082 45.431ZM139.476 47.3216C139.326 48.1509 138.116 48.3001 138.116 47.4875C138.116 47.0563 138.298 46.9402 139.044 46.9236C139.509 46.907 139.558 46.9568 139.476 47.3216Z" fill="#00294B"/>
<path d="M141.036 45.5636C140.605 46.0446 140.804 46.6085 141.517 46.9568C142.462 47.4046 142.197 48.2172 141.169 47.9684C140.87 47.8855 140.771 47.9353 140.771 48.1343C140.771 48.3333 140.936 48.3997 141.417 48.3997C142.728 48.3997 143.026 47.3548 141.931 46.6582C141.567 46.426 141.268 46.1773 141.268 46.0778C141.268 45.829 141.782 45.6134 142.147 45.7129C142.379 45.7627 142.446 45.7295 142.396 45.5636C142.28 45.1822 141.384 45.1822 141.036 45.5636Z" fill="#00294B"/>
<path d="M143.722 45.4315C143.208 45.7135 143.39 45.8793 144.153 45.7964C144.767 45.7135 144.916 45.7632 145.066 46.0286C145.281 46.4598 145.165 46.5759 144.419 46.5759C143.639 46.5759 143.225 46.891 143.225 47.4881C143.225 48.3173 144.303 48.7153 144.949 48.1183C145.231 47.8695 145.248 47.8695 145.248 48.1183C145.248 48.2841 145.331 48.4002 145.414 48.4002C145.513 48.4002 145.58 47.8529 145.58 47.09C145.58 45.9125 145.547 45.7301 145.215 45.5144C144.784 45.2159 144.137 45.1827 143.722 45.4315ZM145.182 47.1729C145.132 47.3222 145.082 47.5046 145.082 47.571C145.082 47.8198 144.419 48.0851 144.087 47.9856C143.871 47.9193 143.755 47.7368 143.755 47.4881C143.755 47.0403 143.938 46.9408 144.734 46.9242C145.165 46.9076 145.265 46.9573 145.182 47.1729Z" fill="#00294B"/>
<path d="M152.18 45.3646C152.014 45.3978 151.882 45.5305 151.882 45.6466C151.882 45.7792 152.147 45.8456 152.678 45.8456C153.358 45.829 153.457 45.8787 153.507 46.1939C153.557 46.5421 153.49 46.5753 152.893 46.5753C152.18 46.5753 151.55 47.0065 151.55 47.4875C151.55 47.8524 152.163 48.3997 152.561 48.3997C152.744 48.3997 153.059 48.3167 153.258 48.2172C153.523 48.068 153.623 48.068 153.673 48.2172C153.706 48.3167 153.805 48.3997 153.888 48.3997C153.971 48.3997 154.038 47.8358 154.038 47.1558C154.038 46.1275 153.971 45.8456 153.706 45.5802C153.391 45.2651 152.843 45.1822 152.18 45.3646ZM153.54 47.2221C153.54 47.6036 153.125 48.068 152.794 48.068C152.595 48.068 152.047 47.6368 152.047 47.4875C152.047 47.2553 152.661 46.907 153.059 46.907C153.424 46.907 153.54 46.9899 153.54 47.2221Z" fill="#00294B"/>
<path d="M155.148 45.3646C155.082 45.4144 155.032 46.1275 155.032 46.9402C155.032 48.1343 155.082 48.3997 155.281 48.3997C155.463 48.3997 155.53 48.1841 155.53 47.5207C155.53 46.4758 155.828 45.8456 156.326 45.7792C156.989 45.6797 157.188 46.0114 157.188 47.2553C157.188 48.1675 157.238 48.3997 157.437 48.3997C157.636 48.3997 157.686 48.1509 157.686 47.1558C157.686 46.1275 157.619 45.8456 157.354 45.5802C156.956 45.1822 156.409 45.149 155.895 45.5139C155.563 45.7461 155.53 45.7461 155.53 45.5139C155.53 45.2319 155.331 45.1656 155.148 45.3646Z" fill="#00294B"/>
<path d="M159.029 45.6631C158.598 46.028 158.515 46.227 158.515 46.8241C158.515 47.8192 158.929 48.2836 159.841 48.3001C160.273 48.3167 160.588 48.2338 160.621 48.1011C160.671 47.9684 160.505 47.9021 160.123 47.9021C159.443 47.9021 159.012 47.4875 159.012 46.7909C159.012 46.1607 159.46 45.7461 160.157 45.7461C160.853 45.7461 160.77 45.348 160.057 45.2817C159.709 45.2485 159.394 45.3646 159.029 45.6631Z" fill="#00294B"/>
<path d="M161.716 45.3646C161.6 45.3978 161.501 45.5305 161.501 45.6466C161.501 45.7792 161.733 45.8124 162.181 45.7792C162.645 45.7295 162.91 45.7792 163.01 45.9285C163.308 46.3929 163.159 46.5753 162.529 46.5753C161.766 46.5753 161.169 46.9734 161.169 47.4709C161.169 48.2172 162.081 48.6318 162.844 48.2338C163.06 48.1177 163.159 48.1177 163.159 48.2338C163.159 48.3167 163.275 48.3997 163.424 48.3997C163.856 48.3997 163.69 45.8124 163.242 45.4807C162.944 45.2485 162.131 45.1822 161.716 45.3646ZM163.159 47.2387C163.159 47.6202 162.429 48.1509 162.081 48.0016C161.335 47.7197 161.716 46.907 162.595 46.907C163.043 46.907 163.159 46.9734 163.159 47.2387Z" fill="#00294B"/>
<path d="M172.695 45.6635C172.115 46.2439 172.115 47.4215 172.695 48.0019C173.027 48.3336 173.242 48.4166 173.806 48.3668C174.702 48.3005 174.851 47.9356 173.972 47.9688C173.242 47.9854 172.778 47.6868 172.778 47.2225C172.778 46.9405 172.911 46.9073 173.856 46.9073C174.453 46.9073 174.934 46.841 174.934 46.7581C174.934 46.3766 174.536 45.5474 174.271 45.4147C173.74 45.1328 173.11 45.2323 172.695 45.6635ZM174.105 45.9122C174.619 46.4264 174.503 46.5756 173.607 46.5756C172.679 46.5756 172.496 46.2937 173.143 45.8459C173.624 45.5142 173.707 45.5142 174.105 45.9122Z" fill="#00294B"/>
<path d="M180.457 45.3646C180.341 45.3978 180.242 45.5305 180.242 45.6466C180.242 45.7792 180.474 45.8124 180.922 45.7792C181.386 45.7295 181.652 45.7792 181.751 45.9285C182.05 46.3929 181.9 46.5753 181.27 46.5753C180.507 46.5753 179.91 46.9734 179.91 47.4709C179.91 48.2172 180.822 48.6318 181.585 48.2338C181.801 48.1177 181.9 48.1177 181.9 48.2338C181.9 48.3167 182.016 48.3997 182.149 48.3997C182.348 48.3997 182.398 48.1509 182.398 47.1558C182.398 46.1275 182.332 45.8456 182.066 45.5802C181.751 45.2651 180.955 45.149 180.457 45.3646ZM181.9 47.2387C181.9 47.6202 181.171 48.1509 180.822 48.0016C180.076 47.7197 180.457 46.907 181.336 46.907C181.784 46.907 181.9 46.9734 181.9 47.2387Z" fill="#00294B"/>
<path d="M249.899 46.8242V47.7363H248.074H246.25V47.0729C246.25 46.592 246.184 46.4095 246.001 46.4095C245.686 46.4095 245.653 47.7363 245.951 48.0349C246.084 48.1675 246.847 48.2339 248.273 48.2339H250.396V47.0729C250.396 46.1442 250.346 45.912 250.147 45.912C249.948 45.912 249.899 46.1276 249.899 46.8242Z" fill="#00294B"/>
<path d="M288.542 47.0564C288.542 48.5491 288.343 49.0632 287.795 49.0632C287.53 49.0632 287.381 49.1627 287.381 49.312C287.381 49.6934 288.26 49.6271 288.641 49.2125C289.073 48.7315 289.222 45.9121 288.807 45.9121C288.592 45.9121 288.542 46.1111 288.542 47.0564Z" fill="#00294B"/>
<path d="M270.066 46.4593C269.834 46.6251 269.784 46.8408 269.834 47.2056C269.883 47.5705 269.834 47.7363 269.684 47.7363C269.568 47.7363 269.469 47.8524 269.469 47.9851C269.469 48.1841 269.684 48.2339 270.381 48.2339C271.077 48.2339 271.293 48.1841 271.293 47.9851C271.293 47.8358 271.144 47.7363 270.878 47.7363C270.398 47.7363 270.049 47.2222 270.331 46.9403C270.447 46.8242 270.663 46.7412 270.829 46.7412C270.995 46.7412 271.127 46.6251 271.127 46.4925C271.127 46.1774 270.464 46.1608 270.066 46.4593Z" fill="#00294B"/>
<path d="M220.627 46.5756C220.677 46.6585 221.357 46.7415 222.136 46.7415C222.949 46.7415 223.529 46.6751 223.529 46.5756C223.529 46.4761 222.916 46.4098 222.02 46.4098C221.075 46.4098 220.56 46.4761 220.627 46.5756Z" fill="#00294B"/>
<path d="M265.654 46.5756C265.654 46.6585 266.036 46.7415 266.484 46.7415C266.948 46.7415 267.313 46.6585 267.313 46.5756C267.313 46.4761 266.948 46.4098 266.484 46.4098C266.036 46.4098 265.654 46.4761 265.654 46.5756Z" fill="#00294B"/>
<path d="M165.812 46.841C165.812 47.0401 165.962 47.0732 166.509 47.0401C167.488 46.9737 167.554 46.5757 166.575 46.5757C165.995 46.5757 165.812 46.642 165.812 46.841Z" fill="#00294B"/>
<path d="M198.352 46.9406C198.021 47.2723 198.104 48.0352 198.502 48.2343C199.281 48.6655 200.16 47.8196 199.696 47.0899C199.48 46.7582 198.634 46.6587 198.352 46.9406ZM199.381 47.3553C199.447 47.5045 199.381 47.7367 199.231 47.886C199.016 48.1182 198.949 48.1182 198.717 47.8694C198.568 47.7201 198.485 47.4714 198.535 47.3387C198.667 46.9904 199.248 47.007 199.381 47.3553Z" fill="#00294B"/>
<path d="M218.088 46.9405C217.84 47.1892 217.823 47.9356 218.088 48.2009C218.387 48.4994 218.967 48.4331 219.299 48.0682C219.747 47.5707 219.465 46.8409 218.802 46.7746C218.52 46.7414 218.204 46.8244 218.088 46.9405ZM219.017 47.5043C219.05 47.7034 218.951 47.9024 218.818 47.9521C218.503 48.0682 218.155 47.6536 218.287 47.3053C218.42 46.9405 218.951 47.0897 219.017 47.5043Z" fill="#00294B"/>
<path d="M236.647 47.0564C236.381 47.5373 236.415 47.8193 236.779 48.1344C237.476 48.7646 238.571 47.9188 238.056 47.1559C237.741 46.6915 236.879 46.6252 236.647 47.0564ZM237.758 47.471C237.824 47.8193 237.526 48.0846 237.177 47.952C236.945 47.869 236.879 47.3715 237.078 47.1725C237.277 46.9734 237.708 47.1559 237.758 47.471Z" fill="#00294B"/>
<path d="M278.823 49.1297C278.69 49.4946 278.873 49.677 279.121 49.4282C279.271 49.2789 279.271 49.1794 279.121 49.0302C278.972 48.8809 278.906 48.9141 278.823 49.1297Z" fill="#00294B"/>
<path d="M279.652 49.1297C279.519 49.4946 279.702 49.677 279.951 49.4282C280.1 49.2789 280.1 49.1794 279.951 49.0302C279.801 48.8809 279.735 48.9141 279.652 49.1297Z" fill="#00294B"/>
<path d="M281.327 49.0632C281.211 49.2623 281.361 49.5608 281.593 49.5608C281.792 49.5608 281.792 49.113 281.593 48.9803C281.51 48.9306 281.394 48.9637 281.327 49.0632Z" fill="#00294B"/>
<path d="M64.8896 5.92923V11.3193H70.1761H75.4626V5.92923V0.53912H70.1761H64.8896V5.92923Z" fill="#DA403C"/>
<path d="M42.1689 1.96959L36.5508 2.92323L37.463 8.39626C37.9605 11.423 38.3959 13.9315 38.4373 13.9729C38.541 14.0766 49.3005 12.2937 49.57 12.1279C49.7565 12.0242 48.1602 1.38912 47.9115 1.14035C47.8493 1.07815 45.2579 1.45131 42.1689 1.96959Z" fill="#DA403C"/>
<path d="M84.1689 8.10612V14.8438H90.8029H97.4369V8.10612V1.36848H90.8029H84.1689V8.10612Z" fill="#DA403C"/>
<path d="M53.7363 7.00739C53.1351 8.50003 52.6997 9.78537 52.8034 9.86829C52.9692 10.0341 58.1106 11.7548 58.152 11.6719C58.5252 10.9878 60.2459 6.53057 60.163 6.46838C59.9764 6.36472 54.9594 4.27087 54.8972 4.27087C54.8558 4.27087 54.3375 5.49401 53.7363 7.00739Z" fill="#DA403C"/>
<path d="M28.1533 10.3452L27.6143 11.4439L28.8581 11.9207C30.2057 12.439 30.1435 12.4597 30.7861 11.2781C30.952 10.9671 31.0971 10.6354 31.0971 10.5525C31.0971 10.4074 29.0032 9.24641 28.7545 9.24641C28.713 9.24641 28.4435 9.74396 28.1533 10.3452Z" fill="#DA403C"/>
<path d="M105.314 21.3741V32.8799H116.924H128.533V21.3741V9.86827H116.924H105.314V21.3741Z" fill="#DA403C"/>
<path d="M32.839 13.3094C32.4866 13.8276 32.4866 13.8484 33.0878 14.3252L33.689 14.802L34.0621 14.1593C34.456 13.5374 34.456 13.5167 33.9585 13.1435C33.3365 12.6667 33.2536 12.6667 32.839 13.3094Z" fill="#DA403C"/>
<path d="M58.9801 14.1594C55.9118 14.3253 53.3412 14.4911 53.2997 14.5533C53.1961 14.6363 53.8802 28.153 53.9838 28.2566C54.046 28.3396 62.2556 27.9871 65.2616 27.7798C67.1482 27.6554 67.1689 27.6554 67.1689 27.1164C67.1689 26.8055 66.9201 23.6958 66.6091 20.1715L66.0701 13.807L65.3238 13.8277C64.9092 13.8485 62.069 13.9936 58.9801 14.1594Z" fill="#00955D"/>
<path d="M13.6826 15.6729V16.9167H14.9265H16.1704V16.129C16.1704 14.5741 16.046 14.429 14.8021 14.429H13.6826V15.6729Z" fill="#DA403C"/>
<path d="M70.0723 19.1969V23.9651H75.2551H80.4379V19.1969V14.4287H75.2551H70.0723V19.1969Z" fill="#DA403C"/>
<path d="M26.4958 15.0305C25.0446 15.2171 23.8008 15.4244 23.7593 15.4866C23.6971 15.5488 23.8008 16.8341 23.9873 18.3267L24.319 21.084L24.858 20.9803C25.1483 20.9181 26.4543 20.773 27.7604 20.6279L30.103 20.3791L29.9786 19.4255C29.9165 18.9072 29.7506 17.6011 29.6262 16.5439C29.5018 15.5073 29.336 14.6573 29.2531 14.6573C29.1909 14.678 27.947 14.8439 26.4958 15.0305Z" fill="#DA403C"/>
<path d="M44.9871 15.9008C44.0334 16.3569 43.2042 16.7715 43.142 16.8337C42.9969 16.9788 44.6139 20.2336 44.842 20.2336C45.07 20.2336 48.159 18.969 48.3663 18.7825C48.4907 18.6788 46.9565 15.0094 46.8114 15.0716C46.77 15.0716 45.9614 15.4447 44.9871 15.9008Z" fill="#DA403C"/>
<path d="M38.5605 17.124V18.3679H39.9081H41.2556V17.124V15.8802H39.9081H38.5605V17.124Z" fill="#DA403C"/>
<path d="M33.5856 18.5543L32.9844 19.7774L34.3112 20.4615C35.8038 21.2493 35.7209 21.2908 36.6953 19.5701L37.1306 18.803L35.8038 18.0774C35.0782 17.6628 34.4148 17.3311 34.3526 17.3311C34.2697 17.3311 33.938 17.8909 33.5856 18.5543Z" fill="#DA403C"/>
<path d="M8.14749 18.9901L7.69141 19.5498L8.20969 20.0474L8.7487 20.5449L9.24625 19.9437C9.66087 19.4876 9.70233 19.3011 9.51575 19.0523C8.97674 18.4303 8.62431 18.4096 8.14749 18.9901Z" fill="#DA403C"/>
<path d="M18.0371 19.9228V21.063H19.4883H20.9395V19.9228V18.7826H19.4883H18.0371V19.9228Z" fill="#DA403C"/>
<path d="M0.621936 21.581C0.290237 22.1822 0 22.7627 0 22.8663C0 23.0736 1.82434 23.9651 2.23897 23.9651C2.48774 23.9651 3.73161 22.0578 3.60723 21.8712C3.56576 21.7883 3.00602 21.4359 2.38409 21.1042L1.24387 20.4822L0.621936 21.581Z" fill="#DA403C"/>
<path d="M83.9629 30.3922V39.5139H93.0846H102.206V30.3922V21.2705H93.0846H83.9629V30.3922Z" fill="#DA403C"/>
<path d="M13.0609 23.0115C12.0866 23.6334 11.3195 24.2139 11.3403 24.3383C11.3817 24.5041 13.5378 27.987 13.8073 28.2979C13.8695 28.3809 17.3523 25.6858 17.5389 25.3956C17.684 25.1675 15.3414 21.892 15.0304 21.9127C14.9267 21.9127 14.0353 22.4103 13.0609 23.0115Z" fill="#DA403C"/>
<path d="M6.26086 22.7627C6.13648 23.0323 5.84624 23.5298 5.59746 23.8822L5.16211 24.5456L6.36452 25.2712C7.69131 26.0797 7.50473 26.1419 8.45837 24.5664L8.91445 23.82L7.8157 23.0737C7.19377 22.6384 6.65475 22.3067 6.59256 22.3067C6.5511 22.3067 6.38525 22.514 6.26086 22.7627Z" fill="#DA403C"/>
<path d="M41.4624 22.8045L36.7979 23.0325L36.8393 25.2093C36.8808 26.4117 36.9637 28.4434 37.0259 29.7494L37.1503 32.092L40.0941 31.9677C41.6904 31.9055 43.8879 31.7811 44.9452 31.7189L46.8939 31.5738L46.7696 29.5836C46.7074 28.4848 46.6037 26.4532 46.5208 25.0434C46.4586 23.6545 46.3342 22.535 46.2513 22.5557C46.1891 22.5764 44.033 22.6801 41.4624 22.8045Z" fill="#DA403C"/>
<path d="M29.7904 23.6962C29.6038 24.0486 28.1526 28.5473 28.2148 28.6095C28.2563 28.651 29.4172 28.9827 30.7855 29.3558C32.1538 29.729 33.3769 30.0607 33.4806 30.1229C33.6671 30.1851 35.2427 25.873 35.2427 25.2925C35.2427 25.1681 34.1854 24.7742 32.9208 24.4011C31.6355 24.0279 30.4331 23.6962 30.2258 23.634C30.0392 23.5718 29.8526 23.6133 29.7904 23.6962Z" fill="#DA403C"/>
<path d="M20.5254 26.1419V27.9041H22.3912H24.257V26.1419V24.3798H22.3912H20.5254V26.1419Z" fill="#DA403C"/>
<path d="M9.33008 29.5628V30.3921H10.1593H10.9886V29.5628V28.7336H10.1593H9.33008V29.5628Z" fill="#DA403C"/>
<path d="M24.2559 33.0868C23.4681 34.6831 22.8047 36.0513 22.8047 36.155C22.8047 36.2794 27.2204 38.4976 28.5887 39.0574C28.6716 39.0781 29.3765 37.7928 30.1643 36.1757C31.5532 33.3356 31.5947 33.2319 31.2008 32.9417C30.7447 32.6307 26.018 30.1844 25.8314 30.1844C25.7692 30.1844 25.0644 31.4905 24.2559 33.0868Z" fill="#DA403C"/>
<path d="M66.5469 37.6479V44.9038H73.6991H80.8514V37.6479V30.392H73.6991H66.5469V37.6479Z" fill="#DA403C"/>
<path d="M50.605 37.0675C50.4599 39.265 50.294 41.6906 50.2318 42.4369L50.1074 43.7844L55.3524 44.1369C58.234 44.3442 60.6389 44.4478 60.7218 44.3856C60.8254 44.2613 61.5925 33.8749 61.4888 33.7713C61.4059 33.6883 52.9476 33.0871 51.8074 33.0871H50.8745L50.605 37.0675Z" fill="#DA403C"/>
<path d="M36.5904 34.0616C36.0306 34.3518 35.5124 34.6213 35.4709 34.6628C35.3465 34.7665 36.3209 36.8188 36.466 36.8188C36.5282 36.7981 37.0672 36.5493 37.6684 36.2384L38.7257 35.6786L38.1867 34.6006L37.6269 33.5433L36.5904 34.0616Z" fill="#DA403C"/>
<path d="M43.9915 35.4711L43.3281 36.8186L44.7793 37.5442C45.5671 37.9381 46.272 38.2698 46.3341 38.2698C46.4378 38.2698 47.6817 35.8857 47.6817 35.6784C47.6817 35.5955 44.9037 34.1235 44.7171 34.1235C44.6964 34.1235 44.3647 34.7247 43.9915 35.4711Z" fill="#DA403C"/>
<path d="M36.3003 38.6016C34.9942 38.8711 33.8955 39.1406 33.854 39.1821C33.8125 39.2235 33.9784 40.3223 34.2272 41.6283L34.6833 43.9917L37.2954 43.4942C38.7258 43.2039 39.9282 42.9551 39.949 42.9344C40.0941 42.8308 39.0368 38.187 38.871 38.1455C38.7466 38.1248 37.6064 38.3321 36.3003 38.6016Z" fill="#DA403C"/>
<path d="M67.2101 47.3295L64.6602 47.4124L64.7845 50.3562C64.8467 51.9732 64.9504 53.6939 65.0126 54.15L65.1162 55L67.5418 54.9171C68.8686 54.8756 70.5685 54.7927 71.2941 54.7305L72.6209 54.6061L72.4965 51.994C72.4136 50.5428 72.3514 48.8636 72.3514 48.2624V47.1843L71.0661 47.2258C70.3405 47.2465 68.6198 47.3087 67.2101 47.3295Z" fill="#DA403C"/>
</svg>
