<svg width="148" height="148" viewBox="0 0 148 148" fill="none" xmlns="http://www.w3.org/2000/svg">
<rect width="148" height="148" rx="10" fill="white"/>
<path d="M81.275 93.9421C80.3565 93.9421 79.5089 93.7291 78.7324 93.3029C77.9654 92.8673 77.3546 92.266 76.9 91.499C76.455 90.7225 76.2324 89.8513 76.2324 88.8854C76.2324 87.9195 76.455 87.053 76.9 86.2859C77.3546 85.5189 77.9654 84.9223 78.7324 84.4962C79.5089 84.0606 80.3565 83.8428 81.275 83.8428C82.203 83.8428 83.0506 84.0606 83.8176 84.4962C84.5941 84.9223 85.2049 85.5189 85.65 86.2859C86.0951 87.053 86.3176 87.9195 86.3176 88.8854C86.3176 89.8513 86.0951 90.7225 85.65 91.499C85.2049 92.266 84.5941 92.8673 83.8176 93.3029C83.0506 93.7291 82.203 93.9421 81.275 93.9421ZM81.275 92.5359C81.9284 92.5359 82.5108 92.3891 83.0222 92.0956C83.5335 91.7925 83.9312 91.3664 84.2153 90.8172C84.5089 90.2585 84.6557 89.6145 84.6557 88.8854C84.6557 88.1562 84.5089 87.517 84.2153 86.9678C83.9312 86.4185 83.5335 85.9971 83.0222 85.7036C82.5108 85.41 81.9284 85.2632 81.275 85.2632C80.6216 85.2632 80.0392 85.41 79.5279 85.7036C79.0165 85.9971 78.614 86.4185 78.3205 86.9678C78.0364 87.517 77.8943 88.1562 77.8943 88.8854C77.8943 89.6145 78.0364 90.2585 78.3205 90.8172C78.614 91.3664 79.0165 91.7925 79.5279 92.0956C80.0392 92.3891 80.6216 92.5359 81.275 92.5359Z" fill="#0070C0"/>
<path d="M89.5304 87.1524C89.7671 86.7547 90.0796 86.4469 90.4679 86.2291C90.8656 86.0018 91.3343 85.8882 91.8741 85.8882V87.5643H91.4622C90.8277 87.5643 90.3447 87.7253 90.0133 88.0473C89.6913 88.3693 89.5304 88.928 89.5304 89.7234V93.8427H87.911V86.0161H89.5304V87.1524Z" fill="#0070C0"/>
<path d="M94.1864 84.9791C93.8929 84.9791 93.6467 84.8797 93.4478 84.6808C93.2489 84.482 93.1495 84.2358 93.1495 83.9422C93.1495 83.6486 93.2489 83.4024 93.4478 83.2036C93.6467 83.0047 93.8929 82.9053 94.1864 82.9053C94.4705 82.9053 94.712 83.0047 94.9109 83.2036C95.1097 83.4024 95.2091 83.6486 95.2091 83.9422C95.2091 84.2358 95.1097 84.482 94.9109 84.6808C94.712 84.8797 94.4705 84.9791 94.1864 84.9791ZM94.9819 86.0161V93.8427H93.3626V86.0161H94.9819Z" fill="#0070C0"/>
<path d="M104.281 89.7376C104.281 90.0312 104.262 90.2963 104.224 90.5331H98.2442C98.2916 91.1581 98.5236 91.66 98.9403 92.0387C99.3569 92.4175 99.8683 92.6069 100.474 92.6069C101.346 92.6069 101.961 92.2423 102.321 91.5132H104.068C103.831 92.2329 103.4 92.8247 102.775 93.2887C102.16 93.7433 101.393 93.9706 100.474 93.9706C99.7262 93.9706 99.0539 93.8048 98.4573 93.4734C97.8702 93.1325 97.4062 92.659 97.0653 92.053C96.7338 91.4374 96.5681 90.7272 96.5681 89.9223C96.5681 89.1174 96.7291 88.4119 97.0511 87.8058C97.3825 87.1903 97.8418 86.7168 98.4289 86.3854C99.0255 86.0539 99.7073 85.8882 100.474 85.8882C101.213 85.8882 101.871 86.0492 102.449 86.3712C103.026 86.6931 103.476 87.1477 103.798 87.7348C104.12 88.3124 104.281 88.9801 104.281 89.7376ZM102.591 89.2263C102.581 88.6297 102.368 88.1515 101.952 87.7916C101.535 87.4318 101.019 87.2518 100.403 87.2518C99.8446 87.2518 99.3664 87.4318 98.9687 87.7916C98.5709 88.142 98.3342 88.6202 98.2584 89.2263H102.591Z" fill="#0070C0"/>
<path d="M109.824 85.8882C110.439 85.8882 110.988 86.0161 111.471 86.2717C111.964 86.5274 112.347 86.9062 112.622 87.4081C112.896 87.91 113.034 88.516 113.034 89.2263V93.8427H111.429V89.4677C111.429 88.767 111.253 88.2319 110.903 87.8626C110.553 87.4838 110.074 87.2945 109.468 87.2945C108.862 87.2945 108.379 87.4838 108.02 87.8626C107.669 88.2319 107.494 88.767 107.494 89.4677V93.8427H105.875V86.0161H107.494V86.9109C107.759 86.589 108.095 86.338 108.503 86.1581C108.919 85.9782 109.36 85.8882 109.824 85.8882Z" fill="#0070C0"/>
<path d="M116.988 87.3371V91.6694C116.988 91.963 117.055 92.1761 117.187 92.3086C117.329 92.4317 117.566 92.4933 117.898 92.4933H118.892V93.8427H117.613C116.884 93.8427 116.326 93.6723 115.937 93.3314C115.549 92.9904 115.355 92.4365 115.355 91.6694V87.3371H114.432V86.0161H115.355V84.07H116.988V86.0161H118.892V87.3371H116.988Z" fill="#0070C0"/>
<path d="M119.845 89.8939C119.845 89.1079 120.006 88.4119 120.328 87.8058C120.659 87.1998 121.104 86.731 121.663 86.3996C122.231 86.0587 122.856 85.8882 123.538 85.8882C124.153 85.8882 124.688 86.0113 125.143 86.2575C125.607 86.4943 125.976 86.7926 126.251 87.1524V86.0161H127.884V93.8427H126.251V92.6779C125.976 93.0473 125.602 93.355 125.129 93.6012C124.655 93.8474 124.115 93.9706 123.509 93.9706C122.837 93.9706 122.221 93.8001 121.663 93.4592C121.104 93.1088 120.659 92.6259 120.328 92.0103C120.006 91.3853 119.845 90.6799 119.845 89.8939ZM126.251 89.9223C126.251 89.3825 126.137 88.9138 125.91 88.516C125.692 88.1183 125.403 87.8153 125.043 87.607C124.684 87.3986 124.295 87.2945 123.879 87.2945C123.462 87.2945 123.074 87.3986 122.714 87.607C122.354 87.8058 122.06 88.1041 121.833 88.5018C121.615 88.8901 121.506 89.3541 121.506 89.8939C121.506 90.4336 121.615 90.9071 121.833 91.3143C122.06 91.7215 122.354 92.034 122.714 92.2518C123.083 92.4601 123.471 92.5643 123.879 92.5643C124.295 92.5643 124.684 92.4601 125.043 92.2518C125.403 92.0435 125.692 91.7405 125.91 91.3427C126.137 90.9355 126.251 90.4621 126.251 89.9223Z" fill="#0070C0"/>
<path d="M131.631 83.3314V93.8427H130.011V83.3314H131.631Z" fill="#0070C0"/>
<path d="M56.9795 54.3262H53.5127V78.0147H56.9795V54.3262Z" fill="#00294B"/>
<path d="M66.4082 54.3262C68.3458 54.3262 69.7488 54.8681 70.6619 55.9668C71.4711 56.9244 71.8571 58.2606 71.8571 59.9755V63.42C71.8571 65.1051 71.241 66.523 69.9938 67.6737L72.5624 78.0147H68.8283L66.7275 69.0693C66.631 69.0693 66.527 69.0916 66.4082 69.0916H64.4336V78.0072H60.9668V54.3262H66.4082ZM68.4943 60.0423C68.4943 58.6764 67.8336 57.9934 66.5196 57.9934H64.4484V65.5728H66.5196C67.0838 65.5728 67.544 65.3724 67.9078 64.9567C68.3012 64.5632 68.472 64.0733 68.472 63.5165V60.0497L68.4943 60.0423Z" fill="#00294B"/>
<path d="M81.351 78.2972C79.8144 78.2972 78.5152 77.7553 77.4685 76.6566C76.3995 75.5579 75.8799 74.2366 75.8799 72.6479V59.6716C75.8799 58.1052 76.4218 56.7541 77.4908 55.6629C78.5598 54.5642 79.8589 54 81.3733 54C82.91 54 84.2091 54.5642 85.2558 55.6629C86.3025 56.7616 86.8444 58.1052 86.8444 59.6716V62.3663H83.2589V59.627C83.2589 59.0628 83.0584 58.5803 82.665 58.1646C82.2715 57.7712 81.8113 57.5484 81.2471 57.5484C80.7052 57.5484 80.2523 57.7489 79.8589 58.1646C79.4655 58.558 79.265 59.048 79.265 59.627V72.6405C79.265 73.2047 79.4655 73.6872 79.8589 74.0807C80.2523 74.4741 80.7126 74.6745 81.2471 74.6745C81.8113 74.6745 82.2715 74.4741 82.665 74.0807C83.0584 73.6872 83.2589 73.1973 83.2589 72.6405V69.3741H86.8444V72.6553C86.8444 74.2217 86.3025 75.5728 85.2335 76.664C84.1571 77.7702 82.8654 78.2972 81.351 78.2972Z" fill="#00294B"/>
<path d="M94.023 67.9929V78.0072H90.5859V54.3262H94.023V64.3925H98.2099V54.3262H101.647V78.0072H98.2099V67.9929H94.023Z" fill="#00294B"/>
<path d="M109.939 72.559L109.086 78.0078H105.5L109.383 54.3193H114.148L117.986 78.0078H114.364L113.532 72.559H109.939ZM111.743 59.7534L110.452 69.0922H113.02L111.743 59.7534Z" fill="#00294B"/>
<path d="M132.707 72.3357C132.707 73.902 132.165 75.2234 131.118 76.3444C130.049 77.4431 128.772 78.0072 127.28 78.0072H121.831V54.3262H127.28C128.794 54.3262 130.071 54.8904 131.14 55.989C132.187 57.0877 132.729 58.4314 132.729 59.9755V72.3357H132.707ZM125.276 74.4588H127.347C127.911 74.4588 128.371 74.2584 128.735 73.8426C129.106 73.4195 129.299 72.937 129.299 72.4025V60.02C129.299 59.4558 129.099 58.9733 128.705 58.5799C128.312 58.1864 127.852 57.9637 127.317 57.9637H125.246V74.4662L125.276 74.4588Z" fill="#00294B"/>
<path d="M39.6608 87.1971L36.632 80.4714C35.8229 78.6823 32.9425 77.3906 29.7653 77.3906C26.588 77.3906 23.7077 78.6823 22.8985 80.4491L19.8697 87.2045C19.5208 87.9617 19.595 88.3478 20.0701 89.0901C21.1169 90.701 23.7819 91.384 26.7439 91.384H32.8089C35.7412 91.384 38.4285 90.701 39.4827 89.0901C39.9281 88.3403 40.0023 87.9692 39.6608 87.1971Z" fill="#0070C0"/>
<path d="M33.8628 71.0583C33.8628 73.3299 32.0292 75.1636 29.7576 75.1636C27.486 75.1636 25.6523 73.3299 25.6523 71.0583C25.6523 68.7867 27.486 66.9531 29.7576 66.9531C32.0292 66.9531 33.8628 68.7867 33.8628 71.0583Z" fill="#3C84F0"/>
<path d="M32.3784 67.8887C32.9723 68.5939 33.3361 69.5293 33.3361 70.5092C33.3361 72.7808 31.5025 74.6144 29.2309 74.6144C28.2361 74.6144 27.323 74.2432 26.6104 73.6568C27.2933 74.4882 28.3252 75.045 29.4758 75.1489C29.4758 75.1489 29.4758 75.1489 29.4981 75.1489C29.4981 75.1489 29.4981 75.1489 29.5204 75.1489C29.5204 75.1489 29.5204 75.1489 29.5426 75.1489C29.5649 75.1489 29.5649 75.1489 29.5946 75.1489C29.5946 75.1489 29.5946 75.1489 29.6169 75.1489C29.6169 75.1489 29.6169 75.1489 29.6392 75.1489C29.6392 75.1489 29.6392 75.1489 29.6614 75.1489C29.6614 75.1489 29.6614 75.1489 29.6837 75.1489C31.9553 75.1489 33.7889 73.3153 33.7889 71.0437C33.7889 71.0437 33.7889 71.0437 33.7889 71.0214V70.9991V70.9769V70.9546C33.7889 70.9546 33.7889 70.9546 33.7889 70.9323C33.6924 69.4476 33.1579 68.5419 32.3784 67.8887Z" fill="#0070C0"/>
<path d="M29.9286 77.3906C27.4863 77.4129 23.8191 78.6823 23.0396 80.4491L19.9365 87.2045C19.7658 87.5757 19.6619 87.9617 19.6916 88.3255C19.7435 88.5259 19.84 88.7189 19.9885 88.9416C20.0108 88.9936 20.0627 89.0382 20.085 89.0901C21.1317 90.701 23.7968 91.384 26.7365 91.384H29.936L29.9286 77.3906Z" fill="#3C84F0"/>
<path d="M42.4962 58.416L31.6504 64.726C31.6504 64.726 31.6504 64.726 31.6727 64.726C32.7713 65.0452 33.7438 65.6317 34.5381 66.4409L42.4962 58.416Z" fill="#3C84F0"/>
<path d="M29.758 59.7449C31.1982 59.7449 32.5715 60.0418 33.8409 60.5244L37.2854 58.52C35.0881 57.1541 32.4676 56.3672 29.6912 56.3672C21.5698 56.3672 15 62.9444 15 71.0658C15 75.5941 17.0489 79.6474 20.2484 82.3273L21.3917 79.781C21.4882 79.536 21.6366 79.3133 21.7851 79.098C19.7139 77.0492 18.4445 74.2134 18.4445 71.0509C18.4519 64.8003 23.4999 59.7449 29.758 59.7449Z" fill="#3C84F0"/>
<path d="M40.4184 67.2424C40.8638 68.4376 41.1013 69.7144 41.1013 71.0581C41.1013 74.2131 39.8319 77.0414 37.7607 79.1052C37.9092 79.3279 38.0354 79.5506 38.1542 79.7881L39.2529 82.2305C42.4079 79.5358 44.4048 75.527 44.4048 71.0655C44.4048 68.4004 43.6996 65.9136 42.4524 63.7607L40.4184 67.2424Z" fill="#0070C0"/>
<path d="M31.6436 64.7262C33.8929 65.3869 35.63 67.1983 36.1942 69.4921L42.6749 58.3271L31.6436 64.7262Z" fill="#0070C0"/>
</svg>
