<svg width="118" height="40" viewBox="0 0 118 40" fill="none" xmlns="http://www.w3.org/2000/svg">
<path d="M66.275 39.9426C65.3565 39.9426 64.5089 39.7296 63.7324 39.3034C62.9654 38.8678 62.3546 38.2665 61.9 37.4995C61.455 36.723 61.2324 35.8517 61.2324 34.8858C61.2324 33.9199 61.455 33.0535 61.9 32.2864C62.3546 31.5194 62.9654 30.9228 63.7324 30.4967C64.5089 30.0611 65.3565 29.8433 66.275 29.8433C67.203 29.8433 68.0506 30.0611 68.8176 30.4967C69.5941 30.9228 70.2049 31.5194 70.65 32.2864C71.0951 33.0535 71.3176 33.9199 71.3176 34.8858C71.3176 35.8517 71.0951 36.723 70.65 37.4995C70.2049 38.2665 69.5941 38.8678 68.8176 39.3034C68.0506 39.7296 67.203 39.9426 66.275 39.9426ZM66.275 38.5364C66.9284 38.5364 67.5108 38.3896 68.0222 38.0961C68.5335 37.793 68.9312 37.3669 69.2153 36.8177C69.5089 36.2589 69.6557 35.615 69.6557 34.8858C69.6557 34.1567 69.5089 33.5175 69.2153 32.9682C68.9312 32.419 68.5335 31.9976 68.0222 31.704C67.5108 31.4105 66.9284 31.2637 66.275 31.2637C65.6216 31.2637 65.0392 31.4105 64.5279 31.704C64.0165 31.9976 63.614 32.419 63.3205 32.9682C63.0364 33.5175 62.8943 34.1567 62.8943 34.8858C62.8943 35.615 63.0364 36.2589 63.3205 36.8177C63.614 37.3669 64.0165 37.793 64.5279 38.0961C65.0392 38.3896 65.6216 38.5364 66.275 38.5364Z" fill="#0070C0"/>
<path d="M74.5304 33.1529C74.7671 32.7552 75.0796 32.4474 75.4678 32.2296C75.8656 32.0023 76.3343 31.8887 76.8741 31.8887V33.5648H76.4622C75.8277 33.5648 75.3447 33.7258 75.0133 34.0478C74.6913 34.3697 74.5304 34.9285 74.5304 35.7239V39.8432H72.911V32.0165H74.5304V33.1529Z" fill="#0070C0"/>
<path d="M79.1864 30.9796C78.8929 30.9796 78.6467 30.8802 78.4478 30.6813C78.2489 30.4825 78.1495 30.2362 78.1495 29.9427C78.1495 29.6491 78.2489 29.4029 78.4478 29.2041C78.6467 29.0052 78.8929 28.9058 79.1864 28.9058C79.4705 28.9058 79.712 29.0052 79.9109 29.2041C80.1097 29.4029 80.2091 29.6491 80.2091 29.9427C80.2091 30.2362 80.1097 30.4825 79.9109 30.6813C79.712 30.8802 79.4705 30.9796 79.1864 30.9796ZM79.9819 32.0165V39.8432H78.3626V32.0165H79.9819Z" fill="#0070C0"/>
<path d="M89.2811 35.7381C89.2811 36.0317 89.2622 36.2968 89.2243 36.5336H83.2442C83.2916 37.1586 83.5236 37.6604 83.9403 38.0392C84.3569 38.418 84.8683 38.6074 85.4743 38.6074C86.3455 38.6074 86.9611 38.2428 87.3209 37.5137H89.0681C88.8313 38.2334 88.4005 38.8252 87.7755 39.2892C87.1599 39.7438 86.3929 39.971 85.4743 39.971C84.7262 39.971 84.0539 39.8053 83.4573 39.4739C82.8702 39.133 82.4062 38.6595 82.0653 38.0534C81.7338 37.4379 81.5681 36.7277 81.5681 35.9228C81.5681 35.1178 81.7291 34.4124 82.0511 33.8063C82.3825 33.1908 82.8418 32.7173 83.4289 32.3859C84.0255 32.0544 84.7073 31.8887 85.4743 31.8887C86.213 31.8887 86.8711 32.0497 87.4488 32.3717C88.0264 32.6936 88.4762 33.1482 88.7982 33.7353C89.1202 34.3129 89.2811 34.9805 89.2811 35.7381ZM87.5908 35.2268C87.5813 34.6302 87.3683 34.1519 86.9516 33.7921C86.5349 33.4323 86.0188 33.2523 85.4033 33.2523C84.8446 33.2523 84.3664 33.4323 83.9687 33.7921C83.5709 34.1425 83.3342 34.6207 83.2584 35.2268H87.5908Z" fill="#0070C0"/>
<path d="M94.8235 31.8887C95.4391 31.8887 95.9883 32.0165 96.4713 32.2722C96.9637 32.5279 97.3472 32.9067 97.6218 33.4086C97.8964 33.9105 98.0338 34.5165 98.0338 35.2268V39.8432H96.4286V35.4682C96.4286 34.7675 96.2535 34.2324 95.9031 33.8631C95.5527 33.4843 95.0745 33.2949 94.4684 33.2949C93.8624 33.2949 93.3794 33.4843 93.0196 33.8631C92.6692 34.2324 92.494 34.7675 92.494 35.4682V39.8432H90.8747V32.0165H92.494V32.9114C92.7592 32.5895 93.0953 32.3385 93.5025 32.1586C93.9192 31.9787 94.3595 31.8887 94.8235 31.8887Z" fill="#0070C0"/>
<path d="M101.988 33.3376V37.6699C101.988 37.9635 102.055 38.1765 102.187 38.3091C102.329 38.4322 102.566 38.4938 102.898 38.4938H103.892V39.8432H102.613C101.884 39.8432 101.326 39.6727 100.937 39.3318C100.549 38.9909 100.355 38.437 100.355 37.6699V33.3376H99.4317V32.0165H100.355V30.0705H101.988V32.0165H103.892V33.3376H101.988Z" fill="#0070C0"/>
<path d="M104.845 35.8944C104.845 35.1084 105.006 34.4124 105.328 33.8063C105.659 33.2002 106.104 32.7315 106.663 32.4001C107.231 32.0592 107.856 31.8887 108.538 31.8887C109.153 31.8887 109.688 32.0118 110.143 32.258C110.607 32.4948 110.976 32.7931 111.251 33.1529V32.0165H112.884V39.8432H111.251V38.6784C110.976 39.0478 110.602 39.3555 110.129 39.6017C109.655 39.8479 109.115 39.971 108.509 39.971C107.837 39.971 107.221 39.8006 106.663 39.4597C106.104 39.1093 105.659 38.6264 105.328 38.0108C105.006 37.3858 104.845 36.6803 104.845 35.8944ZM111.251 35.9228C111.251 35.383 111.137 34.9143 110.91 34.5165C110.692 34.1188 110.403 33.8158 110.043 33.6074C109.684 33.3991 109.295 33.2949 108.879 33.2949C108.462 33.2949 108.074 33.3991 107.714 33.6074C107.354 33.8063 107.06 34.1046 106.833 34.5023C106.615 34.8906 106.506 35.3546 106.506 35.8944C106.506 36.4341 106.615 36.9076 106.833 37.3148C107.06 37.722 107.354 38.0345 107.714 38.2523C108.083 38.4606 108.471 38.5648 108.879 38.5648C109.295 38.5648 109.684 38.4606 110.043 38.2523C110.403 38.044 110.692 37.7409 110.91 37.3432C111.137 36.936 111.251 36.4625 111.251 35.9228Z" fill="#0070C0"/>
<path d="M116.631 29.3319V39.8432H115.011V29.3319H116.631Z" fill="#0070C0"/>
<path d="M41.9795 0.32666H38.5127V24.0152H41.9795V0.32666Z" fill="#00294B"/>
<path d="M51.4082 0.32666C53.3458 0.32666 54.7488 0.868576 55.6619 1.96726C56.4711 2.92489 56.8571 4.26113 56.8571 5.97597V9.42049C56.8571 11.1056 56.241 12.5235 54.9938 13.6742L57.5624 24.0152H53.8283L51.7275 15.0698C51.631 15.0698 51.527 15.0921 51.4082 15.0921H49.4336V24.0077H45.9668V0.32666H51.4082ZM53.4943 6.04278C53.4943 4.67685 52.8336 3.99388 51.5196 3.99388H49.4484V11.5733H51.5196C52.0838 11.5733 52.544 11.3729 52.9078 10.9572C53.3012 10.5637 53.472 10.0738 53.472 9.51699V6.0502L53.4943 6.04278Z" fill="#00294B"/>
<path d="M66.351 24.2972C64.8144 24.2972 63.5152 23.7553 62.4685 22.6566C61.3995 21.5579 60.8799 20.2366 60.8799 18.6479V5.67158C60.8799 4.10522 61.4218 2.75413 62.4908 1.66287C63.5598 0.56419 64.8589 0 66.3733 0C67.91 0 69.2091 0.56419 70.2558 1.66287C71.3025 2.76156 71.8444 4.10522 71.8444 5.67158V8.36632H68.2589V5.62704C68.2589 5.06285 68.0584 4.58032 67.665 4.1646C67.2715 3.77115 66.8113 3.54845 66.2471 3.54845C65.7052 3.54845 65.2523 3.74888 64.8589 4.1646C64.4655 4.55805 64.265 5.048 64.265 5.62704V18.6405C64.265 19.2047 64.4655 19.6872 64.8589 20.0807C65.2523 20.4741 65.7126 20.6745 66.2471 20.6745C66.8113 20.6745 67.2715 20.4741 67.665 20.0807C68.0584 19.6872 68.2589 19.1973 68.2589 18.6405V15.3741H71.8444V18.6553C71.8444 20.2217 71.3025 21.5728 70.2335 22.664C69.1571 23.7702 67.8654 24.2972 66.351 24.2972Z" fill="#00294B"/>
<path d="M79.023 13.9934V24.0077H75.5859V0.32666H79.023V10.393H83.2099V0.32666H86.647V24.0077H83.2099V13.9934H79.023Z" fill="#00294B"/>
<path d="M94.9393 18.559L94.0856 24.0078H90.5L94.3825 0.319336H99.1484L102.986 24.0078H99.3637L98.5323 18.559H94.9393ZM96.7432 5.75336L95.4515 15.0922H98.02L96.7432 5.75336Z" fill="#00294B"/>
<path d="M117.707 18.3361C117.707 19.9025 117.165 21.2239 116.118 22.3449C115.049 23.4435 113.772 24.0077 112.28 24.0077H106.831V0.32666H112.28C113.794 0.32666 115.071 0.890846 116.14 1.98953C117.187 3.08821 117.729 4.43187 117.729 5.97597V18.3361H117.707ZM110.276 20.4593H112.347C112.911 20.4593 113.371 20.2588 113.735 19.8431C114.106 19.42 114.299 18.9375 114.299 18.403V6.02051C114.299 5.45632 114.099 4.97379 113.705 4.58034C113.312 4.1869 112.852 3.96419 112.317 3.96419H110.246V20.4667L110.276 20.4593Z" fill="#00294B"/>
<path d="M24.6608 33.1971L21.632 26.4714C20.8229 24.6823 17.9425 23.3906 14.7653 23.3906C11.588 23.3906 8.70767 24.6823 7.8985 26.4491L4.8697 33.2045C4.5208 33.9617 4.59503 34.3478 5.07014 35.0901C6.11686 36.701 8.7819 37.384 11.7439 37.384H17.8089C20.7412 37.384 23.4285 36.701 24.4827 35.0901C24.9281 34.3403 25.0023 33.9692 24.6608 33.1971Z" fill="#2D6DCE"/>
<path d="M18.8628 17.0583C18.8628 19.3299 17.0292 21.1636 14.7576 21.1636C12.486 21.1636 10.6523 19.3299 10.6523 17.0583C10.6523 14.7867 12.486 12.9531 14.7576 12.9531C17.0292 12.9531 18.8628 14.7867 18.8628 17.0583Z" fill="#3C84F0"/>
<path d="M17.3784 13.8887C17.9723 14.5939 18.3361 15.5293 18.3361 16.5092C18.3361 18.7808 16.5025 20.6144 14.2309 20.6144C13.2361 20.6144 12.323 20.2432 11.6104 19.6568C12.2933 20.4882 13.3252 21.045 14.4758 21.1489C14.4758 21.1489 14.4758 21.1489 14.4981 21.1489C14.4981 21.1489 14.4981 21.1489 14.5204 21.1489C14.5204 21.1489 14.5204 21.1489 14.5426 21.1489C14.5649 21.1489 14.5649 21.1489 14.5946 21.1489C14.5946 21.1489 14.5946 21.1489 14.6169 21.1489C14.6169 21.1489 14.6169 21.1489 14.6392 21.1489C14.6392 21.1489 14.6392 21.1489 14.6614 21.1489C14.6614 21.1489 14.6614 21.1489 14.6837 21.1489C16.9553 21.1489 18.7889 19.3153 18.7889 17.0437C18.7889 17.0437 18.7889 17.0437 18.7889 17.0214V16.9991V16.9769V16.9546C18.7889 16.9546 18.7889 16.9546 18.7889 16.9323C18.6924 15.4476 18.1579 14.5419 17.3784 13.8887Z" fill="#2D6DCE"/>
<path d="M14.9286 23.3906C12.4863 23.4129 8.81905 24.6823 8.03958 26.4491L4.93654 33.2045C4.7658 33.5757 4.66187 33.9617 4.69157 34.3255C4.74353 34.5259 4.84004 34.7189 4.98851 34.9416C5.01078 34.9936 5.06275 35.0382 5.08502 35.0901C6.13173 36.701 8.79678 37.384 11.7365 37.384H14.936L14.9286 23.3906Z" fill="#3C84F0"/>
<path d="M14.758 5.7449C16.1982 5.7449 17.5715 6.04184 18.8409 6.52437L22.2854 4.52001C20.0881 3.15408 17.4676 2.36719 14.6912 2.36719C6.56983 2.36719 0 8.94444 0 17.0658C0 21.5941 2.0489 25.6474 5.24844 28.3273L6.39166 25.781C6.48817 25.536 6.63664 25.3133 6.78511 25.098C4.71394 23.0492 3.44452 20.2134 3.44452 17.0509C3.45194 10.8003 8.49995 5.7449 14.758 5.7449Z" fill="#3C84F0"/>
<path d="M25.4184 13.2429C25.8638 14.4381 26.1013 15.7149 26.1013 17.0586C26.1013 20.2136 24.8319 23.0419 22.7607 25.1057C22.9092 25.3284 23.0354 25.5511 23.1542 25.7886L24.2529 28.231C27.4079 25.5362 29.4048 21.5275 29.4048 17.066C29.4048 14.4009 28.6996 11.9141 27.4524 9.76123L25.4184 13.2429Z" fill="#2D6DCE"/>
<path d="M16.6436 10.7262C18.8929 11.3869 20.63 13.1983 21.1942 15.4921L27.6749 4.32715L16.6436 10.7262Z" fill="#5EB97A"/>
<path d="M27.4962 4.41602L16.6504 10.726C16.6504 10.726 16.6504 10.726 16.6727 10.726C17.7713 11.0452 18.7438 11.6317 19.5381 12.4409L27.4962 4.41602Z" fill="#69D790"/>
</svg>
