<svg width="58" height="58" viewBox="0 0 58 58" fill="none" xmlns="http://www.w3.org/2000/svg">
<circle cx="29" cy="29" r="29" fill="white"/>
<path d="M20.901 28.642C20.901 26.6813 21.2523 25.1457 21.955 24.035C22.669 22.9243 23.8477 22.369 25.491 22.369C27.1343 22.369 28.3073 22.9243 29.01 24.035C29.724 25.1457 30.081 26.6813 30.081 28.642C30.081 30.614 29.724 32.161 29.01 33.283C28.3073 34.405 27.1343 34.966 25.491 34.966C23.8477 34.966 22.669 34.405 21.955 33.283C21.2523 32.161 20.901 30.614 20.901 28.642ZM27.735 28.642C27.735 27.8033 27.6783 27.1007 27.565 26.534C27.463 25.956 27.2477 25.4857 26.919 25.123C26.6017 24.7603 26.1257 24.579 25.491 24.579C24.8563 24.579 24.3747 24.7603 24.046 25.123C23.7287 25.4857 23.5133 25.956 23.4 26.534C23.298 27.1007 23.247 27.8033 23.247 28.642C23.247 29.5033 23.298 30.2287 23.4 30.818C23.502 31.396 23.7173 31.8663 24.046 32.229C24.3747 32.5803 24.8563 32.756 25.491 32.756C26.1257 32.756 26.6073 32.5803 26.936 32.229C27.2647 31.8663 27.48 31.396 27.582 30.818C27.684 30.2287 27.735 29.5033 27.735 28.642ZM31.6022 24.8V22.607H35.6992V35H33.2512V24.8H31.6022Z" fill="#00294B"/>
</svg>
