<svg width="58" height="58" viewBox="0 0 58 58" fill="none" xmlns="http://www.w3.org/2000/svg">
<circle cx="29" cy="29" r="29" fill="#3C84F0"/>
<path d="M18.901 28.642C18.901 26.6813 19.2523 25.1457 19.955 24.035C20.669 22.9243 21.8477 22.369 23.491 22.369C25.1343 22.369 26.3073 22.9243 27.01 24.035C27.724 25.1457 28.081 26.6813 28.081 28.642C28.081 30.614 27.724 32.161 27.01 33.283C26.3073 34.405 25.1343 34.966 23.491 34.966C21.8477 34.966 20.669 34.405 19.955 33.283C19.2523 32.161 18.901 30.614 18.901 28.642ZM25.735 28.642C25.735 27.8033 25.6783 27.1007 25.565 26.534C25.463 25.956 25.2477 25.4857 24.919 25.123C24.6017 24.7603 24.1257 24.579 23.491 24.579C22.8563 24.579 22.3747 24.7603 22.046 25.123C21.7287 25.4857 21.5133 25.956 21.4 26.534C21.298 27.1007 21.247 27.8033 21.247 28.642C21.247 29.5033 21.298 30.2287 21.4 30.818C21.502 31.396 21.7173 31.8663 22.046 32.229C22.3747 32.5803 22.8563 32.756 23.491 32.756C24.1257 32.756 24.6073 32.5803 24.936 32.229C25.2647 31.8663 25.48 31.396 25.582 30.818C25.684 30.2287 25.735 29.5033 25.735 28.642ZM30.6392 32.314C31.7272 31.4073 32.5942 30.6537 33.2402 30.053C33.8862 29.441 34.4246 28.8063 34.8552 28.149C35.2859 27.4917 35.5012 26.8457 35.5012 26.211C35.5012 25.633 35.3652 25.1797 35.0932 24.851C34.8212 24.5223 34.4019 24.358 33.8352 24.358C33.2686 24.358 32.8322 24.5507 32.5262 24.936C32.2202 25.31 32.0616 25.8257 32.0502 26.483H29.7382C29.7836 25.123 30.1859 24.0917 30.9452 23.389C31.7159 22.6863 32.6906 22.335 33.8692 22.335C35.1612 22.335 36.1529 22.6807 36.8442 23.372C37.5356 24.052 37.8812 24.953 37.8812 26.075C37.8812 26.959 37.6432 27.8033 37.1672 28.608C36.6912 29.4127 36.1472 30.1153 35.5352 30.716C34.9232 31.3053 34.1242 32.0193 33.1382 32.858H38.1532V34.83H29.7552V33.062L30.6392 32.314Z" fill="white"/>
</svg>
