<svg width="58" height="58" viewBox="0 0 58 58" fill="none" xmlns="http://www.w3.org/2000/svg">
<circle cx="29" cy="29" r="29" fill="#3C84F0"/>
<path d="M18.901 28.642C18.901 26.6813 19.2523 25.1457 19.955 24.035C20.669 22.9243 21.8477 22.369 23.491 22.369C25.1343 22.369 26.3073 22.9243 27.01 24.035C27.724 25.1457 28.081 26.6813 28.081 28.642C28.081 30.614 27.724 32.161 27.01 33.283C26.3073 34.405 25.1343 34.966 23.491 34.966C21.8477 34.966 20.669 34.405 19.955 33.283C19.2523 32.161 18.901 30.614 18.901 28.642ZM25.735 28.642C25.735 27.8033 25.6783 27.1007 25.565 26.534C25.463 25.956 25.2477 25.4857 24.919 25.123C24.6017 24.7603 24.1257 24.579 23.491 24.579C22.8563 24.579 22.3747 24.7603 22.046 25.123C21.7287 25.4857 21.5133 25.956 21.4 26.534C21.298 27.1007 21.247 27.8033 21.247 28.642C21.247 29.5033 21.298 30.2287 21.4 30.818C21.502 31.396 21.7173 31.8663 22.046 32.229C22.3747 32.5803 22.8563 32.756 23.491 32.756C24.1257 32.756 24.6073 32.5803 24.936 32.229C25.2647 31.8663 25.48 31.396 25.582 30.818C25.684 30.2287 25.735 29.5033 25.735 28.642ZM29.9252 25.871C29.9819 24.7377 30.3786 23.865 31.1152 23.253C31.8632 22.6297 32.8436 22.318 34.0562 22.318C34.8836 22.318 35.5919 22.4653 36.1812 22.76C36.7706 23.0433 37.2126 23.4343 37.5072 23.933C37.8132 24.4203 37.9662 24.9757 37.9662 25.599C37.9662 26.313 37.7792 26.9193 37.4052 27.418C37.0426 27.9053 36.6062 28.234 36.0962 28.404V28.472C36.7536 28.676 37.2636 29.0387 37.6262 29.56C38.0002 30.0813 38.1872 30.75 38.1872 31.566C38.1872 32.246 38.0286 32.8523 37.7112 33.385C37.4052 33.9177 36.9462 34.337 36.3342 34.643C35.7336 34.9377 35.0082 35.085 34.1582 35.085C32.8776 35.085 31.8349 34.762 31.0302 34.116C30.2256 33.47 29.8006 32.518 29.7552 31.26H32.0672C32.0899 31.8153 32.2769 32.263 32.6282 32.603C32.9909 32.9317 33.4839 33.096 34.1072 33.096C34.6852 33.096 35.1272 32.9373 35.4332 32.62C35.7506 32.2913 35.9092 31.872 35.9092 31.362C35.9092 30.682 35.6939 30.1947 35.2632 29.9C34.8326 29.6053 34.1639 29.458 33.2572 29.458H32.7642V27.503H33.2572C34.8666 27.503 35.6712 26.9647 35.6712 25.888C35.6712 25.4007 35.5239 25.021 35.2292 24.749C34.9459 24.477 34.5322 24.341 33.9882 24.341C33.4556 24.341 33.0419 24.4883 32.7472 24.783C32.4639 25.0663 32.2996 25.429 32.2542 25.871H29.9252Z" fill="white"/>
</svg>
