<svg width="58" height="58" viewBox="0 0 58 58" fill="none" xmlns="http://www.w3.org/2000/svg">
<circle cx="29" cy="29" r="29" fill="#3C84F0"/>
<path d="M17.901 28.642C17.901 26.6813 18.2523 25.1457 18.955 24.035C19.669 22.9243 20.8477 22.369 22.491 22.369C24.1343 22.369 25.3073 22.9243 26.01 24.035C26.724 25.1457 27.081 26.6813 27.081 28.642C27.081 30.614 26.724 32.161 26.01 33.283C25.3073 34.405 24.1343 34.966 22.491 34.966C20.8477 34.966 19.669 34.405 18.955 33.283C18.2523 32.161 17.901 30.614 17.901 28.642ZM24.735 28.642C24.735 27.8033 24.6783 27.1007 24.565 26.534C24.463 25.956 24.2477 25.4857 23.919 25.123C23.6017 24.7603 23.1257 24.579 22.491 24.579C21.8563 24.579 21.3747 24.7603 21.046 25.123C20.7287 25.4857 20.5133 25.956 20.4 26.534C20.298 27.1007 20.247 27.8033 20.247 28.642C20.247 29.5033 20.298 30.2287 20.4 30.818C20.502 31.396 20.7173 31.8663 21.046 32.229C21.3747 32.5803 21.8563 32.756 22.491 32.756C23.1257 32.756 23.6073 32.5803 23.936 32.229C24.2647 31.8663 24.48 31.396 24.582 30.818C24.684 30.2287 24.735 29.5033 24.735 28.642ZM28.7892 32.586V30.716L34.3482 22.76H37.1192V30.512H38.6152V32.586H37.1192V35H34.7392V32.586H28.7892ZM34.8922 25.31L31.4072 30.512H34.8922V25.31Z" fill="white"/>
</svg>
