<svg width="17" height="17" viewBox="0 0 17 17" fill="none" xmlns="http://www.w3.org/2000/svg">
<path d="M15.5614 12.9841C15.5614 13.2391 15.5048 13.5012 15.3843 13.7562C15.2639 14.0112 15.1081 14.252 14.9027 14.4787C14.5556 14.8612 14.1731 15.1374 13.741 15.3145C13.316 15.4916 12.8556 15.5837 12.3598 15.5837C11.6373 15.5837 10.8652 15.4137 10.0506 15.0666C9.23602 14.7195 8.42143 14.252 7.61393 13.6641C6.79935 13.0691 6.02727 12.4103 5.2906 11.6807C4.56102 10.9441 3.90227 10.172 3.31435 9.36449C2.73352 8.55699 2.26602 7.74949 1.92602 6.94908C1.58602 6.14158 1.41602 5.36949 1.41602 4.63283C1.41602 4.15116 1.50102 3.69074 1.67102 3.26574C1.84102 2.83366 2.11018 2.43699 2.4856 2.08283C2.93893 1.63658 3.43477 1.41699 3.95893 1.41699C4.15727 1.41699 4.3556 1.45949 4.53268 1.54449C4.71685 1.62949 4.87977 1.75699 5.00727 1.94116L6.6506 4.25741C6.7781 4.43449 6.87018 4.59741 6.93393 4.75324C6.99768 4.90199 7.0331 5.05074 7.0331 5.18533C7.0331 5.35533 6.98352 5.52532 6.88435 5.68824C6.79227 5.85116 6.65768 6.02116 6.48768 6.19116L5.94935 6.75074C5.87143 6.82866 5.83602 6.92074 5.83602 7.03408C5.83602 7.09074 5.8431 7.14032 5.85727 7.19699C5.87852 7.25366 5.89977 7.29616 5.91393 7.33866C6.04143 7.57241 6.26102 7.87699 6.57268 8.24532C6.89143 8.61366 7.23143 8.98907 7.59977 9.36449C7.98227 9.73991 8.3506 10.087 8.72602 10.4057C9.09435 10.7174 9.39893 10.9299 9.63977 11.0574C9.67518 11.0716 9.71768 11.0928 9.76727 11.1141C9.82393 11.1353 9.8806 11.1424 9.94435 11.1424C10.0648 11.1424 10.1568 11.0999 10.2348 11.022L10.7731 10.4907C10.9502 10.3137 11.1202 10.1791 11.2831 10.0941C11.446 9.99491 11.6089 9.94532 11.786 9.94532C11.9206 9.94532 12.0623 9.97366 12.2181 10.0374C12.3739 10.1012 12.5369 10.1932 12.7139 10.3137L15.0585 11.9782C15.2427 12.1057 15.3702 12.2545 15.4481 12.4316C15.5189 12.6087 15.5614 12.7857 15.5614 12.9841Z" stroke="white" stroke-miterlimit="10"/>
</svg>
