<svg width="12" height="15" viewBox="0 0 12 15" fill="none" xmlns="http://www.w3.org/2000/svg">
<path d="M0.666016 14.6665C0.666016 13.252 1.22792 11.8955 2.22811 10.8953C3.22831 9.89507 4.58486 9.33317 5.99935 9.33317C7.41384 9.33317 8.77039 9.89507 9.77059 10.8953C10.7708 11.8955 11.3327 13.252 11.3327 14.6665H9.99935C9.99935 13.6056 9.57792 12.5882 8.82778 11.8381C8.07763 11.0879 7.06021 10.6665 5.99935 10.6665C4.93848 10.6665 3.92107 11.0879 3.17092 11.8381C2.42078 12.5882 1.99935 13.6056 1.99935 14.6665H0.666016ZM5.99935 8.6665C3.78935 8.6665 1.99935 6.8765 1.99935 4.6665C1.99935 2.4565 3.78935 0.666504 5.99935 0.666504C8.20935 0.666504 9.99935 2.4565 9.99935 4.6665C9.99935 6.8765 8.20935 8.6665 5.99935 8.6665ZM5.99935 7.33317C7.47268 7.33317 8.66602 6.13984 8.66602 4.6665C8.66602 3.19317 7.47268 1.99984 5.99935 1.99984C4.52602 1.99984 3.33268 3.19317 3.33268 4.6665C3.33268 6.13984 4.52602 7.33317 5.99935 7.33317Z" fill="white"/>
</svg>
