<svg width="17" height="17" viewBox="0 0 17 17" fill="none" xmlns="http://www.w3.org/2000/svg">
<path d="M8.50032 15.5832C12.4123 15.5832 15.5837 12.4119 15.5837 8.49984C15.5837 4.58782 12.4123 1.4165 8.50032 1.4165C4.58831 1.4165 1.41699 4.58782 1.41699 8.49984C1.41699 12.4119 4.58831 15.5832 8.50032 15.5832Z" stroke="white" stroke-linecap="round" stroke-linejoin="round"/>
<path d="M5.66647 2.125H6.3748C4.99355 6.26167 4.99355 10.7383 6.3748 14.875H5.66647" stroke="white" stroke-linecap="round" stroke-linejoin="round"/>
<path d="M10.625 2.125C12.0062 6.26167 12.0062 10.7383 10.625 14.875" stroke="white" stroke-linecap="round" stroke-linejoin="round"/>
<path d="M2.125 11.3333V10.625C6.26167 12.0062 10.7383 12.0062 14.875 10.625V11.3333" stroke="white" stroke-linecap="round" stroke-linejoin="round"/>
<path d="M2.125 6.37541C6.26167 4.99417 10.7383 4.99417 14.875 6.37541" stroke="white" stroke-linecap="round" stroke-linejoin="round"/>
</svg>
