<svg xmlns="http://www.w3.org/2000/svg" xmlns:xlink="http://www.w3.org/1999/xlink" width="992.828" height="837.503" viewBox="0 0 992.828 837.503">
    <defs>
        <linearGradient id="linear-gradient" x1="0.5" x2="1.188" y2="1.07" gradientUnits="objectBoundingBox">
            <stop offset="0" stop-color="#0969c9"/>
            <stop offset="1" stop-color="#64d88d"/>
        </linearGradient>
        <clipPath id="clip-path">
            <path id="Bg_Shape" data-name="Bg Shape" d="M1136.907,1401.8s.751,26.175.03,70.891c-48.549,30.787-202.067,58.819-304.492-83.58-191.806-266.663-453.038-221.147-602.6-304.725S155.195,881.753,241.9,660.623c11.84-1.159,892.725,0,892.725,0l1.333,235.767-.444,73.57.444,209.523.952,138.7Z" transform="translate(788.269 -658.544)" fill="none" stroke="#707070" stroke-width="1"/>
        </clipPath>
    </defs>
    <g id="Groupe_1604" data-name="Groupe 1604" transform="translate(-932.69 -1.564)">
        <path id="Bg_Shape-2" data-name="Bg Shape" d="M1136.907,1401.8s.751,26.175.03,70.891c-48.549,30.787-202.067,58.819-304.492-83.58-191.806-266.663-453.038-221.147-602.6-304.725S155.195,881.753,241.9,660.623c11.84-1.159,892.725,0,892.725,0l1.333,235.767-.444,73.57.444,209.523.952,138.7Z" transform="translate(788.269 -658.544)" fill="url(#linear-gradient)"/>
        <g id="Groupe_1602" data-name="Groupe 1602">
            <g id="logo-white" transform="translate(1412 -366.6)" opacity="0.06">
                <path id="Tracé_1307" data-name="Tracé 1307" d="M228.2,637.812A53.5,53.5,0,0,1,265.045,676.4L317.518,586,228.2,637.812" transform="translate(-89.441 -10.532)" fill="#e0e0e0"/>
                <path id="Tracé_1313" data-name="Tracé 1313" d="M228.676,922.2l-24.523-54.456c-6.552-14.486-29.873-24.944-55.6-24.944s-49.047,10.458-55.6,24.764l-24.523,54.7c-2.825,6.131-2.224,9.256,1.623,15.267C78.53,950.57,100.108,956.1,124.091,956.1H173.2c23.742,0,45.5-5.53,54.036-18.573,3.606-6.071,4.208-9.076,1.443-15.327" transform="translate(-25.002 -112.978)" fill="#e0e0e0"/>
                <path id="Tracé_1314" data-name="Tracé 1314" d="M213.978,735.439A33.239,33.239,0,1,1,180.739,702.2a33.194,33.194,0,0,1,33.239,33.239" transform="translate(-57.247 -56.888)" fill="#fff"/>
                <path id="Tracé_1315" data-name="Tracé 1315" d="M200.944,787.707h0m0,0h0m-.24,0h0m0,0h0m-.18,0h0m-.18,0h0m0,0h0m-.18,0h0m0,0h0m-.18,0h0m-.18,0h0m0,0h0m-.24,0h0m0,0h0m-.18,0h0m-.361,0h0m0,0h0m-.24,0h0m-.18,0h0m35.763-33.239h0m0-.18h0m0,0h0m0-.241h0m0-.18h0m0,0h0m0-.181h0m0,0h0m0-.24h0m0-.18h0m0,0h0m0-.181h0m0,0h0m0-.24h0m0-.18h0m0,0h0m0-.421v0m0,0h0m0-.181h0m0,0h0m0-.18h0m0,0h0m0-.24h0m0-.181h0m0,0h0m0-.18h0m0,0h0m0-.241h0m-.18-.18h0m0,0h0m0-.12h0m0,0h0m0-.24h0m0-.181h0m0,0h0m0-.18h0m0,0h0m0-.241h0" transform="translate(-77.633 -75.917)" fill="#0969c9"/>
                <path id="Tracé_1316" data-name="Tracé 1316" d="M207.1,714.8a33.15,33.15,0,0,1-46.7,46.7,34,34,0,0,0,23.2,12.082h1.683a33.194,33.194,0,0,0,33.239-33.239h0v-.181h0v-.18h0v-.18h0v-.18h0v-.18h0c-.781-12.021-5.109-19.354-11.42-24.644" transform="translate(-62.394 -61.915)" fill="#e0e0e0"/>
                <path id="Tracé_1317" data-name="Tracé 1317" d="M150.06,842.8c-19.775.181-49.468,10.458-55.779,24.764l-25.124,54.7a18.569,18.569,0,0,0-1.984,9.076,16.376,16.376,0,0,0,2.4,4.989c.18.421.6.782.781,1.2,8.475,13.043,30.053,18.573,53.855,18.573H150.12l-.06-113.3" transform="translate(-25.186 -112.979)" fill="#fff"/>
                <path id="Tracé_1318" data-name="Tracé 1318" d="M316.115,587.2,228.3,638.291h.18a53.062,53.062,0,0,1,23.2,13.885L316.115,587.2" transform="translate(-89.481 -11.011)" fill="#fff"/>
                <path id="Tracé_1319" data-name="Tracé 1319" d="M123.492,586.948a92.915,92.915,0,0,1,33.059,6.312l27.889-16.229A116.437,116.437,0,0,0,122.951,559.6,119.03,119.03,0,0,0,46.5,769.792l9.256-20.617a28.106,28.106,0,0,1,3.186-5.53,91.677,91.677,0,0,1,64.554-156.7Z" transform="translate(0 0)" fill="#fff"/>
                <path id="Tracé_1320" data-name="Tracé 1320" d="M332.118,687.39a87.982,87.982,0,0,1,5.53,30.895A91.4,91.4,0,0,1,310.6,783.44a50.642,50.642,0,0,1,3.186,5.53l8.9,19.775a118.641,118.641,0,0,0,41.714-90.4A117.393,117.393,0,0,0,348.587,659.2Z" transform="translate(-122.314 -39.734)" fill="#e0e0e0"/>
            </g>
            <g id="Groupe_de_masques_2" data-name="Groupe de masques 2" clip-path="url(#clip-path)">
                <ellipse id="Ellipse_3" data-name="Ellipse 3" cx="135" cy="140" rx="135" ry="140" transform="translate(1130 -154)" fill="rgba(255,255,255,0.04)"/>
                <path id="Tracé_1321" data-name="Tracé 1321" d="M515,15006.619s113.072-247.684,292.718-185.932,303.153-519.291,564.2-247.014S1758.132,14220,1758.132,14220" transform="matrix(0.588, 0.809, -0.809, 0.588, 12570.791, -9284.563)" fill="none" stroke="#fff" stroke-width="4" opacity="0.08"/>
                <path id="Tracé_1322" data-name="Tracé 1322" d="M515,15007.119s103.737-348.216,324.64-248.56,410.249-317.237,597.934-209.276c23.648,13.6,46.426,18.53,68.456,16.729,150.6-12.308,252.1-347.256,252.1-347.256" transform="matrix(0.616, 0.788, -0.788, 0.616, 12126.846, -9557.694)" fill="none" stroke="#fff" stroke-width="2" opacity="0.08"/>
                <ellipse id="Ellipse_2" data-name="Ellipse 2" cx="135" cy="140" rx="135" ry="140" transform="translate(1771 535)" fill="rgba(255,255,255,0.04)"/>
            </g>
        </g>
    </g>
</svg>
