<?xml version="1.0" encoding="utf-8"?>
<!-- Generator: Adobe Illustrator 24.2.1, SVG Export Plug-In . SVG Version: 6.00 Build 0)  -->
<svg version="1.1" id="Composant_2_8" xmlns="http://www.w3.org/2000/svg" xmlns:xlink="http://www.w3.org/1999/xlink" x="0px"
	 y="0px" viewBox="0 0 740.5 749.2" style="enable-background:new 0 0 740.5 749.2;" xml:space="preserve">
<style type="text/css">
	.st0{fill:url(#Intersection_1_2_);}
	.st1{fill:none;stroke:url(#Intersection_1_3_);stroke-miterlimit:10;}
	.st2{opacity:6.000000e-02;}
	.st3{fill:#E0E0E0;}
	.st4{fill:#FFFFFF;}
	.st5{fill:#0969C9;}
	.st6{clip-path:url(#SVGID_2_);}
	.st7{opacity:8.000000e-02;fill:none;stroke:#FFFFFF;stroke-width:4.0005;stroke-miterlimit:4.0005;enable-background:new    ;}
	.st8{opacity:8.000000e-02;fill:none;stroke:#FFFFFF;stroke-width:2.0004;stroke-miterlimit:4.0008;enable-background:new    ;}
	.st9{opacity:8.000000e-02;fill:#FFFFFF;}
</style>
	<linearGradient id="Intersection_1_2_" gradientUnits="userSpaceOnUse" x1="-132.6246" y1="847.0333" x2="-131.9366" y2="845.9633" gradientTransform="matrix(736.957 0 0 -748.561 98064.0703 634086.875)">
	<stop  offset="0" style="stop-color:#0969C9"/>
		<stop  offset="1" style="stop-color:#64D88D"/>
</linearGradient>
	<path id="Intersection_1" class="st0" d="M540.6,625.9C376,397.1,284.6,434.5,156.3,362.8S-40.6,190.5,33.8,0.8
	c0.3,0,1.7-0.1,3.9-0.1h702.4v748.6C663.2,725.4,582.7,684.5,540.6,625.9z"/>
	<linearGradient id="Intersection_1_3_" gradientUnits="userSpaceOnUse" x1="228.2308" y1="-123.3313" x2="769.2888" y2="731.3895">
	<stop  offset="0" style="stop-color:#0969C9"/>
		<stop  offset="1" style="stop-color:#64D88D"/>
</linearGradient>
	<path id="Intersection_1_1_" class="st1" d="M540.6,625.6C376,396.7,284.6,434.2,156.3,362.4S-40.6,190.2,33.8,0.4
	c0.3,0,1.7-0.1,3.9-0.1h702.4v748.6C663.2,725.1,582.7,684.2,540.6,625.6z"/>
	<g id="logo-white" transform="translate(561.166 80.178)" class="st2">
	<path id="Tracé_1307" class="st3" d="M-20.7,67.7c18.3,5.4,32.3,20.1,36.8,38.6l52.5-90.4L-20.7,67.7"/>
		<path id="Tracé_1313" class="st3" d="M44.2,249.6l-24.5-54.5c-6.6-14.5-29.9-24.9-55.6-24.9s-49,10.5-55.6,24.8l-24.5,54.7
		c-2.8,6.1-2.2,9.3,1.6,15.3c8.5,13,30.1,18.6,54,18.6h49.1c23.7,0,45.5-5.5,54-18.6C46.4,258.9,47,255.9,44.2,249.6"/>
		<path id="Tracé_1314" class="st4" d="M-2.7,119c0,18.4-14.9,33.2-33.2,33.2c-18.4,0-33.2-14.9-33.2-33.2
		c0-18.4,14.9-33.2,33.2-33.2C-17.6,85.7-2.7,100.5-2.7,119C-2.7,118.9-2.7,118.9-2.7,119"/>
		<path id="Tracé_1315" class="st5" d="M-36.1,152.2L-36.1,152.2 M-36.1,152.2L-36.1,152.2 M-36.4,152.2L-36.4,152.2 M-36.4,152.2
		L-36.4,152.2 M-36.6,152.2L-36.6,152.2 M-36.7,152.2L-36.7,152.2 M-36.7,152.2L-36.7,152.2 M-36.9,152.2L-36.9,152.2 M-36.9,152.2
		L-36.9,152.2 M-37.1,152.2L-37.1,152.2 M-37.3,152.2L-37.3,152.2 M-37.3,152.2L-37.3,152.2 M-37.5,152.2L-37.5,152.2 M-37.5,152.2
		L-37.5,152.2 M-37.7,152.2L-37.7,152.2 M-38.1,152.2L-38.1,152.2 M-38.1,152.2L-38.1,152.2 M-38.3,152.2L-38.3,152.2 M-38.5,152.2
		L-38.5,152.2 M-2.7,119L-2.7,119 M-2.7,118.8L-2.7,118.8 M-2.7,118.8L-2.7,118.8 M-2.7,118.5L-2.7,118.5 M-2.7,118.4L-2.7,118.4
		 M-2.7,118.4L-2.7,118.4 M-2.7,118.2L-2.7,118.2 M-2.7,118.2L-2.7,118.2 M-2.7,117.9L-2.7,117.9 M-2.7,117.7L-2.7,117.7
		 M-2.7,117.7L-2.7,117.7 M-2.7,117.6L-2.7,117.6 M-2.7,117.6L-2.7,117.6 M-2.7,117.3L-2.7,117.3 M-2.7,117.1L-2.7,117.1
		 M-2.7,117.1L-2.7,117.1 M-2.7,116.7L-2.7,116.7 M-2.7,116.7L-2.7,116.7 M-2.7,116.5L-2.7,116.5 M-2.7,116.5L-2.7,116.5
		 M-2.7,116.4L-2.7,116.4 M-2.7,116.4L-2.7,116.4 M-2.7,116.1L-2.7,116.1 M-2.7,115.9L-2.7,115.9 M-2.7,115.9L-2.7,115.9
		 M-2.7,115.8L-2.7,115.8 M-2.7,115.8L-2.7,115.8 M-2.7,115.5L-2.7,115.5 M-2.9,115.3L-2.9,115.3 M-2.9,115.3L-2.9,115.3
		 M-2.9,115.2L-2.9,115.2 M-2.9,115.2L-2.9,115.2 M-2.9,115L-2.9,115 M-2.9,114.8L-2.9,114.8 M-2.9,114.8L-2.9,114.8 M-2.9,114.6
		L-2.9,114.6 M-2.9,114.6L-2.9,114.6 M-2.9,114.4L-2.9,114.4"/>
		<path id="Tracé_1316" class="st3" d="M-14.7,93.3c11.8,14,9.9,34.9-4.1,46.7c-12.3,10.3-30.3,10.3-42.6,0
		c5.8,7,14.2,11.3,23.2,12.1h1.7c18.3,0,33.2-14.8,33.2-33.1c0,0,0-0.1,0-0.1l0,0v-0.2l0,0v-0.2l0,0v-0.2l0,0v-0.2l0,0v-0.2l0,0
		C-4.1,105.9-8.4,98.6-14.7,93.3"/>
		<path id="Tracé_1317" class="st4" d="M-34.6,170.2c-19.8,0.2-49.5,10.5-55.8,24.8l-25.1,54.7c-1.4,2.8-2.1,5.9-2,9.1
		c0.5,1.8,1.3,3.5,2.4,5c0.2,0.4,0.6,0.8,0.8,1.2c8.5,13,30.1,18.6,53.9,18.6h25.9L-34.6,170.2"/>
		<path id="Tracé_1318" class="st4" d="M67.2,16.6l-87.8,51.1h0.2c8.8,2.5,16.8,7.3,23.2,13.9L67.2,16.6"/>
		<path id="Tracé_1319" class="st4" d="M-36,27.3c11.3,0.1,22.5,2.2,33.1,6.3L25,17.4C6.5,6-14.8,0-36.5,0
		c-65.7,0-119,53.4-118.9,119.1c0,35.1,15.6,68.5,42.5,91.1l9.3-20.6c0.8-2,1.9-3.8,3.2-5.5c-35.9-35.7-36.1-93.7-0.4-129.7
		C-83.7,37.1-60.3,27.4-36,27.3L-36,27.3z"/>
		<path id="Tracé_1320" class="st3" d="M50.4,88.1c3.7,9.9,5.6,20.3,5.5,30.9c0.1,24.5-9.7,47.9-27,65.2c1.2,1.8,2.2,3.6,3.2,5.5
		l8.9,19.8c26.5-22.6,41.7-55.6,41.7-90.4c0.1-20.8-5.4-41.2-15.8-59.1L50.4,88.1z"/>
</g>
	<g>
	<defs>
		<path id="SVGID_1_" d="M979.7,784c0,0,0.7,64.8,0,109.5c-48.5,30.8-344.7-22-447.1-164.4C340.8,462.5,79.5,508-70,424.5
			S-144.7,221.8-58,0.7C-46.1-0.5,979.7,0.2,979.7,0.2L979.7,784L979.7,784z"/>
	</defs>
		<clipPath id="SVGID_2_">
		<use xlink:href="#SVGID_1_"  style="overflow:visible;"/>
	</clipPath>
		<g id="Groupe_de_masques_2" transform="translate(32.5)" class="st6">
		<path id="Tracé_1321_1_" class="st7" d="M90.5-0.7C109,18.7,124,44.5,132.7,78.6c46.7,181.6,501.5-60.1,445.5,311.2
			c-22.6,149.7,43,195.7,129.3,197.2"/>
			<path id="Tracé_1322_3_" class="st8" d="M1040.4,579.8"/>
			<path id="Tracé_1322_1_" class="st8" d="M-24.7,80.2c34.1,21.4,61.1,55.7,73.9,108.4C106.8,424,551.9,316.4,582.5,530.8
			c3.9,27,14,48,29,64.2c23.1,25,57.5,38,97,43.1"/>
			<path class="st9" d="M177.7,0c7.6,69.9,64.7,124.2,134.1,124.2S438.4,69.9,445.9,0H177.7z"/>
			<path class="st9" d="M708.4,638.2v-40.6c-14.3,22.2-22.6,48.9-22.6,77.6c0,26.5,7.1,51.2,19.4,72.3c1.1,0.3,2.2,0.7,3.2,1V638.2"
			/>
	</g>
</g>
</svg>
