<?xml version="1.0" encoding="utf-8"?>
<!-- Generator: Adobe Illustrator 24.1.2, SVG Export Plug-In . SVG Version: 6.00 Build 0)  -->
<svg version="1.1" id="Calque_1" xmlns="http://www.w3.org/2000/svg" xmlns:xlink="http://www.w3.org/1999/xlink" x="0px" y="0px"
	 viewBox="0 0 9070.87 3401.57" style="enable-background:new 0 0 9070.87 3401.57;" xml:space="preserve">
<style type="text/css">
	.st0{fill:#73BD85;}
	.st1{fill:#2867B1;}
</style>
<rect x="141.73" y="2778.32" class="st0" width="8787.4" height="143.2"/>
<g>
	<path class="st1" d="M8685.79,1612.76c0,64.64,39.42,92.89,67.01,113.08c27.59,8.06,63.07-64.62,63.07-64.62
		s-15.77-16.14-39.42-28.27c-23.65-12.11-43.36-60.6-43.36-60.6l-15.74-355.41l7.86-28.28l-51.24-84.81l-55.18,88.85
		c51.24,72.71,47.28,88.86,47.28,88.86S8677.88,1544.09,8685.79,1612.76z"/>
	<path class="st1" d="M8512.31,1548.12c-23.65,28.27-35.47-12.1-35.47-12.1s0-270.62-3.94-311c3.94-16.15-11.83-52.51-11.83-52.51
		l-55.18-72.71l-59.15,88.87l74.92,80.78c0,0,0,214.06,0,294.85c-3.94,80.79-63.07,96.93-86.74,96.93
		c-39.42,4.03-70.97-28.27-82.8-48.46c0-32.3-43.36-20.22-43.36-20.22s-55.21,56.56-70.97,56.56
		c-102.48,56.55-137.98-32.32-137.98-32.32s3.94-319.08,0-387.74c7.91-84.84-43.38-153.49-43.38-153.49s-51.24,76.75-78.83,133.3
		c59.15,44.43,59.15,68.66,59.15,68.66v339.27l-43.38,64.62l82.8,76.74l19.73-20.19c0,0,31.51-4.03,78.83-4.03
		c59.15,0,90.66-32.33,98.57-56.55c19.73-32.31,51.24,8.08,59.15,24.22c0,28.27,31.51,28.29,31.51,28.29s51.24-4.05,70.97-4.05
		c19.73,0,47.32-16.15,63.09-44.43c35.47-48.47,35.47,20.19,51.24,32.31c15.77,44.43,63.07,24.24,82.8,12.13
		c23.65-20.19,70.95-84.81,82.77-133.3C8618.73,1483.5,8539.9,1523.9,8512.31,1548.12z M8488.66,1620.83c0,0,70.92-56.55,74.89,8.08
		C8559.63,1657.19,8512.31,1701.62,8488.66,1620.83z"/>
	<path class="st1" d="M7794.84,1548.12c-78.86,40.38-193.21-64.62-224.77-96.93c-94.62-153.49,31.56-294.85,51.29-319.08
		c7.91-36.36-35.5-16.15-35.5-16.15s-35.47,48.46-74.89,96.93c-86.74,149.44,31.51,306.97,51.24,335.23
		c19.73,16.14,23.65,32.31,35.5,56.55c-43.36,28.27-90.71,12.11-134.07,0c-67.01-4.05-82.8,92.9-82.8,92.9h149.81l3.97,52.51
		l27.59,12.11l82.8-113.09c0,0,126.16,8.09,161.61,4.04C7889.39,1596.59,7822.4,1556.21,7794.84,1548.12z"/>
	<path class="st1" d="M7337.49,1523.9c-39.42,24.22-145.87,88.88-157.69,133.29c-11.85,48.46-47.3,125.2-3.94,181.74
		c7.91,20.19,19.68,76.76-55.21,36.36c-35.45-12.11-102.51-117.15-114.33-113.09c3.97,48.47,31.53,206,212.9,222.15
		c31.56,0,114.36-4.05,19.71-113.11c-35.47-52.5-82.75-96.9-15.74-193.86c35.47-36.36,63.07-68.66,86.74-60.6l35.42,44.43
		C7345.34,1661.21,7447.88,1536.02,7337.49,1523.9z"/>
	<path class="st1" d="M6943.25,1451.19c0,0-82.77,133.29-90.68,193.88c-3.92,153.48,149.83,68.64,149.83,68.64l63.07-100.95
		l7.91-416.04l-47.32-88.85l-55.21,80.79l63.07,84.82c0,0-7.86,117.13-7.86,149.45C7014.22,1418.9,6943.25,1451.19,6943.25,1451.19z
		 M6974.81,1657.19c-23.67,16.14-71.03-12.12-78.88-56.55c0,0-7.91-101.01,98.57-72.71
		C7014.22,1556.21,7049.7,1620.86,6974.81,1657.19z"/>
	<polygon class="st1" points="8236.35,1838.93 8189.05,1782.39 8149.63,1830.86 8192.96,1879.32 	"/>
	<polygon class="st1" points="6761.91,1196.75 6805.27,1245.21 6848.65,1204.82 6801.33,1148.28 	"/>
	<polygon class="st1" points="6765.85,1305.8 6809.19,1354.25 6852.57,1313.87 6805.27,1257.32 	"/>
	<polygon class="st1" points="5157.3,1911.63 5200.71,1871.24 5153.38,1814.69 5113.97,1863.18 	"/>
	<polygon class="st1" points="5023.31,1814.69 4983.87,1863.18 5027.23,1911.63 5070.61,1871.24 	"/>
	<polygon class="st1" points="5287.42,1313.85 5248.01,1362.33 5291.37,1410.78 5334.75,1370.4 	"/>
	<polygon class="st1" points="4573.87,1188.66 4617.23,1237.1 4660.61,1196.72 4613.29,1140.17 	"/>
	<polygon class="st1" points="4018,1390.59 3970.68,1334.04 3931.26,1382.52 3974.61,1430.97 	"/>
	<polygon class="st1" points="3856.36,1334.04 3816.94,1382.52 3860.29,1430.97 3903.67,1390.59 	"/>
	<polygon class="st1" points="3714.45,1390.59 3667.12,1334.04 3627.71,1382.52 3671.06,1430.97 	"/>
	<polygon class="st1" points="3194.04,1875.26 3146.73,1818.72 3107.3,1867.2 3150.66,1915.66 	"/>
	<polygon class="st1" points="3028.46,1818.72 2989.04,1867.2 3032.39,1915.66 3075.77,1875.26 	"/>
	<polygon class="st1" points="2681.52,1329.99 2724.9,1289.61 2677.58,1233.07 2638.16,1281.54 	"/>
	<polygon class="st1" points="1924.61,1891.42 1877.28,1834.87 1837.87,1883.34 1881.22,1931.8 	"/>
	<polygon class="st1" points="907.46,1919.7 950.84,1879.32 903.52,1822.77 864.1,1871.24 	"/>
	<polygon class="st1" points="789.2,1822.77 749.78,1871.24 793.13,1919.7 836.52,1879.32 	"/>
	<polygon class="st1" points="355.53,1329.99 398.92,1289.61 351.61,1233.07 312.19,1281.54 	"/>
	<polygon class="st1" points="398.92,1180.56 351.61,1124.01 312.19,1172.49 355.53,1220.95 	"/>
	<polygon class="st1" points="1759.02,1386.54 1711.7,1329.99 1672.28,1378.46 1715.63,1426.92 	"/>
	<polygon class="st1" points="1617.11,1237.1 1660.46,1285.56 1703.84,1245.18 1656.53,1188.63 	"/>
	<polygon class="st1" points="1557.96,1374.44 1601.31,1422.9 1644.69,1382.52 1597.38,1325.97 	"/>
	<polygon class="st1" points="2728.86,1183.31 2681.53,1126.75 2642.12,1175.24 2685.46,1223.69 	"/>
	<polygon class="st1" points="4577.81,1297.7 4621.14,1346.16 4664.53,1305.78 4617.23,1249.23 	"/>
	<path class="st1" d="M6497.75,1204.82c31.51,24.23,35.47,80.76,35.47,80.76l-11.82,379.68l47.32,60.57l51.24-68.65l-47.32-52.52
		l11.82-504.88L6497.75,1204.82z"/>
	<path class="st1" d="M6422.83,1616.78c0,0,3.97-343.31,3.97-407.93c7.91-56.55-47.3-96.93-47.3-96.93l-47.33,92.9
		c55.26,32.31,51.22,52.5,51.22,52.5s7.88,282.72-3.94,367.54c-19.68,80.76-74.92,20.22-70.97,8.09
		c3.92-12.11-19.73-28.28-67.01-76.74c-110.34-92.89-161.63,52.51-181.36,109.06c-7.91,88.85,74.89,80.76,74.89,80.76
		s102.51,4.05,126.16,8.09c-19.73,28.29-114.31,149.44-165.57,181.74c-177.4,169.66-394.24,36.36-461.22,0
		c209.01,246.35,402.12,117.13,429.76,100.98c149.81-60.57,244.38-298.89,244.38-298.89s27.64-4.03,47.32-12.12
		C6430.74,1709.67,6422.83,1616.78,6422.83,1616.78z M6190.18,1665.27c0,0-106.42,60.57-67.01-60.6
		C6150.76,1592.54,6237.45,1604.68,6190.18,1665.27z"/>
	<path class="st1" d="M4916.79,1737.95l74.92,12.13l90.71-56.56l55.18,64.62l94.62-4.02l90.66-84.83l51.27,92.9h544.04
		c0,0,55.18-56.55,78.83-100.98c27.59-44.43,0-84.81-23.65-100.98c-7.88-16.16-98.57-92.88-134.04-113.07
		c39.42-20.19,55.21-157.54,59.15-181.77c3.92-24.24-11.85-117.12-27.59-141.36c-145.89-48.48-126.16,84.82-126.16,84.82
		c7.91,60.57,67.01,44.43,94.6,36.36c55.16,137.34-27.59,205.98-74.92,218.1c-63.07-20.19-315.38,201.96-315.38,201.96
		s-70.97-28.29-90.66-56.55c11.82-76.75-39.42-20.19-63.09,4.04c-130.07,125.22-161.63,8.08-165.57-28.28
		c0-40.38-31.53-8.08-51.27,12.11c-110.39,157.53-161.66-8.06-161.66-8.06l-23.6-521.04c0,0-59.15,76.74-78.88,92.9
		c19.68,24.24,51.24,109.04,59.15,161.55c7.88,100.98-55.18,153.47-86.74,169.64c-63.07,68.68-130.07,52.51-181.36,48.46
		c-82.8,0-78.83,48.49-86.74,96.93c11.83,52.51,51.29,40.41,86.74,24.24c74.89-24.24,122.21,52.5,138.01,84.81
		c3.99,32.31,35.45,0,35.45,0l86.74-88.84L4916.79,1737.95z M5862.97,1560.23c43.38,48.48,63.07,96.96,35.5,96.96
		c-35.5,8.08-169.51,0-169.51,0l47.27-96.96C5776.23,1560.23,5815.65,1527.93,5862.97,1560.23z M5768.38,1531.97
		c-3.97,28.27-67.03,133.3-67.03,133.3l-181.34-4.05C5520,1661.21,5709.28,1487.55,5768.38,1531.97z M4826.13,1624.86
		c0,0-118.25,60.57-67.01-52.51c35.5-32.3,63.09-52.5,63.09-52.5s63.07-44.45,51.24,40.38
		C4853.72,1604.67,4826.13,1624.86,4826.13,1624.86z"/>
	<path class="st1" d="M4250.57,1204.82l43.37,52.5c0,0,15.78,270.61,7.9,331.21c-39.42,201.95-137.99-12.13-137.99-12.13
		l-11.81-476.61l-82.81,113.09l39.44,40.39c0,0,3.93,218.1,15.77,327.17c-102.52,181.76-181.35,32.3-197.12,4.02
		c-197.1,169.62-220.78,32.31-240.49-4.02c-161.64,181.76-216.84,36.33-224.71,0c-70.96-129.25-134.05-40.41-169.53-12.13
		c-130.1,193.88-161.64,24.22-181.35-4.04c-193.18,230.22-205-12.13-205-12.13l19.71-311c0,0-3.95-88.84-11.83-129.23
		c-55.19-60.6-78.86,88.85-63.08,141.36c63.08,129.23-7.88,185.78-7.88,185.78s-35.49,28.29-82.8,68.67
		c-67.03,52.5-86.74,68.66-118.27,52.5c-70.97-60.6-78.83,8.09-106.45,48.48c-27.6,44.42,7.91,64.61,47.32,56.55
		c43.36-20.19,161.63,100.97,189.22,125.2c0-28.29,55.2-105.01,90.68-125.2c94.62,173.67,197.11,40.38,220.77-8.08
		c74.9,165.6,141.94,64.62,173.47,40.38c98.57,149.45,212.88,48.46,212.88,48.46h94.61c0,0,51.27-28.27,90.69-60.57
		c67.02,153.48,181.34,44.43,224.71,0c78.86,165.59,208.94,28.25,240.49-4.05c177.42,226.18,232.6-64.62,232.6-64.62l-27.62-500.82
		L4250.57,1204.82z M2787.96,1677.38l-70.97-56.55l94.64-96.93c0,0,43.34-56.55,47.3,20.19c3.94,40.38,3.94,40.38,3.94,40.38
		L2787.96,1677.38z M3316.22,1641.02c0,0,98.56-113.08,98.56,4.05C3406.9,1677.38,3347.77,1725.84,3316.22,1641.02z"/>
	<path class="st1" d="M2314.88,1103.84l-47.3,68.66c23.65,24.24,43.36,96.93,43.36,96.93s-15.78,222.15-15.78,339.28
		c-7.87,117.12,63.08,129.24,63.08,129.24s27.62-40.38,39.42-60.57c-19.72-8.08-47.29-92.9-47.29-92.9s7.87-262.53,3.93-347.35
		C2366.09,1156.37,2314.88,1103.84,2314.88,1103.84z"/>
	<path class="st1" d="M2161.12,1556.21l-31.55-448.33l-82.79,80.78l63.08,88.85c0,0-7.88,153.48-3.93,306.97
		c-19.71,205.99-173.47,44.43-197.13,16.17c-114.32,129.25-165.58,44.43-189.22,0c-94.61,177.72-106.45,48.46-122.23,28.27
		c0-52.51-19.71-8.08-59.12,12.11c-189.22,113.09-122.21-24.24-102.51-48.46c-31.55-52.5-157.69,48.46-240.48,113.08
		c-122.2,169.62,11.81,266.57,11.81,266.57s-7.88,16.15-23.65,20.19c-86.73,12.13-169.54-133.29-197.12-169.62
		c31.53,298.9,272.03,258.47,283.86,238.28c11.82-125.18-11.83-149.44-51.27-193.86c-126.17-105.01,74.9-169.64,106.45-181.76
		c74.9,149.43,212.9,40.38,240.49,12.11c23.66,84.82,110.39,60.57,122.22,52.51c0-24.24,23.65-12.13,47.3-16.15
		c19.71,24.24,94.62,4.03,106.45-28.28c39.42-92.9,110.39,40.4,145.88,56.55C2153.25,1762.2,2161.12,1556.21,2161.12,1556.21z"/>
	<path class="st1" d="M660.91,1767.18l354.82-8.08l70.95-129.26l-67.02-100.95l-31.54,56.55c55.19,109.07-11.83,88.84-11.83,88.84
		s-212.88,4.04-295.67,0c-90.68,4.03-74.9-52.51-74.9-52.51s7.88-416.01,3.94-484.68c-66.99-121.16-98.55,76.75-98.55,76.75
		s35.46,52.52,51.24,80.79c0,28.26-27.59,117.12-27.59,117.12S448.02,1512.72,420.41,1541c-27.6,28.28-27.58,36.33-55.2,24.22
		c-130.1-96.96-106.44,92.9-102.49,129.26c90.69-60.57,173.47,52.51,193.19,72.7c0-36.36,74.9-88.87,98.55-109.06
		C554.46,1751.03,660.91,1767.18,660.91,1767.18z M499.26,1654.07c-23.65,48.46-74.9-16.14-74.9-16.14s39.42-68.66,70.96-129.26
		c74.9-72.71,59.14-4.03,67.02,36.36C554.46,1613.69,538.68,1625.82,499.26,1654.07z"/>
	<polygon class="st1" points="144.08,2598.17 231.49,2598.69 233.47,2263.11 146.06,2262.57 	"/>
	<path class="st1" d="M396.79,2326.82c-21.08-0.1-48.42,10.07-53.49,26.53h-1.23l0.13-23.58l-78.73-0.49l-1.6,269.63l78.73,0.49
		l1.25-209.78c0.04-6.58,3.18-14.11,13.72-14.03c10.54,0.08,14.21,7.64,14.17,14.24l-1.25,209.73l78.73,0.49l1.28-213.97
		C448.68,2354.98,447.01,2327.1,396.79,2326.82z"/>
	<polygon class="st1" points="471.86,2315.53 550.59,2316.02 550.9,2265.1 472.15,2264.61 	"/>
	<polygon class="st1" points="470.17,2600.19 548.9,2600.69 550.52,2331.06 471.77,2330.57 	"/>
	<path class="st1" d="M664.32,2376.08l21.68,0.16l0.25-44.32l-21.67-0.13l0.28-49l-78.74-0.49l-0.28,49l-21.07-0.1l-0.27,44.26
		l21.09,0.13l-1.01,170.64c-0.27,41.49,9.56,54.75,65.98,55.06l35.31,0.26l0.26-44.34l-9.3-0.03
		c-11.76-0.08-13.56-10.02-13.49-18.46L664.32,2376.08z"/>
	<polygon class="st1" points="700.15,2601.62 778.88,2602.11 780.48,2332.51 701.75,2331.99 	"/>
	<polygon class="st1" points="701.83,2316.95 780.57,2317.42 780.86,2266.53 702.13,2266.04 	"/>
	<path class="st1" d="M998.91,2391.3c0.24-40.51-43.03-61.06-92.63-61.38c-50.22-0.34-92.49,19.73-92.73,60.24l-0.22,36.29
		l78.73,0.49l0.22-38.62c0.04-6.63,3.2-14.16,13.73-14.08c10.55,0.05,14.2,7.61,14.16,14.24l-0.06,10.82
		c-0.34,58.45-106.83,31.89-107.22,99.71l-0.34,58.01c-0.18,30.62,12.72,48.64,52.4,48.87c22.94,0.13,42.22-8.7,52.87-30.34h1.24
		l4.18,27.41l79.97,0.49c-1.73-17.94-5.36-35.88-5.24-54.75L998.91,2391.3z M919.25,2547.78c-0.04,6.6-3.81,14.11-14.35,14.03
		c-10.54-0.05-13.58-7.61-13.54-14.19l0.28-49.05c0.09-11.75,2.56-13.62,13.78-21.1l14.29-7.46L919.25,2547.78z"/>
	<path class="st1" d="M1118.75,2378.79l21.69,0.13l0.27-44.29l-21.7-0.13l0.28-49l-78.73-0.49l-0.28,49.03l-21.07-0.18l-0.27,44.34
		l21.09,0.1l-1.01,170.64c-0.27,41.5,9.56,54.75,65.98,55.08l35.34,0.23l0.25-44.32l-9.29-0.05c-11.79-0.08-13.58-9.99-13.52-18.46
		L1118.75,2378.79z"/>
	<polygon class="st1" points="1156.29,2319.67 1235.02,2320.16 1235.32,2269.25 1156.58,2268.75 	"/>
	<polygon class="st1" points="1154.59,2604.34 1233.34,2604.83 1234.94,2335.2 1156.21,2334.71 	"/>
	<polygon class="st1" points="1352.1,2541.92 1350.86,2541.92 1331.64,2335.82 1250.42,2335.33 1300.9,2605.24 1396.98,2605.84 
		1450.05,2336.55 1378.14,2336.11 	"/>
	<path class="st1" d="M1556.67,2333.93c-50.22-0.31-92.49,19.7-92.73,60.21l-0.93,154.62c-0.24,40.49,41.8,61.04,92.01,61.35
		c49.6,0.34,93.11-19.67,93.35-60.21l0.3-49.49l-78.74-0.49l-0.29,51.85c-0.05,6.58-3.81,14.11-14.35,14.06
		c-10.54-0.08-13.58-7.64-13.54-14.21l0.42-70.25l106.63,0.7l0.52-86.74C1649.54,2354.77,1606.27,2334.22,1556.67,2333.93z
		 M1570.28,2441.02l-27.88-0.21l0.28-48.51c0.04-6.63,3.2-14.16,13.73-14.08c10.55,0.08,14.2,7.66,14.15,14.24L1570.28,2441.02z"/>
	<polygon class="st1" points="1903.51,2491.5 1902.37,2491.5 1863.18,2273.44 1753.24,2272.69 1751.46,2608.3 1813.14,2608.68 
		1814.57,2345.69 1815.71,2344.75 1870.35,2609.1 1964.58,2609.75 1966.36,2274.16 1904.68,2273.72 	"/>
	<path class="st1" d="M2175.8,2398.93c0.24-40.51-43.03-61.04-92.63-61.38c-50.22-0.31-92.49,19.7-92.73,60.24l-0.22,36.26
		l78.73,0.54l0.21-38.65c0.05-6.63,3.2-14.13,13.74-14.06c10.54,0.03,14.19,7.58,14.15,14.21l-0.06,10.82
		c-0.34,58.45-106.82,31.86-107.22,99.74l-0.34,57.98c-0.18,30.62,12.73,48.59,52.4,48.87c22.94,0.13,42.22-8.7,52.87-30.34h1.24
		l4.18,27.39l79.97,0.52c-1.73-17.94-5.36-35.88-5.24-54.75L2175.8,2398.93z M2096.13,2555.41c-0.04,6.6-3.81,14.13-14.35,14.03
		c-10.54-0.08-13.58-7.58-13.53-14.19l0.28-49.05c0.08-11.75,2.55-13.62,13.77-21.1l14.29-7.45L2096.13,2555.41z"/>
	<path class="st1" d="M2288.09,2386.46l21.69,0.1l0.27-44.29l-21.69-0.1l0.28-49l-78.74-0.54l-0.28,49l-21.07-0.1l-0.27,44.32
		l21.09,0.13l-1.01,170.59c-0.27,41.5,9.56,54.75,65.98,55.11l35.34,0.23l0.25-44.32l-9.29-0.05c-11.79-0.08-13.58-9.99-13.52-18.46
		L2288.09,2386.46z"/>
	
		<rect x="2229.3" y="2438.05" transform="matrix(5.928946e-03 -1 1 5.928946e-03 -127.2768 4826.8032)" class="st1" width="269.63" height="78.73"/>
	
		<rect x="2339.69" y="2262.73" transform="matrix(6.239762e-03 -1 1 6.239762e-03 48.3372 4652.8281)" class="st1" width="50.92" height="78.73"/>
	<path class="st1" d="M2519.6,2340.28c-50.22-0.31-92.49,19.7-92.73,60.24l-0.93,154.59c-0.24,40.54,41.8,61.09,92.01,61.35
		c49.59,0.34,93.13-19.67,93.37-60.18l0.94-154.62C2612.48,2361.14,2569.17,2340.56,2519.6,2340.28z M2532.56,2558.15
		c-0.04,6.58-3.79,14.11-14.35,14.03c-10.52-0.1-13.59-7.66-13.56-14.24l0.93-159.3c0.04-6.6,3.23-14.11,13.75-14.08
		c10.56,0.08,14.2,7.66,14.16,14.29L2532.56,2558.15z"/>
	<path class="st1" d="M2765.88,2341.83c-21.07-0.13-48.4,10.04-53.46,26.53h-1.23l0.14-23.61l-78.76-0.49l-1.62,269.65l78.76,0.46
		l1.25-209.75c0.04-6.6,3.18-14.11,13.74-14.03c10.51,0.08,14.2,7.64,14.16,14.24l-1.25,209.73l78.72,0.49l1.28-213.97
		C2817.79,2369.97,2816.1,2342.11,2765.88,2341.83z"/>
	<path class="st1" d="M3024.07,2404.21c0.24-40.51-43.03-61.04-92.61-61.38c-50.22-0.31-92.49,19.7-92.73,60.24l-0.21,36.29
		l78.72,0.47l0.21-38.62c0.04-6.6,3.2-14.11,13.76-14.03c10.51,0.03,14.19,7.61,14.15,14.24l-0.06,10.82
		c-0.34,58.42-106.81,31.84-107.22,99.71l-0.33,57.98c-0.18,30.62,12.68,48.61,52.38,48.9c22.94,0.1,42.21-8.72,52.85-30.34h1.28
		l4.17,27.36l79.98,0.52c-1.74-17.94-5.37-35.85-5.26-54.72L3024.07,2404.21z M2944.42,2560.72c-0.04,6.58-3.83,14.11-14.35,14.03
		c-10.56-0.1-13.59-7.66-13.56-14.24l0.28-49c0.09-11.8,2.54-13.64,13.8-21.12l14.29-7.43L2944.42,2560.72z"/>
	
		<rect x="2918.27" y="2409.53" transform="matrix(6.223840e-03 -1 1 6.223840e-03 618.0022 5519.6709)" class="st1" width="335.59" height="78.76"/>
	<path class="st1" d="M3241.4,2344.8c-50.22-0.33-92.49,19.67-92.73,60.19l-0.93,154.62c-0.24,40.51,41.8,61.04,92.01,61.38
		c49.59,0.31,93.1-19.7,93.32-60.24l0.3-49.49l-78.72-0.49l-0.29,51.85c-0.04,6.6-3.84,14.13-14.35,14.08
		c-10.56-0.08-13.59-7.64-13.56-14.24l0.42-70.23l106.63,0.7l0.51-86.74C3334.24,2365.62,3290.97,2345.09,3241.4,2344.8z
		 M3255.02,2451.87l-27.91-0.18l0.28-48.54c0.04-6.63,3.2-14.13,13.75-14.06c10.52,0.08,14.2,7.64,14.16,14.24L3255.02,2451.87z"/>
	<path class="st1" d="M3557.76,2347.01c-23.59-0.13-43.51,12.48-48.59,31.27h-1.24l0.18-28.27l-78.71-0.49l-1.97,329.94l78.72,0.49
		l0.49-83.89h1.24c4.88,15.58,24.65,27,48.22,27.15c48.94,0.28,57.18-28.37,57.37-58.55l0.92-156.95
		C3614.59,2377.55,3606.7,2347.32,3557.76,2347.01z M3534.77,2559.94c-0.04,6.58-3.8,14.06-14.33,14.03
		c-10.56-0.08-13.62-7.61-13.58-14.24l0.9-149.85c0.04-6.6,3.17-14.13,13.73-14.08c10.52,0.08,14.21,7.64,14.17,14.24
		L3534.77,2559.94z"/>
	<path class="st1" d="M3726.97,2348.07c-50.24-0.31-92.53,19.72-92.77,60.21l-0.94,154.61c-0.23,40.51,41.8,61.07,92.06,61.38
		c49.59,0.29,93.08-19.72,93.32-60.24l0.93-154.62C3819.83,2368.91,3776.56,2348.38,3726.97,2348.07z M3739.94,2565.92
		c-0.04,6.58-3.83,14.11-14.35,14.03c-10.55-0.05-13.59-7.61-13.56-14.21l0.94-159.28c0.04-6.65,3.2-14.16,13.76-14.08
		c10.52,0.05,14.19,7.61,14.15,14.24L3739.94,2565.92z"/>
	<path class="st1" d="M3969.02,2562.5c-0.04,6.58-3.8,14.06-14.33,14.03c-10.56-0.08-13.62-7.61-13.57-14.24l1.24-209.73
		l-78.74-0.49l-1.34,224.82c-0.18,28.29,14,48.15,54.88,48.43c23.59,0.13,50.36-14.81,50.46-33.19l1.23,0.05l-0.18,30.16l78.72,0.49
		l1.6-269.63l-78.72-0.49L3969.02,2562.5z"/>
	<path class="st1" d="M4224.5,2350.92c-27.27-0.18-44.67,9.63-56.56,26.07l-1.24-0.05l0.14-23.09l-78.72-0.49l-1.6,269.63
		l78.72,0.49l1.25-209.78c0.04-6.57,3.17-14.11,13.73-14.03c10.52,0.08,14.21,7.66,14.17,14.24l-0.52,85.32l78.72,0.49l0.61-101.34
		C4273.37,2369.11,4263.56,2351.15,4224.5,2350.92z"/>
	
		<rect x="4243.7" y="2418.03" transform="matrix(6.262543e-03 -1 1 6.262543e-03 1926.5237 6853.4429)" class="st1" width="335.61" height="78.76"/>
	<path class="st1" d="M4566.84,2353.27c-50.22-0.28-92.48,19.73-92.7,60.21l-0.92,154.61c-0.24,40.51,41.78,61.07,92.01,61.38
		c49.57,0.34,93.08-19.67,93.31-60.24l0.28-49.49l-78.71-0.47l-0.33,51.85c-0.03,6.58-3.82,14.11-14.33,14.03
		c-10.56-0.05-13.62-7.61-13.57-14.21l0.43-70.23l106.63,0.7l0.51-86.74C4659.7,2374.13,4616.42,2353.58,4566.84,2353.27z
		 M4580.46,2460.39l-27.92-0.21l0.28-48.51c0.05-6.63,3.18-14.16,13.75-14.08c10.51,0.08,14.2,7.64,14.17,14.24L4580.46,2460.39z"/>
	<path class="st1" d="M4911.1,2292.67l-102.91-0.65l-1.97,335.58l102.89,0.65c53.94,0.34,103.04-15.87,103.29-60.63l1.26-213.04
		C5013.94,2309.78,4965.05,2292.98,4911.1,2292.67z M4925.08,2558.1c-0.1,9.42-2.05,22.13-15.69,22.05l-15.49-0.1l1.44-239.44
		l15.49,0.13c13.64,0.08,15.44,12.81,15.39,22.24L4925.08,2558.1z"/>
	<path class="st1" d="M5123.82,2356.71c-50.23-0.31-92.5,19.7-92.73,60.24l-0.91,154.56c-0.25,40.56,41.79,61.06,92,61.38
		c49.6,0.34,93.11-19.67,93.33-60.24l0.28-49.49l-78.71-0.47l-0.33,51.85c-0.05,6.58-3.82,14.11-14.33,14.06
		c-10.56-0.08-13.62-7.64-13.57-14.24l0.43-70.18l106.63,0.65l0.51-86.74C5216.68,2377.55,5173.4,2357,5123.82,2356.71z
		 M5137.44,2463.8l-27.92-0.18l0.28-48.54c0.05-6.6,3.18-14.13,13.75-14.08c10.51,0.08,14.2,7.64,14.17,14.24L5137.44,2463.8z"/>
	<polygon class="st1" points="5097.9,2337.25 5131.98,2337.46 5217.26,2274.32 5157.12,2273.96 	"/>
	<polygon class="st1" points="5358.07,2361.48 5332.1,2567.29 5330.83,2567.29 5311.58,2361.14 5230.37,2360.67 5280.86,2630.58 
		5376.94,2631.18 5429.98,2361.92 	"/>
	<path class="st1" d="M5518.64,2359.28c-50.26-0.31-92.55,19.7-92.78,60.24l-0.91,154.56c-0.25,40.56,41.79,61.09,92.05,61.38
		c49.57,0.34,93.08-19.67,93.34-60.18l0.28-49.49l-78.73-0.49l-0.3,51.85c-0.05,6.6-3.82,14.08-14.33,14.03
		c-10.56-0.08-13.62-7.64-13.59-14.24l0.46-70.18l106.6,0.65l0.53-86.74C5611.47,2380.14,5568.21,2359.56,5518.64,2359.28z
		 M5532.23,2466.37l-27.89-0.18l0.28-48.54c0.05-6.6,3.18-14.13,13.75-14.08c10.51,0.08,14.2,7.64,14.15,14.26L5532.23,2466.37z"/>
	
		<rect x="5517.02" y="2425.96" transform="matrix(6.250110e-03 -1 1 6.250110e-03 3183.9939 8134.6421)" class="st1" width="335.59" height="78.76"/>
	<path class="st1" d="M5840.16,2361.19c-50.26-0.28-92.53,19.72-92.78,60.24l-0.91,154.62c-0.23,40.51,41.79,61.04,92.05,61.38
		c49.6,0.29,93.08-19.73,93.34-60.24l0.91-154.62C5932.99,2382.05,5889.73,2361.53,5840.16,2361.19z M5853.09,2579.04
		c-0.05,6.6-3.82,14.11-14.33,14.03c-10.56-0.03-13.62-7.61-13.59-14.19l0.96-159.3c0.05-6.63,3.18-14.16,13.75-14.08
		c10.51,0.05,14.2,7.61,14.17,14.24L5853.09,2579.04z"/>
	<path class="st1" d="M6083.75,2362.74c-23.57-0.18-43.46,12.43-48.54,31.27l-1.24-0.05l0.15-28.27l-78.71-0.49l-1.95,329.94
		l78.71,0.49l0.53-83.9h1.24c4.83,15.58,24.61,27,48.18,27.18c48.94,0.31,57.15-28.4,57.3-58.58l0.96-156.92
		C6140.55,2393.24,6132.7,2363.03,6083.75,2362.74z M6060.79,2575.63c-0.05,6.6-3.82,14.11-14.3,14.03
		c-10.56-0.08-13.62-7.61-13.57-14.24l0.86-149.85c0.05-6.6,3.21-14.11,13.77-14.03c10.49,0.05,14.15,7.61,14.1,14.18
		L6060.79,2575.63z"/>
	<path class="st1" d="M6308.25,2371.75c-23.6-0.1-43.51,12.5-48.59,31.3h-1.24l0.15-28.27l-78.71-0.49l-1.95,329.94l78.71,0.49
		l0.53-83.9h1.21c4.85,15.56,24.66,27,48.23,27.16c48.94,0.28,57.15-28.42,57.33-58.55l0.94-157
		C6365.05,2402.3,6357.19,2372.09,6308.25,2371.75z M6285.26,2584.66c-0.05,6.63-3.82,14.11-14.33,14.08
		c-10.56-0.1-13.62-7.61-13.59-14.24l0.88-149.88c0.05-6.57,3.21-14.11,13.77-14.06c10.54,0.08,14.17,7.64,14.12,14.24
		L6285.26,2584.66z"/>
	<path class="st1" d="M6489.64,2365.05c-50.25-0.31-92.53,19.7-92.75,60.24l-0.91,154.56c-0.25,40.56,41.79,61.09,92.05,61.43
		c49.57,0.29,93.08-19.72,93.31-60.24l0.28-49.49l-78.71-0.49l-0.33,51.85c-0.03,6.6-3.79,14.13-14.33,14.03
		c-10.56-0.08-13.62-7.64-13.57-14.24l0.43-70.18l106.63,0.65l0.51-86.74C6582.49,2385.91,6539.24,2365.38,6489.64,2365.05z
		 M6503.26,2472.14l-27.89-0.18l0.28-48.54c0.02-6.6,3.16-14.11,13.72-14.03c10.54,0.03,14.22,7.58,14.17,14.24L6503.26,2472.14z"/>
	<path class="st1" d="M6839.28,2367.25c-31.61-0.21-40.38,9.63-54.1,27.47c-9.17-21.77-22.74-27.96-50.66-28.11
		c-31.63-0.21-40.38,9.14-52.88,27h-1.21l0.1-24.08l-78.71-0.49l-1.59,269.63l78.73,0.49l1.21-209.75
		c0.05-6.6,3.23-14.13,13.77-14.03c10.54,0.03,14.17,7.64,14.15,14.24l-1.24,209.7l78.71,0.49l1.24-209.73
		c0.05-6.58,3.21-14.11,13.77-14.06c10.54,0.08,14.17,7.64,14.15,14.24l-1.24,209.73l78.76,0.47l1.31-222.93
		C6893.65,2397.25,6888.9,2367.53,6839.28,2367.25z"/>
	<path class="st1" d="M7013.59,2368.26c-50.23-0.31-92.5,19.7-92.73,60.24l-0.93,154.59c-0.23,40.54,41.82,61.06,92.02,61.4
		c49.57,0.29,93.08-19.72,93.33-60.24l0.28-49.49l-78.73-0.49l-0.3,51.85c-0.05,6.6-3.82,14.13-14.33,14.03
		c-10.56-0.08-13.62-7.64-13.59-14.21l0.46-70.2l106.6,0.65l0.53-86.74C7106.42,2389.12,7063.17,2368.59,7013.59,2368.26z
		 M7027.19,2475.35l-27.89-0.15l0.28-48.56c0.05-6.6,3.18-14.11,13.74-14.03c10.51,0.02,14.2,7.61,14.15,14.24L7027.19,2475.35z"/>
	<path class="st1" d="M7283.54,2369.81c-21.07-0.13-48.41,10.1-53.46,26.51h-1.24l0.13-23.53l-78.76-0.49l-1.59,269.57l78.76,0.49
		l1.24-209.73c0.05-6.58,3.21-14.11,13.77-14.06c10.51,0.08,14.17,7.64,14.12,14.24l-1.21,209.73l78.71,0.47l1.26-213.95
		C7335.46,2397.95,7333.77,2370.15,7283.54,2369.81z"/>
	<path class="st1" d="M7476.83,2418.58l0.23-44.34l-21.7-0.1l0.3-49.03l-78.71-0.47l-0.33,49l-21.07-0.13l-0.23,44.29l21.07,0.16
		l-1.04,170.61c-0.23,41.47,9.6,54.72,66.02,55.11l35.32,0.18l0.28-44.29l-9.3-0.08c-11.77-0.08-13.59-9.96-13.57-18.46l0.99-162.59
		L7476.83,2418.58z"/>
	<polygon class="st1" points="7692.89,2431.42 7661.88,2431.26 7662.59,2309.63 7575.2,2309.08 7573.2,2644.69 7660.62,2645.21 
		7661.56,2484.98 7692.56,2485.16 7691.62,2645.42 7779.02,2645.96 7781.02,2310.35 7693.59,2309.83 	"/>
	<path class="st1" d="M7915.87,2586.89c-0.05,6.6-3.82,14.13-14.35,14.03c-10.54-0.03-13.59-7.58-13.57-14.19l1.24-209.75
		l-78.76-0.49l-1.31,224.84c-0.15,28.27,14.02,48.15,54.91,48.41c23.57,0.16,50.33-14.78,50.46-33.16h1.21l-0.18,30.18l78.71,0.49
		l1.59-269.63l-78.73-0.49L7915.87,2586.89z"/>
	<path class="st1" d="M8267.6,2375.95c-31.61-0.21-40.38,9.66-54.12,27.49c-9.17-21.75-22.74-27.98-50.63-28.14
		c-31.63-0.21-40.38,9.19-52.88,27h-1.24l0.13-24.08l-78.7-0.49l-1.59,269.63l78.7,0.49l1.24-209.75
		c0.05-6.6,3.21-14.11,13.77-14.03c10.51,0.08,14.17,7.64,14.12,14.24l-1.21,209.72l78.71,0.47l1.24-209.7
		c0.02-6.6,3.21-14.13,13.77-14.08c10.51,0.08,14.17,7.64,14.12,14.24l-1.21,209.75l78.73,0.49l1.31-222.93
		C8321.98,2406,8317.23,2376.23,8267.6,2375.95z"/>
	<path class="st1" d="M8526.96,2438.38c0.23-40.56-43.03-61.09-92.6-61.4c-50.23-0.28-92.5,19.7-92.73,60.21l-0.25,36.32l78.73,0.49
		l0.23-38.62c0.05-6.65,3.18-14.16,13.75-14.08c10.51,0.05,14.2,7.61,14.17,14.24l-0.05,10.82
		c-0.35,58.42-106.83,31.87-107.21,99.71l-0.38,57.99c-0.18,30.62,12.71,48.64,52.4,48.9c22.94,0.1,42.19-8.7,52.83-30.34h1.29
		l4.17,27.41l79.97,0.47c-1.74-17.91-5.38-35.85-5.28-54.7L8526.96,2438.38z M8447.3,2594.84c-0.05,6.58-3.81,14.11-14.33,14.03
		c-10.56-0.05-13.62-7.61-13.59-14.21l0.33-49.03c0.05-11.75,2.55-13.64,13.77-21.12l14.3-7.43L8447.3,2594.84z"/>
	
		<rect x="8476.62" y="2476.67" transform="matrix(6.237789e-03 -1 1 6.237789e-03 6041.7114 11111.6221)" class="st1" width="269.63" height="78.76"/>
	
		<rect x="8587.03" y="2301.36" transform="matrix(6.236936e-03 -1 1 6.236936e-03 6218.0815 10938.4678)" class="st1" width="50.92" height="78.76"/>
	<path class="st1" d="M8807.86,2379.16c-21.07-0.1-48.44,10.1-53.46,26.53h-1.24l0.13-23.56l-78.76-0.49l-1.59,269.6l78.75,0.49
		l1.21-209.73c0.05-6.6,3.23-14.11,13.79-14.08c10.51,0.08,14.15,7.64,14.13,14.24l-1.24,209.73l78.73,0.49l1.26-213.97
		C8859.78,2407.32,8858.06,2379.49,8807.86,2379.16z"/>
	<rect x="153.38" y="713.93" class="st1" width="8775.75" height="143.2"/>
</g>
</svg>
