<?xml version="1.0" encoding="utf-8"?>
<!-- Generator: Adobe Illustrator 24.1.2, SVG Export Plug-In . SVG Version: 6.00 Build 0)  -->
<svg version="1.1" id="Calque_1" xmlns="http://www.w3.org/2000/svg" xmlns:xlink="http://www.w3.org/1999/xlink" x="0px" y="0px"
	 viewBox="0 0 9070.87 3401.57" style="enable-background:new 0 0 9070.87 3401.57;" xml:space="preserve">
<style type="text/css">
	.st0{fill:#FFFFFF;}
</style>
<g>
	<path class="st0" d="M8673.97,986.91l-55.18,88.85c51.24,72.71,47.28,88.86,47.28,88.86s11.82,262.53,19.73,331.2
		c0,64.64,39.42,92.89,67.01,113.08c27.59,8.06,63.07-64.62,63.07-64.62s-15.77-16.14-39.42-28.27
		c-23.65-12.11-43.36-60.6-43.36-60.6L8717.35,1100l7.86-28.28L8673.97,986.91z"/>
	<path class="st0" d="M7956.42,958.61c0,0-51.24,76.75-78.83,133.3c59.15,44.43,59.15,68.66,59.15,68.66v339.27l-43.38,64.62
		l82.8,76.74l19.73-20.19c0,0,31.51-4.03,78.83-4.03c59.15,0,90.66-32.33,98.57-56.55c19.73-32.31,51.24,8.08,59.15,24.22
		c0,28.27,31.51,28.29,31.51,28.29s51.24-4.05,70.97-4.05c19.73,0,47.32-16.15,63.09-44.43c35.47-48.47,35.47,20.19,51.24,32.31
		c15.77,44.43,63.07,24.24,82.8,12.13c23.65-20.19,70.95-84.81,82.77-133.3c3.92-109.04-74.92-68.64-102.51-44.42
		c-23.65,28.27-35.47-12.1-35.47-12.1s0-270.62-3.94-311c3.94-16.15-11.83-52.51-11.83-52.51l-55.18-72.71l-59.15,88.87l74.92,80.78
		c0,0,0,214.06,0,294.85c-3.94,80.79-63.07,96.93-86.74,96.93c-39.42,4.03-70.97-28.27-82.8-48.46c0-32.3-43.36-20.22-43.36-20.22
		s-55.21,56.56-70.97,56.56c-102.48,56.55-137.98-32.32-137.98-32.32s3.94-319.08,0-387.74
		C8007.71,1027.26,7956.42,958.61,7956.42,958.61z M8563.55,1511.97c-3.92,28.28-51.24,72.71-74.89-8.08
		C8488.66,1503.9,8559.58,1447.35,8563.55,1511.97z"/>
	<path class="st0" d="M7463.64,1487.73c-67.01-4.05-82.8,92.9-82.8,92.9h149.81l3.97,52.51l27.59,12.11l82.8-113.09
		c0,0,126.16,8.09,161.61,4.04c82.77-56.55,15.79-96.93-11.77-105.02c-78.86,40.38-193.21-64.62-224.77-96.93
		c-94.62-153.49,31.56-294.85,51.29-319.08c7.91-36.36-35.5-16.15-35.5-16.15s-35.47,48.46-74.89,96.93
		c-86.74,149.44,31.51,306.97,51.24,335.23c19.73,16.14,23.65,32.31,35.5,56.55C7554.35,1516,7507,1499.85,7463.64,1487.73z"/>
	<path class="st0" d="M7120.65,1758.35c-35.45-12.11-102.51-117.15-114.33-113.09c3.97,48.47,31.53,206,212.9,222.15
		c31.56,0,114.36-4.05,19.71-113.11c-35.47-52.5-82.75-96.9-15.74-193.86c35.47-36.36,63.07-68.66,86.74-60.6l35.42,44.43
		c0,0,102.53-125.2-7.86-137.31c-39.42,24.22-145.87,88.88-157.69,133.29c-11.85,48.46-47.3,125.2-3.94,181.74
		C7183.76,1742.19,7195.54,1798.76,7120.65,1758.35z"/>
	<path class="st0" d="M6943.25,1334.25c0,0-82.77,133.29-90.68,193.88c-3.92,153.48,149.83,68.64,149.83,68.64l63.07-100.96
		l7.91-416.04l-47.32-88.85l-55.21,80.79l63.07,84.82c0,0-7.86,117.13-7.86,149.45C7014.23,1301.96,6943.25,1334.25,6943.25,1334.25
		z M6974.81,1540.25c-23.67,16.14-71.03-12.12-78.88-56.55c0,0-7.91-101.01,98.57-72.71
		C7014.23,1439.27,7049.7,1503.92,6974.81,1540.25z"/>
	<polygon class="st0" points="8236.35,1722 8189.05,1665.45 8149.63,1713.92 8192.96,1762.38 	"/>
	<polygon class="st0" points="6761.91,1079.81 6805.27,1128.27 6848.65,1087.89 6801.33,1031.34 	"/>
	<polygon class="st0" points="6765.85,1188.87 6809.19,1237.31 6852.57,1196.93 6805.27,1140.38 	"/>
	<polygon class="st0" points="5200.71,1754.3 5153.39,1697.76 5113.97,1746.24 5157.3,1794.7 	"/>
	<polygon class="st0" points="5070.61,1754.3 5023.31,1697.76 4983.87,1746.24 5027.23,1794.7 	"/>
	<polygon class="st0" points="5287.42,1196.92 5248.01,1245.39 5291.37,1293.85 5334.75,1253.47 	"/>
	<polygon class="st0" points="4573.87,1071.72 4617.23,1120.17 4660.61,1079.78 4613.29,1023.24 	"/>
	<polygon class="st0" points="4018,1273.66 3970.68,1217.11 3931.26,1265.58 3974.61,1314.04 	"/>
	<polygon class="st0" points="3856.36,1217.11 3816.94,1265.58 3860.29,1314.04 3903.67,1273.66 	"/>
	<polygon class="st0" points="3714.45,1273.66 3667.12,1217.11 3627.71,1265.58 3671.07,1314.04 	"/>
	<polygon class="st0" points="3194.04,1758.33 3146.73,1701.78 3107.3,1750.26 3150.66,1798.72 	"/>
	<polygon class="st0" points="3075.77,1758.33 3028.46,1701.78 2989.04,1750.26 3032.39,1798.72 	"/>
	<polygon class="st0" points="2681.52,1213.06 2724.9,1172.68 2677.58,1116.13 2638.16,1164.6 	"/>
	<polygon class="st0" points="1924.61,1774.48 1877.28,1717.93 1837.87,1766.41 1881.23,1814.86 	"/>
	<polygon class="st0" points="950.84,1762.38 903.52,1705.83 864.1,1754.3 907.46,1802.76 	"/>
	<polygon class="st0" points="836.52,1762.38 789.2,1705.83 749.78,1754.3 793.13,1802.76 	"/>
	<polygon class="st0" points="355.54,1213.06 398.92,1172.68 351.61,1116.13 312.19,1164.6 	"/>
	<polygon class="st0" points="398.92,1063.62 351.61,1007.07 312.19,1055.56 355.54,1104.01 	"/>
	<polygon class="st0" points="1759.02,1269.6 1711.7,1213.06 1672.28,1261.53 1715.63,1309.99 	"/>
	<polygon class="st0" points="1617.11,1120.17 1660.46,1168.63 1703.84,1128.24 1656.53,1071.7 	"/>
	<polygon class="st0" points="1557.96,1257.5 1601.31,1305.96 1644.69,1265.58 1597.38,1209.03 	"/>
	<polygon class="st0" points="2728.86,1066.38 2681.53,1009.82 2642.12,1058.3 2685.46,1106.76 	"/>
	<polygon class="st0" points="4577.81,1180.77 4621.14,1229.22 4664.53,1188.84 4617.23,1132.29 	"/>
	<path class="st0" d="M6497.75,1087.89c31.51,24.23,35.47,80.76,35.47,80.76l-11.82,379.68l47.32,60.57l51.24-68.65l-47.32-52.52
		l11.82-504.88L6497.75,1087.89z"/>
	<path class="st0" d="M6095.58,1818.93c-177.4,169.66-394.24,36.36-461.22,0c209.01,246.35,402.12,117.13,429.76,100.98
		c149.81-60.57,244.38-298.89,244.38-298.89s27.64-4.03,47.32-12.12c74.92-16.17,67.01-109.06,67.01-109.06s3.97-343.31,3.97-407.93
		c7.91-56.55-47.3-96.93-47.3-96.93l-47.33,92.9c55.26,32.31,51.22,52.5,51.22,52.5s7.88,282.72-3.94,367.54
		c-19.68,80.76-74.92,20.22-70.97,8.09c3.92-12.11-19.73-28.28-67.01-76.74c-110.34-92.89-161.63,52.51-181.36,109.06
		c-7.91,88.85,74.89,80.76,74.89,80.76s102.51,4.05,126.16,8.09C6241.42,1665.48,6146.85,1786.62,6095.58,1818.93z M6190.18,1548.33
		c0,0-106.42,60.57-67.01-60.6C6150.76,1475.6,6237.45,1487.75,6190.18,1548.33z"/>
	<path class="st0" d="M4518.61,1520.04c11.83,52.51,51.29,40.41,86.74,24.24c74.89-24.24,122.21,52.5,138.01,84.81
		c3.99,32.31,35.45,0,35.45,0l86.74-88.84l51.24,80.76l74.92,12.13l90.71-56.56l55.18,64.62l94.62-4.02l90.66-84.83l51.27,92.9
		h544.04c0,0,55.18-56.55,78.83-100.98c27.59-44.43,0-84.81-23.65-100.98c-7.88-16.17-98.57-92.88-134.04-113.07
		c39.42-20.19,55.21-157.54,59.15-181.77c3.92-24.24-11.85-117.12-27.59-141.36c-145.89-48.48-126.16,84.82-126.16,84.82
		c7.91,60.57,67.01,44.43,94.6,36.36c55.16,137.34-27.59,205.98-74.92,218.1c-63.07-20.19-315.38,201.96-315.38,201.96
		s-70.97-28.29-90.66-56.55c11.82-76.75-39.42-20.19-63.09,4.04c-130.07,125.22-161.63,8.08-165.57-28.28
		c0-40.38-31.53-8.08-51.27,12.11c-110.39,157.53-161.66-8.06-161.66-8.06l-23.6-521.04c0,0-59.15,76.74-78.88,92.9
		c19.68,24.24,51.24,109.04,59.15,161.55c7.88,100.98-55.18,153.47-86.74,169.64c-63.07,68.68-130.07,52.51-181.36,48.46
		C4522.55,1423.11,4526.52,1471.59,4518.61,1520.04z M5862.97,1443.3c43.38,48.48,63.07,96.96,35.5,96.96
		c-35.5,8.08-169.51,0-169.51,0l47.27-96.96C5776.23,1443.3,5815.65,1410.99,5862.97,1443.3z M5768.38,1415.03
		c-3.97,28.27-67.03,133.3-67.03,133.3l-181.34-4.05C5520,1544.28,5709.28,1370.61,5768.38,1415.03z M4759.12,1455.41
		c35.5-32.3,63.09-52.5,63.09-52.5s63.07-44.45,51.24,40.38c-19.73,44.43-47.32,64.62-47.32,64.62S4707.88,1568.5,4759.12,1455.41z"
		/>
	<path class="st0" d="M2535.63,1491.78c-27.6,44.42,7.91,64.61,47.32,56.55c43.36-20.19,161.63,100.97,189.22,125.2
		c0-28.29,55.2-105.01,90.68-125.2c94.62,173.67,197.11,40.38,220.77-8.08c74.9,165.6,141.94,64.62,173.47,40.38
		c98.57,149.45,212.88,48.46,212.88,48.46h94.61c0,0,51.27-28.27,90.69-60.57c67.02,153.48,181.34,44.43,224.71,0
		c78.86,165.59,208.94,28.25,240.49-4.05c177.42,226.18,232.6-64.62,232.6-64.62l-27.62-500.82l-74.9,88.87l43.37,52.5
		c0,0,15.78,270.61,7.9,331.21c-39.42,201.95-137.99-12.13-137.99-12.13l-11.81-476.61l-82.81,113.09l39.44,40.39
		c0,0,3.93,218.1,15.77,327.17c-102.52,181.76-181.35,32.3-197.12,4.02c-197.1,169.62-220.78,32.31-240.49-4.02
		c-161.64,181.76-216.84,36.33-224.71,0c-70.96-129.25-134.05-40.41-169.53-12.13c-130.1,193.88-161.64,24.22-181.35-4.04
		c-193.18,230.22-205-12.13-205-12.13l19.71-311c0,0-3.95-88.84-11.83-129.23c-55.19-60.6-78.86,88.85-63.08,141.36
		c63.08,129.23-7.88,185.78-7.88,185.78s-35.49,28.29-82.8,68.67c-67.03,52.5-86.74,68.66-118.27,52.5
		C2571.11,1382.7,2563.25,1451.39,2535.63,1491.78z M3414.79,1528.14c-7.88,32.31-67.02,80.76-98.56-4.05
		C3316.22,1524.09,3414.79,1411,3414.79,1528.14z M2811.62,1406.97c0,0,43.34-56.55,47.3,20.19c3.94,40.38,3.94,40.38,3.94,40.38
		l-74.9,92.9l-70.97-56.55L2811.62,1406.97z"/>
	<path class="st0" d="M2314.88,986.91l-47.3,68.66c23.65,24.24,43.36,96.93,43.36,96.93s-15.78,222.15-15.78,339.28
		c-7.87,117.12,63.08,129.24,63.08,129.24s27.62-40.38,39.42-60.57c-19.72-8.08-47.29-92.9-47.29-92.9s7.87-262.53,3.93-347.35
		C2366.09,1039.43,2314.88,986.91,2314.88,986.91z"/>
	<path class="st0" d="M1183.41,1875.47c-86.73,12.13-169.54-133.29-197.12-169.62c31.53,298.9,272.03,258.47,283.86,238.28
		c11.82-125.18-11.83-149.44-51.27-193.86c-126.17-105.01,74.9-169.64,106.45-181.76c74.9,149.43,212.9,40.38,240.49,12.11
		c23.66,84.82,110.39,60.57,122.22,52.51c0-24.24,23.65-12.13,47.3-16.15c19.71,24.24,94.62,4.03,106.45-28.28
		c39.42-92.9,110.39,40.4,145.88,56.55c165.59,0,173.46-205.99,173.46-205.99l-31.55-448.33l-82.79,80.78l63.08,88.85
		c0,0-7.88,153.48-3.93,306.96c-19.71,205.99-173.47,44.43-197.13,16.17c-114.32,129.25-165.58,44.43-189.22,0
		c-94.61,177.72-106.45,48.46-122.23,28.27c0-52.51-19.71-8.08-59.12,12.11c-189.22,113.09-122.21-24.24-102.51-48.46
		c-31.55-52.5-157.69,48.46-240.48,113.08c-122.2,169.62,11.81,266.57,11.81,266.57S1199.18,1871.44,1183.41,1875.47z"/>
	<path class="st0" d="M262.72,1577.54c90.69-60.57,173.47,52.51,193.19,72.7c0-36.36,74.9-88.87,98.55-109.06
		c0,92.9,106.45,109.06,106.45,109.06l354.82-8.08l70.95-129.26l-67.02-100.95l-31.54,56.55c55.19,109.07-11.83,88.84-11.83,88.84
		s-212.88,4.04-295.67,0c-90.68,4.03-74.9-52.51-74.9-52.51s7.88-416.01,3.94-484.68c-66.99-121.16-98.55,76.75-98.55,76.75
		s35.46,52.52,51.24,80.79c0,28.26-27.59,117.12-27.59,117.12s-86.73,100.98-114.34,129.26c-27.6,28.28-27.58,36.33-55.2,24.22
		C235.11,1351.33,258.78,1541.19,262.72,1577.54z M495.32,1391.73c74.9-72.71,59.14-4.03,67.02,36.36
		c-7.88,68.66-23.66,80.79-63.08,109.04c-23.65,48.46-74.9-16.14-74.9-16.14S463.78,1452.33,495.32,1391.73z"/>
	<polygon class="st0" points="233.47,2146.17 146.06,2145.63 144.08,2481.24 231.49,2481.76 	"/>
	<path class="st0" d="M447.23,2483.1l1.28-213.97c0.18-31.09-1.49-58.97-51.71-59.25c-21.08-0.1-48.42,10.07-53.49,26.53h-1.23
		l0.13-23.58l-78.73-0.49l-1.6,269.63l78.73,0.49l1.25-209.78c0.04-6.58,3.18-14.11,13.72-14.03c10.54,0.08,14.21,7.64,14.17,14.24
		l-1.25,209.73L447.23,2483.1z"/>
	<polygon class="st0" points="550.9,2148.17 472.15,2147.67 471.86,2198.59 550.59,2199.08 	"/>
	<polygon class="st0" points="470.17,2483.26 548.9,2483.75 550.52,2214.12 471.77,2213.63 	"/>
	<path class="st0" d="M664.32,2259.14l21.68,0.16l0.25-44.32l-21.67-0.13l0.28-49l-78.74-0.49l-0.28,49l-21.07-0.1l-0.27,44.26
		l21.09,0.13l-1.01,170.64c-0.27,41.49,9.56,54.75,65.98,55.06l35.31,0.26l0.26-44.34l-9.3-0.03
		c-11.76-0.08-13.56-10.02-13.49-18.46L664.32,2259.14z"/>
	<polygon class="st0" points="780.86,2149.59 702.13,2149.1 701.83,2200.02 780.57,2200.48 	"/>
	<polygon class="st0" points="700.15,2484.68 778.88,2485.17 780.48,2215.57 701.75,2215.05 	"/>
	<path class="st0" d="M864.96,2488.95c22.94,0.13,42.22-8.7,52.87-30.34h1.24l4.18,27.41l79.97,0.49
		c-1.73-17.94-5.36-35.88-5.24-54.75l0.94-157.41c0.24-40.51-43.03-61.06-92.63-61.38c-50.22-0.34-92.49,19.73-92.73,60.24
		l-0.22,36.29l78.73,0.49l0.22-38.62c0.04-6.63,3.2-14.16,13.73-14.08c10.55,0.05,14.2,7.61,14.16,14.24l-0.06,10.82
		c-0.34,58.45-106.83,31.89-107.22,99.71l-0.34,58.01C812.38,2470.7,825.28,2488.72,864.96,2488.95z M891.63,2381.63
		c0.09-11.75,2.56-13.62,13.78-21.1l14.29-7.46l-0.46,77.76c-0.04,6.6-3.81,14.11-14.35,14.03c-10.54-0.05-13.58-7.61-13.54-14.19
		L891.63,2381.63z"/>
	<path class="st0" d="M1118.75,2261.86l21.69,0.13l0.27-44.29l-21.7-0.13l0.28-49l-78.73-0.49l-0.28,49.03l-21.07-0.18l-0.27,44.34
		l21.09,0.1l-1.01,170.64c-0.27,41.5,9.56,54.75,65.98,55.08l35.34,0.23l0.25-44.32l-9.29-0.05c-11.79-0.08-13.58-9.99-13.52-18.46
		L1118.75,2261.86z"/>
	<polygon class="st0" points="1154.59,2487.4 1233.34,2487.89 1234.94,2218.27 1156.21,2217.77 	"/>
	<polygon class="st0" points="1235.32,2152.31 1156.58,2151.82 1156.29,2202.73 1235.02,2203.23 	"/>
	<polygon class="st0" points="1352.1,2424.99 1350.87,2424.99 1331.64,2218.89 1250.42,2218.39 1300.9,2488.31 1396.98,2488.9 
		1450.05,2219.61 1378.14,2219.17 	"/>
	<path class="st0" d="M1648.78,2365.12l0.52-86.74c0.24-40.54-43.03-61.09-92.63-61.38c-50.22-0.31-92.49,19.7-92.73,60.21
		l-0.93,154.62c-0.24,40.49,41.8,61.04,92.01,61.35c49.6,0.34,93.11-19.67,93.35-60.21l0.3-49.49l-78.74-0.49l-0.29,51.85
		c-0.05,6.58-3.81,14.11-14.35,14.06c-10.54-0.08-13.58-7.64-13.54-14.21l0.42-70.25L1648.78,2365.12z M1542.68,2275.37
		c0.04-6.63,3.2-14.16,13.73-14.08c10.55,0.08,14.2,7.66,14.15,14.24l-0.28,48.56l-27.88-0.21L1542.68,2275.37z"/>
	<polygon class="st0" points="1751.46,2491.36 1813.14,2491.75 1814.57,2228.75 1815.71,2227.82 1870.35,2492.16 1964.58,2492.81 
		1966.36,2157.23 1904.69,2156.79 1903.51,2374.56 1902.37,2374.56 1863.18,2156.5 1753.24,2155.75 	"/>
	<path class="st0" d="M2083.17,2220.62c-50.22-0.31-92.49,19.7-92.73,60.24l-0.22,36.26l78.73,0.54l0.21-38.65
		c0.05-6.63,3.2-14.13,13.74-14.06c10.54,0.03,14.19,7.58,14.15,14.21L2097,2290c-0.34,58.45-106.82,31.86-107.22,99.74l-0.34,57.98
		c-0.18,30.62,12.73,48.59,52.4,48.87c22.94,0.13,42.22-8.7,52.87-30.34h1.24l4.18,27.39l79.97,0.52
		c-1.73-17.94-5.36-35.88-5.24-54.75l0.93-157.41C2176.04,2241.49,2132.77,2220.96,2083.17,2220.62z M2096.13,2438.48
		c-0.04,6.6-3.81,14.13-14.35,14.03c-10.54-0.08-13.58-7.58-13.53-14.19l0.28-49.05c0.08-11.75,2.55-13.62,13.77-21.1l14.29-7.45
		L2096.13,2438.48z"/>
	<path class="st0" d="M2209.62,2224.68l-21.07-0.1l-0.27,44.32l21.09,0.13l-1.01,170.59c-0.27,41.5,9.56,54.75,65.98,55.11
		l35.34,0.23l0.25-44.32l-9.29-0.05c-11.79-0.08-13.58-9.99-13.52-18.46l0.97-162.61l21.69,0.1l0.27-44.29l-21.69-0.1l0.28-49
		l-78.74-0.54L2209.62,2224.68z"/>
	
		<rect x="2229.3" y="2321.12" transform="matrix(5.928946e-03 -1 1 5.928946e-03 -10.3418 4710.5605)" class="st0" width="269.63" height="78.73"/>
	
		<rect x="2339.69" y="2145.79" transform="matrix(6.238986e-03 -1 1 6.238986e-03 165.2737 4536.6235)" class="st0" width="50.92" height="78.73"/>
	<path class="st0" d="M2426.87,2283.58l-0.93,154.59c-0.24,40.54,41.8,61.09,92.01,61.35c49.59,0.34,93.13-19.67,93.37-60.18
		l0.94-154.62c0.23-40.51-43.08-61.09-92.65-61.38C2469.38,2223.03,2427.11,2243.04,2426.87,2283.58z M2533.5,2281.92l-0.93,159.3
		c-0.04,6.58-3.79,14.11-14.35,14.03c-10.52-0.1-13.59-7.66-13.56-14.24l0.93-159.3c0.04-6.6,3.23-14.11,13.75-14.08
		C2529.9,2267.71,2533.53,2275.29,2533.5,2281.92z"/>
	<path class="st0" d="M2816.34,2498.12l1.28-213.97c0.18-31.12-1.52-58.97-51.73-59.25c-21.07-0.13-48.4,10.04-53.46,26.53h-1.23
		l0.14-23.61l-78.76-0.49l-1.62,269.65l78.76,0.46l1.25-209.75c0.04-6.6,3.18-14.11,13.74-14.03c10.51,0.08,14.2,7.64,14.16,14.24
		l-1.25,209.73L2816.34,2498.12z"/>
	<path class="st0" d="M2838.07,2395.01l-0.33,57.98c-0.18,30.62,12.68,48.61,52.38,48.9c22.94,0.1,42.21-8.72,52.85-30.34h1.28
		l4.17,27.36l79.98,0.52c-1.74-17.94-5.37-35.85-5.26-54.72l0.93-157.44c0.24-40.51-43.03-61.04-92.61-61.38
		c-50.22-0.31-92.49,19.7-92.73,60.24l-0.21,36.29l78.72,0.47l0.21-38.62c0.04-6.6,3.2-14.11,13.76-14.03
		c10.51,0.03,14.19,7.61,14.15,14.24l-0.06,10.82C2944.95,2353.73,2838.47,2327.14,2838.07,2395.01z M2944.42,2443.78
		c-0.04,6.58-3.83,14.11-14.35,14.03c-10.56-0.1-13.59-7.66-13.56-14.24l0.28-49c0.09-11.8,2.54-13.64,13.8-21.12l14.29-7.43
		L2944.42,2443.78z"/>
	
		<rect x="2918.27" y="2292.59" transform="matrix(6.236975e-03 -1 1 6.236975e-03 734.8966 5403.4316)" class="st0" width="335.59" height="78.76"/>
	<path class="st0" d="M3333.5,2375.99l0.51-86.74c0.24-40.56-43.03-61.09-92.6-61.38c-50.22-0.33-92.49,19.67-92.73,60.19
		l-0.93,154.62c-0.24,40.51,41.8,61.04,92.01,61.38c49.59,0.31,93.1-19.7,93.32-60.24l0.3-49.49l-78.72-0.49l-0.29,51.85
		c-0.04,6.6-3.84,14.13-14.35,14.08c-10.56-0.08-13.59-7.64-13.56-14.24l0.42-70.23L3333.5,2375.99z M3227.39,2286.21
		c0.04-6.63,3.2-14.13,13.75-14.06c10.52,0.08,14.2,7.64,14.16,14.24l-0.28,48.54l-27.91-0.18L3227.39,2286.21z"/>
	<path class="st0" d="M3429.41,2232.58l-1.97,329.94l78.72,0.49l0.49-83.89h1.24c4.88,15.58,24.65,27,48.22,27.15
		c48.94,0.28,57.18-28.37,57.37-58.55l0.92-156.95c0.19-30.16-7.69-60.39-56.64-60.7c-23.59-0.13-43.51,12.48-48.59,31.27h-1.24
		l0.18-28.27L3429.41,2232.58z M3521.49,2278.86c10.52,0.08,14.21,7.64,14.17,14.24l-0.9,149.9c-0.04,6.58-3.8,14.06-14.33,14.03
		c-10.56-0.08-13.62-7.61-13.58-14.24l0.9-149.85C3507.8,2286.35,3510.93,2278.81,3521.49,2278.86z"/>
	<path class="st0" d="M3634.21,2291.34l-0.94,154.61c-0.23,40.51,41.8,61.07,92.06,61.38c49.59,0.29,93.08-19.72,93.32-60.24
		l0.93-154.62c0.24-40.51-43.03-61.04-92.61-61.35C3676.73,2230.82,3634.45,2250.85,3634.21,2291.34z M3740.87,2289.68l-0.94,159.3
		c-0.04,6.58-3.83,14.11-14.35,14.03c-10.55-0.05-13.59-7.61-13.56-14.21l0.94-159.28c0.04-6.65,3.2-14.16,13.76-14.08
		C3737.24,2275.5,3740.91,2283.06,3740.87,2289.68z"/>
	<path class="st0" d="M4047.38,2505.91l1.6-269.63l-78.72-0.49l-1.25,209.78c-0.04,6.58-3.8,14.06-14.33,14.03
		c-10.56-0.08-13.62-7.61-13.57-14.24l1.24-209.73l-78.74-0.49l-1.34,224.82c-0.18,28.29,14,48.15,54.88,48.43
		c23.59,0.13,50.36-14.81,50.46-33.19l1.23,0.05l-0.18,30.16L4047.38,2505.91z"/>
	<path class="st0" d="M4272.6,2382.77l0.61-101.34c0.16-29.25-9.64-47.22-48.7-47.45c-27.27-0.18-44.67,9.63-56.56,26.07l-1.24-0.05
		l0.14-23.09l-78.72-0.49l-1.6,269.63l78.72,0.49l1.25-209.78c0.04-6.57,3.17-14.11,13.73-14.03c10.52,0.08,14.21,7.66,14.17,14.24
		l-0.52,85.32L4272.6,2382.77z"/>
	
		<rect x="4243.7" y="2301.09" transform="matrix(5.909756e-03 -1 1 5.909756e-03 2045.0098 6738.0747)" class="st0" width="335.61" height="78.76"/>
	<path class="st0" d="M4474.14,2296.54l-0.92,154.61c-0.24,40.51,41.78,61.07,92.01,61.38c49.57,0.34,93.08-19.67,93.31-60.24
		l0.28-49.49l-78.71-0.47l-0.33,51.85c-0.03,6.58-3.82,14.11-14.33,14.03c-10.56-0.05-13.62-7.61-13.57-14.21l0.43-70.23l106.63,0.7
		l0.51-86.74c0.25-40.54-43.03-61.09-92.6-61.4C4516.63,2236.05,4474.37,2256.06,4474.14,2296.54z M4552.82,2294.73
		c0.05-6.63,3.18-14.16,13.75-14.08c10.51,0.08,14.2,7.64,14.17,14.24l-0.28,48.56l-27.92-0.21L4552.82,2294.73z"/>
	<path class="st0" d="M4808.19,2175.09l-1.97,335.58l102.89,0.65c53.94,0.34,103.04-15.87,103.29-60.63l1.26-213.04
		c0.28-44.81-48.61-61.61-102.56-61.92L4808.19,2175.09z M4926.21,2246.04l-1.14,195.13c-0.1,9.42-2.05,22.13-15.69,22.05
		l-15.49-0.1l1.44-239.44l15.49,0.13C4924.47,2223.88,4926.26,2236.62,4926.21,2246.04z"/>
	<path class="st0" d="M5215.92,2387.89l0.51-86.74c0.25-40.54-43.03-61.09-92.6-61.38c-50.23-0.31-92.5,19.7-92.73,60.24
		l-0.91,154.56c-0.25,40.56,41.79,61.06,92,61.38c49.6,0.34,93.11-19.67,93.33-60.24l0.28-49.49l-78.71-0.47l-0.33,51.85
		c-0.05,6.58-3.82,14.11-14.33,14.06c-10.56-0.08-13.62-7.64-13.57-14.24l0.43-70.18L5215.92,2387.89z M5109.8,2298.15
		c0.05-6.6,3.18-14.13,13.75-14.08c10.51,0.08,14.2,7.64,14.17,14.24l-0.28,48.56l-27.92-0.18L5109.8,2298.15z"/>
	<polygon class="st0" points="5157.12,2157.02 5097.9,2220.31 5131.98,2220.52 5217.26,2157.38 	"/>
	<polygon class="st0" points="5358.07,2244.54 5332.1,2450.36 5330.83,2450.36 5311.58,2244.2 5230.37,2243.74 5280.86,2513.65 
		5376.94,2514.24 5429.98,2244.98 	"/>
	<path class="st0" d="M5610.71,2390.46l0.53-86.74c0.23-40.51-43.03-61.09-92.6-61.38c-50.26-0.31-92.55,19.7-92.78,60.24
		l-0.91,154.56c-0.25,40.56,41.79,61.09,92.05,61.38c49.57,0.34,93.08-19.67,93.34-60.18l0.28-49.49l-78.73-0.49l-0.3,51.85
		c-0.05,6.6-3.82,14.08-14.33,14.03c-10.56-0.08-13.62-7.64-13.59-14.24l0.46-70.18L5610.71,2390.46z M5504.62,2300.71
		c0.05-6.6,3.18-14.13,13.75-14.08c10.51,0.08,14.2,7.64,14.15,14.26l-0.28,48.54l-27.89-0.18L5504.62,2300.71z"/>
	
		<rect x="5517.03" y="2309.03" transform="matrix(6.249336e-03 -1 1 6.249336e-03 3300.9331 8018.4385)" class="st0" width="335.59" height="78.76"/>
	<path class="st0" d="M5747.38,2304.49l-0.91,154.62c-0.23,40.51,41.79,61.04,92.05,61.38c49.6,0.29,93.08-19.73,93.34-60.24
		l0.91-154.62c0.23-40.51-43.03-61.04-92.6-61.37C5789.9,2243.97,5747.63,2263.98,5747.38,2304.49z M5854.06,2302.81l-0.96,159.3
		c-0.05,6.6-3.82,14.11-14.33,14.03c-10.56-0.03-13.62-7.61-13.59-14.19l0.96-159.3c0.05-6.63,3.18-14.16,13.75-14.08
		C5850.39,2288.62,5854.08,2296.18,5854.06,2302.81z"/>
	<path class="st0" d="M5955.43,2248.27l-1.95,329.94l78.71,0.49l0.53-83.9h1.24c4.83,15.58,24.61,27,48.18,27.18
		c48.94,0.31,57.15-28.4,57.3-58.58l0.96-156.92c0.15-30.18-7.71-60.39-56.65-60.68c-23.57-0.18-43.46,12.43-48.54,31.27l-1.24-0.05
		l0.15-28.27L5955.43,2248.27z M6047.55,2294.6c10.49,0.05,14.15,7.61,14.1,14.18l-0.86,149.91c-0.05,6.6-3.82,14.11-14.3,14.03
		c-10.56-0.08-13.62-7.61-13.57-14.24l0.86-149.85C6033.83,2302.03,6036.99,2294.52,6047.55,2294.6z"/>
	<path class="st0" d="M6179.87,2257.35l-1.95,329.94l78.71,0.49l0.53-83.9h1.21c4.85,15.56,24.66,27,48.23,27.16
		c48.94,0.28,57.15-28.42,57.33-58.55l0.94-157c0.18-30.13-7.68-60.34-56.62-60.68c-23.6-0.1-43.51,12.5-48.59,31.3h-1.24
		l0.15-28.27L6179.87,2257.35z M6271.99,2303.64c10.54,0.08,14.17,7.64,14.12,14.24l-0.86,149.85c-0.05,6.63-3.82,14.11-14.33,14.08
		c-10.56-0.1-13.62-7.61-13.59-14.24l0.88-149.88C6258.27,2311.12,6261.43,2303.58,6271.99,2303.64z"/>
	<path class="st0" d="M6396.89,2308.35l-0.91,154.56c-0.25,40.56,41.79,61.09,92.05,61.43c49.57,0.29,93.08-19.72,93.31-60.24
		l0.28-49.49l-78.71-0.49l-0.33,51.85c-0.03,6.6-3.79,14.13-14.33,14.03c-10.56-0.08-13.62-7.64-13.57-14.24l0.43-70.18l106.63,0.65
		l0.51-86.74c0.25-40.51-43-61.04-92.6-61.38C6439.38,2247.8,6397.11,2267.81,6396.89,2308.35z M6503.54,2306.69l-0.28,48.51
		l-27.89-0.18l0.28-48.54c0.02-6.6,3.16-14.11,13.72-14.03C6499.9,2292.48,6503.59,2300.04,6503.54,2306.69z"/>
	<path class="st0" d="M6601.82,2252.1l-1.59,269.63l78.73,0.49l1.21-209.75c0.05-6.6,3.23-14.13,13.77-14.03
		c10.54,0.03,14.17,7.64,14.15,14.24l-1.24,209.7l78.71,0.49l1.24-209.73c0.05-6.58,3.21-14.11,13.77-14.06
		c10.54,0.08,14.17,7.64,14.15,14.24l-1.24,209.73l78.76,0.47l1.31-222.93c0.1-20.27-4.65-49.99-54.27-50.27
		c-31.61-0.21-40.38,9.63-54.1,27.47c-9.17-21.77-22.74-27.96-50.66-28.11c-31.63-0.21-40.38,9.14-52.88,27h-1.21l0.1-24.08
		L6601.82,2252.1z"/>
	<path class="st0" d="M7105.66,2399.44l0.53-86.74c0.23-40.51-43.03-61.04-92.6-61.38c-50.23-0.31-92.5,19.7-92.73,60.24
		l-0.93,154.59c-0.23,40.54,41.82,61.06,92.02,61.4c49.57,0.29,93.08-19.72,93.33-60.24l0.28-49.49l-78.73-0.49l-0.3,51.85
		c-0.05,6.6-3.82,14.13-14.33,14.03c-10.56-0.08-13.62-7.64-13.59-14.21l0.46-70.2L7105.66,2399.44z M6999.57,2309.69
		c0.05-6.6,3.18-14.11,13.74-14.03c10.51,0.02,14.2,7.61,14.15,14.24l-0.28,48.51l-27.89-0.15L6999.57,2309.69z"/>
	<path class="st0" d="M7334,2526.07l1.26-213.95c0.2-31.12-1.49-58.92-51.72-59.25c-21.07-0.13-48.41,10.1-53.46,26.51h-1.24
		l0.13-23.53l-78.76-0.49l-1.59,269.57l78.76,0.49l1.24-209.73c0.05-6.58,3.21-14.11,13.77-14.06c10.51,0.08,14.17,7.64,14.12,14.24
		l-1.21,209.73L7334,2526.07z"/>
	<path class="st0" d="M7476.83,2301.64l0.23-44.34l-21.7-0.1l0.3-49.03l-78.71-0.47l-0.33,49l-21.07-0.13l-0.23,44.29l21.07,0.16
		l-1.04,170.61c-0.23,41.47,9.6,54.72,66.02,55.11l35.32,0.18l0.28-44.29l-9.3-0.08c-11.77-0.08-13.59-9.96-13.57-18.46l0.99-162.59
		L7476.83,2301.64z"/>
	<polygon class="st0" points="7779.02,2529.02 7781.02,2193.42 7693.6,2192.9 7692.89,2314.48 7661.89,2314.33 7662.59,2192.69 
		7575.2,2192.15 7573.2,2527.75 7660.62,2528.27 7661.56,2368.04 7692.56,2368.22 7691.62,2528.48 	"/>
	<path class="st0" d="M7809.11,2484.4c-0.15,28.27,14.02,48.15,54.91,48.41c23.57,0.16,50.33-14.78,50.46-33.16h1.21l-0.18,30.18
		l78.71,0.49l1.59-269.63l-78.73-0.49l-1.21,209.75c-0.05,6.6-3.82,14.13-14.35,14.03c-10.54-0.03-13.59-7.58-13.57-14.19
		l1.24-209.75l-78.76-0.49L7809.11,2484.4z"/>
	<path class="st0" d="M8320.54,2532.26l1.31-222.93c0.13-20.27-4.62-50.04-54.25-50.32c-31.61-0.21-40.38,9.66-54.12,27.49
		c-9.17-21.75-22.74-27.98-50.63-28.14c-31.63-0.21-40.38,9.19-52.88,27h-1.24l0.13-24.08l-78.7-0.49l-1.59,269.63l78.7,0.49
		l1.24-209.75c0.05-6.6,3.21-14.11,13.77-14.03c10.51,0.08,14.17,7.64,14.12,14.24l-1.21,209.72l78.71,0.47l1.24-209.7
		c0.02-6.6,3.21-14.13,13.77-14.08c10.51,0.08,14.17,7.64,14.12,14.24l-1.21,209.75L8320.54,2532.26z"/>
	<path class="st0" d="M8341,2429.13l-0.38,57.99c-0.18,30.62,12.71,48.64,52.4,48.9c22.94,0.1,42.19-8.7,52.83-30.34h1.29
		l4.17,27.41l79.97,0.47c-1.74-17.91-5.38-35.85-5.28-54.7l0.96-157.41c0.23-40.56-43.03-61.09-92.6-61.4
		c-50.23-0.28-92.5,19.7-92.73,60.21l-0.25,36.32l78.73,0.49l0.23-38.62c0.05-6.65,3.18-14.16,13.75-14.08
		c10.51,0.05,14.2,7.61,14.17,14.24l-0.05,10.82C8447.86,2387.84,8341.38,2361.28,8341,2429.13z M8447.3,2477.9
		c-0.05,6.58-3.81,14.11-14.33,14.03c-10.56-0.05-13.62-7.61-13.59-14.21l0.33-49.03c0.05-11.75,2.55-13.64,13.77-21.12l14.3-7.43
		L8447.3,2477.9z"/>
	
		<rect x="8587.03" y="2184.43" transform="matrix(6.236936e-03 -1 1 6.236936e-03 6335.0166 10822.2607)" class="st0" width="50.92" height="78.76"/>
	
		<rect x="8476.62" y="2359.74" transform="matrix(6.237014e-03 -1 1 6.237014e-03 6158.6528 10995.418)" class="st0" width="269.63" height="78.76"/>
	<path class="st0" d="M8858.31,2535.44l1.26-213.97c0.2-31.09-1.52-58.92-51.72-59.25c-21.07-0.1-48.44,10.1-53.46,26.53h-1.24
		l0.13-23.56l-78.76-0.49l-1.59,269.6l78.75,0.49l1.21-209.73c0.05-6.6,3.23-14.11,13.79-14.08c10.51,0.08,14.15,7.64,14.13,14.24
		l-1.24,209.73L8858.31,2535.44z"/>
	<rect x="141.73" y="2661.38" class="st0" width="8787.4" height="143.2"/>
	<rect x="153.38" y="596.99" class="st0" width="8775.75" height="143.2"/>
</g>
</svg>
