<svg xmlns="http://www.w3.org/2000/svg" width="812" height="594.892" viewBox="0 0 812 594.892">
  <g id="Groupe_1321" data-name="Groupe 1321" transform="translate(-356.948 -210.781)">
    <g id="Groupe_1303" data-name="Groupe 1303" transform="translate(571.349 236.989)">
      <path id="Rectangle_103" data-name="Rectangle 103" d="M25.951,0H206.672a25.95,25.95,0,0,1,25.95,25.95V288.63a25.951,25.951,0,0,1-25.951,25.951H25.951A25.951,25.951,0,0,1,0,288.63V25.951A25.951,25.951,0,0,1,25.951,0Z" transform="translate(1.08 1.08)" fill="#acc4e8"/>
      <path id="Tracé_1328" data-name="Tracé 1328" d="M941.421,572.259H739.2a16.3,16.3,0,0,1-16.283-16.283V271.8A16.3,16.3,0,0,1,739.2,255.517H941.421A16.3,16.3,0,0,1,957.7,271.8V555.976A16.3,16.3,0,0,1,941.421,572.259ZM739.2,257.678A14.139,14.139,0,0,0,725.082,271.8V555.976A14.138,14.138,0,0,0,739.2,570.1H941.421a14.137,14.137,0,0,0,14.122-14.122V271.8a14.138,14.138,0,0,0-14.122-14.123Z" transform="translate(-722.921 -255.517)" fill="#acc4e8"/>
    </g>
    <g id="Groupe_1304" data-name="Groupe 1304" transform="translate(576.666 244.227)">
      <rect id="Rectangle_104" data-name="Rectangle 104" width="221.719" height="299.836" rx="24.734" transform="translate(1.215 1.215)" fill="#fff"/>
      <path id="Tracé_1329" data-name="Tracé 1329" d="M940.441,570.139H747.7A15.723,15.723,0,0,1,732,554.432V283.577A15.723,15.723,0,0,1,747.7,267.872H940.441a15.724,15.724,0,0,1,15.706,15.705V554.432A15.724,15.724,0,0,1,940.441,570.139ZM747.7,270.3a13.289,13.289,0,0,0-13.275,13.274V554.432A13.29,13.29,0,0,0,747.7,567.707H940.441a13.29,13.29,0,0,0,13.275-13.275V283.577A13.289,13.289,0,0,0,940.441,270.3Z" transform="translate(-731.997 -267.872)" fill="#fff"/>
    </g>
    <g id="Groupe_1307" data-name="Groupe 1307" transform="translate(591.162 210.781)">
      <g id="Groupe_1305" data-name="Groupe 1305" transform="translate(0 11.261)">
        <path id="Tracé_1330" data-name="Tracé 1330" d="M978.918,231.809,907.274,365.578H819.08l-1.229,3.043-59.12,148.292,14.987.054L825.6,375.073h87.481l1.262-2.586L982.166,233.47Z" transform="translate(-757.566 -230.751)" fill="#0969c9"/>
        <path id="Tracé_1331" data-name="Tracé 1331" d="M773.447,517.013l-16.705-.06,60.98-152.915h88.254L977.764,230l4.63,2.369L912.753,375.117H825.33Zm-14.375-1.635,13.27.048,51.881-141.892h87.541L980.29,233.073l-1.865-.954-71.5,133.5H818.79l-1.028,2.549Z" transform="translate(-756.742 -230.003)" fill="#0969c9"/>
      </g>
      <g id="Groupe_1306" data-name="Groupe 1306" transform="translate(202.502)">
        <path id="Tracé_1332" data-name="Tracé 1332" d="M1133.991,239.549l-28.526-15.208,25.636-11.564Z" transform="translate(-1103.672 -211.608)" fill="#0969c9"/>
        <path id="Tracé_1333" data-name="Tracé 1333" d="M1133.671,240.124,1102.4,223.455l28.1-12.674Zm-27.681-16.55,25.786,13.746-2.612-24.2Z" transform="translate(-1102.404 -210.781)" fill="#0969c9"/>
      </g>
    </g>
    <g id="Groupe_1308" data-name="Groupe 1308" transform="translate(590.864 279.91)">
      <path id="Tracé_1334" data-name="Tracé 1334" d="M950.353,558.46H759.6V329.925h-2.229V561.55H759.6c0-.05,190.75-.05,190.75-.05Z" transform="translate(-756.705 -329.255)" fill="#acc4e8"/>
      <path id="Tracé_1335" data-name="Tracé 1335" d="M759.13,561.746h-2.9V328.782H759.8V557.317h190.75V561.7Zm-1.559-1.339,191.639-.051v-1.7H758.461V330.121h-.889Z" transform="translate(-756.232 -328.782)" fill="#acc4e8"/>
    </g>
    <g id="Groupe_1315" data-name="Groupe 1315" transform="translate(447.142 306.057)">
      <g id="Groupe_1309" data-name="Groupe 1309" transform="translate(8.191 40.989)">
        <path id="Tracé_1336" data-name="Tracé 1336" d="M554.185,450.4s5.481,26.144,9.8,31.826l4.321,5.682L525.753,484.7s7.929-8.5,8.836-15.068-.554-25.687-.554-25.687Z" transform="translate(-525.246 -443.615)" fill="#e28a86"/>
        <path id="Tracé_1337" data-name="Tracé 1337" d="M524.887,484.667l.334-.359c.079-.084,7.889-8.519,8.776-14.94.893-6.469-.541-25.446-.555-25.637l-.027-.35,20.614,6.6.029.134c.054.261,5.519,26.156,9.759,31.731l4.639,6.1Zm9.051-40.623c.192,2.633,1.359,19.36.527,25.389-.812,5.879-7.041,13.132-8.57,14.837l41.551,3.132-4-5.265c-4.19-5.509-9.341-29.533-9.818-31.785Z" transform="translate(-524.887 -443.381)" fill="#e28a86"/>
      </g>
      <g id="Groupe_1310" data-name="Groupe 1310" transform="translate(11.098 12.059)">
        <path id="Tracé_1338" data-name="Tracé 1338" d="M544.016,394.389s15.746-.393,20.128,14.939,3.935,31.707-1.946,33.376-22.88-1.509-26.848-13.9S522.8,400.022,544.016,394.389Z" transform="translate(-530.011 -394.16)" fill="#ffa69e"/>
        <path id="Tracé_1339" data-name="Tracé 1339" d="M562.1,442.77c-2.777.788-8.433.6-14.292-1.684-6.545-2.55-11.107-6.943-12.846-12.372-.435-1.36-.917-2.743-1.428-4.209-2.6-7.456-5.548-15.908-2.162-22.288,2.045-3.854,6.107-6.543,12.42-8.218.214-.012,16.033-.228,20.415,15.1,3.563,12.465,3.924,25.511.857,31.02a5.144,5.144,0,0,1-2.9,2.627Zm-30.311-40.331c-3.289,6.2-.378,14.546,2.191,21.911.511,1.468,1,2.854,1.432,4.221,3.823,11.939,20.53,15.457,26.559,13.745a4.61,4.61,0,0,0,2.682-2.422c3.011-5.411,2.633-18.306-.9-30.662-4.2-14.681-19.138-14.774-19.869-14.768C537.724,396.107,533.766,398.714,531.789,402.438Z" transform="translate(-529.849 -393.999)" fill="#ffa69e"/>
      </g>
      <g id="Groupe_1311" data-name="Groupe 1311" transform="translate(0 0)">
        <path id="Tracé_1340" data-name="Tracé 1340" d="M543.92,395.329s12.376,5.689,16.787,4.647,7.987-5.655,8.416-11.112-5.855-14.075-12.991-14.927-10.5,3.131-18.476,1.228-30.659,5.2-25.648,21.79S526.8,422.241,526.8,422.241l2.062,1.77s-5.117-15.491-4.057-21.787,4.636-10.489,8.414-10.062S543.92,395.329,543.92,395.329Z" transform="translate(-511.066 -373.58)" fill="#413b3d"/>
        <path id="Tracé_1341" data-name="Tracé 1341" d="M526.483,422.251c-.1-.087-9.889-8.929-14.862-25.395a14.025,14.025,0,0,1,3.316-14.36c6.164-6.54,17.51-8.945,22.612-7.727,4.324,1.032,7.335.3,10.246-.414a21.475,21.475,0,0,1,8.2-.819c7.209.861,13.651,9.42,13.2,15.18-.431,5.486-4.049,10.243-8.6,11.323-4.422,1.045-16.344-4.388-16.934-4.659-.233-.092-6.977-2.737-10.635-3.149-3.691-.417-7.122,3.733-8.155,9.867-1.038,6.166,4,21.52,4.048,21.674l.267.806Zm6.6-30.49c3.766.425,10.478,3.069,10.762,3.182.135.062,12.364,5.649,16.645,4.637,4.36-1.033,7.82-5.614,8.236-10.9.428-5.448-5.934-13.857-12.783-14.674a21.084,21.084,0,0,0-8.036.808c-2.966.724-6.032,1.473-10.467.415-4.995-1.192-16.11,1.174-22.16,7.592a13.411,13.411,0,0,0-3.207,13.9C517,413.052,526.7,421.812,526.793,421.9l1.427,1.226c-1.038-3.281-4.741-15.569-3.809-21.1.886-5.264,3.517-9.119,6.625-10.065A5.038,5.038,0,0,1,533.084,391.761Z" transform="translate(-510.905 -373.414)" fill="#413b3d"/>
      </g>
      <g id="Groupe_1314" data-name="Groupe 1314" transform="translate(4.116 34.254)">
        <g id="Groupe_1312" data-name="Groupe 1312">
          <path id="Tracé_1342" data-name="Tracé 1342" d="M529.07,435.048s-8.177-6-10.286-.332,3.552,9.873,9.115,10.092,4.409-.2,4.409-.2Z" transform="translate(-518.097 -432.049)" fill="#ffa69e"/>
          <path id="Tracé_1343" data-name="Tracé 1343" d="M527.723,444.879c-3.6-.142-7.009-1.861-8.688-4.38a6.436,6.436,0,0,1-.639-6.031,3.66,3.66,0,0,1,2.377-2.409c3.284-.984,8.068,2.486,8.27,2.634.06.044,3.292,9.584,3.292,9.584a.289.289,0,0,1,.136.3c-.018.088-.035.176-.255.243A19.8,19.8,0,0,1,527.723,444.879Zm-6.8-12.373a3.219,3.219,0,0,0-2.087,2.128,5.98,5.98,0,0,0,.59,5.6,10.611,10.611,0,0,0,8.314,4.169,29.35,29.35,0,0,0,4.141,0l-3.178-9.38C528.145,434.635,523.785,431.651,520.925,432.506Z" transform="translate(-517.931 -431.885)" fill="#ffa69e"/>
        </g>
        <g id="Groupe_1313" data-name="Groupe 1313" transform="translate(3.037 2.714)">
          <path id="Tracé_1344" data-name="Tracé 1344" d="M529.623,438.489s-4.65-3.41-5.849-.189,2.02,5.615,5.183,5.739,2.507-.115,2.507-.115Z" transform="translate(-523.281 -436.682)" fill="#e28a86"/>
          <path id="Tracé_1345" data-name="Tracé 1345" d="M528.781,444.11a6.417,6.417,0,0,1-5.021-2.536,3.759,3.759,0,0,1-.374-3.521,2.178,2.178,0,0,1,1.417-1.432c1.916-.574,4.676,1.428,4.792,1.513.06.044,1.9,5.47,1.9,5.47a.264.264,0,0,1,.091.251c-.018.088-.032.162-.2.213A11.121,11.121,0,0,1,528.781,444.11Zm-3.833-7.04a1.711,1.711,0,0,0-1.12,1.148,3.3,3.3,0,0,0,.324,3.095,5.935,5.935,0,0,0,4.647,2.326,21.2,21.2,0,0,0,2.213.015l-1.755-5.181C528.854,438.19,526.492,436.607,524.948,437.07Z" transform="translate(-523.114 -436.518)" fill="#e28a86"/>
        </g>
      </g>
    </g>
    <g id="Groupe_1316" data-name="Groupe 1316" transform="translate(519.941 755.518)">
      <path id="Tracé_1346" data-name="Tracé 1346" d="M653.079,1153.071l1.833,15.963,32.865,13.59a6.165,6.165,0,0,1-5.171,2.924l-45.79-.488s-1.5-12.184,1.654-15.142-.752-26.63-.752-26.63Z" transform="translate(-635.704 -1141.728)" fill="#012c49"/>
      <path id="Tracé_1347" data-name="Tracé 1347" d="M682.065,1185.232l-46.433-.5-.083-.678c-.159-1.29-1.456-12.69,1.9-15.833,2.072-1.943.491-16.921-.993-25.907l-.279-1.695,17.059,10.867,1.824,15.877,33.332,13.783-.542.821a6.937,6.937,0,0,1-5.72,3.261Zm-28.366-16.74-1.844-16.048-13.672-8.708c.967,6.262,3.209,22.889.242,25.669-2.2,2.06-1.868,10.08-1.485,13.772l45.139.483a5.459,5.459,0,0,0,3.943-1.8Z" transform="translate(-635.17 -1140.625)" fill="#012c49"/>
    </g>
    <g id="Groupe_1317" data-name="Groupe 1317" transform="translate(377.562 740.344)">
      <path id="Tracé_1348" data-name="Tracé 1348" d="M424.073,1128.57l-7.578,18.243,2.278,12.927,8.595,15.6c-1.911.377-4.851-1.342-6.511-2.55l-11.611-8.666-15.626-19.916s5.715-9.119,9.6-8.879,14.293-18.164,14.293-18.164Z" transform="translate(-392.75 -1115.735)" fill="#012c49"/>
      <path id="Tracé_1349" data-name="Tracé 1349" d="M419.842,1172.387l-11.611-8.666-16.1-20.474.289-.461c.6-.955,5.9-9.213,10.038-9.213.063,0,.126,0,.187.006,2.49,0,9.455-10.376,13.656-17.807l.593-1.047,7.344,12.779-7.639,18.388,2.217,12.573,9.035,16.4-.977.194a3.559,3.559,0,0,1-.69.064C423.8,1175.122,420.784,1173.07,419.842,1172.387Zm-2.937-54.809c-2.668,4.618-10.536,17.674-14.335,17.481-2.7-.094-6.934,5.41-8.691,8.094l15.23,19.411,11.527,8.6a13.716,13.716,0,0,0,4.9,2.413l-7.975-14.476-2.363-13.165-.039-.227,7.519-18.1Z" transform="translate(-392.135 -1114.724)" fill="#012c49"/>
    </g>
    <g id="Groupe_1318" data-name="Groupe 1318" transform="translate(387.967 500.937)">
      <path id="Tracé_1350" data-name="Tracé 1350" d="M531.046,709.413s22.49,35.693,32.757,278.938l-19.067.264L498.9,786.749s-2.567,55.127-18.456,95.051c-20.882,52.466-55.981,94.654-55.981,94.654l-13.078-12.03,30.191-86.59c1.711-23.8,8.8-89.283,10.022-99.413,4.145-34.457,4.064-47.794,23.285-70.993Z" transform="translate(-410.513 -706.63)" fill="#024d8c"/>
      <path id="Tracé_1351" data-name="Tracé 1351" d="M498.692,791.335c-1.083,14.627-5.235,57.675-18.182,90.207-20.691,51.984-55.758,94.446-56.109,94.869l-.486.583L409.9,964.1l30.334-87c1.736-24.056,8.789-89.136,10.018-99.343.371-3.08.708-5.991,1.028-8.756,3.284-28.392,4.782-41.35,22.436-62.655l.23-.278,56.893,2.01.21.335c.923,1.464,22.722,38.645,32.881,279.34l.035.81-20.421.285ZM530,709.62l-55.4-1.958c-17.132,20.777-18.617,33.595-21.848,61.53-.321,2.767-.657,5.681-1.029,8.765-1.229,10.215-8.3,75.429-10.018,99.373-.009.111-30.057,86.294-30.057,86.294l12.132,11.157c4.282-5.285,36.1-45.415,55.374-93.851,15.656-39.333,18.373-94.232,18.4-94.783l.254-5.447,46.9,206.557,17.714-.245C552.769,759.537,532.158,713.816,530,709.62Z" transform="translate(-409.896 -706.066)" fill="#024d8c"/>
    </g>
    <g id="Groupe_1319" data-name="Groupe 1319" transform="translate(412.395 376.152)">
      <path id="Tracé_1352" data-name="Tracé 1352" d="M574.485,513.167c-.158-7.53-4.575-17.193-24.271-18.511-35.837-2.4-77.273.329-94.141,10.856-17.929,11.19,33.735,115.213,33.735,115.213l59.586,1.267S575.5,561.74,574.485,513.167Z" transform="translate(-451.883 -493.387)" fill="#f4f4f4"/>
      <path id="Tracé_1353" data-name="Tracé 1353" d="M489.51,620.874l-.262-.006-.123-.247c-2.117-4.263-51.654-104.554-33.566-115.842,17.234-10.755,59.82-13.238,94.394-10.92,21.165,1.417,24.552,12.5,24.688,18.974,1.009,48.124-24.87,108.429-25.132,109.032l-.121.282ZM456.009,505.6c-16.945,10.576,31,108.685,33.782,114.337l59.03,1.255c1.921-4.531,25.9-62.113,24.929-108.334-.129-6.153-3.4-16.682-23.855-18.051-7.729-.518-15.853-.8-24.008-.8C497.718,494.008,469.25,497.332,456.009,505.6Z" transform="translate(-451.593 -493.063)" fill="#f4f4f4"/>
    </g>
    <g id="Groupe_1325" data-name="Groupe 1325" transform="translate(547.228 231.864)">
      <g id="Groupe_1324" data-name="Groupe 1324" transform="translate(0 0)">
        <g id="Groupe_1321-2" data-name="Groupe 1321" transform="translate(0.699 1.084)">
          <g id="Groupe_1320" data-name="Groupe 1320">
            <path id="Tracé_1354" data-name="Tracé 1354" d="M700.433,293.42s-10-8.795-10.143-9.315-7.35-14.369-7.35-14.369,2.422-.957,4.6,1.683a41.93,41.93,0,0,1,4.289,7.077l.907-9.194-.91-17.078a10.215,10.215,0,0,1,2.216,2.425c.69,1.189,2.252,9.625,2.48,10.877l.618-.178c.194-.056.4-.054.6-.093l-.041-.859-2-15.776a7.9,7.9,0,0,1,2.08,2.191c.332.744,2.108,9.868,2.988,14.451a9.631,9.631,0,0,1,1.919.626l-2.885-14.61s1.025.144,1.974,1.778c.776,1.336,2.639,10.759,3.4,14.27.313.268,1.014,1.161,1.3,1.463l-.891-9.762a6.893,6.893,0,0,1,2.765,4.876c.1,1.424,1.209,11.431,1.213,11.474a49.155,49.155,0,0,1,1.5,14.534c-.749,10.12,3.234,30.963,3.234,30.963L703.179,319.7C702.892,318.662,700.433,293.42,700.433,293.42Z" transform="translate(-682.94 -248.619)" fill="#e2887f"/>
          </g>
        </g>
        <g id="Groupe_1323" data-name="Groupe 1323">
          <g id="Groupe_1322" data-name="Groupe 1322">
            <path id="Tracé_1355" data-name="Tracé 1355" d="M714.408,320.691l-12.1-1.274-.093-.334c-.285-1.03-2.411-22.753-2.745-26.166-9.962-8.766-10.1-9.251-10.145-9.434-.2-.532-4.48-8.824-7.31-14.263l-.274-.526.53-.209c.111-.043,2.763-1.046,5.134,1.828a36.069,36.069,0,0,1,3.606,5.694l.742-7.525-.97-18.085.831.643a10.636,10.636,0,0,1,2.342,2.571c.657,1.134,1.933,7.752,2.445,10.505a2.361,2.361,0,0,1,.33-.079l-.018-.381-2.14-16.886.9.659a8.043,8.043,0,0,1,2.244,2.395c.324.73,1.774,8.067,2.96,14.238.28.068.562.152.851.251L698.691,249.9l.68.1c.128.018,1.285.227,2.326,2.019.628,1.08,1.757,6.315,2.956,12.047.178.851.336,1.611.466,2.217.073.071.151.156.235.25l-.846-9.277.841.569a7.37,7.37,0,0,1,2.991,5.276c.081,1.219.934,8.958,1.194,11.3a50.139,50.139,0,0,1,1.518,14.784c-.732,9.938,3.186,30.614,3.226,30.82ZM703.1,318.46l10.1,1.064c-.691-3.743-3.8-21.27-3.114-30.421a48.614,48.614,0,0,0-1.486-14.364l-.029-.218c-.333-3.011-1.117-10.143-1.2-11.351a6.07,6.07,0,0,0-1.681-3.7l.908,9.937-.96-1.019c-.109-.117-.278-.317-.465-.538a11.288,11.288,0,0,0-.794-.889l-.131-.112-.037-.176c-.138-.63-.308-1.452-.5-2.384-.783-3.742-2.239-10.707-2.833-11.727a4.36,4.36,0,0,0-.878-1.106l2.867,14.514-.849-.371a9.178,9.178,0,0,0-1.827-.6l-.319-.065-.066-.339c-1.913-9.963-2.779-13.936-2.951-14.334a4.425,4.425,0,0,0-1-1.221l1.838,14.515.066,1.357-.421.08c-.094.019-.19.029-.286.04a1.714,1.714,0,0,0-.273.043l-1.121.322-.1-.544c-.871-4.756-1.956-9.909-2.416-10.7a7.724,7.724,0,0,0-1.254-1.537l.846,15.889-1.081,11.023-.746-1.567a41.733,41.733,0,0,0-4.22-6.969,3.93,3.93,0,0,0-3.492-1.662c1.98,3.809,6.932,13.357,7.073,13.86.36.5,6.322,5.841,9.986,9.063l.153.135.021.21C701.341,302.033,702.746,316.031,703.1,318.46Z" transform="translate(-681.747 -246.768)" fill="#e2887f"/>
          </g>
        </g>
      </g>
    </g>
    <g id="Groupe_1330" data-name="Groupe 1330" transform="translate(475.021 284.427)">
      <g id="Groupe_1327" data-name="Groupe 1327" transform="translate(0.57 0.606)">
        <g id="Groupe_1326" data-name="Groupe 1326">
          <path id="Tracé_1356" data-name="Tracé 1356" d="M578.843,484.955c-12.9,1.682-14.623-2.895-19.091-15.867-2.032-5.9,7.266-18.688,12.634-22.987,18.406-14.738,75.386-50.482,75.386-50.482l-1.655-58.1,17.977.147s15.731,71.811,11.551,76.188S617.431,479.921,578.843,484.955Z" transform="translate(-559.467 -337.525)" fill="#f4f4f4"/>
        </g>
      </g>
      <g id="Groupe_1329" data-name="Groupe 1329" transform="translate(0 0)">
        <g id="Groupe_1328" data-name="Groupe 1328">
          <path id="Tracé_1357" data-name="Tracé 1357" d="M675.638,413.859c-.276.291-.774.834-1.47,1.6-38.333,41.88-72.305,66.622-95.658,69.668-13.485,1.76-15.3-3.513-19.692-16.256-2.253-6.537,7.809-19.651,12.826-23.674,17.546-14.05,70.73-47.559,75.149-50.338l-1.661-58.364,19.009.154.1.463c1.613,7.358,15.581,71.821,11.441,76.7C675.667,413.829,675.652,413.844,675.638,413.859ZM646.3,337.7l1.636,57.471.012.355-.289.181c-.569.359-57.162,35.9-75.332,50.444-5.266,4.217-14.334,16.813-12.444,22.3,4.412,12.8,5.9,17.118,18.492,15.475,23.1-3.014,56.83-27.629,94.984-69.314.706-.772,1.207-1.32,1.489-1.613,2.806-3.31-5.578-47.585-11.6-75.161Z" transform="translate(-558.493 -336.491)" fill="#f4f4f4"/>
        </g>
      </g>
    </g>
    <g id="Groupe_1336" data-name="Groupe 1336" transform="translate(565.157 343.135)">
      <g id="Groupe_1335" data-name="Groupe 1335" transform="translate(0)">
        <g id="Groupe_1332" data-name="Groupe 1332" transform="translate(0.253 0.267)">
          <g id="Groupe_1331" data-name="Groupe 1331">
            <path id="Tracé_1358" data-name="Tracé 1358" d="M722.443,443.76l.191-.331-9.659-6.268-.191.331Z" transform="translate(-712.784 -437.161)" fill="#643650"/>
          </g>
        </g>
        <g id="Groupe_1334" data-name="Groupe 1334">
          <g id="Groupe_1333" data-name="Groupe 1333">
            <path id="Tracé_1359" data-name="Tracé 1359" d="M722.324,443.838l.384-.663-.157-.1-9.815-6.369-.384.663.157.1Z" transform="translate(-712.352 -436.704)" fill="#643650"/>
          </g>
        </g>
      </g>
    </g>
    <g id="Groupe_1342" data-name="Groupe 1342" transform="translate(370.033 229.524)">
      <g id="Groupe_1341" data-name="Groupe 1341">
        <g id="Groupe_1338" data-name="Groupe 1338" transform="translate(0.607 1.084)">
          <g id="Groupe_1337" data-name="Groupe 1337">
            <path id="Tracé_1360" data-name="Tracé 1360" d="M394.183,289.427s10-8.8,10.143-9.315,7.35-14.369,7.35-14.369-2.422-.957-4.6,1.683a41.9,41.9,0,0,0-4.289,7.077l-.907-9.194.909-17.078a10.215,10.215,0,0,0-2.216,2.425c-.69,1.188-2.252,9.625-2.48,10.877l-.618-.178c-.195-.056-.4-.054-.6-.093l.042-.859,2-15.776a7.88,7.88,0,0,0-2.08,2.191c-.332.744-2.108,9.868-2.988,14.451a9.623,9.623,0,0,0-1.918.626l2.885-14.61s-1.026.144-1.975,1.778c-.776,1.336-2.639,10.759-3.4,14.27-.313.268-1.013,1.16-1.3,1.463l.891-9.762a6.893,6.893,0,0,0-2.765,4.877c-.1,1.424-1.209,11.431-1.214,11.474a49.2,49.2,0,0,0-1.5,14.534c.749,10.12-3.234,30.963-3.234,30.963l11.116-1.171C391.723,314.669,394.183,289.427,394.183,289.427Z" transform="translate(-380.32 -244.626)" fill="#e2887f"/>
          </g>
        </g>
        <g id="Groupe_1340" data-name="Groupe 1340">
          <g id="Groupe_1339" data-name="Groupe 1339">
            <path id="Tracé_1361" data-name="Tracé 1361" d="M379.415,316.012c.039-.207,3.957-20.883,3.225-30.821a50.114,50.114,0,0,1,1.519-14.784c.26-2.343,1.112-10.083,1.194-11.3a7.37,7.37,0,0,1,2.99-5.275l.841-.569-.847,9.277c.084-.094.162-.179.236-.25.13-.606.288-1.367.466-2.217,1.2-5.732,2.329-10.968,2.956-12.048,1.04-1.792,2.2-2,2.326-2.018l.68-.1-2.847,14.409c.289-.1.57-.183.85-.251,1.187-6.171,2.636-13.508,2.961-14.238a8.029,8.029,0,0,1,2.244-2.395l.9-.659-2.139,16.886-.019.381a2.279,2.279,0,0,1,.331.079c.512-2.753,1.787-9.372,2.444-10.505a10.636,10.636,0,0,1,2.343-2.571l.831-.643-.97,18.085.742,7.525a35.987,35.987,0,0,1,3.606-5.694c2.371-2.874,5.024-1.871,5.134-1.828l.53.209-.273.526c-2.83,5.439-7.113,13.731-7.309,14.263-.05.183-.183.668-10.145,9.434-.334,3.412-2.459,25.135-2.745,26.166l-.093.334-12.1,1.274Zm13.855-27.406.02-.21.153-.135c3.664-3.221,9.626-8.558,9.986-9.062.141-.5,5.093-10.051,7.073-13.86A3.929,3.929,0,0,0,407.01,267a41.682,41.682,0,0,0-4.22,6.969l-.746,1.566-1.081-11.022.845-15.889a7.721,7.721,0,0,0-1.253,1.537c-.46.794-1.545,5.947-2.416,10.7l-.1.544-1.122-.322a1.767,1.767,0,0,0-.272-.043c-.1-.011-.192-.022-.286-.04l-.421-.081.067-1.356,1.838-14.515a4.411,4.411,0,0,0-1,1.22c-.173.4-1.039,4.371-2.951,14.334l-.066.339-.318.065a9.189,9.189,0,0,0-1.828.6l-.848.371,2.867-14.514a4.34,4.34,0,0,0-.878,1.105c-.593,1.021-2.05,7.986-2.833,11.728-.2.931-.367,1.754-.5,2.384l-.038.176-.131.112a11.519,11.519,0,0,0-.794.889c-.187.221-.356.421-.465.538l-.96,1.019.907-9.938a6.076,6.076,0,0,0-1.681,3.7c-.082,1.207-.865,8.339-1.2,11.351l-.029.218a48.593,48.593,0,0,0-1.486,14.364c.682,9.151-2.423,26.677-3.114,30.42l10.1-1.064C390.945,312.038,392.351,298.04,393.27,288.606Z" transform="translate(-379.284 -242.775)" fill="#e2887f"/>
          </g>
        </g>
      </g>
    </g>
    <g id="Groupe_1347" data-name="Groupe 1347" transform="translate(356.949 282.087)">
      <g id="Groupe_1344" data-name="Groupe 1344" transform="translate(0.498 0.606)">
        <g id="Groupe_1343" data-name="Groupe 1343">
          <path id="Tracé_1362" data-name="Tracé 1362" d="M455.306,480.962c12.9,1.682,14.623-2.894,19.091-15.866,2.032-5.9-7.266-18.688-12.634-22.987-18.406-14.738-75.387-50.482-75.387-50.482l1.655-58.1-17.976.146s-15.731,71.811-11.55,76.189S416.718,475.928,455.306,480.962Z" transform="translate(-357.799 -333.532)" fill="#f4f4f4"/>
        </g>
      </g>
      <g id="Groupe_1346" data-name="Groupe 1346" transform="translate(0 0)">
        <g id="Groupe_1345" data-name="Groupe 1345">
          <path id="Tracé_1363" data-name="Tracé 1363" d="M357.712,409.818c-4.14-4.883,9.828-69.345,11.44-76.7l.1-.462,19.009-.153L386.6,390.862c4.419,2.779,57.6,36.288,75.149,50.337,5.017,4.023,15.078,17.137,12.826,23.674-4.391,12.743-6.207,18.016-19.692,16.256-23.354-3.046-57.326-27.788-95.658-69.668-.7-.763-1.194-1.306-1.471-1.6C357.742,409.851,357.726,409.836,357.712,409.818Zm12.441-75.97c-6.025,27.577-14.41,71.851-11.631,75.128.309.326.811.875,1.517,1.646,38.153,41.684,71.885,66.3,94.983,69.313,12.593,1.643,14.079-2.67,18.492-15.474,1.89-5.489-7.179-18.084-12.445-22.3-18.169-14.547-74.762-50.086-75.332-50.444l-.288-.181.011-.355L387.1,333.71Z" transform="translate(-356.949 -332.498)" fill="#f4f4f4"/>
        </g>
      </g>
    </g>
    <g id="Groupe_1353" data-name="Groupe 1353" transform="translate(374.409 340.796)">
      <g id="Groupe_1352" data-name="Groupe 1352">
        <g id="Groupe_1349" data-name="Groupe 1349" transform="translate(0.253 0.267)">
          <g id="Groupe_1348" data-name="Groupe 1348">
            <path id="Tracé_1364" data-name="Tracé 1364" d="M387.375,439.766l-.191-.331,9.659-6.268.192.331Z" transform="translate(-387.184 -433.167)" fill="#643650"/>
          </g>
        </g>
        <g id="Groupe_1351" data-name="Groupe 1351">
          <g id="Groupe_1350" data-name="Groupe 1350">
            <path id="Tracé_1365" data-name="Tracé 1365" d="M387.136,439.845l-.384-.663.157-.1,9.815-6.37.384.663-.157.1Z" transform="translate(-386.752 -432.71)" fill="#643650"/>
          </g>
        </g>
      </g>
    </g>
    <g id="Groupe_1360" data-name="Groupe 1360" transform="translate(465.753 380.6)">
      <g id="Groupe_1356" data-name="Groupe 1356">
        <g id="Groupe_1354" data-name="Groupe 1354" transform="translate(1.791 1.188)">
          <path id="Tracé_1366" data-name="Tracé 1366" d="M558.936,502.685l-13.205,1.664,8.4,11.1Z" transform="translate(-545.731 -502.685)" fill="#838cb7"/>
        </g>
        <g id="Groupe_1355" data-name="Groupe 1355">
          <path id="Tracé_1367" data-name="Tracé 1367" d="M542.673,502.729l16.455-2.073-5.994,15.91Zm3.584,1.557,6.329,8.372,3.625-9.625Z" transform="translate(-542.673 -500.656)" fill="#838cb7"/>
        </g>
      </g>
      <g id="Groupe_1359" data-name="Groupe 1359" transform="translate(7.452 9.23)">
        <g id="Groupe_1357" data-name="Groupe 1357" transform="translate(0.801 0.895)">
          <path id="Tracé_1368" data-name="Tracé 1368" d="M563.51,587.312l5.568,9.426,2.893-10.78-12.542-68.019-2.667.476Z" transform="translate(-556.761 -517.939)" fill="#838cb7"/>
        </g>
        <g id="Groupe_1358" data-name="Groupe 1358">
          <path id="Tracé_1369" data-name="Tracé 1369" d="M562.232,586.94l-6.838-69.8,4.05-.725,12.679,68.764.035.184L568.765,598ZM558.279,518.2,557,518.43l6.661,67.989,4.6,7.79,2.394-8.918Z" transform="translate(-555.394 -516.411)" fill="#838cb7"/>
        </g>
      </g>
    </g>
    <g id="Groupe_1368" data-name="Groupe 1368" transform="translate(1070.197 530.536)">
      <g id="Groupe_1367" data-name="Groupe 1367" transform="translate(0 0)">
        <g id="Groupe_1363" data-name="Groupe 1363" transform="translate(0.967 0.499)">
          <g id="Groupe_1362" data-name="Groupe 1362">
            <g id="Groupe_1361" data-name="Groupe 1361">
              <path id="Tracé_1370" data-name="Tracé 1370" d="M1606.2,770.08s-11.271-1.514-11.672-1.32-13.083,3.21-13.083,3.21a3.789,3.789,0,0,0,3.752,1.99,34.781,34.781,0,0,0,6.84-1.157l-5.042,5.6-10.906,8.767a8.846,8.846,0,0,0,2.787.076c1.131-.214,7.179-3.841,8.074-4.381l.258.488c.081.154.2.282.3.428l-.546.445-10.761,7.366a6.844,6.844,0,0,0,2.564.117c.649-.2,7.241-4.065,10.545-6.014a8.862,8.862,0,0,0,1.519.871l-10.581,6.167a2.826,2.826,0,0,0,2.251.276c1.271-.24,8.1-4.216,10.677-5.657.349.052,1.306.007,1.659.021l-6.454,4.776a5.756,5.756,0,0,0,4.6-.919c.922-.718,7.656-5.488,7.684-5.508a38.2,38.2,0,0,0,9.712-7c5.7-6.01,20.713-14.891,20.713-14.891l-7.307-6.391C1622.978,757.829,1606.2,770.08,1606.2,770.08Z" transform="translate(-1576.085 -757.442)" fill="#e2887f"/>
            </g>
          </g>
        </g>
        <g id="Groupe_1366" data-name="Groupe 1366">
          <g id="Groupe_1365" data-name="Groupe 1365">
            <g id="Groupe_1364" data-name="Groupe 1364">
              <path id="Tracé_1371" data-name="Tracé 1371" d="M1630.624,763.837c-.15.088-15.024,8.919-20.622,14.818a38.9,38.9,0,0,1-9.874,7.126c-1.577,1.118-6.781,4.812-7.569,5.427a6.153,6.153,0,0,1-4.976.994l-.844-.221,6.133-4.538c-.107,0-.2,0-.292-.013-.445.249-1,.566-1.622.918-4.192,2.377-8.039,4.526-9.067,4.72a3.189,3.189,0,0,1-2.605-.367l-.462-.378,10.435-6.081c-.231-.128-.449-.261-.657-.4-4.45,2.625-9.764,5.721-10.4,5.915a6.961,6.961,0,0,1-2.786-.11l-.936-.21,11.52-7.884.242-.2a2.167,2.167,0,0,1-.148-.252c-1.975,1.182-6.75,3.995-7.827,4.2a9.189,9.189,0,0,1-2.95-.076l-.883-.173,11.553-9.279,4.127-4.585a30.071,30.071,0,0,1-5.6.833,4.186,4.186,0,0,1-4.156-2.248l-.187-.449.481-.115c4.981-1.186,12.556-3.011,12.995-3.178.141-.069.515-.25,11.746,1.257,2.269-1.656,16.716-12.193,17.511-12.576l.257-.124,7.951,6.955Zm-24.857,6.227-.14.1-.173-.023c-4.13-.556-10.906-1.408-11.426-1.36-.389.186-9.123,2.276-12.61,3.107a3.574,3.574,0,0,0,3.081,1.3,34.671,34.671,0,0,0,6.734-1.142l1.393-.385-6.049,6.713-10.146,8.157a6.6,6.6,0,0,0,1.676-.047c.755-.144,4.527-2.276,7.931-4.326l.39-.234.47.886a1.6,1.6,0,0,0,.136.2c.05.066.1.133.145.2l.2.31-.863.7-9.9,6.777a3.759,3.759,0,0,0,1.333-.037c.344-.108,3.269-1.734,10.452-5.973l.244-.144.229.166a8.463,8.463,0,0,0,1.446.83l.729.335-10.511,6.125a3.691,3.691,0,0,0,1.193-.049c.972-.183,6.063-3.072,8.8-4.623.682-.386,1.283-.728,1.747-.985l.129-.072.146.022a9.991,9.991,0,0,0,1.011.016c.245,0,.467-.005.6,0l1.187.05-6.57,4.861a4.957,4.957,0,0,0,3.245-.962c.782-.609,5.575-4.014,7.6-5.451l.15-.1a37.741,37.741,0,0,0,9.6-6.917c5.15-5.437,17.631-13.06,20.313-14.67l-6.639-5.807C1621.37,758.717,1612.04,765.485,1605.767,770.064Z" transform="translate(-1574.435 -756.59)" fill="#e2887f"/>
            </g>
          </g>
        </g>
      </g>
    </g>
    <g id="Groupe_1375" data-name="Groupe 1375" transform="translate(1103.097 407.257)">
      <g id="Groupe_1371" data-name="Groupe 1371" transform="translate(0.714 0.488)">
        <g id="Groupe_1370" data-name="Groupe 1370">
          <g id="Groupe_1369" data-name="Groupe 1369">
            <path id="Tracé_1372" data-name="Tracé 1372" d="M1681.382,553.724c-6.631-9.078-10.434-7.667-20.959-3.4-4.786,1.941-7.032,14.819-6.456,20.566,1.976,19.705,14.091,75.3,14.091,75.3l-36.245,30.731,10.756,11.292s52.923-29.329,53.1-34.368S1701.224,580.889,1681.382,553.724Z" transform="translate(-1631.813 -546.992)" fill="#e0e0e0"/>
          </g>
        </g>
      </g>
      <g id="Groupe_1374" data-name="Groupe 1374" transform="translate(0 0)">
        <g id="Groupe_1373" data-name="Groupe 1373">
          <g id="Groupe_1372" data-name="Groupe 1372">
            <path id="Tracé_1373" data-name="Tracé 1373" d="M1695.655,653.577c-.507,5.29-47.924,31.714-53.347,34.719l-.341.189-11.374-11.941,36.412-30.874c-.936-4.315-12.154-56.29-14.037-75.074-.535-5.375,1.455-18.913,6.76-21.063,10.34-4.193,14.618-5.929,21.552,3.565,12.009,16.44,17.148,51.465,14.474,98.623-.05.858-.084,1.469-.1,1.8C1695.658,653.539,1695.657,653.558,1695.655,653.577Zm-53.495,33.684c20.314-11.272,52.163-30.186,52.5-33.737.014-.374.049-.992.1-1.86,2.662-46.937-2.412-81.741-14.289-98-6.475-8.865-9.975-7.446-20.365-3.233-4.453,1.806-6.717,14.433-6.152,20.071,1.951,19.451,13.961,74.691,14.081,75.248l.062.281-.222.188-35.855,30.4Z" transform="translate(-1630.594 -546.158)" fill="#e0e0e0"/>
          </g>
        </g>
      </g>
    </g>
    <g id="Groupe_1383" data-name="Groupe 1383" transform="translate(1141.037 507.38)">
      <g id="Groupe_1382" data-name="Groupe 1382" transform="translate(0 0)">
        <g id="Groupe_1378" data-name="Groupe 1378" transform="translate(0.198 0.195)">
          <g id="Groupe_1377" data-name="Groupe 1377">
            <g id="Groupe_1376" data-name="Groupe 1376">
              <path id="Tracé_1374" data-name="Tracé 1374" d="M1705.317,720.078l-.088.3-9.536-2.682.088-.3Z" transform="translate(-1695.694 -717.396)" fill="#643650"/>
            </g>
          </g>
        </g>
        <g id="Groupe_1381" data-name="Groupe 1381">
          <g id="Groupe_1380" data-name="Groupe 1380">
            <g id="Groupe_1379" data-name="Groupe 1379">
              <path id="Tracé_1375" data-name="Tracé 1375" d="M1705.375,719.832l-.174.605-.155-.044-9.69-2.725.175-.606.155.044Z" transform="translate(-1695.355 -717.063)" fill="#643650"/>
            </g>
          </g>
        </g>
      </g>
    </g>
    <g id="Groupe_1390" data-name="Groupe 1390" transform="translate(864.743 268.081)">
      <g id="Groupe_1386" data-name="Groupe 1386" transform="translate(57.94 3.639)">
        <g id="Groupe_1384" data-name="Groupe 1384" transform="translate(0.457 0.447)">
          <rect id="Rectangle_105" data-name="Rectangle 105" width="4.1" height="87.076" transform="translate(4.1 87.076) rotate(180)" fill="#413b3d"/>
        </g>
        <g id="Groupe_1385" data-name="Groupe 1385">
          <path id="Tracé_1376" data-name="Tracé 1376" d="M1322.634,314.8h5.014v87.97h-5.014Zm4.1.895h-3.186v86.181h3.186Z" transform="translate(-1322.634 -314.801)" fill="#413b3d"/>
        </g>
      </g>
      <g id="Groupe_1389" data-name="Groupe 1389">
        <g id="Groupe_1387" data-name="Groupe 1387" transform="translate(1.564 0.67)">
          <path id="Tracé_1377" data-name="Tracé 1377" d="M1226.4,343.736l.529-.074a216.392,216.392,0,0,1,58.432-.26l2.542.334V311.92l-2.542-.335a216.416,216.416,0,0,0-58.432.26l-.529.074,12.983,15.238Z" transform="translate(-1226.403 -309.733)" fill="#0969c9"/>
        </g>
        <g id="Groupe_1388" data-name="Groupe 1388">
          <path id="Tracé_1378" data-name="Tracé 1378" d="M1237.405,326.7l-13.418-15.747,1.74-.246a217.094,217.094,0,0,1,58.621-.26l3.134.412v33.168l-3.316-.437a215.67,215.67,0,0,0-58.244.26l-2.19.309Zm46.761-14.927a215.763,215.763,0,0,0-57.559.165l12.549,14.729-12.3,15.7a217.111,217.111,0,0,1,57.49-.1l1.768.233V312.033Z" transform="translate(-1223.733 -308.589)" fill="#0969c9"/>
        </g>
      </g>
    </g>
    <g id="Groupe_1392" data-name="Groupe 1392" transform="translate(913.535 325.311)">
      <g id="Groupe_1391" data-name="Groupe 1391" transform="translate(0 0)">
        <path id="Tracé_1379" data-name="Tracé 1379" d="M1340.3,424.389l-12.957-14.78-16.518-2.177a1.845,1.845,0,0,0-2.032,1.571l-.051.383a1.817,1.817,0,0,0,1.33,1.982l7.568,2.111-7.212-.448a1.986,1.986,0,0,0-2.189,1.485,1.946,1.946,0,0,0,1.479,2.344l6.929,1.6-5.064-.313a1.773,1.773,0,0,0-2.047,1.56,1.748,1.748,0,0,0,1.334,1.854l5.242,1.3-4.315-.033a1.155,1.155,0,0,0-1.273.871,1.129,1.129,0,0,0,.678,1.3l21.413,8.855,7.727,5.034,7.074-9.37Z" transform="translate(-1307.501 -406.752)" fill="#e2887f"/>
        <path id="Tracé_1380" data-name="Tracé 1380" d="M1331.864,434l-21.413-8.856a1.789,1.789,0,0,1-1.078-2.062,1.833,1.833,0,0,1,1.1-1.281l-.254-.063a2.4,2.4,0,0,1-.422-4.533l-.718-.166a2.621,2.621,0,0,1-1.986-3.151,2.648,2.648,0,0,1,2.9-2l.864.053-1.449-.4a2.5,2.5,0,0,1-1.82-2.712l.05-.382a2.515,2.515,0,0,1,2.8-2.148l16.777,2.211,13.077,14.915,7.6,5.483-7.868,10.422Zm7.549-9.544-12.9-14.69-16.243-2.141a1.2,1.2,0,0,0-1.281.991l-.051.384a1.149,1.149,0,0,0,.839,1.25l13.688,3.818-13.606-.847a1.3,1.3,0,0,0-1.437.974,1.28,1.28,0,0,0,.97,1.54l6.928,1.6-.2,1.321-5.126-.319a1.092,1.092,0,0,0-.844.213,1.057,1.057,0,0,0-.418.747,1.068,1.068,0,0,0,.821,1.141l10.716,2.666-10.044-.08a.469.469,0,0,0-.52.356.46.46,0,0,0,.277.529l21.526,8.915,7.186,4.681,6.28-8.318Z" transform="translate(-1307.019 -406.279)" fill="#e2887f"/>
      </g>
    </g>
    <g id="Groupe_1398" data-name="Groupe 1398" transform="translate(1082.236 316.76)">
      <g id="Groupe_1393" data-name="Groupe 1393" transform="translate(0 50.201)">
        <path id="Tracé_1381" data-name="Tracé 1381" d="M1638.794,478.845s-3.4,17.265-3.518,24.738S1642.37,517,1642.37,517s-34.517,5.476-45.105-4.429c0,0,11.061-3.071,13.129-9.771s1.638-18.461,1.638-18.461Z" transform="translate(-1595.93 -477.983)" fill="#d3716c"/>
        <path id="Tracé_1382" data-name="Tracé 1382" d="M1595.85,512.449l-.865-.809,1.149-.32c.107-.03,10.726-3.052,12.66-9.319,2.01-6.515,1.615-18.127,1.61-18.244l-.02-.563,28.331-5.819-.194.989c-.036.172-3.394,17.292-3.506,24.62-.109,7.06,6.782,12.84,6.851,12.9l1.137.941-1.468.232a142.814,142.814,0,0,1-20.186,1.542C1611.662,518.6,1601.057,517.32,1595.85,512.449Zm37.8-9.485c.1-6.5,2.611-20.062,3.34-23.866l-25.2,5.176c.058,2.457.158,12.148-1.684,18.114-1.759,5.7-9.427,8.829-12.414,9.848,9.83,7.5,35.906,4.545,42.232,3.7C1637.859,513.906,1633.556,508.952,1633.648,502.964Z" transform="translate(-1594.985 -477.374)" fill="#d3716c"/>
      </g>
      <g id="Groupe_1394" data-name="Groupe 1394" transform="translate(5.345 17.474)">
        <path id="Tracé_1383" data-name="Tracé 1383" d="M1657.641,441.6s-14.235-27.454-33.307-16.273-24.705,36.769-12.914,40.065,20.832-2.145,23.724-3.554C1638.008,460.447,1657.641,441.6,1657.641,441.6Z" transform="translate(-1604.591 -421.983)" fill="#e2887f"/>
        <path id="Tracé_1384" data-name="Tracé 1384" d="M1610.752,465.567c-3.592-1-5.9-4-6.492-8.444-1.288-9.614,5.7-24.9,19.242-32.841a17.857,17.857,0,0,1,14.329-2.1c11.9,3.363,19.614,18.022,19.936,18.644l.228.438-.359.344c-.805.773-19.744,18.934-22.669,20.359-.229.111-.494.247-.8.4a33.574,33.574,0,0,1-15.666,4.271A28.69,28.69,0,0,1,1610.752,465.567Zm26.7-42.1a16.515,16.515,0,0,0-13.244,1.963c-13.064,7.658-19.821,22.322-18.589,31.517.368,2.743,1.623,6.242,5.51,7.329,10.589,2.962,18.873-1.282,22.411-3.094.312-.161.587-.3.822-.415,2.22-1.082,16.255-14.3,21.955-19.766C1654.94,438.548,1647.669,426.355,1637.448,423.469Z" transform="translate(-1604.109 -421.51)" fill="#e2887f"/>
      </g>
      <g id="Groupe_1395" data-name="Groupe 1395" transform="translate(12.813 0)">
        <path id="Tracé_1385" data-name="Tracé 1385" d="M1646.947,424.931c-.436-.658-1.512-5.793-5.06-4.991-5.676,1.282-24.253-1.84-23.859-9.04s3.73-29.175,22.017-11.126,20.837,14.44,24.842,20.309c9.762,14.3-12.674,27.145-15.878,28.5a18.04,18.04,0,0,1-8.137,1.66l1.2-2.759S1648.934,427.928,1646.947,424.931Z" transform="translate(-1617.339 -392.155)" fill="#413b3d"/>
        <path id="Tracé_1386" data-name="Tracé 1386" d="M1640.314,450.433l-.916-.1,1.547-3.545c2.61-7.44,6.26-19.983,4.945-21.967a4.731,4.731,0,0,1-.379-.869c-.85-2.264-1.936-4.291-3.954-3.834-4.79,1.082-17.156-.788-22.22-4.959a5.747,5.747,0,0,1-2.475-4.769c.2-3.648,1.373-15.747,8.112-18.264,3.983-1.489,9.057.765,15.072,6.7,10.747,10.607,15.922,13.63,19.348,15.631,2.321,1.356,3.854,2.252,5.579,4.778a13.085,13.085,0,0,1,1.971,11.608c-2.917,9.674-15.742,16.862-18.147,17.876a20.323,20.323,0,0,1-7.738,1.739C1640.611,450.462,1640.352,450.437,1640.314,450.433Zm-14.852-57.054c-6.123,2.287-7.1,14.633-7.236,17.085a4.509,4.509,0,0,0,1.989,3.671c4.92,4.051,16.964,5.6,21.034,4.68,3.485-.782,4.931,3.04,5.544,4.677a5.1,5.1,0,0,0,.244.605c2.058,3.12-3.637,19.814-4.819,23.174l-.8,1.842a19.6,19.6,0,0,0,6.841-1.622c2.179-.92,14.644-7.966,17.376-17.024a11.826,11.826,0,0,0-1.8-10.485c-1.552-2.274-2.827-3.019-5.142-4.372-3.484-2.035-8.748-5.11-19.616-15.837-4.553-4.493-8.43-6.755-11.568-6.755A5.8,5.8,0,0,0,1625.462,393.379Z" transform="translate(-1616.855 -391.683)" fill="#413b3d"/>
      </g>
      <g id="Groupe_1396" data-name="Groupe 1396" transform="translate(36.357 39.295)">
        <path id="Tracé_1387" data-name="Tracé 1387" d="M1659.649,464.593s4.809-7.158,7.362-3.79.11,9.553-2.895,10.2a17.2,17.2,0,0,1-5.709.2Z" transform="translate(-1657.609 -459.231)" fill="#e2887f"/>
        <path id="Tracé_1388" data-name="Tracé 1388" d="M1657.731,471.387l-.686-.112,1.367-7.277.1-.247c.337-.5,3.382-4.914,6.2-4.992A2.64,2.64,0,0,1,1667,459.93c1.628,2.149,1.365,5.119.576,7.182-.831,2.176-2.317,3.735-3.874,4.068a17.335,17.335,0,0,1-3.605.366A15.834,15.834,0,0,1,1657.731,471.387Zm7.022-11.289c-1.556.042-3.867,2.6-5.023,4.278l-1.083,5.768a16.868,16.868,0,0,0,4.759-.272c1.092-.234,2.225-1.5,2.886-3.229s.906-4.2-.394-5.914a1.324,1.324,0,0,0-1.1-.631Z" transform="translate(-1657.045 -458.757)" fill="#e2887f"/>
      </g>
      <g id="Groupe_1397" data-name="Groupe 1397" transform="translate(37.931 42.281)">
        <path id="Tracé_1389" data-name="Tracé 1389" d="M1662.153,467.5s3.095-3.971,4.439-1.91-.333,5.56-2.107,5.815a10.015,10.015,0,0,1-3.329-.111Z" transform="translate(-1660.321 -464.329)" fill="#ce7672"/>
        <path id="Tracé_1390" data-name="Tracé 1390" d="M1660.407,471.473l-.677-.159,1.169-4.453.118-.24c.37-.475,2.276-2.84,4.052-2.765a1.839,1.839,0,0,1,1.507.9,4.73,4.73,0,0,1,.056,4.466,3.812,3.812,0,0,1-2.642,2.371,9.92,9.92,0,0,1-1.407.1A10.426,10.426,0,0,1,1660.407,471.473Zm1.781-4.144-.774,2.953a9.3,9.3,0,0,0,2.381-.012,2.646,2.646,0,0,0,1.6-1.6,3.421,3.421,0,0,0,.036-3.187c-.158-.242-.3-.279-.412-.285C1664.235,465.195,1662.938,466.4,1662.188,467.33Z" transform="translate(-1659.731 -463.855)" fill="#ce7672"/>
      </g>
    </g>
    <g id="Groupe_1399" data-name="Groupe 1399" transform="translate(1128.747 744.441)">
      <path id="Tracé_1391" data-name="Tracé 1391" d="M1675.686,1139.582l10.141,12.246-7.085,26.991a5.643,5.643,0,0,0,4.608-2.139l23.62-30.708s-7.579-6.707-11.169-5.933-14.988-15.751-14.988-15.751Z" transform="translate(-1674.92 -1122.782)" fill="#012c49"/>
      <path id="Tracé_1392" data-name="Tracé 1392" d="M1678.193,1178.423l-.873-.009,7.217-27.491-10.16-12.268,5.676-16.938.781,1.131c5.475,7.939,12.321,15.889,14.276,15.472,3.818-.817,10.971,5.379,11.774,6.089l.465.411-23.993,31.194a6.351,6.351,0,0,1-5.089,2.409Zm17.211-38.795c-3.462.756-11.88-10.609-14.918-14.908l-4.577,13.659,10.122,12.224-6.933,26.42a4.844,4.844,0,0,0,3.163-1.811L1705.5,1145C1703.147,1143.005,1697.874,1139.1,1695.4,1139.628Z" transform="translate(-1674.378 -1121.717)" fill="#012c49"/>
    </g>
    <g id="Groupe_1400" data-name="Groupe 1400" transform="translate(1021.286 765.175)">
      <path id="Tracé_1393" data-name="Tracé 1393" d="M1524.42,1167.223l-.774,12.963-30.82,10.866a6.394,6.394,0,0,0,5.062,2.484l45.126.147s1.622-10.069-1.454-12.557,1.049-22.04,1.049-22.04Z" transform="translate(-1491.725 -1157.928)" fill="#012c49"/>
      <path id="Tracé_1394" data-name="Tracé 1394" d="M1497.108,1193.388a7.124,7.124,0,0,1-5.607-2.752l-.554-.725,31.267-11.023.77-12.924,19.789-8.854-.273,1.293c-1.563,7.407-3.293,19.763-1.282,21.388,3.282,2.656,1.867,12.109,1.695,13.179l-.092.567Zm27.192-26.541-.776,13-30.293,10.682a5.771,5.771,0,0,0,3.882,1.519l44.532.145c.418-3.046.834-9.646-1.3-11.37-2.923-2.364-.464-16.305.551-21.4Z" transform="translate(-1490.946 -1157.109)" fill="#012c49"/>
    </g>
    <g id="Groupe_1402" data-name="Groupe 1402" transform="translate(1047.898 500.743)">
      <g id="Groupe_1401" data-name="Groupe 1401">
        <path id="Tracé_1395" data-name="Tracé 1395" d="M1594.059,707.889s23.643,40.542,9.976,90.108-41,196.925-41,196.925l-24.6-1.34,10.81-277.991Z" transform="translate(-1537.225 -706.627)" fill="#024d8c"/>
        <path id="Tracé_1396" data-name="Tracé 1396" d="M1563.141,995.226l-26.77-1.458.044-1.121,10.846-278.914,46.549-8,.406.7c.238.409,23.724,41.522,10.089,90.972-13.5,48.953-40.707,195.358-40.981,196.831Zm-24.356-3.612,22.433,1.221c2.426-13.013,27.9-149.111,40.838-196.027,12.411-45.009-6.5-82.976-9.477-88.545l-43.062,7.4Z" transform="translate(-1536.371 -705.735)" fill="#024d8c"/>
      </g>
    </g>
    <g id="Groupe_1403" data-name="Groupe 1403" transform="translate(1001.665 502.282)">
      <path id="Tracé_1397" data-name="Tracé 1397" d="M1516.277,709.636s-62.869,126.594-57.4,137.311,135.533,135.86,135.533,135.86l11.162-16.746s-80.637-124.027-76.992-130.278c11.527-19.773,38.268-117.44,38.268-117.44Z" transform="translate(-1457.903 -708.889)" fill="#024d8c"/>
      <path id="Tracé_1398" data-name="Tracé 1398" d="M1593.479,982.757c-5.313-5.113-130.21-125.345-135.665-136.038-5.554-10.888,54.826-132.723,57.4-137.9l.226-.453,51.81,8.921-.192.707c-.268.978-26.9,97.978-38.334,117.6-2.281,4.651,46,81.954,76.973,129.589l.237.365-11.858,17.791Zm-28.806-79.67c-39.616-63.913-37.816-67-37.139-68.163,10.839-18.59,35.559-107.693,38.008-116.575l-49.325-8.493c-17.6,35.468-61.524,127.752-57.181,136.264,5.167,10.128,125.232,125.887,134.806,135.109l10.465-15.7C1601.981,961.945,1583.014,932.678,1564.673,903.087Z" transform="translate(-1457.453 -708.361)" fill="#024d8c"/>
    </g>
    <g id="Groupe_1404" data-name="Groupe 1404" transform="translate(1044.649 388.614)">
      <path id="Tracé_1399" data-name="Tracé 1399" d="M1636.883,536.1s-86.1-28.132-99.77-18.755,4.1,120.567,4.1,120.567h56.035S1658.75,569.59,1636.883,536.1Z" transform="translate(-1531.289 -514.789)" fill="#f4f4f4"/>
      <path id="Tracé_1400" data-name="Tracé 1400" d="M1540.073,637.561c-.728-4.557-17.674-111.711-3.817-121.219,13.791-9.457,96.849,17.515,100.379,18.668l.229.074.13.2c21.894,33.53-37.172,99.81-39.7,102.616l-.2.226h-56.928Zm95.9-101.355c-4.951-1.6-86.042-27.614-98.931-18.767-10.483,7.193-1.826,80.871,4.292,119.348h55.14C1600.31,632.442,1656.331,568.009,1635.972,536.206Z" transform="translate(-1530.825 -514.335)" fill="#f4f4f4"/>
    </g>
    <g id="Groupe_1421" data-name="Groupe 1421" transform="translate(940.223 344.923)">
      <g id="Groupe_1407" data-name="Groupe 1407" transform="translate(0 0)">
        <g id="Groupe_1405" data-name="Groupe 1405" transform="translate(0.866 0.77)">
          <path id="Tracé_1401" data-name="Tracé 1401" d="M1501.731,489.457s22.484,27.767-10.729,36.489c-31.058,8.155-80.945-20.992-80.945-20.992l-56-53.342,10.5-10.543s64.075,40.4,66.776,39.205S1497.276,486.28,1501.731,489.457Z" transform="translate(-1354.054 -441.07)" fill="#f4f4f4"/>
        </g>
        <g id="Groupe_1406" data-name="Groupe 1406">
          <path id="Tracé_1402" data-name="Tracé 1402" d="M1363.851,439.756l.421.265c25.049,15.793,63.375,39.248,66.192,39.163,2.592-1.142,65.88,5.582,71.014,9.244l.119.113c.436.53,10.492,13.137,6.746,24.254-2.09,6.2-8.076,10.635-17.8,13.188-30.948,8.127-80.915-20.764-81.416-21.057L1353.014,451.5l-.439-.419Zm126.38,85.066c9.294-2.44,15-6.612,16.948-12.4,3.405-10.1-5.7-22.058-6.488-23.067-5.112-3.308-66.985-10.037-69.724-9.076-2.762,1.218-51.365-29.169-66.938-38.983l-9.721,9.763,55.511,52.872C1411.828,505.088,1460.261,532.693,1490.231,524.822Z" transform="translate(-1352.575 -439.756)" fill="#f4f4f4"/>
        </g>
      </g>
      <g id="Groupe_1413" data-name="Groupe 1413" transform="translate(104.043 83.99)">
        <g id="Groupe_1412" data-name="Groupe 1412">
          <g id="Groupe_1411" data-name="Groupe 1411">
            <g id="Groupe_1410" data-name="Groupe 1410">
              <g id="Groupe_1408" data-name="Groupe 1408" transform="translate(0.203 0.22)">
                <path id="Tracé_1403" data-name="Tracé 1403" d="M1530.571,583.5a122.7,122.7,0,0,0,16.534,3.994l-.049.3a122.835,122.835,0,0,1-16.536-3.994A2.963,2.963,0,0,0,1530.571,583.5Z" transform="translate(-1530.519 -583.498)" fill="#f4f4f4"/>
              </g>
              <g id="Groupe_1409" data-name="Groupe 1409">
                <path id="Tracé_1404" data-name="Tracé 1404" d="M1547.052,587.824l.1-.626-.168-.026a121.392,121.392,0,0,1-16.511-3.989l-.193-.06-.031.218a2.515,2.515,0,0,1-.045.258l-.038.152.152.047a121.721,121.721,0,0,0,16.559,4Z" transform="translate(-1530.172 -583.123)" fill="#f4f4f4"/>
              </g>
            </g>
          </g>
        </g>
      </g>
      <g id="Groupe_1420" data-name="Groupe 1420" transform="translate(74.949 41.88)">
        <g id="Groupe_1419" data-name="Groupe 1419">
          <g id="Groupe_1418" data-name="Groupe 1418">
            <g id="Groupe_1415" data-name="Groupe 1415" transform="translate(0.225 0.217)">
              <g id="Groupe_1414" data-name="Groupe 1414">
                <path id="Tracé_1405" data-name="Tracé 1405" d="M1480.893,520.539l.331.067.05-.25,1.68-8.684-.371-.058Z" transform="translate(-1480.893 -511.614)" fill="#f4f4f4"/>
              </g>
            </g>
            <g id="Groupe_1417" data-name="Groupe 1417">
              <g id="Groupe_1416" data-name="Groupe 1416">
                <path id="Tracé_1406" data-name="Tracé 1406" d="M1482.268,511.244l-1.758,9.288.706.147.089-.44,1.716-8.877Z" transform="translate(-1480.51 -511.244)" fill="#f4f4f4"/>
              </g>
            </g>
          </g>
        </g>
      </g>
    </g>
    <g id="Groupe_1437" data-name="Groupe 1437" transform="translate(771.122 633.757)">
      <g id="Groupe_1426" data-name="Groupe 1426" transform="translate(7.103 13.638)">
        <g id="Groupe_1423" data-name="Groupe 1423" transform="translate(0.518 0.543)">
          <g id="Groupe_1422" data-name="Groupe 1422">
            <rect id="Rectangle_106" data-name="Rectangle 106" width="4.059" height="144.957" fill="#b7c6ed"/>
          </g>
        </g>
        <g id="Groupe_1425" data-name="Groupe 1425">
          <g id="Groupe_1424" data-name="Groupe 1424">
            <path id="Tracé_1407" data-name="Tracé 1407" d="M1081.145,1102.1h-5.095V956.063h5.095Zm-4.06-1.083h3.026V957.146h-3.026Z" transform="translate(-1076.05 -956.063)" fill="#b7c6ed"/>
          </g>
        </g>
      </g>
      <g id="Groupe_1431" data-name="Groupe 1431" transform="translate(138.849 13.638)">
        <g id="Groupe_1428" data-name="Groupe 1428" transform="translate(0.517 0.543)">
          <g id="Groupe_1427" data-name="Groupe 1427">
            <rect id="Rectangle_107" data-name="Rectangle 107" width="4.059" height="144.957" fill="#b7c6ed"/>
          </g>
        </g>
        <g id="Groupe_1430" data-name="Groupe 1430">
          <g id="Groupe_1429" data-name="Groupe 1429">
            <path id="Tracé_1408" data-name="Tracé 1408" d="M1306.03,1102.1h-5.094V956.063h5.094Zm-4.06-1.083H1305V957.146h-3.026Z" transform="translate(-1300.936 -956.063)" fill="#b7c6ed"/>
          </g>
        </g>
      </g>
      <g id="Groupe_1436" data-name="Groupe 1436">
        <g id="Groupe_1433" data-name="Groupe 1433" transform="translate(0.517 0.541)">
          <g id="Groupe_1432" data-name="Groupe 1432">
            <rect id="Rectangle_108" data-name="Rectangle 108" width="149.459" height="16.114" fill="#b7c6ed"/>
          </g>
        </g>
        <g id="Groupe_1435" data-name="Groupe 1435">
          <g id="Groupe_1434" data-name="Groupe 1434">
            <path id="Tracé_1409" data-name="Tracé 1409" d="M1214.419,949.978H1063.926V932.784h150.493ZM1064.961,948.9h148.424v-15.03H1064.961Z" transform="translate(-1063.926 -932.784)" fill="#b7c6ed"/>
          </g>
        </g>
      </g>
    </g>
    <g id="Groupe_1448" data-name="Groupe 1448" transform="translate(830.633 436.036)">
      <g id="Groupe_1442" data-name="Groupe 1442" transform="translate(0.53 0.82)">
        <g id="Groupe_1441" data-name="Groupe 1441">
          <g id="Groupe_1440" data-name="Groupe 1440">
            <g id="Groupe_1439" data-name="Groupe 1439">
              <g id="Groupe_1438" data-name="Groupe 1438">
                <path id="Tracé_1410" data-name="Tracé 1410" d="M1187.18,596.682s3.717,10.711,10.981,41.18l-26.914,12.153L1166.413,614Z" transform="translate(-1166.413 -596.682)" fill="#d3716c"/>
              </g>
            </g>
          </g>
        </g>
      </g>
      <g id="Groupe_1447" data-name="Groupe 1447">
        <g id="Groupe_1446" data-name="Groupe 1446">
          <g id="Groupe_1445" data-name="Groupe 1445">
            <g id="Groupe_1444" data-name="Groupe 1444">
              <g id="Groupe_1443" data-name="Groupe 1443">
                <path id="Tracé_1411" data-name="Tracé 1411" d="M1170.46,650.128l-4.952-36.894,21.534-17.952.246.706c.036.107,3.807,11.079,10.992,41.22l.078.323Zm-3.891-36.531,4.716,35.146,25.931-11.709c-6.116-25.626-9.732-37.26-10.656-40.1Z" transform="translate(-1165.508 -595.282)" fill="#d3716c"/>
              </g>
            </g>
          </g>
        </g>
      </g>
    </g>
    <g id="Groupe_1460" data-name="Groupe 1460" transform="translate(815.996 411.873)">
      <g id="Groupe_1459" data-name="Groupe 1459">
        <g id="Groupe_1453" data-name="Groupe 1453" transform="translate(0.289 0.238)">
          <g id="Groupe_1452" data-name="Groupe 1452">
            <g id="Groupe_1451" data-name="Groupe 1451">
              <g id="Groupe_1450" data-name="Groupe 1450">
                <g id="Groupe_1449" data-name="Groupe 1449">
                  <path id="Tracé_1412" data-name="Tracé 1412" d="M1153.5,561.554s-26.837,33.734-1.824,37.842c31.1,5.106,54.9-34.6,24.9-43.809C1176.583,555.587,1163.383,550.566,1153.5,561.554Z" transform="translate(-1141.018 -554.442)" fill="#e2887f"/>
                </g>
              </g>
            </g>
          </g>
        </g>
        <g id="Groupe_1458" data-name="Groupe 1458">
          <g id="Groupe_1457" data-name="Groupe 1457">
            <g id="Groupe_1456" data-name="Groupe 1456">
              <g id="Groupe_1455" data-name="Groupe 1455">
                <g id="Groupe_1454" data-name="Groupe 1454">
                  <path id="Tracé_1413" data-name="Tracé 1413" d="M1144.683,596.985a9.284,9.284,0,0,1-3.268-3.961c-4.748-10.984,10.986-30.956,11.658-31.8,9.9-11.014,23.272-6.1,23.406-6.051,10.724,3.294,15.751,11.062,13.422,20.781-3.257,13.586-19.856,26.592-38.466,23.538A16.2,16.2,0,0,1,1144.683,596.985Zm8.839-35.429c-.352.443-16.185,20.637-11.587,31.277,1.409,3.259,4.633,5.321,9.584,6.134,18.306,3,34.63-9.784,37.833-23.141,2.258-9.419-2.622-16.953-13.055-20.153C1176.149,555.616,1163.152,550.852,1153.521,561.555Z" transform="translate(-1140.524 -554.037)" fill="#e2887f"/>
                </g>
              </g>
            </g>
          </g>
        </g>
      </g>
    </g>
    <g id="Groupe_1470" data-name="Groupe 1470" transform="translate(816.76 389.533)">
      <g id="Groupe_1463" data-name="Groupe 1463" transform="translate(51.285 6.685)">
        <g id="Groupe_1461" data-name="Groupe 1461" transform="translate(0.857 0.862)">
          <path id="Tracé_1414" data-name="Tracé 1414" d="M1269.69,552.084a19.6,19.6,0,1,1-15.557-22.944A19.6,19.6,0,0,1,1269.69,552.084Z" transform="translate(-1230.834 -528.785)" fill="#7a343e"/>
        </g>
        <g id="Groupe_1462" data-name="Groupe 1462">
          <path id="Tracé_1415" data-name="Tracé 1415" d="M1249.84,568.244a20.462,20.462,0,1,1,20.086-16.607A20.463,20.463,0,0,1,1249.84,568.244Zm-.013-39.208a18.754,18.754,0,1,0,3.538.337A18.775,18.775,0,0,0,1249.827,529.036Z" transform="translate(-1229.371 -527.314)" fill="#7a343e"/>
        </g>
      </g>
      <g id="Groupe_1469" data-name="Groupe 1469">
        <g id="Groupe_1468" data-name="Groupe 1468">
          <g id="Groupe_1467" data-name="Groupe 1467">
            <g id="Groupe_1466" data-name="Groupe 1466">
              <g id="Groupe_1464" data-name="Groupe 1464" transform="translate(1.219 1.19)">
                <path id="Tracé_1416" data-name="Tracé 1416" d="M1176.717,580.291c33.72-12.046,30.876-37.27,20.271-43.559-6.947-4.12-8.082-1.572-18.806-11.654-19.567-18.4-39.964,3.543-32.811,12.19,6.4,7.734,22.5,3.313,23.293,9.192,1.06,7.841,2.708,16.91,5.924,18.311,2.275.991,4.834,1.065,3.652,3.246C1174.331,575.048,1176.717,580.291,1176.717,580.291Z" transform="translate(-1143.909 -517.935)" fill="#7a343e"/>
              </g>
              <g id="Groupe_1465" data-name="Groupe 1465">
                <path id="Tracé_1417" data-name="Tracé 1417" d="M1175.211,580.97l-.463-1.017c-.108-.238-2.591-5.887,1.542-13.322a1.249,1.249,0,0,0,.172-.421c-.124-.077-.975-.36-1.538-.547-.542-.18-1.12-.375-1.684-.619-3.047-1.329-4.973-6.909-6.644-19.262-.252-1.871-3.751-2.29-7.8-2.774-5.152-.618-11.564-1.386-15.221-5.806-3.311-4-1.8-10.582,3.6-15.646,7.242-6.795,19.633-8.875,30.98,1.8,6.993,6.574,9.709,7.607,12.851,8.8a33.037,33.037,0,0,1,5.743,2.692c5.283,3.133,8.358,10.16,7.651,17.488-.547,5.671-4.383,19.776-28.135,28.261Zm-13.919-62.687a18.318,18.318,0,0,0-12.457,5.044c-4.359,4.092-5.817,9.39-3.389,12.324,3.038,3.673,8.67,4.347,13.638,4.942,4.843.581,9.418,1.128,9.923,4.864,1.439,10.641,3.19,16.481,5.205,17.358.5.216,1,.384,1.479.542,1.328.442,2.584.858,3.047,2.033a2.736,2.736,0,0,1-.292,2.364,14.166,14.166,0,0,0-1.818,10.116c21.381-8.042,24.855-20.655,25.348-25.771.618-6.408-1.982-12.5-6.47-15.163a31,31,0,0,0-5.368-2.512c-3.244-1.233-6.308-2.4-13.651-9.3C1171.221,520.171,1165.977,518.283,1161.292,518.283Z" transform="translate(-1141.829 -515.903)" fill="#7a343e"/>
              </g>
            </g>
          </g>
        </g>
      </g>
    </g>
    <g id="Groupe_1493" data-name="Groupe 1493" transform="translate(842.973 435.455)">
      <g id="Groupe_1481" data-name="Groupe 1481" transform="translate(0 0)">
        <g id="Groupe_1475" data-name="Groupe 1475" transform="translate(0.605 0.446)">
          <g id="Groupe_1474" data-name="Groupe 1474">
            <g id="Groupe_1473" data-name="Groupe 1473">
              <g id="Groupe_1472" data-name="Groupe 1472">
                <g id="Groupe_1471" data-name="Groupe 1471">
                  <path id="Tracé_1418" data-name="Tracé 1418" d="M1189.956,598.661s6.1-6.145,8.162-2.4-1.446,9.356-4.63,9.452a18.726,18.726,0,0,1-5.882-.814Z" transform="translate(-1187.606 -595.052)" fill="#e2887f"/>
                </g>
              </g>
            </g>
          </g>
        </g>
        <g id="Groupe_1480" data-name="Groupe 1480">
          <g id="Groupe_1479" data-name="Groupe 1479">
            <g id="Groupe_1478" data-name="Groupe 1478">
              <g id="Groupe_1477" data-name="Groupe 1477">
                <g id="Groupe_1476" data-name="Groupe 1476">
                  <path id="Tracé_1419" data-name="Tracé 1419" d="M1186.573,604.851l2.543-6.749c.233-.234,4.192-4.187,7.019-3.782a2.609,2.609,0,0,1,1.973,1.426c1.269,2.3.541,5.069-.565,6.892-1.169,1.93-2.876,3.158-4.457,3.207a19.085,19.085,0,0,1-6.058-.841Zm3.368-6.26-2.151,5.71a18.587,18.587,0,0,0,5.245.651c1.243-.037,2.69-1.125,3.687-2.77.982-1.62,1.643-4.057.552-6.035a1.676,1.676,0,0,0-1.259-.944C1194.107,594.929,1191.047,597.5,1189.941,598.591Z" transform="translate(-1186.573 -594.29)" fill="#e2887f"/>
                </g>
              </g>
            </g>
          </g>
        </g>
      </g>
      <g id="Groupe_1492" data-name="Groupe 1492" transform="translate(2.848 2.487)">
        <g id="Groupe_1486" data-name="Groupe 1486" transform="translate(0.354 0.26)">
          <g id="Groupe_1485" data-name="Groupe 1485">
            <g id="Groupe_1484" data-name="Groupe 1484">
              <g id="Groupe_1483" data-name="Groupe 1483">
                <g id="Groupe_1482" data-name="Groupe 1482">
                  <path id="Tracé_1420" data-name="Tracé 1420" d="M1193.408,601.083s3.554-3.582,4.758-1.4-.843,5.454-2.7,5.51a10.915,10.915,0,0,1-3.429-.475Z" transform="translate(-1192.038 -598.979)" fill="#ce7672"/>
                </g>
              </g>
            </g>
          </g>
        </g>
        <g id="Groupe_1491" data-name="Groupe 1491">
          <g id="Groupe_1490" data-name="Groupe 1490">
            <g id="Groupe_1489" data-name="Groupe 1489">
              <g id="Groupe_1488" data-name="Groupe 1488">
                <g id="Groupe_1487" data-name="Groupe 1487">
                  <path id="Tracé_1421" data-name="Tracé 1421" d="M1191.434,604.691l1.483-3.934c.137-.136,2.444-2.442,4.094-2.2a1.525,1.525,0,0,1,1.149.831,4.124,4.124,0,0,1-.328,4.018,3.475,3.475,0,0,1-2.6,1.87,11.1,11.1,0,0,1-3.532-.49Zm1.964-3.649-1.254,3.329a10.854,10.854,0,0,0,3.059.382,3.007,3.007,0,0,0,2.149-1.617,3.632,3.632,0,0,0,.321-3.517.97.97,0,0,0-.734-.551C1195.825,598.907,1194.043,600.4,1193.4,601.042Z" transform="translate(-1191.434 -598.536)" fill="#ce7672"/>
                </g>
              </g>
            </g>
          </g>
        </g>
      </g>
    </g>
    <g id="Groupe_1502" data-name="Groupe 1502" transform="translate(802.698 472.646)">
      <g id="Groupe_1501" data-name="Groupe 1501">
        <g id="Groupe_1496" data-name="Groupe 1496" transform="translate(0.555 0.559)">
          <g id="Groupe_1495" data-name="Groupe 1495">
            <g id="Groupe_1494" data-name="Groupe 1494">
              <path id="Tracé_1422" data-name="Tracé 1422" d="M1128.348,665.228s37.713-14.62,70.312-.011-18.64,127.7-18.64,127.7l-41.615-.541S1101.991,676.049,1128.348,665.228Z" transform="translate(-1118.772 -658.727)" fill="#0969c9"/>
            </g>
          </g>
        </g>
        <g id="Groupe_1500" data-name="Groupe 1500">
          <g id="Groupe_1499" data-name="Groupe 1499">
            <g id="Groupe_1498" data-name="Groupe 1498">
              <g id="Groupe_1497" data-name="Groupe 1497">
                <path id="Tracé_1423" data-name="Tracé 1423" d="M1179.943,793.126l-42.3-.554-.125-.393c-1.492-4.772-36.284-117.014-9.743-127.913.391-.154,38.282-14.528,70.684,0,4.349,1.947,7.469,5.723,9.278,11.211,10.613,32.243-26.078,113.866-27.646,117.326Zm-41.557-1.739,40.92.531c2.584-5.789,37.564-85.287,27.447-116.022-1.7-5.161-4.619-8.7-8.678-10.518-31.948-14.317-69.39-.2-69.95.019C1103.32,675.6,1136.1,783.948,1138.387,791.387Z" transform="translate(-1117.826 -657.773)" fill="#0969c9"/>
              </g>
            </g>
          </g>
        </g>
      </g>
    </g>
    <g id="Groupe_1505" data-name="Groupe 1505" transform="translate(817.745 509.049)">
      <g id="Groupe_1503" data-name="Groupe 1503" transform="translate(0.846 0.997)">
        <path id="Tracé_1424" data-name="Tracé 1424" d="M1144.953,757.923l18.576-8.444,1.689-15.621,5.7-12.243a4.234,4.234,0,0,1,1.161,2.533c.211,1.688-2.639,9.077-2.639,9.077s.95,6.122.844,7.283,3.166,10.344,3.378,12.243-23.959,13.932-23.959,13.932Z" transform="translate(-1144.953 -721.615)" fill="#e2887f"/>
      </g>
      <g id="Groupe_1504" data-name="Groupe 1504">
        <path id="Tracé_1425" data-name="Tracé 1425" d="M1148.85,766.785l-5.341-9.85,18.854-8.57,1.706-15.468,6.043-12.984.61.543a4.845,4.845,0,0,1,1.36,2.91c.214,1.7-2.135,7.959-2.616,9.22a65.1,65.1,0,0,1,.824,7.27,50.422,50.422,0,0,0,1.674,6.023,54.161,54.161,0,0,1,1.7,6.1c.213,1.92-13.093,8.968-24.293,14.543Zm-3.65-9.282,4.158,7.67c11-5.5,22.532-11.866,23.115-13.2-.107-.707-.9-3.263-1.669-5.735-1.215-3.917-1.783-5.834-1.724-6.493a65.088,65.088,0,0,0-.839-7.133l-.025-.162.059-.151c1.081-2.8,2.743-7.664,2.6-8.783a4.131,4.131,0,0,0-.437-1.425l-5.226,11.224-1.716,15.866Z" transform="translate(-1143.509 -719.913)" fill="#e2887f"/>
      </g>
    </g>
    <g id="Groupe_1508" data-name="Groupe 1508" transform="translate(756.333 478.697)">
      <g id="Groupe_1506" data-name="Groupe 1506" transform="translate(0.397 0.4)">
        <path id="Tracé_1426" data-name="Tracé 1426" d="M1103.483,698.943c9.452-11.442,7.543-31.072-7.269-30.124q-.645.041-1.31.12c-17.732,2.111-60,90.33-55.162,94.025,17.415,13.3,74.521-20.808,74.521-20.808l-1.491-13.6s-36.194,10.453-36.3,9.714C1075.982,734.834,1094.175,710.209,1103.483,698.943Z" transform="translate(-1039.359 -668.786)" fill="#0969c9"/>
      </g>
      <g id="Groupe_1507" data-name="Groupe 1507" transform="translate(0 0)">
        <path id="Tracé_1427" data-name="Tracé 1427" d="M1050.815,766.18c-4.652,0-8.659-.937-11.6-3.181-.489-.374-1-1.384.215-5.827,5.062-18.513,39.089-87,55.143-88.913.45-.055.894-.094,1.332-.124,5.29-.333,9.434,1.913,11.692,6.333,3.508,6.868,1.75,17.378-4.09,24.446-10.362,12.543-26.339,34.646-26.913,38.686,2.871-.378,22.613-5.913,35.783-9.717l.458-.133,1.569,14.334-.221.132C1112.24,743.38,1073.753,766.176,1050.815,766.18Zm46.162-97.278q-.495,0-1.017.033c-.424.027-.853.066-1.289.119-14.682,1.747-48.834,67.731-54.465,88.328-1.153,4.223-.62,4.889-.5,4.98,16.458,12.566,69.95-18.412,73.85-20.7l-1.41-12.873c-16.182,4.67-35.372,10.051-36.157,9.552l-.153-.1-.039-.2c-.55-3.845,18.744-29.525,27.1-39.636,5.647-6.837,7.363-16.969,3.993-23.571A10.462,10.462,0,0,0,1096.977,668.9Z" transform="translate(-1038.682 -668.103)" fill="#0969c9"/>
      </g>
    </g>
    <g id="Groupe_1514" data-name="Groupe 1514" transform="translate(778.81 538.388)">
      <g id="Groupe_1513" data-name="Groupe 1513" transform="translate(0 0)">
        <g id="Groupe_1510" data-name="Groupe 1510" transform="translate(0.133 0.154)">
          <g id="Groupe_1509" data-name="Groupe 1509">
            <path id="Tracé_1428" data-name="Tracé 1428" d="M1077.321,783.466l-.045-.484c.083-.007,8.508-.825,28.976-6.42,20.448-5.587,22.193-6.238,22.432-6.305l.076.534c-1.678.515-15.741,4.427-22.38,6.241C1085.861,782.639,1077.4,783.458,1077.321,783.466Z" transform="translate(-1077.276 -770.256)" fill="#643650"/>
          </g>
        </g>
        <g id="Groupe_1512" data-name="Groupe 1512">
          <g id="Groupe_1511" data-name="Groupe 1511">
            <path id="Tracé_1429" data-name="Tracé 1429" d="M1077.116,783.488l-.067-.726.122-.011c.081-.007,8.576-.845,28.955-6.417,16.151-4.412,20.911-5.82,22.31-6.267l.123-.038.133-.037.11.774c-1.733.531-15.582,4.387-22.483,6.273-20.46,5.591-29,6.431-29.081,6.438Zm.2-.508.022.242c1.1-.121,9.8-1.192,28.918-6.417,6.775-1.851,20.25-5.6,22.276-6.21l-.04-.289c-1.425.453-6.219,1.87-22.3,6.263C1087.091,781.791,1078.42,782.859,1077.314,782.981Z" transform="translate(-1077.049 -769.993)" fill="#643650"/>
          </g>
        </g>
      </g>
    </g>
    <g id="Groupe_1517" data-name="Groupe 1517" transform="translate(849.265 511.013)">
      <g id="Groupe_1515" data-name="Groupe 1515" transform="translate(0.607 1.011)">
        <path id="Tracé_1430" data-name="Tracé 1430" d="M1228.017,759.171l-19.175-6.975-2.9-15.442-6.634-11.764a4.233,4.233,0,0,0-.96,2.616c-.08,1.7,3.336,8.844,3.336,8.844s-.472,6.177-.276,7.327-2.353,10.559-2.416,12.469,24.969,12.028,24.969,12.028Z" transform="translate(-1198.349 -724.99)" fill="#e2887f"/>
      </g>
      <g id="Groupe_1516" data-name="Groupe 1516">
        <path id="Tracé_1431" data-name="Tracé 1431" d="M1223.852,768.343l-.545-.22c-11.6-4.689-25.412-10.681-25.35-12.612a54.193,54.193,0,0,1,1.224-6.21,50.237,50.237,0,0,0,1.2-6.139,65.506,65.506,0,0,1,.256-7.31c-.579-1.22-3.4-7.274-3.324-8.988a4.839,4.839,0,0,1,1.129-3.01l.566-.589,7.1,12.662,2.833,15.1,19.463,7.079Zm-25-42.878a4.167,4.167,0,0,0-.327,1.455c-.052,1.127,1.983,5.844,3.278,8.553l.07.148-.011.161a64.747,64.747,0,0,0-.283,7.177c.111.653-.306,2.61-1.214,6.61a57.046,57.046,0,0,0-1.194,5.982c.661,1.148,12.652,6.6,24.046,11.224l3.549-7.971-18.888-6.87-2.944-15.684Z" transform="translate(-1197.313 -723.265)" fill="#e2887f"/>
      </g>
    </g>
    <g id="Groupe_1520" data-name="Groupe 1520" transform="translate(866.603 478.39)">
      <g id="Groupe_1518" data-name="Groupe 1518" transform="translate(0.409 0.401)">
        <path id="Tracé_1432" data-name="Tracé 1432" d="M1235,698.864c-10.312-10.673-9.933-30.392,4.906-30.6q.647-.01,1.315.018c17.843.727,66.839,85.395,62.3,89.455-16.329,14.611-75.912-14.955-75.912-14.955l.429-13.679s36.9,7.609,36.945,6.864C1265.2,732.511,1245.151,709.374,1235,698.864Z" transform="translate(-1227.606 -668.265)" fill="#0969c9"/>
      </g>
      <g id="Groupe_1519" data-name="Groupe 1519">
        <path id="Tracé_1433" data-name="Tracé 1433" d="M1289.13,761.939c-23.209,0-60.048-18.114-61.992-19.079l-.231-.114.453-14.413.466.1c13.425,2.77,33.536,6.754,36.431,6.908-.886-3.983-18.533-24.778-29.84-36.478-6.37-6.593-8.938-16.934-5.975-24.053,1.907-4.585,5.872-7.15,11.165-7.223.441-.008.884,0,1.337.019,16.156.658,55.4,66.3,61.886,84.36,1.555,4.334,1.125,5.381.666,5.792C1300.157,760.743,1295.091,761.938,1289.13,761.939Zm-61.405-19.684c4.067,1.981,59.8,28.712,75.237,14.9.112-.1.592-.806-.887-4.925-7.214-20.1-46.389-83.229-61.164-83.831-.441-.018-.874-.028-1.293-.019-6.349.089-9.18,3.709-10.437,6.731-2.848,6.842-.349,16.812,5.813,23.188,9.112,9.432,30.344,33.536,30.1,37.411l-.012.182-.156.131c-.747.552-20.3-3.315-36.79-6.713Z" transform="translate(-1226.908 -667.58)" fill="#0969c9"/>
      </g>
    </g>
    <g id="Groupe_1526" data-name="Groupe 1526" transform="translate(867.084 539.184)">
      <g id="Groupe_1525" data-name="Groupe 1525" transform="translate(0 0)">
        <g id="Groupe_1522" data-name="Groupe 1522" transform="translate(0.09 0.146)">
          <g id="Groupe_1521" data-name="Groupe 1521">
            <path id="Tracé_1434" data-name="Tracé 1434" d="M1280.152,780.778l.007-.486c-.083,0-8.546-.161-29.387-4.149-20.821-3.981-22.611-4.5-22.854-4.543l-.034.538c1.713.383,16.038,3.19,22.8,4.483C1271.574,780.618,1280.068,780.778,1280.152,780.778Z" transform="translate(-1227.883 -771.6)" fill="#643650"/>
          </g>
        </g>
        <g id="Groupe_1524" data-name="Groupe 1524">
          <g id="Groupe_1523" data-name="Groupe 1523">
            <path id="Tracé_1435" data-name="Tracé 1435" d="M1280.087,780.8c-.081,0-8.66-.174-29.493-4.159-7.026-1.345-21.133-4.112-22.8-4.483-.1-.023-.052-.8-.052-.8l.135.027.125.028c1.43.336,6.284,1.37,22.729,4.514,20.75,3.97,29.285,4.146,29.366,4.147h.123l-.011.73Zm-29.4-4.638c-16.374-3.131-21.263-4.17-22.719-4.512l-.018.291c2.068.449,15.793,3.142,22.692,4.461,19.466,3.724,28.222,4.115,29.329,4.151l0-.243C1278.86,780.272,1270.133,779.881,1250.685,776.16Z" transform="translate(-1227.729 -771.351)" fill="#643650"/>
          </g>
        </g>
      </g>
    </g>
    <g id="Groupe_1541" data-name="Groupe 1541" transform="translate(802.409 510.847)">
      <g id="Groupe_1533" data-name="Groupe 1533" transform="translate(0 0)">
        <g id="Groupe_1529" data-name="Groupe 1529" transform="translate(0.017 0.015)">
          <g id="Groupe_1528" data-name="Groupe 1528">
            <g id="Groupe_1527" data-name="Groupe 1527">
              <path id="Tracé_1436" data-name="Tracé 1436" d="M1120.931,753.238c-2.307-9.512-3.559-30.007-3.571-30.213l.839-.018c.013.206,1.261,20.641,3.554,30.09Z" transform="translate(-1117.36 -723.008)" fill="#643650"/>
            </g>
          </g>
        </g>
        <g id="Groupe_1532" data-name="Groupe 1532">
          <g id="Groupe_1531" data-name="Groupe 1531">
            <g id="Groupe_1530" data-name="Groupe 1530">
              <path id="Tracé_1437" data-name="Tracé 1437" d="M1120.906,753.246c-2.3-9.477-3.563-30.025-3.575-30.231,0-.015.871-.033.871-.033.014.221,1.274,20.705,3.556,30.1C1121.745,753.1,1120.906,753.246,1120.906,753.246Zm-3.541-30.216c.04.664,1.3,20.824,3.567,30.179l.788-.134c-2.252-9.3-3.508-29.4-3.549-30.062Z" transform="translate(-1117.331 -722.982)" fill="#643650"/>
            </g>
          </g>
        </g>
      </g>
      <g id="Groupe_1540" data-name="Groupe 1540" transform="translate(85.383 2.366)">
        <g id="Groupe_1536" data-name="Groupe 1536" transform="translate(0.023 0.004)">
          <g id="Groupe_1535" data-name="Groupe 1535">
            <g id="Groupe_1534" data-name="Groupe 1534">
              <path id="Tracé_1438" data-name="Tracé 1438" d="M1263.918,756.826l-.8-.223c3.234-9.169,6.542-29.373,6.574-29.577l.836.1C1270.49,727.333,1267.172,747.6,1263.918,756.826Z" transform="translate(-1263.115 -727.027)" fill="#643650"/>
            </g>
          </g>
        </g>
        <g id="Groupe_1539" data-name="Groupe 1539">
          <g id="Groupe_1538" data-name="Groupe 1538">
            <g id="Groupe_1537" data-name="Groupe 1537">
              <path id="Tracé_1439" data-name="Tracé 1439" d="M1263.913,756.844l-.837-.233c3.229-9.154,6.551-29.394,6.58-29.589,0-.015.872.091.872.091-.361,2.179-3.523,20.961-6.609,29.715Zm-.792-.254.77.213c3.083-8.757,6.242-27.518,6.594-29.628a6.089,6.089,0,0,0-.8-.134C1269.581,727.7,1266.3,747.549,1263.121,756.59Z" transform="translate(-1263.076 -727.021)" fill="#643650"/>
            </g>
          </g>
        </g>
      </g>
    </g>
    <g id="Groupe_1542" data-name="Groupe 1542" transform="translate(823.919 474.009)">
      <path id="Tracé_1440" data-name="Tracé 1440" d="M1164.461,662.184l12.637.646-13.9,19.007-6.382-18.335Z" transform="translate(-1155.193 -660.964)" fill="#fff"/>
      <path id="Tracé_1441" data-name="Tracé 1441" d="M1161.663,683.562l-7.614-21.879,9.2-1.582,15.019.767Zm-4.376-19.969,5.15,14.794,11.207-15.32-10.255-.524Z" transform="translate(-1154.049 -660.101)" fill="#fff"/>
    </g>
    <g id="Groupe_1543" data-name="Groupe 1543" transform="translate(847.924 473.397)">
      <path id="Tracé_1442" data-name="Tracé 1442" d="M1211.369,661.147l-12.473,1.1,13.739,18.551,6.382-18.335Z" transform="translate(-1196.628 -659.922)" fill="#fff"/>
      <path id="Tracé_1443" data-name="Tracé 1443" d="M1211.422,682.5l-16.4-22.142,14.792-1.307,9.216,1.587Zm-11.862-20.1,11.079,14.96,5.154-14.811-6.079-1.046Z" transform="translate(-1195.024 -659.056)" fill="#fff"/>
    </g>
    <g id="Groupe_1559" data-name="Groupe 1559" transform="translate(781.009 599.52)">
      <g id="Groupe_1546" data-name="Groupe 1546" transform="translate(48.308 156.482)">
        <g id="Groupe_1544" data-name="Groupe 1544" transform="translate(0.678 0.833)">
          <path id="Tracé_1444" data-name="Tracé 1444" d="M1182.866,1164.318l4.265,15.91,5.88,8.878s.23,2.421-3.113,1.845-15.219-5.3-16.372-8.417-9.108-22.251-9.108-22.251.23-5.3,4.266-6.918l5.765-10.492,14.527,5.419Z" transform="translate(-1164.419 -1142.873)" fill="#012c49"/>
        </g>
        <g id="Groupe_1545" data-name="Groupe 1545">
          <path id="Tracé_1445" data-name="Tracé 1445" d="M1189.3,1191.023c-3.039-.524-15.539-5.2-16.887-8.846-1.135-3.065-9.018-22.034-9.1-22.226l-.057-.138.006-.15c.009-.23.288-5.565,4.46-7.416l5.933-10.8,15.706,5.858-6.276,16.456,4.181,15.594,5.912,8.925.015.167a2.492,2.492,0,0,1-.749,1.97,2.953,2.953,0,0,1-2.083.7A6.231,6.231,0,0,1,1189.3,1191.023Zm-3.213-11.013-4.354-16.107-.055-.211,5.946-15.6-13.348-4.977-5.6,10.192-.223.09c-3.232,1.293-3.76,5.373-3.833,6.183.8,1.919,7.953,19.146,9.056,22.126,1,2.694,12.406,7.393,15.854,7.989a2.424,2.424,0,0,0,2-.255,1.12,1.12,0,0,0,.33-.726Z" transform="translate(-1163.262 -1141.451)" fill="#012c49"/>
        </g>
      </g>
      <g id="Groupe_1549" data-name="Groupe 1549" transform="translate(0 156.251)">
        <g id="Groupe_1547" data-name="Groupe 1547" transform="translate(0.678 0.834)">
          <path id="Tracé_1446" data-name="Tracé 1446" d="M1100.407,1163.924l4.266,15.911,5.88,8.877s.231,2.421-3.113,1.845-15.219-5.3-16.372-8.416-9.108-22.251-9.108-22.251.231-5.3,4.266-6.917l5.764-10.492,14.527,5.419Z" transform="translate(-1081.96 -1142.48)" fill="#012c49"/>
        </g>
        <g id="Groupe_1548" data-name="Groupe 1548">
          <path id="Tracé_1447" data-name="Tracé 1447" d="M1106.845,1190.629c-3.039-.525-15.539-5.2-16.888-8.844-1.135-3.065-9.019-22.036-9.1-22.228l-.057-.138.007-.15c.009-.23.291-5.565,4.46-7.416l5.933-10.8,15.706,5.859-6.276,16.455,4.183,15.595,5.912,8.926.015.167a2.487,2.487,0,0,1-.75,1.97,2.954,2.954,0,0,1-2.08.7A6.256,6.256,0,0,1,1106.845,1190.629Zm-3.213-11.013-4.356-16.107-.056-.211,5.946-15.595-13.347-4.979-5.6,10.192-.223.089c-3.23,1.293-3.758,5.373-3.833,6.184.8,1.92,7.952,19.147,9.056,22.128,1,2.694,12.407,7.391,15.856,7.987a2.42,2.42,0,0,0,1.995-.255,1.1,1.1,0,0,0,.329-.725Z" transform="translate(-1080.802 -1141.057)" fill="#012c49"/>
        </g>
      </g>
      <g id="Groupe_1552" data-name="Groupe 1552" transform="translate(49.082 23.752)">
        <g id="Groupe_1550" data-name="Groupe 1550" transform="translate(0.711 0.591)">
          <path id="Tracé_1448" data-name="Tracé 1448" d="M1199.462,936.091a30.768,30.768,0,0,1,18.208-18.88c4.222-1.568,6.528-1.314,10.511-1.279a15.789,15.789,0,0,1,2.533.238c5.052.874,11.766,4.424,14.331,8.863,2.837,4.911,2.194,9.026,2.013,12.026-.7,11.479-53.294,112.818-59.289,124.334l-2.834,6.383-19.139-6.917,30.612-115.053q.938-3.6,2.157-7.124Z" transform="translate(-1165.796 -915.896)" fill="#024d8c"/>
        </g>
        <g id="Groupe_1551" data-name="Groupe 1551">
          <path id="Tracé_1449" data-name="Tracé 1449" d="M1164.583,1060.811l30.751-115.573c.626-2.4,1.355-4.815,2.171-7.169l.9-2.59a31.212,31.212,0,0,1,18.559-19.241,21.938,21.938,0,0,1,9.385-1.333l1.337.018a16.356,16.356,0,0,1,2.629.245c5.163.893,12.09,4.56,14.741,9.15s2.363,8.563,2.151,11.462l-.061.894c-.7,11.611-53.353,113.044-59.338,124.538l-3.059,6.887Zm52.79-143.465a30.034,30.034,0,0,0-17.854,18.519l-.9,2.59c-.8,2.325-1.525,4.707-2.144,7.082L1166,1060.068l18.111,6.546,2.627-5.913c5.989-11.5,58.535-112.729,59.222-124.1l.063-.909c.213-2.9.476-6.507-2-10.784s-9.022-7.729-13.919-8.577a15.222,15.222,0,0,0-2.439-.23l-1.345-.018c-.58-.01-1.125-.018-1.649-.018A18.725,18.725,0,0,0,1217.373,917.347Z" transform="translate(-1164.583 -914.887)" fill="#024d8c"/>
        </g>
      </g>
      <g id="Groupe_1555" data-name="Groupe 1555" transform="translate(0.554 28.594)">
        <g id="Groupe_1553" data-name="Groupe 1553" transform="translate(0.705 0.592)">
          <path id="Tracé_1450" data-name="Tracé 1450" d="M1114.653,944.357a30.768,30.768,0,0,1,18.208-18.88c4.223-1.568,6.528-1.313,10.511-1.279a15.832,15.832,0,0,1,2.533.237c5.051.874,11.766,4.424,14.33,8.863,2.837,4.911,2.194,9.025,2.013,12.026-.694,11.48-53.294,112.818-59.288,124.334l-.927,1.775-19.082-7.322L1111.6,954.071q.938-3.6,2.157-7.124Z" transform="translate(-1082.951 -924.162)" fill="#024d8c"/>
        </g>
        <g id="Groupe_1554" data-name="Groupe 1554">
          <path id="Tracé_1451" data-name="Tracé 1451" d="M1081.748,1064.053l28.78-110.549c.626-2.4,1.356-4.816,2.171-7.169l.9-2.59a31.211,31.211,0,0,1,18.559-19.241,21.92,21.92,0,0,1,9.385-1.333l1.337.017a16.358,16.358,0,0,1,2.629.246c5.164.893,12.091,4.56,14.741,9.15s2.364,8.563,2.151,11.462l-.06.895c-.7,11.611-53.353,113.043-59.354,124.571l-1.172,2.243Zm50.819-138.441a30.034,30.034,0,0,0-17.854,18.519l-.9,2.59c-.8,2.325-1.526,4.707-2.144,7.08l-28.513,109.528,18.1,6.945.682-1.308c5.99-11.5,58.535-112.729,59.222-124.1l.063-.909c.213-2.9.476-6.506-2-10.784s-9.023-7.729-13.919-8.577a15.317,15.317,0,0,0-2.439-.23l-1.344-.018c-.581-.009-1.126-.018-1.65-.018A18.727,18.727,0,0,0,1132.568,925.612Z" transform="translate(-1081.748 -923.152)" fill="#024d8c"/>
        </g>
      </g>
      <g id="Groupe_1558" data-name="Groupe 1558" transform="translate(16.055 0)">
        <g id="Groupe_1556" data-name="Groupe 1556" transform="translate(0.545 0.594)">
          <path id="Tracé_1452" data-name="Tracé 1452" d="M1135.129,930.494c-6.882-1.322-13.539-4.281-18.459-9.167a24.052,24.052,0,0,1-3.675-4.762c-7.124-11.936-4.065-27.381,6.556-36.349,3-2.536,5.069-4.156,5.381-4.4l.588-.46,60.171,1.182.52.361c1.93,1.339,25.355,22.088,34.518,29.51C1213.811,927.624,1135.129,930.494,1135.129,930.494Z" transform="translate(-1109.137 -875.357)" fill="#024d8c"/>
        </g>
        <g id="Groupe_1557" data-name="Groupe 1557">
          <path id="Tracé_1453" data-name="Tracé 1453" d="M1134.633,930.655c-7.6-1.461-14.091-4.686-18.764-9.33a24.7,24.7,0,0,1-3.767-4.877c-7.117-11.927-4.245-27.877,6.683-37.1,2.843-2.4,4.849-3.984,5.4-4.414l.754-.588,60.381,1.185.178,0,.666.463c.883.612,5.869,4.939,12.183,10.417,7.7,6.681,17.281,15,22.371,19.119l.316.255-.125.387c-6.966,21.361-82.912,24.374-86.208,24.494Zm62.936-43.352c-6.036-5.239-11.25-9.764-12.08-10.339l-.374-.258-59.781-1.174-.423.329c-.543.426-2.535,2-5.363,4.386-10.49,8.858-13.254,24.16-6.428,35.6a23.529,23.529,0,0,0,3.583,4.645c4.493,4.463,10.746,7.571,18.087,8.993,2.657-.105,77.423-3.309,84.861-23.294C1214.468,901.968,1205.116,893.851,1197.569,887.3Z" transform="translate(-1108.207 -874.343)" fill="#024d8c"/>
        </g>
      </g>
    </g>
    <g id="Groupe_1575" data-name="Groupe 1575" transform="translate(702.762 586.665)">
      <g id="Groupe_1564" data-name="Groupe 1564" transform="translate(13.987 18.403)">
        <g id="Groupe_1561" data-name="Groupe 1561" transform="translate(0.546 0.54)">
          <g id="Groupe_1560" data-name="Groupe 1560">
            <rect id="Rectangle_109" data-name="Rectangle 109" width="7.993" height="195.584" fill="#b7c6ed"/>
          </g>
        </g>
        <g id="Groupe_1563" data-name="Groupe 1563">
          <g id="Groupe_1562" data-name="Groupe 1562">
            <path id="Tracé_1454" data-name="Tracé 1454" d="M980.2,1080.478h-9.086V883.814H980.2Zm-8-1.083h6.906V884.9H972.2Z" transform="translate(-971.113 -883.814)" fill="#b7c6ed"/>
          </g>
        </g>
      </g>
      <g id="Groupe_1569" data-name="Groupe 1569" transform="translate(273.41 18.403)">
        <g id="Groupe_1566" data-name="Groupe 1566" transform="translate(0.546 0.54)">
          <g id="Groupe_1565" data-name="Groupe 1565">
            <rect id="Rectangle_110" data-name="Rectangle 110" width="7.993" height="195.584" fill="#b7c6ed"/>
          </g>
        </g>
        <g id="Groupe_1568" data-name="Groupe 1568">
          <g id="Groupe_1567" data-name="Groupe 1567">
            <path id="Tracé_1455" data-name="Tracé 1455" d="M1423.024,1080.478h-9.086V883.814h9.086Zm-8-1.083h6.906V884.9h-6.906Z" transform="translate(-1413.938 -883.814)" fill="#b7c6ed"/>
          </g>
        </g>
      </g>
      <g id="Groupe_1574" data-name="Groupe 1574" transform="translate(0 0)">
        <g id="Groupe_1571" data-name="Groupe 1571" transform="translate(0.545 0.54)">
          <g id="Groupe_1570" data-name="Groupe 1570">
            <rect id="Rectangle_111" data-name="Rectangle 111" width="294.303" height="21.742" fill="#acc4e8"/>
          </g>
        </g>
        <g id="Groupe_1573" data-name="Groupe 1573">
          <g id="Groupe_1572" data-name="Groupe 1572">
            <path id="Tracé_1456" data-name="Tracé 1456" d="M1242.631,875.222H947.238V852.4h295.393Zm-294.3-1.082h293.214V853.483H948.328Z" transform="translate(-947.238 -852.4)" fill="#acc4e8"/>
          </g>
        </g>
      </g>
    </g>
    <g id="Groupe_1578" data-name="Groupe 1578" transform="translate(833.744 517.928)">
      <g id="Groupe_1576" data-name="Groupe 1576" transform="translate(33.31)">
        <path id="Tracé_1457" data-name="Tracé 1457" d="M1327.551,803.6H1230.3l15.8-66.453h97.249Z" transform="translate(-1228.764 -735.928)" fill="#b2b2b2"/>
        <path id="Tracé_1458" data-name="Tracé 1458" d="M1327.424,803.954h-99.747l16.381-68.885h99.748Zm-96.671-2.431h94.75l15.225-64.023h-94.75Z" transform="translate(-1227.677 -735.069)" fill="#b2b2b2"/>
      </g>
      <g id="Groupe_1577" data-name="Groupe 1577" transform="translate(0 64.883)">
        <rect id="Rectangle_112" data-name="Rectangle 112" width="118.522" height="1.621" transform="translate(1.216 1.216)" fill="#b2b2b2"/>
        <rect id="Rectangle_113" data-name="Rectangle 113" width="120.953" height="4.052" fill="#b2b2b2"/>
      </g>
    </g>
  </g>
</svg>
