<svg xmlns="http://www.w3.org/2000/svg" viewBox="0 0 500 372.61"><defs><style>.cls-1{fill:#ebebeb;}.cls-2{fill:#e6e6e6;}.cls-3{fill:#f0f0f0;}.cls-4{fill:#fff;}.cls-5{fill:#f5f5f5;}.cls-11,.cls-6{fill:#e0e0e0;}.cls-6{opacity:0.4;}.cls-7{fill:#263238;}.cls-8{fill:#0969c9;}.cls-9{opacity:0.5;}.cls-10,.cls-15{opacity:0.3;}.cls-12{fill:#ffc3bd;}.cls-13{opacity:0.2;}.cls-14{fill:#ed847e;}</style></defs><g id="Background_Complete" data-name="Background Complete"><rect class="cls-1" y="327.45" width="500" height="0.25"/><rect class="cls-1" x="416.78" y="343.54" width="33.12" height="0.25"/><rect class="cls-1" x="322.53" y="346.26" width="8.69" height="0.25"/><rect class="cls-1" x="396.59" y="334.26" width="19.19" height="0.25"/><rect class="cls-1" x="52.46" y="335.94" width="43.19" height="0.25"/><rect class="cls-1" x="104.56" y="335.94" width="6.33" height="0.25"/><rect class="cls-1" x="131.47" y="340.16" width="93.68" height="0.25"/><path class="cls-1" d="M237,337.8H43.91a5.71,5.71,0,0,1-5.7-5.71V60.66A5.71,5.71,0,0,1,43.91,55H237a5.71,5.71,0,0,1,5.71,5.71V332.09A5.71,5.71,0,0,1,237,337.8ZM43.91,55.2a5.46,5.46,0,0,0-5.45,5.46V332.09a5.46,5.46,0,0,0,5.45,5.46H237a5.47,5.47,0,0,0,5.46-5.46V60.66A5.47,5.47,0,0,0,237,55.2Z" transform="translate(0 -54.95)"/><path class="cls-1" d="M453.31,337.8H260.21a5.72,5.72,0,0,1-5.71-5.71V60.66A5.72,5.72,0,0,1,260.21,55h193.1A5.71,5.71,0,0,1,459,60.66V332.09A5.71,5.71,0,0,1,453.31,337.8ZM260.21,55.2a5.47,5.47,0,0,0-5.46,5.46V332.09a5.47,5.47,0,0,0,5.46,5.46h193.1a5.47,5.47,0,0,0,5.46-5.46V60.66a5.47,5.47,0,0,0-5.46-5.46Z" transform="translate(0 -54.95)"/><rect class="cls-2" x="267.78" y="251.67" width="35.1" height="130.73" transform="translate(570.66 579.11) rotate(180)"/><polygon class="cls-3" points="273.62 327.45 267.78 327.45 267.78 315.68 279.75 315.68 273.62 327.45"/><rect class="cls-2" x="410.64" y="251.67" width="35.1" height="130.73" transform="translate(856.38 579.11) rotate(180)"/><rect class="cls-3" x="267.78" y="251.67" width="147.96" height="126.21" transform="translate(683.52 574.6) rotate(180)"/><rect class="cls-2" x="272.31" y="257.26" width="138.89" height="34.61" transform="translate(683.52 494.18) rotate(180)"/><path class="cls-3" d="M335.2,268h13.12c5.7,0,11.15-4.27,15.07-11.81H320.13C324.05,263.75,329.5,268,335.2,268Z" transform="translate(0 -54.95)"/><polygon class="cls-3" points="409.9 327.45 415.74 327.45 415.74 315.68 403.77 315.68 409.9 327.45"/><rect class="cls-2" x="272.31" y="297.47" width="138.89" height="34.61" transform="translate(683.52 574.6) rotate(180)"/><path class="cls-3" d="M335.2,308.22h13.12c5.7,0,11.15-4.27,15.07-11.81H320.13C324.05,304,329.5,308.22,335.2,308.22Z" transform="translate(0 -54.95)"/><rect class="cls-2" x="272.31" y="337.67" width="138.89" height="34.61" transform="translate(683.52 655.01) rotate(180)"/><path class="cls-3" d="M335.2,348.43h13.12c5.7,0,11.15-4.27,15.07-11.81H320.13C324.05,344.16,329.5,348.43,335.2,348.43Z" transform="translate(0 -54.95)"/><rect class="cls-2" x="78" y="86.38" width="134.04" height="135.63" transform="translate(290.03 253.45) rotate(180)"/><rect class="cls-3" x="68.69" y="86.38" width="140.88" height="135.63" transform="translate(278.25 253.45) rotate(180)"/><rect class="cls-4" x="83.11" y="95.56" width="112.03" height="117.27" transform="translate(293.33 -39.88) rotate(90)"/><path class="cls-3" d="M138.32,113,116.8,134.56a27.81,27.81,0,0,0,0,39.28l21.52,21.53a1.13,1.13,0,0,0,1.6,0l21.53-21.53a27.81,27.81,0,0,0,0-39.28L139.93,113A1.15,1.15,0,0,0,138.32,113Zm-19.92,59.2a25.54,25.54,0,0,1,0-36.07Zm41.45,0V136.17A25.54,25.54,0,0,1,159.85,172.24Z" transform="translate(0 -54.95)"/><polygon class="cls-2" points="406.85 150.05 331.96 150.05 327.69 194.27 402.58 194.27 406.85 150.05"/><polygon class="cls-2" points="402.58 194.27 402.28 196.71 327.38 196.71 327.69 194.27 402.58 194.27"/><polygon class="cls-3" points="404.55 150.05 329.66 150.05 325.38 194.27 400.27 194.27 404.55 150.05"/><path class="cls-4" d="M398.76,246.34,401.89,208a.94.94,0,0,0-.93-1H332.11a.94.94,0,0,0-.94.86L328,246.19a.94.94,0,0,0,.94,1h68.85A.93.93,0,0,0,398.76,246.34Z" transform="translate(0 -54.95)"/><polygon class="cls-3" points="380.76 194.27 380.46 196.71 297.99 196.71 298.29 194.27 380.76 194.27"/><rect class="cls-2" x="280.09" y="87.88" width="140.63" height="93.49" transform="translate(700.81 214.29) rotate(180)"/><rect class="cls-5" x="276.96" y="87.88" width="140.63" height="93.49" transform="translate(694.56 214.29) rotate(180)"/><rect class="cls-4" x="306.84" y="69.91" width="80.88" height="129.41" transform="translate(481.9 -267.61) rotate(90)"/><rect class="cls-2" x="243.31" y="133.44" width="80.88" height="2.36" transform="translate(418.37 -204.09) rotate(90)"/><rect class="cls-5" x="279.28" y="155.87" width="135.99" height="8.46" transform="translate(694.56 265.25) rotate(180)"/><path class="cls-2" d="M270.85,77.45h156a.87.87,0,0,1,.86.86h0a.86.86,0,0,1-.86.86h-156a.86.86,0,0,1-.87-.86h0A.87.87,0,0,1,270.85,77.45Z" transform="translate(0 -54.95)"/><path class="cls-2" d="M267.83,78.31A2.16,2.16,0,1,0,270,76.15,2.16,2.16,0,0,0,267.83,78.31Z" transform="translate(0 -54.95)"/><path class="cls-2" d="M419.55,83.15h0A1.17,1.17,0,0,0,420.72,82v-2.5a1.17,1.17,0,0,0-1.17-1.17h0a1.16,1.16,0,0,0-1.16,1.17V82A1.17,1.17,0,0,0,419.55,83.15Z" transform="translate(0 -54.95)"/><path class="cls-2" d="M283.87,83.15h0A1.18,1.18,0,0,0,285,82v-2.5a1.17,1.17,0,0,0-1.17-1.17h0a1.16,1.16,0,0,0-1.16,1.17V82A1.17,1.17,0,0,0,283.87,83.15Z" transform="translate(0 -54.95)"/><rect class="cls-6" x="271.12" y="78.31" width="144.15" height="90.83" transform="translate(686.4 192.5) rotate(180)"/><path class="cls-2" d="M403.51,78.31a2.16,2.16,0,1,0,2.16-2.16A2.16,2.16,0,0,0,403.51,78.31Z" transform="translate(0 -54.95)"/><rect class="cls-3" x="199.5" y="275.65" width="11.56" height="100.27" transform="translate(410.56 596.62) rotate(180)"/><rect class="cls-3" x="74.1" y="375.92" width="132.52" height="6.35" transform="translate(280.72 703.24) rotate(180)"/><rect class="cls-5" x="69.66" y="220.7" width="129.84" height="100.27"/><rect class="cls-3" x="78.75" y="233.04" width="111.66" height="32.88" rx="7.12"/><rect class="cls-3" x="78.75" y="275.74" width="111.66" height="32.88" rx="7.12"/><path class="cls-5" d="M110.39,306.69h48.38a2.26,2.26,0,0,0,2.26-2.25h0a2.27,2.27,0,0,0-2.26-2.26H110.39a2.27,2.27,0,0,0-2.26,2.26h0A2.26,2.26,0,0,0,110.39,306.69Z" transform="translate(0 -54.95)"/><path class="cls-5" d="M110.39,349.39h48.38a2.26,2.26,0,0,0,2.26-2.25h0a2.27,2.27,0,0,0-2.26-2.26H110.39a2.27,2.27,0,0,0-2.26,2.26h0A2.26,2.26,0,0,0,110.39,349.39Z" transform="translate(0 -54.95)"/></g><g id="Shadow"><ellipse id="_Path_" data-name="&lt;Path&gt;" class="cls-5" cx="250" cy="361.29" rx="193.89" ry="11.32"/></g><g id="Survey"><polygon class="cls-7" points="292.85 46.5 108.05 46.5 122.41 298.17 307.2 298.17 292.85 46.5"/><polygon class="cls-8" points="296.44 46.5 111.64 46.5 126 298.17 310.8 298.17 296.44 46.5"/><path class="cls-9" d="M283.71,109.91H120.09l11.73,227.81H299.69Z" transform="translate(0 -54.95)"/><path class="cls-4" d="M120.09,109.91c12.16,75.94,3.82,151.88,16,227.81H303.94c-12.16-75.93-3.82-151.87-16-227.81Z" transform="translate(0 -54.95)"/><g class="cls-10"><path class="cls-8" d="M154.22,159.07a14.47,14.47,0,0,1,14.34,13.77,13.16,13.16,0,0,1-13.26,13.7,14.35,14.35,0,0,1-14.21-13.77,13.2,13.2,0,0,1,3.62-9.69,13,13,0,0,1,9.51-4m-.1-2.9a15.85,15.85,0,0,0-15.93,16.63,17.3,17.3,0,0,0,17.15,16.64,16,16,0,0,0,16.11-16.64,17.46,17.46,0,0,0-17.33-16.63Z" transform="translate(0 -54.95)"/></g><path class="cls-11" d="M247,283.81H194a2.79,2.79,0,0,0-2.82,3.11h0a3.5,3.5,0,0,0,3.41,3.1h53a2.76,2.76,0,0,0,2.8-3.1h0A3.49,3.49,0,0,0,247,283.81Z" transform="translate(0 -54.95)"/><path class="cls-11" d="M275.38,270.76H193a2.86,2.86,0,0,0-2.88,3.11h0a3.41,3.41,0,0,0,3.35,3.1h82.42a2.83,2.83,0,0,0,2.86-3.1h0A3.4,3.4,0,0,0,275.38,270.76Z" transform="translate(0 -54.95)"/><g class="cls-10"><path class="cls-8" d="M155.91,212.86a14.28,14.28,0,0,1,14.15,13.78,13.25,13.25,0,0,1-3.69,9.68,13.11,13.11,0,0,1-9.54,4,14.35,14.35,0,0,1-14.24-13.77,13.22,13.22,0,0,1,13.32-13.7m0-2.89h0a16.09,16.09,0,0,0-16.18,16.63,17.32,17.32,0,0,0,17.21,16.63,16,16,0,0,0,16-16.63A17.19,17.19,0,0,0,155.87,210Z" transform="translate(0 -54.95)"/></g><path class="cls-11" d="M217.6,169.38H189.26a3.26,3.26,0,0,1-3.23-3.1h0a3,3,0,0,1,3-3.1h28.34a3.24,3.24,0,0,1,3.23,3.1h0A3,3,0,0,1,217.6,169.38Z" transform="translate(0 -54.95)"/><path class="cls-11" d="M250.33,169.38H231.12a3.25,3.25,0,0,1-3.22-3.1h0a3,3,0,0,1,3-3.1h19.21a3.26,3.26,0,0,1,3.23,3.1h0A3,3,0,0,1,250.33,169.38Z" transform="translate(0 -54.95)"/><path class="cls-11" d="M265.79,182.43H189.7a3.23,3.23,0,0,1-3.2-3.1h0a3,3,0,0,1,3-3.1h76.1a3.22,3.22,0,0,1,3.2,3.1h0A3,3,0,0,1,265.79,182.43Z" transform="translate(0 -54.95)"/><g class="cls-10"><path class="cls-8" d="M158.08,266.66a15.16,15.16,0,0,1,14.8,13.77,12.72,12.72,0,0,1-3.11,9.69,12.22,12.22,0,0,1-9.27,4,15.46,15.46,0,0,1-15.09-13.78,12.45,12.45,0,0,1,3.26-9.68,12.66,12.66,0,0,1,9.41-4m-.14-2.9a15.2,15.2,0,0,0-15.43,16.63c.77,9.19,9.09,16.63,18.28,16.63s15.76-7.44,15-16.63a18.26,18.26,0,0,0-17.84-16.63Z" transform="translate(0 -54.95)"/></g><path class="cls-11" d="M278.84,230H191a3,3,0,0,0-3,3.1h0a3.24,3.24,0,0,0,3.21,3.11H279a3,3,0,0,0,3-3.11h0A3.23,3.23,0,0,0,278.84,230Z" transform="translate(0 -54.95)"/><path class="cls-11" d="M258,217H190.62a3,3,0,0,0-3,3.1h0a3.2,3.2,0,0,0,3.19,3.11h67.38a3,3,0,0,0,3-3.11h0A3.21,3.21,0,0,0,258,217Z" transform="translate(0 -54.95)"/><path class="cls-8" d="M155.74,182.62l-1.18-1.94c-2.59-4.24-8-8-9.86-9.12.47-.82.93-1.65,1.4-2.48a38.43,38.43,0,0,1,9.67,8.36c4.26-5.7,10.46-11.58,18.87-17.92l1.82,2.35c-9,6.77-15.39,13-19.47,18.93C156.57,181.4,156.16,182,155.74,182.62Z" transform="translate(0 -54.95)"/><path class="cls-8" d="M157.24,236.41c-.4-.64-.8-1.29-1.19-1.94-2.6-4.23-8-8-9.84-9.11l1.42-2.48a38.13,38.13,0,0,1,9.63,8.36c4.26-5.7,10.52-11.59,19.06-17.92l1.77,2.34c-9.13,6.77-15.54,13-19.61,18.93Z" transform="translate(0 -54.95)"/><path class="cls-8" d="M160.66,290.34l-1.32-1.94c-2.87-4.24-8.45-8-10.37-9.12l1.3-2.48a42.14,42.14,0,0,1,10.09,8.36c3.92-5.7,9.88-11.58,18.16-17.92l1.86,2.34c-8.83,6.77-14.91,13-18.59,18.93Z" transform="translate(0 -54.95)"/><path class="cls-7" d="M256.74,110.56c-3.12-6.57-10.4-10.92-18.25-10.92h-16a6.24,6.24,0,0,1-5.55-2.9c-2.23-4.18-7.55-7.16-13.59-7.16s-11,3-12.76,7.16c-.73,1.76-2.82,2.9-5.22,2.9h-16c-7.85,0-14.64,4.35-17,10.92a1.62,1.62,0,0,0-.1.72,2,2,0,0,0,2,1.9H255.15A1.79,1.79,0,0,0,256.74,110.56ZM204,101.45A4.78,4.78,0,0,1,199.33,97a4.16,4.16,0,0,1,4.2-4.45A4.77,4.77,0,0,1,208.24,97,4.16,4.16,0,0,1,204,101.45Z" transform="translate(0 -54.95)"/></g><g id="Character"><path class="cls-8" d="M360.42,409.11a3.2,3.2,0,0,1-2.22-.55.69.69,0,0,1-.07-.76.74.74,0,0,1,.51-.41c1.18-.33,3.91,1.13,4,1.2a.17.17,0,0,1,.1.18.15.15,0,0,1-.12.14A12.92,12.92,0,0,1,360.42,409.11Zm-1.32-1.42a1.11,1.11,0,0,0-.33,0,.45.45,0,0,0-.32.24c-.1.22,0,.33,0,.39.4.47,2.26.48,3.6.29A8.65,8.65,0,0,0,359.1,407.69Z" transform="translate(0 -54.95)"/><path class="cls-8" d="M362.62,408.91h-.07c-.93-.4-2.87-2-2.83-2.82,0-.2.12-.44.6-.49a1.42,1.42,0,0,1,1,.3,5.65,5.65,0,0,1,1.46,2.83.18.18,0,0,1,0,.16A.17.17,0,0,1,362.62,408.91Zm-2.13-3h-.1c-.31,0-.32.15-.32.19,0,.5,1.31,1.75,2.28,2.29a4.66,4.66,0,0,0-1.23-2.26A1,1,0,0,0,360.49,405.93Z" transform="translate(0 -54.95)"/><polygon class="cls-12" points="370.68 353.78 363.33 353.78 360.7 336.77 368.05 336.77 370.68 353.78"/><path class="cls-7" d="M363.28,407.89h8a.74.74,0,0,1,.68.5l2.18,6.53a1,1,0,0,1-.91,1.3c-2.9,0-7.1-.21-10.74-.21-4.25,0-3.87.23-8.86.23-3,0-4.19-3.05-3-3.33,5.61-1.25,6.26-1.39,10.88-4.45A3.09,3.09,0,0,1,363.28,407.89Z" transform="translate(0 -54.95)"/><polygon class="cls-13" points="360.7 336.78 362.06 345.55 369.41 345.55 368.05 336.78 360.7 336.78"/><path class="cls-12" d="M369.84,225.45l-5,5.05,7.66,2.71s3-4.12.89-6.94Z" transform="translate(0 -54.95)"/><polygon class="cls-12" points="363.16 182.61 370.81 183.73 372.52 178.26 364.86 175.55 363.16 182.61"/><path class="cls-7" d="M373.18,163.27c.65,1.4,1.17,2.59,1.69,3.89s1,2.55,1.5,3.83c.95,2.57,1.8,5.19,2.59,7.84a82.8,82.8,0,0,1,2,8.15l.38,2.1.31,2.14c.11.71.18,1.45.24,2.18s.16,1.39.16,2.31l0,1.3,0,1.15-.06,1.13-.11,1.07c-.13,1.44-.32,2.79-.5,4.16-.4,2.7-.86,5.34-1.37,8-1.06,5.23-2.22,10.34-3.62,15.49l-9.11-1.8c.58-5.08,1.18-10.24,1.66-15.32.23-2.54.48-5.07.62-7.55.06-1.22.13-2.46.13-3.63v-.88l0-.81,0-.81-.07-.66a15,15,0,0,0-.22-1.57c-.09-.56-.17-1.12-.3-1.69l-.37-1.71-.43-1.72c-.62-2.3-1.32-4.61-2.12-6.92s-1.69-4.61-2.63-6.89c-.46-1.15-.94-2.29-1.44-3.41s-1-2.29-1.49-3.26Z" transform="translate(0 -54.95)"/><path class="cls-8" d="M338.65,221.87s1.22,56.24,4.52,78.64c3.44,23.3,16,98.29,16,98.29h12.44s-4.46-71.37-5.88-94.3c-1.55-25-1.21-82.63-1.21-82.63Z" transform="translate(0 -54.95)"/><path class="cls-7" d="M356.18,393.84c-.06,0,1.28,5.17,1.28,5.17H372.6l-.11-4.61Z" transform="translate(0 -54.95)"/><ellipse class="cls-7" cx="335.11" cy="130.65" rx="1.13" ry="0.74" transform="translate(184.13 402.16) rotate(-86.48)"/><path class="cls-14" d="M335.54,131.78a23.2,23.2,0,0,1-3.16,5.32,3.52,3.52,0,0,0,2.95.56Z" transform="translate(0 -54.95)"/><path class="cls-7" d="M338.18,127.2a.43.43,0,0,1-.22-.06,2.82,2.82,0,0,0-2.57-.48.36.36,0,0,1-.47-.21.37.37,0,0,1,.23-.47,3.55,3.55,0,0,1,3.26.56.37.37,0,0,1,.07.51A.38.38,0,0,1,338.18,127.2Z" transform="translate(0 -54.95)"/><path class="cls-12" d="M355.3,137.52c-1.24,5.38-2.64,15.23,1,18.81,0,0-1.66,5.45-11.65,5.45-11,0-5.05-5.45-5.05-5.45,6-1.43,6.05-5.87,5.15-10.05Z" transform="translate(0 -54.95)"/><path class="cls-8" d="M360.17,158.85c1.08-2.19,2.27-4.71,0-5.49-2.48-.87-16.19-1.75-21-.13a5,5,0,0,0-3.61,6.08Z" transform="translate(0 -54.95)"/><path class="cls-7" d="M370.69,158.44c6.33,2.92,9.55,25.06,9.55,25.06l-12.75,4a129.49,129.49,0,0,1-5.53-18C360,160.26,364.21,155.46,370.69,158.44Z" transform="translate(0 -54.95)"/><path class="cls-12" d="M292.33,192.89l-5.88-5.06-5.29,7.7s4.75,3.81,10,2.25Z" transform="translate(0 -54.95)"/><polygon class="cls-12" points="278.7 130.43 277.89 138.04 281.16 140.58 286.45 132.88 278.7 130.43"/><path class="cls-12" d="M356.65,129.33c-.74,7.64-.79,12.14-4.79,16.06A10,10,0,0,1,335,140.16c-1.4-6.86,0-18.2,7.63-21.24A10.09,10.09,0,0,1,356.65,129.33Z" transform="translate(0 -54.95)"/><path class="cls-7" d="M341,131.78c-.67-5.28-.56-7.28,2.26-8.45-2.93-.58-5.47-.66-6.68-2.37s-1.5-6.08,4.38-8.08c-.54,1,1.17,3.08,6.58,1.2s13.29-2.08,14,3.42c2.86-1,7.65,7.83,2,14.28-4.71,5.4-7.85,9.13-8.78,12a1,1,0,0,1-1.37.6c-1.95-.91-5.44-.13-7,.29a1,1,0,0,1-1.14-.51C344.24,142.08,341.51,136.14,341,131.78Z" transform="translate(0 -54.95)"/><path class="cls-7" d="M360.48,118.17s2.32-3.27,6.77-.84A20.16,20.16,0,0,0,360.48,118.17Z" transform="translate(0 -54.95)"/><path class="cls-7" d="M360.86,118.87s3.23-2,.71-5.77A14.53,14.53,0,0,1,360.86,118.87Z" transform="translate(0 -54.95)"/><path class="cls-12" d="M344.74,132a9.15,9.15,0,0,1-2.68,4.95c-1.85,1.75-3.45.51-3.5-1.74-.05-2,.85-5.38,3-6.28S345.12,129.74,344.74,132Z" transform="translate(0 -54.95)"/><path class="cls-15" d="M339.68,253.12c.72,16.78,1.85,36.26,3.49,47.39.63,4.24,1.55,10.18,2.65,17.07C350.24,293.46,352.88,262.38,339.68,253.12Z" transform="translate(0 -54.95)"/><path class="cls-8" d="M334.17,409.11c-.94,0-1.85-.13-2.14-.55a.68.68,0,0,1,0-.76,1,1,0,0,1,.57-.41c1.23-.33,3.75,1.13,3.86,1.2a.15.15,0,0,1,.07.18.18.18,0,0,1-.14.14A13.43,13.43,0,0,1,334.17,409.11Zm-1.11-1.42a1.18,1.18,0,0,0-.34,0,.53.53,0,0,0-.35.24c-.13.22-.09.33-.05.39.33.47,2.18.48,3.56.29A7.61,7.61,0,0,0,333.06,407.69Z" transform="translate(0 -54.95)"/><path class="cls-8" d="M336.4,408.91h-.07c-.87-.4-2.58-2-2.41-2.82,0-.2.18-.44.66-.49a1.29,1.29,0,0,1,1,.3c.91.77,1,2.75,1,2.83a.21.21,0,0,1-.08.16A.19.19,0,0,1,336.4,408.91Zm-1.69-3h-.1c-.32,0-.34.15-.35.19-.1.5,1.05,1.75,1.94,2.29a4,4,0,0,0-.89-2.26A.92.92,0,0,0,334.71,405.93Z" transform="translate(0 -54.95)"/><polygon class="cls-12" points="344.48 353.78 337.14 353.78 337 336.77 344.35 336.77 344.48 353.78"/><path class="cls-7" d="M337.21,407.89h8a.6.6,0,0,1,.6.5l1.23,6.53a1.11,1.11,0,0,1-1.11,1.3c-2.89,0-7.07-.21-10.7-.21-4.26,0-7.94.23-12.93.23-3,0-3.74-3.05-2.47-3.33,5.79-1.25,10.49-1.39,15.56-4.45A3.57,3.57,0,0,1,337.21,407.89Z" transform="translate(0 -54.95)"/><polygon class="cls-13" points="337.01 336.78 337.07 345.55 344.42 345.55 344.36 336.78 337.01 336.78"/><path class="cls-8" d="M325.54,221.87s-3,54.93-2.94,77.33c0,23.3,11.8,99.6,11.8,99.6h12.44S343.6,323.86,345,301c1.49-25,8.71-79.11,8.71-79.11Z" transform="translate(0 -54.95)"/><path class="cls-7" d="M332.18,393.84c-.06,0,.51,5.17.51,5.17h15.14l.58-4.61Z" transform="translate(0 -54.95)"/><path class="cls-7" d="M328.22,158.37s-12.52,31.63-7.07,86.3h45.72c.48-6-4.3-58.26,2.52-86.68a101.36,101.36,0,0,0-13.1-1.66,145.28,145.28,0,0,0-16.7,0A74.84,74.84,0,0,0,328.22,158.37Z" transform="translate(0 -54.95)"/><path class="cls-13" d="M321.75,187c-.68,5-1.24,10.71-1.6,17,8.88-8.16,11.92-28.49,11.92-28.49Z" transform="translate(0 -54.95)"/><path class="cls-7" d="M332.93,173.43c-1.8,4.68-3.62,9.19-5.62,13.72s-4.07,9-6.4,13.48L320,202.3l-.46.84c-.19.34-.17.36-.69,1.23a9.78,9.78,0,0,1-3.61,3.36,10.76,10.76,0,0,1-3.91,1.18,16.46,16.46,0,0,1-5.6-.45,31,31,0,0,1-4.24-1.38,55.15,55.15,0,0,1-7.17-3.6c-1.13-.65-2.21-1.35-3.28-2S289,200,287.85,199.2l5.4-8.28a70.26,70.26,0,0,0,12.15,5.27,18.34,18.34,0,0,0,2.73.62,3.84,3.84,0,0,0,1.6,0c.06,0-.13-.06-.46.11a2.69,2.69,0,0,0-1,.88c-.21.35.06-.17.15-.37l.36-.79.72-1.57c1.9-4.24,3.66-8.63,5.37-13s3.37-8.93,4.9-13.34Z" transform="translate(0 -54.95)"/><path class="cls-7" d="M337.9,161.69c2.34,6.54-14.22,32.87-14.22,32.87l-9.82-9.73s2.51-8.27,5.82-18.23C322.94,156.81,335.67,155.44,337.9,161.69Z" transform="translate(0 -54.95)"/></g></svg>