<?xml version="1.0" encoding="utf-8"?>
<!-- Generator: Adobe Illustrator 18.0.0, SVG Export Plug-In . SVG Version: 6.00 Build 0)  -->
<!DOCTYPE svg PUBLIC "-//W3C//DTD SVG 1.1//EN" "http://www.w3.org/Graphics/SVG/1.1/DTD/svg11.dtd">
<svg version="1.1" id="Calque_1" xmlns="http://www.w3.org/2000/svg" xmlns:xlink="http://www.w3.org/1999/xlink" x="0px" y="0px"
	 viewBox="-28 -12 1656 1624" enable-background="new -28 -12 1656 1624" xml:space="preserve">
<g>
	<path fill="#0969C9" d="M990.4,671.8c0,103.9-83.7,187.6-187.6,187.6s-187.6-83.7-187.6-187.6S699,484.2,802.9,484.2
		S990.4,567.9,990.4,671.8"/>
	<path fill="#5ABA77" d="M888.9,382.4c102.9,30.3,182.2,112.9,207.7,217.8l296.1-510.6L888.9,382.4z"/>
	<path fill="#0961AA" d="M1255.3,1409.2L1116.8,1102c-37-81.7-168.7-140.8-313.9-140.8s-277,59.2-313.9,139.8l-138.5,308.2
		c-15.8,34.6-12.4,52.4,9.1,86.1c48.1,73.6,169.7,104.9,305.2,104.9h276.6c134.1,0,257.1-31.3,305.2-104.9
		C1267.7,1461.7,1271.1,1444.9,1255.3,1409.2z"/>
	<path fill="#0969C9" d="M802.9,484.2c-103.9,0-187.6,83.7-187.6,187.6c0,103.9,83.7,187.6,187.6,187.6s187.6-83.7,187.6-187.6
		C990.4,567.9,906.7,484.2,802.9,484.2z"/>
	<path fill="#0969C9" d="M801.8,859.7L801.8,859.7L801.8,859.7 M801.8,859.7L801.8,859.7L801.8,859.7 M800.5,859.7L800.5,859.7
		L800.5,859.7 M800.5,859.7L800.5,859.7L800.5,859.7 M799.5,859.7L799.5,859.7L799.5,859.7 M798.5,859.7
		C798.5,859.7,799.5,859.7,798.5,859.7C799.5,859.7,798.5,859.7,798.5,859.7 M798.5,859.7L798.5,859.7L798.5,859.7 M797.1,859.7
		L797.1,859.7L797.1,859.7 M797.1,859.7L797.1,859.7L797.1,859.7 M796.1,859.7L796.1,859.7L796.1,859.7 M795.1,859.7L795.1,859.7
		L795.1,859.7 M795.1,859.7L795.1,859.7L795.1,859.7 M793.8,859.7L793.8,859.7L793.8,859.7 M793.8,859.7L793.8,859.7L793.8,859.7
		 M792.8,859.7L792.8,859.7L792.8,859.7 M790.4,859.7L790.4,859.7L790.4,859.7 M790.4,859.7L790.4,859.7L790.4,859.7 M789.4,859.7
		L789.4,859.7L789.4,859.7 M788.4,859.7L788.4,859.7L788.4,859.7 M990.4,671.8L990.4,671.8L990.4,671.8L990.4,671.8 M990.4,670.8
		L990.4,670.8L990.4,670.8 M990.4,670.8L990.4,670.8L990.4,670.8 M990.4,669.4L990.4,669.4L990.4,669.4 M990.4,668.4
		C990.4,669.4,990.4,669.4,990.4,668.4C990.4,669.4,990.4,669.4,990.4,668.4 M990.4,668.4L990.4,668.4L990.4,668.4 M990.4,667.4
		C990.4,667.4,990.4,668.4,990.4,667.4C990.4,668.4,990.4,667.4,990.4,667.4 M990.4,667.4L990.4,667.4L990.4,667.4 M990.4,666.1
		L990.4,666.1L990.4,666.1 M990.4,665L990.4,665L990.4,665 M990.4,665L990.4,665L990.4,665 M990.4,664L990.4,664L990.4,664
		 M990.4,664L990.4,664L990.4,664 M990.4,662.7L990.4,662.7L990.4,662.7 M990.4,661.7C990.4,662.7,990.4,662.7,990.4,661.7
		C990.4,662.7,990.4,662.7,990.4,661.7 M990.4,661.7L990.4,661.7L990.4,661.7 M990.4,659.3v1C990.4,660.7,990.4,660.7,990.4,659.3
		 M990.4,659.3L990.4,659.3L990.4,659.3 M990.4,658.3C990.4,658.3,990.4,659.3,990.4,658.3C990.4,659.3,990.4,658.3,990.4,658.3
		 M990.4,658.3L990.4,658.3L990.4,658.3 M990.4,657.3L990.4,657.3L990.4,657.3 M990.4,657.3L990.4,657.3L990.4,657.3 M990.4,656
		L990.4,656L990.4,656 M990.4,655C990.4,655,990.4,656,990.4,655C990.4,656,990.4,655,990.4,655 M990.4,655L990.4,655L990.4,655
		 M990.4,653.9L990.4,653.9L990.4,653.9 M990.4,653.9L990.4,653.9L990.4,653.9 M990.4,652.9L990.4,652.9L990.4,652.9 M989.4,651.6
		C990.4,652.9,990.4,652.9,989.4,651.6C990.4,652.9,990.4,652.9,989.4,651.6 M989.4,651.6L989.4,651.6L989.4,651.6 M989.4,650.6
		L989.4,650.6L989.4,650.6 M989.4,650.6L989.4,650.6L989.4,650.6 M989.4,649.6L989.4,649.6L989.4,649.6 M989.4,648.2
		C989.4,649.6,989.4,649.6,989.4,648.2C989.4,649.6,989.4,649.6,989.4,648.2 M989.4,648.2L989.4,648.2L989.4,648.2 M989.4,647.2
		L989.4,647.2L989.4,647.2 M989.4,647.2L989.4,647.2L989.4,647.2 M989.4,646.2L989.4,646.2L989.4,646.2"/>
	<path fill="#0961AA" d="M922.5,526.6c26.9,32.3,43.7,75,43.7,119.7c0,103.9-83.7,187.6-187.6,187.6c-45.7,0-87.1-16.8-119.7-43.7
		c31.3,38,78.3,63.5,130.8,68.2c0,0,0,0,1,0c0,0,0,0,1,0c0,0,0,0,1,0s1,0,2.4,0c0,0,0,0,1,0c0,0,0,0,1,0c0,0,0,0,1,0c0,0,0,0,1,0
		c103.9,0,187.6-83.7,187.6-187.6c0,0,0,0,0-1v-1v-1v-1c0,0,0,0,0-1C982.7,598.2,958.2,556.8,922.5,526.6z"/>
	<path fill="#0969C9" d="M495.6,1101l-141.8,308.2c-7.7,16.8-12.4,34.6-11.1,51.4c2.4,9.1,6.7,17.8,13.4,27.9c1,2.4,3.4,4.4,4.4,6.7
		c48.1,73.6,169.7,104.9,303.9,104.9h146.2v-639C699,962.2,531.3,1020.3,495.6,1101z"/>
	<path fill="#64D88D" d="M888.9,382.4c0,0,0,0,1,0c50.4,14.5,95.1,41.3,130.8,78.3L1385,93.9L888.9,382.4z"/>
	<path fill="#0969C9" d="M799.5-0.2C428.4,0.2,127.9,300.7,127.9,671.8c0,206.7,93.8,392.3,240.3,515.3l52.4-116.3
		c4.4-11.1,11.1-21.2,17.8-31.3C343.4,945.7,285.5,816,285.5,671.8c0-286.1,231.3-517.3,517.3-517.3c65.9,0,128.4,13.4,186.6,35.6
		l157.6-91.8C1046.6,35.8,926.9-0.2,799.5-0.2z"/>
	<path fill="#0961AA" d="M1382.7,337.6l-92.8,159.7c20.2,54.8,31.3,112.9,31.3,174.5c0,144.2-58.2,273.6-152.9,367.7
		c6.7,10.1,12.4,20.2,17.8,31.3l50.4,111.6c144.2-123,235.6-306.2,235.6-510.6C1472.1,550.1,1439.8,436.1,1382.7,337.6z"/>
</g>
</svg>
