<svg xmlns="http://www.w3.org/2000/svg" viewBox="0 0 268.89 200.38"><defs><style>.cls-1{fill:#ebebeb;}.cls-2{fill:#f0f0f0;}.cls-3{fill:#f5f5f5;}.cls-4{fill:#e6e6e6;}.cls-5{fill:#407bff;}.cls-6{opacity:0.2;}.cls-7{fill:#fff;}.cls-8{fill:#ffc3bd;}.cls-9{fill:#263238;}.cls-10{opacity:0.3;}.cls-11{fill:#0969c9;}.cls-12{fill:#ed847e;}</style></defs><g id="Character"><rect class="cls-1" y="176.09" width="158.89" height="0.13"/><rect class="cls-1" x="224.13" y="184.75" width="17.81" height="0.13"/><rect class="cls-1" x="173.45" y="186.21" width="4.68" height="0.13"/><rect class="cls-1" x="213.28" y="179.76" width="10.32" height="0.13"/><rect class="cls-1" x="28.21" y="180.66" width="23.23" height="0.13"/><rect class="cls-1" x="56.23" y="180.66" width="3.41" height="0.13"/><rect class="cls-1" x="70.7" y="182.93" width="50.38" height="0.13"/><path class="cls-1" d="M127.46,156.06H23.62A3.07,3.07,0,0,1,20.55,153V7A3.07,3.07,0,0,1,23.62,4H127.46A3.08,3.08,0,0,1,130.53,7V153A3.08,3.08,0,0,1,127.46,156.06ZM23.62,4.09A2.94,2.94,0,0,0,20.68,7V153a2.94,2.94,0,0,0,2.94,2.94H127.46A2.94,2.94,0,0,0,130.4,153V7a2.94,2.94,0,0,0-2.94-2.93Z" transform="translate(0 -3.95)"/><path class="cls-1" d="M243.78,156.06H139.94a3.07,3.07,0,0,1-3.07-3.07V7A3.07,3.07,0,0,1,139.94,4H243.78A3.08,3.08,0,0,1,246.85,7V153A3.08,3.08,0,0,1,243.78,156.06ZM139.94,4.09A2.94,2.94,0,0,0,137,7V153a2.94,2.94,0,0,0,2.94,2.94H243.78a2.94,2.94,0,0,0,2.94-2.94V7a2.94,2.94,0,0,0-2.94-2.93Z" transform="translate(0 -3.95)"/><path class="cls-2" d="M203.41,179.1c-.76-5.16-4.15-9.15-7.59-8.9a4.57,4.57,0,0,0-3.25,1.85c-4.28-6.42-10.21-10.37-16.18-9.93a12.58,12.58,0,0,0-8,3.69c-3.77-9.69-10.18-16.56-16.29-16.56-3.47,0-6.28,2.22-8.13,5.93-4.88-6.51-10.67-10.51-16.29-10.51-9,0-14.83,10.16-15.34,24.43-2.26,2.69-10.42,6.45-11.44,11h102.6C203.49,179.73,203.46,179.42,203.41,179.1Z" transform="translate(0 -3.95)"/><path class="cls-2" d="M129.48,170.62a4.26,4.26,0,0,0-3.12,2.16c-3.83-7.52-9.27-12.14-14.89-11.63a11.39,11.39,0,0,0-7.61,4.34s0,0,0,0c-3.23-11.34-9-19.37-14.8-19.37-3.27,0-6,2.6-7.82,6.94-4.38-7.63-9.71-12.31-15-12.31-6.56,0-11.55,7.19-13.88,18.25-2.22-3.21-4.76-5.11-7.29-5.11-3.5,0-6.2,3.64-7.58,9.34a6.07,6.07,0,0,0-.94.08c-5.62.95-9.82,8.32-9.71,16.74h109.4C135.46,174.49,132.55,170.34,129.48,170.62Z" transform="translate(0 -3.95)"/><circle class="cls-3" cx="189.13" cy="92.38" r="23.46" transform="translate(-16.16 41.97) rotate(-13.28)"/><path class="cls-1" d="M232.07,43.42c-.87-2.6-3.66-4.37-7.52-4.37-5,0-10.12,3-12.15,6.9a6,6,0,0,0-2.52-.5c-3.42,0-6.9,2.26-7.79,5a4.45,4.45,0,0,0-.17.77h33.62a6.93,6.93,0,0,0,.92-1.82C237.43,46.4,235.5,43.87,232.07,43.42Z" transform="translate(0 -3.95)"/><path class="cls-3" d="M40.67,100.78c.64-1.92,2.71-3.23,5.57-3.23a10.56,10.56,0,0,1,9,5.11,4.49,4.49,0,0,1,1.87-.37c2.53,0,5.11,1.67,5.77,3.74a2.9,2.9,0,0,1,.12.57H38.1a4.76,4.76,0,0,1-.68-1.35C36.7,103,38.13,101.12,40.67,100.78Z" transform="translate(0 -3.95)"/><path class="cls-3" d="M194,16.15a8.68,8.68,0,0,1,6-2.55c2.92,0,4.8,1.74,4.53,4a5.27,5.27,0,0,1,1.66-.29c2,0,3.19,1.32,2.68,3a2.25,2.25,0,0,1-.19.45H189.07a2.87,2.87,0,0,1,.14-1.06A5.83,5.83,0,0,1,194,16.15Z" transform="translate(0 -3.95)"/><path class="cls-3" d="M86.8,21.1a5.56,5.56,0,0,1,3.83-1.62c1.87,0,3.06,1.11,2.89,2.57a3.2,3.2,0,0,1,1.06-.19c1.27,0,2,.84,1.71,1.88a1.78,1.78,0,0,1-.12.29H83.65a1.64,1.64,0,0,1,.09-.68A3.72,3.72,0,0,1,86.8,21.1Z" transform="translate(0 -3.95)"/><path class="cls-1" d="M78.67,65.23a6,6,0,0,0-.74,0c-.5-2.16-2.67-3.67-5.75-3.67a10.32,10.32,0,0,0-2.47.31c-.79-2.76-3.66-4.65-7.68-4.65-4.9,0-9.9,2.82-12.08,6.58-3,.49-5.78,2.55-6.56,5a3.66,3.66,0,0,0-.18.78h39.4v0C83.39,67.19,81.61,65.23,78.67,65.23Z" transform="translate(0 -3.95)"/><polygon class="cls-4" points="156.63 121.78 159.48 120.01 162.34 122.35 161.8 176.09 157.15 176.09 156.63 121.78"/><polygon class="cls-4" points="144.96 123.61 142.1 120.01 139.24 122.35 139.78 176.09 144.43 176.09 144.96 123.61"/><polygon class="cls-4" points="127.57 121.78 124.72 120.01 121.85 122.35 122.39 176.09 127.04 176.09 127.57 121.78"/><polygon class="cls-4" points="104.46 123.61 107.31 120.01 110.18 122.35 109.64 176.09 104.99 176.09 104.46 123.61"/><polygon class="cls-4" points="226.18 121.78 229.03 120.01 231.9 122.35 231.35 176.09 226.7 176.09 226.18 121.78"/><polygon class="cls-4" points="214.51 123.61 211.66 120.01 208.79 122.35 209.33 176.09 213.98 176.09 214.51 123.61"/><polygon class="cls-4" points="197.12 121.78 194.27 120.01 191.4 122.35 191.94 176.09 196.59 176.09 197.12 121.78"/><polygon class="cls-4" points="174.01 123.61 176.87 120.01 179.73 122.35 179.19 176.09 174.54 176.09 174.01 123.61"/><polygon class="cls-4" points="102.61 135.99 237.04 136.05 236.91 134.29 102.61 133.99 102.61 135.99"/><ellipse id="_Path_" data-name="&lt;Path&gt;" class="cls-3" cx="134.44" cy="194.29" rx="104.27" ry="6.09"/><rect class="cls-5" x="177.26" y="112.48" width="0.54" height="9.62"/><rect class="cls-5" x="177.26" y="106.15" width="0.54" height="3.23"/><path class="cls-5" d="M174.12,21.91h0a1.79,1.79,0,0,0-1.79,1.79V196.42a.87.87,0,0,0,.88.87H175a.88.88,0,0,0,.88-.87V23.7A1.8,1.8,0,0,0,174.12,21.91Z" transform="translate(0 -3.95)"/><polygon class="cls-6" points="172.33 39.95 172.33 42.23 174.12 39.95 172.33 39.95"/><polygon class="cls-6" points="175.92 58.58 175.92 60.86 174.12 58.58 175.92 58.58"/><polygon class="cls-6" points="175.92 95.84 175.92 98.12 174.12 95.84 175.92 95.84"/><polygon class="cls-6" points="172.33 77.21 172.33 79.49 174.12 77.21 172.33 77.21"/><polygon class="cls-5" points="174.12 39.95 136.34 39.95 132.53 32.54 136.34 25.13 174.12 25.13 174.12 39.95"/><polygon class="cls-7" points="137 38.87 133.74 32.54 137 26.2 173.05 26.2 173.05 38.87 137 38.87"/><polygon class="cls-5" points="174.12 58.58 192.98 58.58 196.79 51.17 192.98 43.76 174.12 43.76 174.12 58.58"/><polygon class="cls-7" points="192.32 57.5 195.58 51.17 192.32 44.83 175.2 44.83 175.2 57.5 192.32 57.5"/><polygon class="cls-5" points="174.12 77.21 146.92 77.21 143.11 69.8 146.92 62.39 174.12 62.39 174.12 77.21"/><polygon class="cls-7" points="147.57 76.13 144.32 69.8 147.57 63.46 173.05 63.46 173.05 76.13 147.57 76.13"/><polygon class="cls-5" points="174.12 95.84 200.33 95.84 204.14 88.43 200.33 81.02 174.12 81.02 174.12 95.84"/><polygon class="cls-7" points="199.67 94.76 202.93 88.43 199.67 82.09 175.2 82.09 175.2 94.76 199.67 94.76"/><polygon class="cls-8" points="118.69 187.22 122.51 185.59 119.75 176.32 115.93 177.95 118.69 187.22"/><polygon class="cls-8" points="87.21 189.1 91.36 189.1 91.57 179.49 87.42 179.49 87.21 189.1"/><path class="cls-9" d="M91.92,192.58H86.86a.35.35,0,0,0-.35.28l-.82,3.69a.62.62,0,0,0,.61.74c1.62,0,2.81-.13,4.86-.13,1.27,0,5.07.13,6.81.13s2-1.72,1.26-1.87c-3.2-.7-5.61-1.67-6.63-2.59A1.06,1.06,0,0,0,91.92,192.58Z" transform="translate(0 -3.95)"/><path class="cls-9" d="M122.42,189l-4.1,1.93a.39.39,0,0,0-.2.41L119,195a.61.61,0,0,0,.86.41c1.46-.73,3.56-1.82,5.42-2.7,2.17-1,2.24-1,4.78-2.23,1.54-.73,1.23-2.49.52-2.33-3.24.75-3.8,1-7.08.68A1.85,1.85,0,0,0,122.42,189Z" transform="translate(0 -3.95)"/><path class="cls-8" d="M99.38,61.39l1.71.42c.59.14,1.18.27,1.77.38a31.11,31.11,0,0,0,3.41.49,11.24,11.24,0,0,0,1.51,0,5.1,5.1,0,0,0,1-.13c.08,0,.07,0,0,.06a.91.91,0,0,0-.22.39c0,.15,0,.22,0,.18a.76.76,0,0,0,0-.3,9.29,9.29,0,0,0-1.22-2.63,35.13,35.13,0,0,0-2.09-2.91c-1.53-1.92-3.23-3.84-4.93-5.69l1.95-2.43a44,44,0,0,1,6.45,4.87,30.13,30.13,0,0,1,2.9,3A13.25,13.25,0,0,1,114,61.37a7,7,0,0,1,.32,1.6,5.37,5.37,0,0,1-.27,2.1,5.07,5.07,0,0,1-1.3,2,6.16,6.16,0,0,1-1.64,1.08,9.43,9.43,0,0,1-2.8.71,16,16,0,0,1-2.37.07,29,29,0,0,1-4.28-.49c-.69-.14-1.37-.28-2-.44s-1.32-.34-2-.57Z" transform="translate(0 -3.95)"/><path class="cls-9" d="M93.63,63.12c2.16-3.33,13.79-.88,13.79-.88l.67,10.07a94.45,94.45,0,0,0-9.52-.91C95.29,71.25,90.93,67.26,93.63,63.12Z" transform="translate(0 -3.95)"/><path class="cls-8" d="M101,52.1,97.06,50l3.79-3a4.47,4.47,0,0,1,2,3Z" transform="translate(0 -3.95)"/><polygon class="cls-8" points="94.68 43.89 98.48 41.53 100.85 43.09 97.06 46.06 94.68 43.89"/><polygon class="cls-6" points="119.75 176.32 121.17 181.1 117.35 182.73 115.93 177.95 119.75 176.32"/><polygon class="cls-6" points="87.42 179.5 91.57 179.5 91.46 184.45 87.31 184.45 87.42 179.5"/><path class="cls-5" d="M83.91,72.22l-5.06,7.3a3,3,0,0,0-.53,1.57l-.4,9.69a3,3,0,0,0,.66,2l2.2,2.73a3,3,0,0,0,2.48,1.1l6.66-.37a3,3,0,0,0,2.81-3l-.06-19.44a3,3,0,0,0-3-3l-3.35.09A3,3,0,0,0,83.91,72.22Z" transform="translate(0 -3.95)"/><path class="cls-10" d="M83.91,72.22l-5.06,7.3a3,3,0,0,0-.53,1.57l-.4,9.69a3,3,0,0,0,.66,2l2.2,2.73a3,3,0,0,0,2.48,1.1l6.66-.37a3,3,0,0,0,2.81-3l-.06-19.44a3,3,0,0,0-3-3l-3.35.09A3,3,0,0,0,83.91,72.22Z" transform="translate(0 -3.95)"/><rect class="cls-5" x="79.91" y="59.65" width="20.52" height="10" rx="5" transform="translate(-1.73 -1.46) rotate(-1.57)"/><rect class="cls-10" x="79.91" y="59.65" width="20.52" height="10" rx="5" transform="translate(-1.73 -1.46) rotate(-1.57)"/><path class="cls-9" d="M79.34,62.55a93,93,0,0,1,2.36,13.7c.33,3.23.5,6.3.59,9.09.22,6.53,0,11.5.13,13.18l22.18-1.09c.65-32.62-2-35.82-2-35.82a44.18,44.18,0,0,0-5.29-.77q-.57,0-1.14-.06a81.54,81.54,0,0,0-9.43.46c-.6.06-1.2.13-1.78.22C82,61.88,79.34,62.55,79.34,62.55Z" transform="translate(0 -3.95)"/><path class="cls-11" d="M101.56,72.5a27.7,27.7,0,0,0-16,1.21l-.45-1.55A29.26,29.26,0,0,1,102,70.88C101.85,71.42,101.71,72,101.56,72.5Z" transform="translate(0 -3.95)"/><path class="cls-6" d="M84.81,68.63a17.45,17.45,0,0,1-2.93,9.54q-.07-.94-.18-1.92c-.24-2.42-.57-4.93-1-7.46Z" transform="translate(0 -3.95)"/><path class="cls-7" d="M97.91,60.9l-.62,0c-.38,0-.76-.06-1.14-.07a81.65,81.65,0,0,0-9.43.46c-.59.06-1.19.14-1.78.22h0l.43.66c.65,1,2.75,3.49,8.11,4l.52,0,.44-.25c1.15-.66,3-2.24,3.44-3.93A2.77,2.77,0,0,0,97.91,60.9Z" transform="translate(0 -3.95)"/><path class="cls-9" d="M83.68,44.24c-2.09-1-4.47,2-3.76,3.84a2.84,2.84,0,0,1,2.83,1.11,3.7,3.7,0,0,0-.56,3.57c1.7-1,3.44.42,3.44.42a2.71,2.71,0,0,0,.64,3c.45-1.22,2.15-.12,2.84-1.09a2.85,2.85,0,0,0-.17-3.24L88.47,51C88.14,47.35,86.94,45.86,83.68,44.24Z" transform="translate(0 -3.95)"/><path class="cls-8" d="M87.13,50.58c.74,3,1.61,8.53-.41,10.66.84,1.33,3,2.86,6.87,3.2,1.37-.78,3.19-2.68,2.56-3.67-3.43-.64-3.46-3.15-3-5.53Z" transform="translate(0 -3.95)"/><path class="cls-11" d="M97.76,61c.24,2,2,15.42,6.62,21.16a.27.27,0,0,0,.48-.17V79.51a.17.17,0,0,0,0-.07,93.25,93.25,0,0,1-2.83-18,.26.26,0,0,0-.13-.23A8.25,8.25,0,0,0,98,60.71.27.27,0,0,0,97.76,61Z" transform="translate(0 -3.95)"/><path class="cls-6" d="M89.59,52.48l3.57,2.75A9.08,9.08,0,0,0,93,56.92c-1.3-.12-3.15-1.45-3.35-2.8A4.45,4.45,0,0,1,89.59,52.48Z" transform="translate(0 -3.95)"/><path class="cls-9" d="M94.54,45.62c1.12.11,2.75-3.61.89-6.26-1.71-2.45-5.09.09-5.52.55S90.55,45.2,94.54,45.62Z" transform="translate(0 -3.95)"/><path class="cls-8" d="M85.18,46.55c1,4,1.44,6.37,3.88,8.05,3.68,2.51,8.3-.31,8.47-4.52.16-3.8-1.55-9.68-5.82-10.52A5.62,5.62,0,0,0,85.18,46.55Z" transform="translate(0 -3.95)"/><path class="cls-9" d="M87,49.72c1.11.11,1.5-5,.89-6.26s-5.21,0-5.52.55C80.54,47,83,49.31,87,49.72Z" transform="translate(0 -3.95)"/><path class="cls-9" d="M96,37.3c-.16-1.54-2-2.36-3.91-2.15-.09,1.14-2,2-2,2A4.85,4.85,0,0,0,86,36.2a4.14,4.14,0,0,1-1.49,3,3.28,3.28,0,0,0-3.4.89c1.39.65-.87,2.1.39,3.71,1.43,1.82,4,.79,4,.79l1.08-.57C91.81,43.46,96.38,41.33,96,37.3Z" transform="translate(0 -3.95)"/><path class="cls-9" d="M95.56,50.39h0a8.66,8.66,0,0,1-2.67,1.29.1.1,0,0,1-.13-.09.13.13,0,0,1,.11-.13,8.66,8.66,0,0,0,2.57-1.24.1.1,0,0,1,.15,0A.11.11,0,0,1,95.56,50.39Z" transform="translate(0 -3.95)"/><path class="cls-8" d="M84.23,50.91A3.92,3.92,0,0,0,87,52.14c1.38,0,1.73-1.28,1.06-2.4S86,47.5,84.74,48A1.77,1.77,0,0,0,84.23,50.91Z" transform="translate(0 -3.95)"/><path class="cls-11" d="M113.35,142.59c-2.18-12.48-8.75-45.16-8.75-45.16L90,98.15s10,36.64,12.88,47.28,12.89,41,12.89,41l6.35-3S115.62,155.56,113.35,142.59Z" transform="translate(0 -3.95)"/><path class="cls-6" d="M95.94,110.47l-2,1.85c1.75,6.47,3.84,14.13,5.64,20.72C100,125.59,99.11,114.4,95.94,110.47Z" transform="translate(0 -3.95)"/><path class="cls-11" d="M98.48,97.73s-2.91,34.73-3.28,46.89c-.41,13.31-1.76,42.82-1.76,42.82h-7.6s-1.17-27-1.43-40.06c-.29-14.78-2-48.85-2-48.85Z" transform="translate(0 -3.95)"/><polygon class="cls-9" points="93.74 183.65 85.39 183.65 85.02 180.98 94.42 180.81 93.74 183.65"/><polygon class="cls-9" points="122.61 179.46 115.44 182.85 113.9 180.44 122.07 176.56 122.61 179.46"/><path class="cls-9" d="M91.52,46.48c.07.33.29.56.51.52s.34-.34.27-.67-.29-.56-.5-.52S91.46,46.15,91.52,46.48Z" transform="translate(0 -3.95)"/><path class="cls-9" d="M95.24,45.76c.06.33.29.56.5.52s.34-.34.28-.67-.29-.56-.51-.52S95.17,45.43,95.24,45.76Z" transform="translate(0 -3.95)"/><path class="cls-12" d="M94.09,46.15a12.18,12.18,0,0,0,2.12,2.51,1.9,1.9,0,0,1-1.58.52Z" transform="translate(0 -3.95)"/><path class="cls-9" d="M92.06,44.57a.24.24,0,0,0-.2.06,1.58,1.58,0,0,1-1.3.57.2.2,0,0,0-.23.16.21.21,0,0,0,.17.23,2,2,0,0,0,1.66-.7.19.19,0,0,0,0-.27Z" transform="translate(0 -3.95)"/><path class="cls-9" d="M96.63,42.76a.2.2,0,0,0,.1-.07.19.19,0,0,0,0-.27A2,2,0,0,0,94.94,42a.2.2,0,0,0-.12.25.19.19,0,0,0,.24.13h0a1.57,1.57,0,0,1,1.39.31A.2.2,0,0,0,96.63,42.76Z" transform="translate(0 -3.95)"/><path class="cls-5" d="M93.3,193.3a1.21,1.21,0,0,0,.79-.21.61.61,0,0,0,.21-.52.33.33,0,0,0-.17-.28c-.46-.24-1.8.59-1.95.68a.1.1,0,0,0,0,.1.08.08,0,0,0,.07.08A4.86,4.86,0,0,0,93.3,193.3Zm.61-.86a.25.25,0,0,1,.13,0s.06,0,.06.11a.4.4,0,0,1-.13.36,2,2,0,0,1-1.48.07A4,4,0,0,1,93.91,192.44Z" transform="translate(0 -3.95)"/><path class="cls-5" d="M92.23,193.15h0c.43-.23,1.26-1.14,1.17-1.6,0-.09-.08-.23-.31-.26a.52.52,0,0,0-.42.13c-.48.39-.58,1.59-.59,1.64a.12.12,0,0,0,.05.09Zm.84-1.68h0c.13,0,.14.08.15.1,0,.28-.48,1-.91,1.29a2.44,2.44,0,0,1,.49-1.3A.37.37,0,0,1,93.07,191.47Z" transform="translate(0 -3.95)"/><path class="cls-5" d="M123,189.34h0c.66-.17,1.81-.53,2-1.09a.54.54,0,0,0,0-.51.33.33,0,0,0-.26-.17c-.57,0-1.72,1.44-1.85,1.61a.11.11,0,0,0,0,.12A.11.11,0,0,0,123,189.34Zm1.73-1.57h0a.12.12,0,0,1,.11.07.37.37,0,0,1,0,.34c-.13.31-.73.64-1.62.89C123.75,188.5,124.43,187.79,124.76,187.77Z" transform="translate(0 -3.95)"/><path class="cls-5" d="M123,189.34a.09.09,0,0,0,.07,0c.36-.42.87-1.66.6-2.05-.06-.09-.19-.18-.45-.09a.75.75,0,0,0-.42.38,2.91,2.91,0,0,0,.1,1.73.1.1,0,0,0,.08.06Zm.4-2a.11.11,0,0,1,.11,0c.16.24-.15,1.16-.48,1.66a2.33,2.33,0,0,1,0-1.39.55.55,0,0,1,.31-.29Z" transform="translate(0 -3.95)"/><path class="cls-8" d="M83.69,68.72l-1.2,1.65c-.41.56-.81,1.14-1.2,1.71-.79,1.15-1.55,2.32-2.29,3.49s-1.42,2.36-2.07,3.56-1.2,2.4-1.68,3.61c0,0,0,.05,0,0h0s0,0,0,0,0,0,0,0,0,0,0,.09a.28.28,0,0,1,0,.09s0,.08,0,.13v.13l0,.17a8,8,0,0,0,.46,1.56,27.92,27.92,0,0,0,1.77,3.55c.69,1.19,1.44,2.38,2.22,3.56s1.6,2.38,2.4,3.53l-2.29,2.12a49.71,49.71,0,0,1-6.25-6.55,27.72,27.72,0,0,1-2.63-4,13.75,13.75,0,0,1-1-2.53l-.1-.36-.07-.41c0-.14,0-.26-.07-.41l0-.46a6.67,6.67,0,0,1,0-1,4,4,0,0,1,.1-.55l.07-.29a1.87,1.87,0,0,1,.06-.22,42.49,42.49,0,0,1,3.78-8.54q1.14-2,2.41-3.87c.42-.62.86-1.24,1.3-1.85s.89-1.21,1.41-1.85Z" transform="translate(0 -3.95)"/><path class="cls-9" d="M79.34,62.55c-3.9.71-7.51,10.15-7.51,10.15l8,6.78s2.75-4.79,5-9.41C87.22,65,84.07,61.69,79.34,62.55Z" transform="translate(0 -3.95)"/><path class="cls-8" d="M80.45,95l4.18-.52L83,99.54s-3.66-.34-3.69-2.3Z" transform="translate(0 -3.95)"/><polygon class="cls-8" points="87.62 92.3 86.1 96.42 83.03 95.59 84.63 90.54 87.62 92.3"/><path class="cls-11" d="M81.88,62.14c.46,2.25,2.4,13,.11,21.67v0a9.84,9.84,0,0,0,.11,1.55.2.2,0,0,0,.34.11c1.12-.92,5.26-4.91,5.29-13.47,0-6.81-1-9.81-1.43-10.7a.44.44,0,0,0-.48-.25l-3.57.55A.43.43,0,0,0,81.88,62.14Z" transform="translate(0 -3.95)"/></g></svg>
