<svg width="340" height="135" viewBox="0 0 340 135" fill="none" xmlns="http://www.w3.org/2000/svg">
<rect y="1.14441e-05" width="340" height="135" rx="2" fill="#F8F8F8"/>
<path fill-rule="evenodd" clip-rule="evenodd" d="M310.5 56.0516C311.167 55.6667 311.167 54.7045 310.5 54.3196L304.5 50.8555C303.833 50.4706 303 50.9517 303 51.7215L303 54.1856L30 54.1856C29.4477 54.1856 29 54.6333 29 55.1856C29 55.7379 29.4477 56.1856 30 56.1856L303 56.1856L303 58.6497C303 59.4195 303.833 59.9006 304.5 59.5157L310.5 56.0516Z" fill="#1D8278"/>
<path d="M51.06 32.68L49.63 33.6L49 32.57L51.18 31.12H52.44V37.72H51.06V32.68Z" fill="#072B61"/>
<path d="M102 36.55L103.41 35.12C103.777 34.74 104.05 34.4433 104.23 34.23C104.41 34.0167 104.54 33.82 104.62 33.64C104.707 33.46 104.75 33.2667 104.75 33.06C104.75 32.76 104.67 32.5467 104.51 32.42C104.357 32.2867 104.123 32.22 103.81 32.22C103.37 32.22 102.883 32.26 102.35 32.34L102.11 32.37L102.04 31.3C102.693 31.1 103.37 31 104.07 31C105.47 31 106.17 31.63 106.17 32.89C106.17 33.2233 106.123 33.52 106.03 33.78C105.943 34.0333 105.793 34.2933 105.58 34.56C105.373 34.82 105.077 35.1267 104.69 35.48L103.54 36.52H106.28V37.72H102V36.55Z" fill="#072B61"/>
<path d="M157.12 37.84C156.6 37.84 156 37.7533 155.32 37.58L155 37.5L155.07 36.45C155.803 36.5767 156.397 36.64 156.85 36.64C157.237 36.64 157.52 36.5733 157.7 36.44C157.887 36.3 157.98 36.0933 157.98 35.82C157.98 35.54 157.893 35.3267 157.72 35.18C157.547 35.0267 157.313 34.95 157.02 34.95H155.69V33.81H157.02C157.24 33.81 157.433 33.7167 157.6 33.53C157.773 33.3433 157.86 33.1267 157.86 32.88C157.86 32.6467 157.77 32.4767 157.59 32.37C157.417 32.2567 157.14 32.2 156.76 32.2C156.447 32.2 155.993 32.2467 155.4 32.34L155.14 32.38L155.05 31.36C155.663 31.12 156.337 31 157.07 31C157.837 31 158.397 31.1433 158.75 31.43C159.103 31.71 159.28 32.1567 159.28 32.77C159.28 33.13 159.217 33.43 159.09 33.67C158.97 33.9033 158.777 34.1133 158.51 34.3C158.743 34.4267 158.92 34.5467 159.04 34.66C159.167 34.7733 159.257 34.9167 159.31 35.09C159.37 35.2567 159.4 35.48 159.4 35.76C159.4 36.4667 159.217 36.99 158.85 37.33C158.49 37.67 157.913 37.84 157.12 37.84Z" fill="#072B61"/>
<path d="M210.8 36.63H208V35.58L209.63 31.12H211.15L209.38 35.43H210.8V33.58H212.18V35.43H212.81V36.63H212.18V37.72H210.8V36.63Z" fill="#072B61"/>
<path d="M263.34 37.84C263.053 37.84 262.713 37.81 262.32 37.75C261.933 37.6967 261.613 37.6334 261.36 37.56L261 37.47L261.15 36.45C261.937 36.5767 262.61 36.64 263.17 36.64C263.497 36.64 263.747 36.5534 263.92 36.38C264.093 36.2067 264.18 35.9567 264.18 35.63C264.18 35.0167 263.9 34.71 263.34 34.71C262.88 34.71 262.487 34.7534 262.16 34.84L262.01 34.88L261.19 34.69L261.37 31.12H265.4V32.32H262.45L262.28 33.75C262.693 33.59 263.087 33.51 263.46 33.51C264.887 33.51 265.6 34.1734 265.6 35.5C265.6 36.2467 265.403 36.8234 265.01 37.23C264.617 37.6367 264.06 37.84 263.34 37.84Z" fill="#072B61"/>
<circle cx="51.5" cy="55.22" r="3.5" fill="#1BBC9B"/>
<circle cx="104.5" cy="55.22" r="3.5" fill="#1BBC9B"/>
<circle cx="157.5" cy="55.22" r="3.5" fill="#1BBC9B"/>
<circle cx="210.5" cy="55.22" r="3.5" fill="#1BBC9B"/>
<circle cx="263.5" cy="55.22" r="3.5" fill="#1BBC9B"/>
<path d="M50.4345 48.47C50.8194 49.1367 51.7817 49.1367 52.1666 48.47L53.4656 46.22C53.8505 45.5533 53.3694 44.72 52.5996 44.72H50.0015C49.2317 44.72 48.7506 45.5533 49.1355 46.22L50.4345 48.47Z" fill="#8ECFC2"/>
<path d="M103.435 48.47C103.819 49.1367 104.782 49.1367 105.167 48.47L106.466 46.22C106.85 45.5533 106.369 44.72 105.6 44.72H103.001C102.232 44.72 101.751 45.5533 102.135 46.22L103.435 48.47Z" fill="#8ECFC2"/>
<path d="M156.435 48.47C156.819 49.1367 157.782 49.1367 158.167 48.47L159.466 46.22C159.85 45.5533 159.369 44.72 158.6 44.72H156.001C155.232 44.72 154.751 45.5533 155.135 46.22L156.435 48.47Z" fill="#8ECFC2"/>
<path d="M209.435 48.47C209.819 49.1367 210.782 49.1367 211.167 48.47L212.466 46.22C212.85 45.5533 212.369 44.72 211.6 44.72H209.001C208.232 44.72 207.751 45.5533 208.135 46.22L209.435 48.47Z" fill="#8ECFC2"/>
<path d="M262.435 48.47C262.819 49.1367 263.782 49.1367 264.167 48.47L265.466 46.22C265.85 45.5534 265.369 44.72 264.6 44.72H262.001C261.232 44.72 260.751 45.5534 261.135 46.22L262.435 48.47Z" fill="#8ECFC2"/>
</svg>
