<svg viewBox="0 0 282 29" fill="none" xmlns="http://www.w3.org/2000/svg">
<path fill-rule="evenodd" clip-rule="evenodd" d="M281.5 25.0516C282.167 24.6667 282.167 23.7045 281.5 23.3196L275.5 19.8555C274.833 19.4706 274 19.9517 274 20.7215L274 23.1856L1 23.1856C0.447723 23.1856 -1.71057e-07 23.6333 -1.95198e-07 24.1856C-2.19339e-07 24.7379 0.447723 25.1856 1 25.1856L274 25.1856L274 27.6497C274 28.4195 274.833 28.9006 275.5 28.5157L281.5 25.0516Z" fill="#1D8278"/>
<path d="M22.06 1.68004L20.63 2.60004L20 1.57004L22.18 0.120041H23.44V6.72004H22.06V1.68004Z" fill="#072B61"/>
<path d="M73 5.55002L74.41 4.12002C74.7767 3.74002 75.05 3.44335 75.23 3.23002C75.41 3.01668 75.54 2.82002 75.62 2.64002C75.7067 2.46002 75.75 2.26668 75.75 2.06002C75.75 1.76002 75.67 1.54668 75.51 1.42002C75.3567 1.28668 75.1233 1.22002 74.81 1.22002C74.37 1.22002 73.8833 1.26002 73.35 1.34002L73.11 1.37002L73.04 0.300016C73.6933 0.100015 74.37 1.52588e-05 75.07 1.52588e-05C76.47 1.52588e-05 77.17 0.630015 77.17 1.89002C77.17 2.22335 77.1233 2.52002 77.03 2.78002C76.9433 3.03335 76.7933 3.29335 76.58 3.56002C76.3733 3.82002 76.0767 4.12668 75.69 4.48002L74.54 5.52002H77.28V6.72002H73V5.55002Z" fill="#072B61"/>
<path d="M128.12 6.84002C127.6 6.84002 127 6.75335 126.32 6.58002L126 6.50002L126.07 5.45002C126.803 5.57668 127.397 5.64002 127.85 5.64002C128.237 5.64002 128.52 5.57335 128.7 5.44002C128.887 5.30002 128.98 5.09335 128.98 4.82002C128.98 4.54002 128.893 4.32668 128.72 4.18002C128.547 4.02668 128.313 3.95002 128.02 3.95002H126.69V2.81002H128.02C128.24 2.81002 128.433 2.71668 128.6 2.53002C128.773 2.34335 128.86 2.12668 128.86 1.88002C128.86 1.64668 128.77 1.47668 128.59 1.37002C128.417 1.25668 128.14 1.20002 127.76 1.20002C127.447 1.20002 126.993 1.24668 126.4 1.34002L126.14 1.38002L126.05 0.360015C126.663 0.120015 127.337 1.52588e-05 128.07 1.52588e-05C128.837 1.52588e-05 129.397 0.143349 129.75 0.430016C130.103 0.710016 130.28 1.15668 130.28 1.77002C130.28 2.13002 130.217 2.43002 130.09 2.67002C129.97 2.90335 129.777 3.11335 129.51 3.30002C129.743 3.42668 129.92 3.54668 130.04 3.66002C130.167 3.77335 130.257 3.91668 130.31 4.09002C130.37 4.25668 130.4 4.48002 130.4 4.76002C130.4 5.46668 130.217 5.99002 129.85 6.33002C129.49 6.67002 128.913 6.84002 128.12 6.84002Z" fill="#072B61"/>
<path d="M181.8 5.63004H179V4.58004L180.63 0.120041H182.15L180.38 4.43004H181.8V2.58004H183.18V4.43004H183.81V5.63004H183.18V6.72004H181.8V5.63004Z" fill="#072B61"/>
<path d="M234.34 6.84005C234.053 6.84005 233.713 6.81005 233.32 6.75005C232.933 6.69672 232.613 6.63338 232.36 6.56005L232 6.47005L232.15 5.45005C232.937 5.57672 233.61 5.64005 234.17 5.64005C234.497 5.64005 234.747 5.55338 234.92 5.38005C235.093 5.20672 235.18 4.95672 235.18 4.63005C235.18 4.01672 234.9 3.71005 234.34 3.71005C233.88 3.71005 233.487 3.75338 233.16 3.84005L233.01 3.88005L232.19 3.69005L232.37 0.120049H236.4V1.32005H233.45L233.28 2.75005C233.693 2.59005 234.087 2.51005 234.46 2.51005C235.887 2.51005 236.6 3.17338 236.6 4.50005C236.6 5.24672 236.403 5.82338 236.01 6.23005C235.617 6.63672 235.06 6.84005 234.34 6.84005Z" fill="#072B61"/>
<circle cx="22.5" cy="24.22" r="3.5" fill="#1BBC9B"/>
<circle cx="75.5" cy="24.22" r="3.5" fill="#1BBC9B"/>
<circle cx="128.5" cy="24.22" r="3.5" fill="#1BBC9B"/>
<circle cx="181.5" cy="24.22" r="3.5" fill="#1BBC9B"/>
<circle cx="234.5" cy="24.22" r="3.5" fill="#1BBC9B"/>
<path d="M21.4345 17.47C21.8194 18.1367 22.7817 18.1367 23.1666 17.47L24.4656 15.22C24.8505 14.5533 24.3694 13.72 23.5996 13.72H21.0015C20.2317 13.72 19.7506 14.5533 20.1355 15.22L21.4345 17.47Z" fill="#8ECFC2"/>
<path d="M74.4345 17.47C74.8194 18.1367 75.7817 18.1367 76.1666 17.47L77.4656 15.22C77.8505 14.5533 77.3694 13.72 76.5996 13.72H74.0015C73.2317 13.72 72.7506 14.5533 73.1355 15.22L74.4345 17.47Z" fill="#8ECFC2"/>
<path d="M127.435 17.47C127.819 18.1367 128.782 18.1367 129.167 17.47L130.466 15.22C130.85 14.5533 130.369 13.72 129.6 13.72H127.001C126.232 13.72 125.751 14.5533 126.135 15.22L127.435 17.47Z" fill="#8ECFC2"/>
<path d="M180.435 17.47C180.819 18.1367 181.782 18.1367 182.167 17.47L183.466 15.22C183.85 14.5533 183.369 13.72 182.6 13.72H180.001C179.232 13.72 178.751 14.5533 179.135 15.22L180.435 17.47Z" fill="#8ECFC2"/>
<path d="M233.435 17.47C233.819 18.1367 234.782 18.1367 235.167 17.47L236.466 15.22C236.85 14.5534 236.369 13.72 235.6 13.72H233.001C232.232 13.72 231.751 14.5534 232.135 15.22L233.435 17.47Z" fill="#8ECFC2"/>
</svg>
