<svg width="538" height="595" viewBox="0 0 538 595" fill="none" xmlns="http://www.w3.org/2000/svg">
<path d="M695 6.10352e-05H0L695 595V6.10352e-05Z" fill="#6ACFBA"/>
<path d="M608 -2.99994L245 595H745L608 -2.99994Z" fill="#1BBC9B"/>
<path d="M442.918 531.434C442.975 531.431 443.032 531.441 443.084 531.464C443.277 531.555 443.197 531.971 443.197 532.157V534.363C443.197 534.459 441.395 534.65 441.197 534.67C440.492 534.74 439.784 534.781 439.075 534.787C437.923 534.799 436.782 534.754 435.639 534.536C434.424 534.305 433.234 533.97 432.021 533.76C430.173 533.441 428.287 533.416 426.432 533.687C426.354 533.698 425.673 533.775 425.279 533.848C425.245 533.855 425.21 533.854 425.176 533.845C425.143 533.837 425.112 533.821 425.085 533.799C425.058 533.777 425.037 533.749 425.022 533.717C425.008 533.686 425 533.651 425 533.617V531.238C425 531.184 425.019 531.131 425.054 531.089C425.089 531.047 425.137 531.018 425.19 531.008C425.609 530.926 426.034 530.856 426.465 530.798C428.561 530.524 430.686 530.56 432.772 530.903C433.699 531.054 434.587 531.333 435.507 531.504C436.431 531.674 437.368 531.77 438.307 531.79C439.798 531.821 441.289 531.709 442.758 531.455C442.811 531.445 442.864 531.438 442.918 531.434Z" fill="white"/>
<path d="M442.917 542.444C442.945 542.445 442.972 542.449 442.999 542.454C443.313 542.523 443.197 543.169 443.197 543.408V545.391C443.197 545.487 441.395 545.678 441.197 545.698C440.492 545.768 439.783 545.809 439.075 545.815C437.922 545.827 436.781 545.782 435.638 545.564C434.426 545.333 433.236 544.998 432.019 544.787C430.172 544.468 428.285 544.443 426.43 544.714C426.353 544.725 425.672 544.801 425.278 544.875C425.243 544.882 425.208 544.881 425.174 544.872C425.141 544.863 425.109 544.847 425.083 544.824C425.056 544.802 425.035 544.774 425.021 544.742C425.006 544.71 424.999 544.675 425 544.641V542.262C425 542.207 425.019 542.155 425.054 542.112C425.088 542.07 425.136 542.041 425.19 542.03C425.609 541.949 426.034 541.88 426.465 541.821C428.561 541.547 430.686 541.582 432.771 541.926C433.685 542.077 434.572 542.355 435.482 542.523C436.411 542.694 437.351 542.796 438.295 542.828C439.769 542.879 441.244 542.761 442.69 542.474C442.764 542.456 442.841 542.446 442.917 542.444Z" fill="white"/>
<path d="M442.917 553.701C442.966 553.704 443.014 553.716 443.059 553.735C443.297 553.84 443.199 554.204 443.199 554.418V556.624C443.199 556.72 441.397 556.912 441.199 556.932C440.494 557.001 439.785 557.037 439.077 557.049C437.924 557.06 436.783 557.015 435.64 556.798C434.428 556.566 433.238 556.231 432.021 556.021C430.796 555.808 429.552 555.726 428.309 555.774C427.681 555.799 427.054 555.857 426.432 555.947C426.355 555.959 425.674 556.035 425.28 556.11C425.246 556.116 425.211 556.115 425.177 556.107C425.143 556.098 425.112 556.082 425.085 556.06C425.058 556.038 425.037 556.01 425.022 555.979C425.007 555.947 425 555.913 425 555.878V553.501C425 553.446 425.019 553.393 425.053 553.351C425.088 553.308 425.136 553.28 425.19 553.269C425.609 553.187 426.034 553.117 426.465 553.06C428.561 552.784 430.685 552.817 432.771 553.159C433.686 553.308 434.561 553.578 435.468 553.751C436.386 553.924 437.317 554.024 438.25 554.049C439.721 554.086 441.192 553.976 442.641 553.722C442.732 553.704 442.824 553.697 442.917 553.701Z" fill="white"/>
<path d="M456.15 547.737L449.722 539.176H454.591L458.791 544.617L463.087 539.176H467.796L461.305 547.673L468.146 556.774H463.183L458.727 550.855L454.177 556.774H449.372L456.15 547.737Z" fill="white"/>
<path d="M471.103 541.468C472.8 539.791 474.996 538.953 477.69 538.953C480.363 538.953 482.528 539.797 484.187 541.483C485.845 543.17 486.672 545.371 486.669 548.085C486.674 548.499 486.652 548.913 486.605 549.325H472.952C473.162 550.599 473.74 551.596 474.686 552.317C475.633 553.037 476.816 553.398 478.234 553.399C480.271 553.399 481.968 552.752 483.325 551.457L485.526 554.194C483.722 556.061 481.207 556.995 477.982 556.994C475.096 556.994 472.805 556.182 471.108 554.56C469.412 552.937 468.563 550.737 468.563 547.959C468.562 545.308 469.408 543.144 471.103 541.468ZM482.524 546.528C482.354 545.276 481.834 544.279 480.965 543.536C480.095 542.794 479.012 542.422 477.717 542.422C476.423 542.422 475.346 542.794 474.486 543.536C473.626 544.279 473.103 545.276 472.915 546.528H482.524Z" fill="white"/>
<path d="M493.921 539.176V541.754C495.257 539.888 497.221 538.954 499.812 538.953C502.039 538.953 503.794 539.675 505.078 541.118C506.362 542.561 507.002 544.513 507 546.973V556.774H502.641V547.801C502.641 546.189 502.296 544.953 501.607 544.093C500.917 543.234 499.915 542.804 498.6 542.805C497.179 542.805 496.076 543.24 495.291 544.109C494.506 544.979 494.113 546.209 494.112 547.801V556.775H489.753V539.176H493.921Z" fill="white"/>
<path d="M426.179 561.863C426.958 561.08 427.968 560.688 429.211 560.688C430.491 560.688 431.495 561.096 432.22 561.912L431.601 562.515C430.987 561.871 430.201 561.549 429.242 561.549C428.269 561.549 427.48 561.863 426.873 562.492C426.267 563.12 425.964 563.931 425.964 564.923C425.964 565.919 426.267 566.727 426.873 567.348C427.48 567.969 428.269 568.28 429.242 568.281C430.192 568.281 430.979 567.962 431.601 567.326L432.22 567.918C431.495 568.734 430.488 569.142 429.2 569.142C427.965 569.142 426.956 568.749 426.174 567.963C425.391 567.177 425 566.162 425 564.917C425 563.668 425.393 562.65 426.179 561.863Z" fill="white"/>
<path d="M435.622 566.032C435.622 565.124 435.918 564.377 436.51 563.792C437.101 563.207 437.85 562.913 438.755 562.911C439.663 562.911 440.412 563.205 441.002 563.792C441.591 564.379 441.887 565.126 441.888 566.032C441.888 566.931 441.592 567.672 441.002 568.256C440.411 568.839 439.662 569.135 438.755 569.143C437.847 569.143 437.099 568.849 436.51 568.262C435.921 567.674 435.625 566.931 435.622 566.032ZM436.555 566.032C436.555 566.699 436.764 567.245 437.183 567.672C437.6 568.088 438.165 568.322 438.754 568.323C439.343 568.324 439.908 568.092 440.327 567.677C440.739 567.248 440.945 566.699 440.944 566.032C440.943 565.365 440.737 564.817 440.327 564.387C439.906 563.973 439.339 563.742 438.749 563.742C438.159 563.742 437.592 563.973 437.171 564.387C436.76 564.816 436.555 565.364 436.555 566.032Z" fill="white"/>
<path d="M446.639 562.964V564.109C447.103 563.308 447.84 562.908 448.851 562.908C449.619 562.908 450.224 563.149 450.665 563.632C451.105 564.114 451.324 564.778 451.321 565.622V569.08H450.4V565.805C450.4 565.138 450.251 564.63 449.951 564.278C449.651 563.927 449.221 563.752 448.66 563.754C448.038 563.754 447.552 563.943 447.199 564.321C446.847 564.699 446.673 565.225 446.676 565.899V569.087H445.755V562.968L446.639 562.964Z" fill="white"/>
<path d="M455.251 567.837L455.948 567.399C456.277 568.028 456.846 568.342 457.654 568.342C458.036 568.342 458.341 568.258 458.569 568.09C458.676 568.017 458.763 567.919 458.823 567.805C458.883 567.69 458.913 567.562 458.912 567.433C458.919 567.324 458.9 567.215 458.857 567.114C458.814 567.014 458.748 566.925 458.664 566.855C458.5 566.724 458.197 566.606 457.755 566.5L457.138 566.346C456.045 566.084 455.499 565.511 455.498 564.628C455.491 564.387 455.542 564.148 455.647 563.931C455.752 563.714 455.907 563.526 456.1 563.381C456.5 563.067 457.029 562.91 457.688 562.91C458.616 562.91 459.29 563.284 459.709 564.033L458.976 564.459C458.691 563.965 458.242 563.718 457.628 563.719C457.247 563.719 456.945 563.797 456.725 563.954C456.62 564.024 456.535 564.12 456.477 564.232C456.419 564.344 456.39 564.469 456.394 564.595C456.394 565.051 456.743 565.361 457.442 565.526L458.06 565.683C458.718 565.848 459.176 566.058 459.436 566.312C459.695 566.566 459.824 566.931 459.822 567.407C459.831 567.65 459.782 567.893 459.678 568.113C459.575 568.334 459.42 568.527 459.227 568.676C458.83 568.99 458.295 569.147 457.622 569.147C456.476 569.142 455.685 568.706 455.251 567.837Z" fill="white"/>
<path d="M463.594 566.433V562.964H464.515V566.254C464.515 566.912 464.659 567.418 464.948 567.77C465.235 568.121 465.653 568.294 466.199 568.294C466.798 568.294 467.27 568.105 467.614 567.727C467.959 567.35 468.131 566.824 468.131 566.15V562.964H469.052V569.083H468.169V567.931C467.72 568.739 466.997 569.143 466.002 569.143C465.253 569.143 464.665 568.902 464.239 568.419C463.812 567.936 463.597 567.274 463.594 566.433Z" fill="white"/>
<path d="M473.318 569.083V560.479H474.239V569.08L473.318 569.083Z" fill="white"/>
<path d="M478.058 562.964H479.125V561.549L480.056 561.46V562.964H482.134V563.738H480.056V567.411C480.056 567.74 480.142 567.98 480.315 568.13C480.487 568.279 480.756 568.354 481.123 568.354C481.464 568.348 481.804 568.299 482.134 568.208V568.949C481.763 569.077 481.373 569.141 480.981 569.14C480.382 569.14 479.923 568.996 479.605 568.707C479.288 568.419 479.129 568.005 479.129 567.467V563.738H478.058V562.964Z" fill="white"/>
<path d="M486.266 560.853C486.323 560.795 486.391 560.748 486.467 560.717C486.542 560.686 486.623 560.671 486.704 560.673C486.788 560.671 486.872 560.686 486.95 560.717C487.028 560.748 487.099 560.794 487.159 560.853C487.277 560.973 487.343 561.134 487.343 561.302C487.343 561.47 487.277 561.631 487.159 561.751C487.099 561.81 487.028 561.856 486.95 561.887C486.872 561.918 486.788 561.933 486.704 561.931C486.622 561.932 486.54 561.917 486.464 561.886C486.388 561.855 486.318 561.809 486.26 561.751C486.2 561.693 486.152 561.624 486.12 561.546C486.088 561.469 486.073 561.386 486.075 561.302C486.073 561.218 486.089 561.134 486.122 561.057C486.155 560.979 486.204 560.91 486.266 560.853ZM487.176 562.964V569.083H486.255V562.964H487.176Z" fill="white"/>
<path d="M492.33 562.964V564.109C492.794 563.308 493.531 562.908 494.542 562.908C495.31 562.908 495.915 563.149 496.356 563.632C496.796 564.114 497.015 564.778 497.012 565.622V569.08H496.091V565.805C496.091 565.138 495.942 564.63 495.642 564.278C495.342 563.927 494.912 563.752 494.351 563.754C493.73 563.754 493.244 563.943 492.892 564.321C492.539 564.699 492.365 565.225 492.368 565.899V569.087H491.447V562.968L492.33 562.964Z" fill="white"/>
<path d="M501.593 563.762C502.14 563.192 502.855 562.908 503.738 562.908C504.757 562.908 505.535 563.308 506.074 564.109V562.964H506.961V568.308C506.961 570.359 505.913 571.384 503.818 571.384C503.293 571.389 502.772 571.306 502.274 571.138C501.843 571 501.449 570.766 501.122 570.453L501.582 569.746C502.129 570.292 502.862 570.565 503.782 570.565C504.546 570.565 505.112 570.39 505.478 570.041C505.844 569.692 506.027 569.151 506.028 568.418V568.014C505.496 568.762 504.733 569.137 503.737 569.137C502.847 569.137 502.13 568.85 501.587 568.278C501.044 567.705 500.773 566.956 500.774 566.032C500.774 565.095 501.047 564.338 501.593 563.762ZM501.706 566.032C501.706 566.731 501.904 567.285 502.301 567.695C502.697 568.105 503.225 568.315 503.884 568.324C504.543 568.324 505.076 568.114 505.485 567.695C505.894 567.276 506.098 566.722 506.099 566.032C506.099 565.343 505.897 564.789 505.492 564.37C505.088 563.951 504.552 563.742 503.886 563.742C503.228 563.742 502.7 563.95 502.303 564.365C501.905 564.781 501.706 565.336 501.706 566.032Z" fill="white"/>
</svg>
